# Blender v2.82 (sub 7) OBJ File: ''
# www.blender.org
mtllib rune.mtl
o Rune_Cube.012
v -0.531647 0.003733 -0.511540
v -0.533011 0.000257 -0.512414
v -0.469329 0.005312 -0.520945
v -0.466726 -0.001321 -0.522612
v -0.531647 0.003733 -0.490829
v -0.533011 0.000257 -0.489955
v -0.469329 0.005312 -0.481424
v -0.466726 -0.001321 -0.479757
vt 0.039070 0.029316
vt 0.023437 0.977020
vt 0.138347 0.965301
vt 0.235000 0.068747
vt 0.052652 0.866377
vt 0.105519 0.862471
vt 0.185105 0.243309
vt 0.076948 0.243309
vt 0.979516 0.969933
vt 0.999443 -0.010746
vt 0.718527 -0.002461
vt 0.848668 0.992445
vt 0.077333 0.142915
vt 0.190506 0.156250
vt 0.816002 1.002461
vt 0.665895 -0.001201
vt 0.304805 0.005671
vt 0.189179 0.998647
vt 0.795712 0.030889
vt 0.862235 0.900855
vt 0.914063 0.895239
vt 0.964844 0.023437
vn -0.1469 0.2241 -0.9634
vn 0.9309 0.3653 0.0000
vn -0.1469 0.2241 0.9634
vn -0.9309 0.3652 0.0000
vn -0.0253 0.9997 0.0000
vn -0.0238 -0.9997 -0.0000
g Rune_Cube.012_Material.002
usemtl Material.002
s off
f 1/1/1 3/2/1 4/3/1 2/4/1
f 3/5/2 7/6/2 8/7/2 4/8/2
f 7/9/3 5/10/3 6/11/3 8/12/3
f 5/13/4 1/1/4 2/4/4 6/14/4
f 3/15/5 1/16/5 5/17/5 7/18/5
f 8/19/6 6/20/6 2/21/6 4/22/6
