# Blender v2.82 (sub 7) OBJ File: ''
# www.blender.org
mtllib DetectionSign_Exclamation.mtl
o CubeQB.001_Cube.001
v -1.141185 7.257625 5.430738
v -1.141185 7.257625 2.606301
v -1.141185 7.830014 2.606301
v -1.141185 8.068439 2.606301
v -1.141185 8.068439 5.430738
v -1.141185 10.160820 2.606302
v -1.141185 10.703587 2.606302
v -1.141185 10.703587 5.430738
v -1.141185 12.375891 2.606302
v -1.141185 12.375891 4.017027
v -1.141185 10.914388 5.430738
v -1.141185 10.703587 -1.479045
v -1.141185 10.703587 -2.256871
v -1.141185 10.703587 -2.739954
v -1.141185 12.375891 -2.739954
v -1.141185 12.375891 -1.479044
v -1.141185 8.068439 -2.739954
v -1.141185 8.068439 -5.564392
v -1.141185 10.703587 -5.564392
v -1.141185 10.195869 -2.739954
v -1.141185 10.984488 -5.564392
v -1.141185 12.375891 -4.149556
v -1.141185 10.703587 2.054244
v -1.141185 10.703587 1.345392
v -1.141185 12.375891 1.345393
v -1.141185 7.257625 2.089293
v -1.141185 5.610658 2.606301
v -1.141185 5.610658 1.826419
v -1.141185 5.610658 1.345392
v -1.141185 7.257625 1.345392
v -1.141185 5.610658 -1.479045
v -1.141185 5.902279 -1.479045
v -1.141185 7.257625 -0.153889
v -1.141185 3.319877 1.345392
v -1.141185 3.319877 -1.479045
v -1.141185 5.096137 1.345392
v -1.141185 0.010968 1.345392
v -1.141185 0.010968 -1.479045
v -1.141185 1.665421 -1.479045
v -1.141185 1.665422 1.345392
v -1.141185 5.610658 4.052077
v -1.141185 7.006345 5.430738
v 1.135108 7.257625 5.430738
v 1.135108 8.068439 5.430738
v 1.135108 8.068439 2.606301
v 1.135108 7.830014 2.606301
v 1.135108 7.257625 2.606301
v 1.135108 10.703587 5.430738
v 1.135108 10.703587 2.606302
v 1.135108 10.160820 2.606302
v 1.135108 10.914388 5.430738
v 1.135108 12.375891 4.017027
v 1.135108 12.375891 2.606302
v 1.135109 10.703587 -1.479045
v 1.135109 12.375891 -1.479044
v 1.135109 12.375891 -2.739954
v 1.135109 10.703587 -2.739954
v 1.135109 10.703587 -2.256871
v 1.135109 8.068439 -2.739954
v 1.135109 10.195869 -2.739954
v 1.135109 10.703587 -5.564392
v 1.135109 8.068439 -5.564392
v 1.135109 12.375891 -4.149556
v 1.135109 10.984488 -5.564392
v 1.135109 12.375891 1.345393
v 1.135109 10.703587 1.345392
v 1.135108 10.703587 2.054244
v 1.135108 7.257625 2.089293
v 1.135108 5.610658 2.606301
v 1.135109 7.257625 1.345392
v 1.135109 5.610658 1.345392
v 1.135108 5.610658 1.826419
v 1.135109 7.257625 -0.153889
v 1.135109 5.902279 -1.479045
v 1.135109 5.610658 -1.479045
v 1.135109 3.319877 1.345392
v 1.135109 5.096137 1.345392
v 1.135109 3.319877 -1.479045
v 1.135109 0.010968 1.345392
v 1.135109 1.665422 1.345392
v 1.135109 1.665421 -1.479045
v 1.135109 0.010968 -1.479045
v 1.135108 5.610658 4.052077
v 1.135108 7.006345 5.430738
vt 0.868501 0.716340
vt 0.858587 0.716340
vt 0.858587 0.682379
vt 0.861502 0.682379
vt 0.868501 0.682379
vt 0.826367 0.716340
vt 0.826367 0.682379
vt 0.833004 0.682379
vt 0.823790 0.716340
vt 0.805920 0.699342
vt 0.805920 0.682379
vt 0.826367 0.633256
vt 0.805920 0.633256
vt 0.805920 0.618094
vt 0.826367 0.618094
vt 0.826367 0.623903
vt 0.858587 0.618094
vt 0.832575 0.618094
vt 0.826367 0.584133
vt 0.858587 0.584133
vt 0.805920 0.601145
vt 0.822933 0.584133
vt 0.805920 0.667217
vt 0.826367 0.667217
vt 0.826367 0.675741
vt 0.868501 0.676162
vt 0.888638 0.682379
vt 0.868501 0.667217
vt 0.888638 0.667217
vt 0.888638 0.673001
vt 0.868501 0.649190
vt 0.885072 0.633256
vt 0.888638 0.633256
vt 0.916647 0.667217
vt 0.894929 0.667217
vt 0.916647 0.633256
vt 0.828082 0.895609
vt 0.848311 0.895609
vt 0.848311 0.929571
vt 0.828082 0.929571
vt 0.888638 0.699763
vt 0.871573 0.716340
vt 0.868501 0.716340
vt 0.868501 0.682379
vt 0.861502 0.682379
vt 0.858587 0.682379
vt 0.858587 0.716340
vt 0.833004 0.682379
vt 0.826367 0.682379
vt 0.826367 0.716340
vt 0.805920 0.682379
vt 0.805920 0.699342
vt 0.823790 0.716340
vt 0.826367 0.633256
vt 0.826367 0.623903
vt 0.826367 0.618094
vt 0.805920 0.618094
vt 0.805920 0.633256
vt 0.858587 0.618094
vt 0.858587 0.584133
vt 0.826367 0.584133
vt 0.832575 0.618094
vt 0.822933 0.584133
vt 0.805920 0.601145
vt 0.826367 0.675741
vt 0.826367 0.667217
vt 0.805920 0.667217
vt 0.868501 0.676162
vt 0.888638 0.682379
vt 0.888638 0.673001
vt 0.888638 0.667217
vt 0.868501 0.667217
vt 0.888638 0.633256
vt 0.885072 0.633256
vt 0.868501 0.649190
vt 0.916647 0.667217
vt 0.916647 0.633256
vt 0.894929 0.667217
vt 0.828082 0.895609
vt 0.828082 0.929571
vt 0.848311 0.929571
vt 0.848311 0.895609
vt 0.888638 0.699763
vt 0.871573 0.716340
vn -1.0000 0.0000 0.0000
vn 1.0000 0.0000 0.0000
vn 0.0000 -0.9191 0.3941
vn 0.0000 -1.0000 0.0000
vn 0.0000 1.0000 0.0000
vn 0.0000 -0.7071 0.7071
vn 0.0000 -0.3712 0.9286
vn 0.0000 0.0000 -1.0000
vn 0.0000 0.3591 -0.9333
vn 0.0000 0.9217 -0.3879
vn 0.0000 0.9139 -0.4060
vn 0.0000 -0.3671 0.9302
vn 0.0000 -0.9173 0.3982
vn 0.0000 -0.7071 -0.7071
vn 0.0000 0.9255 -0.3788
vn 0.0000 0.0000 1.0000
vn 0.0000 0.3865 -0.9223
vn 0.0000 -0.3866 -0.9222
vn 0.0000 0.7071 0.7071
vn 0.0000 0.3750 0.9270
vn 0.0000 0.7071 -0.7071
vn 0.0000 -0.9255 -0.3788
vn 0.0000 0.9207 0.3903
vn 0.0000 -0.9227 0.3855
vn 0.0000 -0.3798 0.9250
vn 0.0000 0.3775 -0.9260
g CubeQB.001_Cube.001_CubeQB.001_Cube.001_InterrogationMaterial
usemtl InterrogationMaterial
s 1
f 1/1/1 5/2/1 4/3/1 3/4/1 2/5/1
f 5/2/1 8/6/1 7/7/1 6/8/1 4/3/1
f 8/6/1 11/9/1 10/10/1 9/11/1 7/7/1
f 12/12/1 16/13/1 15/14/1 14/15/1 13/16/1
f 17/17/1 20/18/1 14/15/1 19/19/1 18/20/1
f 14/15/1 15/14/1 22/21/1 21/22/1 19/19/1
f 7/7/1 9/11/1 25/23/1 24/24/1 23/25/1
f 2/5/1 3/4/1 26/26/1
f 27/27/1 2/5/1 26/26/1 30/28/1 29/29/1 28/30/1
f 24/24/1 25/23/1 16/13/1 12/12/1
f 29/29/1 30/28/1 33/31/1 32/32/1 31/33/1
f 34/34/1 36/35/1 29/29/1 31/33/1 35/36/1
f 37/37/1 40/38/1 39/39/1 38/40/1
f 20/18/1 13/16/1 14/15/1
f 23/25/1 6/8/1 7/7/1
f 41/41/1 42/42/1 1/1/1 2/5/1 27/27/1
f 36/35/1 28/30/1 29/29/1
f 43/43/2 47/44/2 46/45/2 45/46/2 44/47/2
f 44/47/2 45/46/2 50/48/2 49/49/2 48/50/2
f 48/50/2 49/49/2 53/51/2 52/52/2 51/53/2
f 54/54/2 58/55/2 57/56/2 56/57/2 55/58/2
f 59/59/2 62/60/2 61/61/2 57/56/2 60/62/2
f 57/56/2 61/61/2 64/63/2 63/64/2 56/57/2
f 49/49/2 67/65/2 66/66/2 65/67/2 53/51/2
f 47/44/2 68/68/2 46/45/2
f 69/69/2 72/70/2 71/71/2 70/72/2 68/68/2 47/44/2
f 66/66/2 54/54/2 55/58/2 65/67/2
f 71/71/2 75/73/2 74/74/2 73/75/2 70/72/2
f 76/76/2 78/77/2 75/73/2 71/71/2 77/78/2
f 79/79/2 82/80/2 81/81/2 80/82/2
f 60/62/2 57/56/2 58/55/2
f 67/65/2 49/49/2 50/48/2
f 83/83/2 69/69/2 47/44/2 43/43/2 84/84/2
f 77/78/2 71/71/2 72/70/2
f 13/16/3 58/55/3 54/54/4 12/12/4
f 12/12/4 54/54/4 66/66/4 24/24/4
f 16/13/5 55/58/5 56/57/5 15/14/5
f 17/17/6 59/59/6 60/62/7 20/18/7
f 4/3/8 45/46/8 46/45/9 3/4/9
f 30/28/5 70/72/5 73/75/10 33/31/10
f 26/26/11 68/68/11 70/72/5 30/28/5
f 36/35/12 77/78/12 72/70/13 28/30/13
f 34/34/6 76/76/6 77/78/12 36/35/12
f 18/20/14 62/60/14 59/59/6 17/17/6
f 15/14/5 56/57/5 63/64/15 22/21/15
f 5/2/16 44/47/16 48/50/16 8/6/16
f 22/21/15 63/64/15 64/63/17 21/22/17
f 31/33/8 75/73/8 78/77/14 35/36/14
f 28/30/13 72/70/13 69/69/4 27/27/4
f 6/8/18 50/48/18 45/46/8 4/3/8
f 37/37/6 79/79/6 80/82/19 40/38/19
f 1/1/16 43/43/16 44/47/16 5/2/16
f 8/6/16 48/50/16 51/53/20 11/9/20
f 39/39/21 81/81/21 82/80/14 38/40/14
f 24/24/4 66/66/4 67/65/22 23/25/22
f 3/4/9 46/45/9 68/68/11 26/26/11
f 10/10/23 52/52/23 53/51/5 9/11/5
f 38/40/14 82/80/14 79/79/6 37/37/6
f 23/25/22 67/65/22 50/48/18 6/8/18
f 20/18/7 60/62/7 58/55/3 13/16/3
f 40/38/19 80/82/19 81/81/21 39/39/21
f 21/22/17 64/63/17 61/61/8 19/19/8
f 41/41/24 83/83/24 84/84/25 42/42/25
f 9/11/5 53/51/5 65/67/5 25/23/5
f 32/32/26 74/74/26 75/73/8 31/33/8
f 42/42/25 84/84/25 43/43/16 1/1/16
f 33/31/10 73/75/10 74/74/26 32/32/26
f 19/19/8 61/61/8 62/60/14 18/20/14
f 27/27/4 69/69/4 83/83/24 41/41/24
f 35/36/14 78/77/14 76/76/6 34/34/6
f 25/23/5 65/67/5 55/58/5 16/13/5
f 11/9/20 51/53/20 52/52/23 10/10/23
