# Blender v2.82 (sub 7) OBJ File: ''
# www.blender.org
mtllib DetectionSign_Exclamation_.mtl
o Cylinder
v 1.159755 10.451863 -5.019443
v -1.159754 10.451863 -5.019443
v 1.159755 13.083828 -2.719652
v -1.159754 13.083828 -2.719652
v 1.159755 13.083828 2.719652
v -1.159754 13.083828 2.719652
v 1.159754 8.354259 5.439304
v -1.159755 8.354260 5.439304
v 1.159754 3.873690 1.333435
v -1.159755 3.873690 1.333435
v 1.159754 3.873690 -1.333435
v -1.159755 3.873690 -1.333435
v -1.159755 2.379125 1.333435
v 1.159754 2.379125 1.333435
v 1.159754 2.379125 -1.333435
v -1.159755 2.379125 -1.333435
v 1.159754 8.395107 2.620660
v -1.159755 8.395107 2.620660
v 1.159755 10.946504 1.218541
v -1.159754 10.946504 1.218541
v 1.159755 10.946504 -1.505247
v -1.159754 10.946504 -1.505247
v 1.159755 9.006862 -3.137221
v -1.159755 9.006863 -3.137221
v 1.141579 0.027925 1.317251
v -1.141580 0.027925 1.317251
v 1.141579 0.027925 -1.317251
v -1.141580 0.027925 -1.317251
v 1.141579 1.423154 1.317251
v -1.141580 1.423154 1.317251
v 1.141579 1.423154 -1.317251
v -1.141580 1.423154 -1.317251
vt 0.478245 0.761698
vt 0.483792 0.761698
vt 0.483792 0.767025
vt 0.478245 0.767025
vt 0.483792 0.779623
vt 0.478245 0.779623
vt 0.521129 0.732376
vt 0.526676 0.732376
vt 0.526676 0.744247
vt 0.521129 0.744247
vt 0.526676 0.755820
vt 0.521129 0.755820
vt 0.731926 0.216566
vt 0.734261 0.215677
vt 0.734775 0.216945
vt 0.732441 0.217833
vt 0.695333 0.345756
vt 0.681640 0.345756
vt 0.681640 0.330508
vt 0.695333 0.330508
vt 0.716559 0.348487
vt 0.717222 0.348487
vt 0.717222 0.348894
vt 0.716559 0.348894
vt 0.760117 0.369252
vt 0.773810 0.369252
vt 0.773810 0.377679
vt 0.760117 0.377679
vt 0.659949 0.209632
vt 0.657614 0.208743
vt 0.658128 0.207475
vt 0.660463 0.208364
vt 1.000000 0.929507
vt 0.885471 0.929507
vt 0.885471 0.685913
vt 1.000000 0.685913
vt 0.885471 0.554501
vt 1.000000 0.554501
vt 0.229058 0.903761
vt 0.114529 0.903761
vt 0.114529 0.773502
vt 0.229058 0.773502
vt 0.114529 0.695457
vt 0.229058 0.695457
vt 0.229058 0.605444
vt 0.114529 0.605444
vt 0.482928 0.330325
vt 0.370194 0.330325
vt 0.370194 0.204336
vt 0.482928 0.204336
vt 0.620711 0.313523
vt 0.620711 0.204336
vt 0.688656 0.204336
vt 0.688656 0.313523
vt 0.370194 0.330325
vt 0.257460 0.330325
vt 0.257460 0.204336
vt 0.370194 0.204336
vt 0.429641 0.365878
vt 0.429641 0.360590
vt 0.432929 0.360590
vt 0.432929 0.365878
vt 0.551819 0.204336
vt 0.551819 0.330325
vt 0.551819 0.204336
vt 0.620711 0.330325
vt 0.551819 0.330325
vt 0.631900 0.261645
vt 0.631900 0.275988
vt 0.690743 0.287393
vt 0.631900 0.288425
vt 0.690743 0.289400
vt 0.631900 0.309182
vt 0.754751 0.274468
vt 0.697576 0.283763
vt 0.697576 0.285607
vt 0.754751 0.313285
vt 0.773001 0.313285
vt 0.773001 0.274468
vt 0.696692 0.283763
vt 0.696692 0.281871
vt 0.773001 0.253527
vt 0.689859 0.287393
vt 0.650151 0.288425
vt 0.689859 0.286544
vt 0.650151 0.275988
vt 0.650151 0.261645
vn 0.0000 0.6580 -0.7530
vn 0.0000 1.0000 0.0000
vn 0.0000 0.4985 0.8669
vn -0.0000 -0.6756 0.7373
vn -1.0000 0.0000 0.0000
vn 0.0000 -1.0000 0.0000
vn 0.0000 0.0000 1.0000
vn 0.0000 0.0000 -1.0000
vn 1.0000 -0.0000 0.0000
vn 0.0000 0.6583 -0.7528
vn 0.0000 -0.4816 -0.8764
vn -0.0000 -0.6438 0.7652
vn -0.0000 -0.7932 -0.6090
g Cylinder_Cylinder_InterrogationMaterial.001
usemtl InterrogationMaterial.001
s off
f 1/1/1 2/2/1 4/3/1 3/4/1
f 3/4/2 4/3/2 6/5/2 5/6/2
f 5/7/3 6/8/3 8/9/3 7/10/3
f 7/10/4 8/9/4 10/11/4 9/12/4
f 10/13/5 12/14/5 16/15/5 13/16/5
f 14/17/6 13/18/6 16/19/6 15/20/6
f 9/21/7 10/22/7 13/23/7 14/24/7
f 12/25/8 11/26/8 15/27/8 16/28/8
f 11/29/9 9/30/9 14/31/9 15/32/9
f 11/33/10 12/34/10 18/35/10 17/36/10
f 17/36/11 18/35/11 20/37/11 19/38/11
f 19/39/6 20/40/6 22/41/6 21/42/6
f 21/42/12 22/41/12 24/43/12 23/44/12
f 1/45/13 23/44/13 24/43/13 2/46/13
f 25/47/6 26/48/6 28/49/6 27/50/6
f 27/51/8 28/52/8 32/53/8 31/54/8
f 31/55/2 32/56/2 30/57/2 29/58/2
f 29/59/7 30/60/7 26/61/7 25/62/7
f 27/50/9 31/63/9 29/64/9 25/47/9
f 32/65/5 28/52/5 26/66/5 30/67/5
f 2/68/5 24/69/5 4/70/5
f 24/69/5 22/71/5 4/70/5
f 4/70/5 22/71/5 6/72/5
f 22/71/5 20/73/5 6/72/5
f 20/73/5 18/74/5 6/72/5
f 6/72/5 18/74/5 8/75/5
f 8/75/5 18/74/5 10/76/5
f 10/76/5 18/74/5 12/77/5
f 11/78/9 17/79/9 9/30/9
f 9/30/9 17/79/9 7/80/9
f 7/80/9 17/79/9 5/81/9
f 17/79/9 19/82/9 5/81/9
f 5/81/9 19/82/9 3/83/9
f 19/82/9 21/84/9 3/83/9
f 3/83/9 21/84/9 1/85/9
f 23/86/9 1/87/9 21/84/9
