# Blender v2.82 (sub 7) OBJ File: ''
# www.blender.org
mtllib crystal50.mtl
o Cube_Cube.001
v -4.067121 1.141112 -0.044601
v -4.067121 15.035474 -0.044599
v 4.067121 1.141112 -0.044601
v 4.067121 15.035474 -0.044599
v -3.199925 0.885707 2.075379
v -4.216643 2.622396 2.075379
v -4.343322 0.669322 0.914441
v -4.216643 13.554190 2.075380
v -3.199925 15.290878 2.075379
v -4.343322 15.507263 0.914441
v 4.216643 2.622396 2.075379
v 3.199925 0.885707 2.075379
v 4.343322 0.669322 0.914441
v 3.199925 15.290878 2.075380
v 4.216643 13.554190 2.075379
v 4.343322 15.507263 0.914441
v -2.501942 2.072773 3.292076
v -3.521693 3.814644 3.292076
v -3.521693 12.361941 3.292076
v -2.501942 14.103812 3.292076
v 2.501942 14.103812 3.292076
v 3.521693 12.361941 3.292076
v 3.521693 3.814644 3.292076
v 2.501942 2.072773 3.292076
v -1.648115 3.520948 3.844662
v -2.673882 5.273093 3.844662
v -2.673882 10.903492 3.844662
v -1.648115 12.655638 3.844662
v 1.648115 12.655638 3.844662
v 2.673882 10.903492 3.844662
v 2.673882 5.273093 3.844662
v 1.648115 3.520948 3.844662
v -2.101746 6.254045 3.260743
v -1.073832 4.498232 3.260743
v -1.073832 11.678353 3.260743
v -2.101746 9.922541 3.260743
v 2.101746 9.922541 3.260743
v 1.073832 11.678353 3.260743
v 1.073832 4.498232 3.260743
v 2.101746 6.254045 3.260743
v -3.199925 15.290882 -2.070422
v -4.216643 13.554192 -2.070422
v -4.343322 15.507265 -0.909484
v -4.216643 2.622399 -2.070426
v -3.199925 0.885710 -2.070426
v -4.343322 0.669324 -0.909489
v 4.216643 13.554192 -2.070423
v 3.199925 15.290880 -2.070422
v 4.343322 15.507265 -0.909484
v 3.199925 0.885709 -2.070427
v 4.216643 2.622399 -2.070426
v 4.343322 0.669324 -0.909489
v -2.501942 14.103815 -3.287119
v -3.521693 12.361944 -3.287119
v -3.521693 3.814647 -3.287123
v -2.501942 2.072776 -3.287123
v 2.501942 2.072776 -3.287123
v 3.521693 3.814647 -3.287123
v 3.521693 12.361944 -3.287119
v 2.501942 14.103815 -3.287119
v -1.648115 12.655640 -3.839706
v -2.673882 10.903496 -3.839706
v -2.673882 5.273097 -3.839708
v -1.648115 3.520951 -3.839709
v 1.648115 3.520951 -3.839709
v 2.673882 5.273097 -3.839708
v 2.673882 10.903496 -3.839706
v 1.648115 12.655640 -3.839706
v -2.101746 9.922544 -3.255787
v -1.073832 11.678356 -3.255787
v -1.073832 4.498235 -3.255789
v -2.101746 6.254047 -3.255789
v 2.101746 6.254048 -3.255789
v 1.073832 4.498235 -3.255789
v 1.073832 11.678356 -3.255787
v 2.101746 9.922544 -3.255787
vt 0.815645 0.173035
vt 0.815645 0.453753
vt 0.780315 0.423137
vt 0.780315 0.203651
vt 0.535249 0.550153
vt 0.535249 0.830871
vt 0.499919 0.800255
vt 0.499919 0.580769
vt 0.463887 0.580769
vt 0.407246 0.888146
vt 0.370067 0.850694
vt 0.426707 0.618220
vt 0.593760 0.131091
vt 0.621500 0.118976
vt 0.655141 0.169129
vt 0.655141 0.449847
vt 0.621500 0.500000
vt 0.593760 0.487885
vt 0.874156 0.516021
vt 0.901897 0.503906
vt 0.935538 0.554059
vt 0.935538 0.834777
vt 0.901897 0.884930
vt 0.874156 0.872815
vt 0.344976 0.825504
vt 0.401617 0.643410
vt 0.596630 0.868909
vt 0.568890 0.881024
vt 0.568890 0.500000
vt 0.596630 0.512115
vt 0.780315 0.203651
vt 0.780315 0.423137
vt 0.970868 0.584675
vt 0.970868 0.804161
vt 0.217278 0.643410
vt 0.262356 0.598323
vt 0.356539 0.598323
vt 0.299898 0.870592
vt 0.205715 0.870592
vt 0.160637 0.825504
vt 0.362526 0.932875
vt 0.143087 0.932875
vt 0.180531 0.895688
vt 0.325083 0.895688
vt 0.199728 0.536039
vt 0.419167 0.536039
vt 0.381723 0.573227
vt 0.237171 0.573227
vt 0.098367 0.888146
vt 0.155008 0.580769
vt 0.192187 0.618220
vt 0.135547 0.850694
vt 0.393136 0.963358
vt 0.437723 0.918762
vt 0.443278 0.968915
vt 0.494363 0.550153
vt 0.449776 0.505557
vt 0.499919 0.500000
vt 0.067891 0.918762
vt 0.112478 0.963358
vt 0.062335 0.968915
vt 0.169118 0.505557
vt 0.124531 0.550153
vt 0.118976 0.500000
vt 0.877027 0.491791
vt 0.849286 0.503906
vt 0.849286 0.122882
vt 0.877027 0.134997
vt 0.655323 0.830871
vt 0.655323 0.550153
vt 0.780315 0.584675
vt 0.780315 0.804161
vt 0.935720 0.453753
vt 0.935720 0.173035
vt 0.970868 0.203651
vt 0.970868 0.423137
vt 0.155008 0.419231
vt 0.078836 0.098182
vt 0.116015 0.135634
vt 0.192187 0.381780
vt 0.568674 0.500000
vt 0.535067 0.449847
vt 0.535066 0.169129
vt 0.568674 0.118976
vt 0.849070 0.884930
vt 0.815463 0.834777
vt 0.815463 0.554059
vt 0.849071 0.503906
vt 0.141106 0.160824
vt 0.217278 0.356590
vt 0.902112 0.122882
vt 0.902112 0.503906
vt 0.499919 0.419231
vt 0.499919 0.199745
vt 0.780315 0.804161
vt 0.780315 0.584675
vt 0.401617 0.356590
vt 0.356539 0.401677
vt 0.262356 0.401677
vt 0.186184 0.115736
vt 0.280367 0.115736
vt 0.325445 0.160824
vt 0.123556 0.053453
vt 0.342995 0.053453
vt 0.305552 0.090641
vt 0.160999 0.090641
vt 0.419167 0.463961
vt 0.199728 0.463961
vt 0.237171 0.426773
vt 0.381723 0.426773
vt 0.387715 0.098182
vt 0.463887 0.419231
vt 0.426707 0.381780
vt 0.350535 0.135634
vt 0.092946 0.022970
vt 0.048359 0.067567
vt 0.042804 0.017414
vt 0.124531 0.449847
vt 0.169118 0.494443
vt 0.118976 0.500000
vt 0.418191 0.067567
vt 0.373604 0.022970
vt 0.423747 0.017413
vt 0.449776 0.494443
vt 0.494363 0.449847
vt 0.499919 0.500000
vt 0.621716 0.500000
vt 0.621716 0.881024
vn 0.0000 -0.7158 0.6983
vn 0.0000 0.7158 0.6983
vn -0.5460 -0.0000 0.8378
vn -0.9967 0.0000 -0.0810
vn 0.9967 0.0000 -0.0810
vn 0.7143 -0.0000 0.6999
vn -0.0000 0.9905 -0.1375
vn -0.8683 -0.0000 0.4960
vn 0.8683 -0.0000 0.4960
vn 0.0000 -0.0000 1.0000
vn 0.0000 -0.3565 0.9343
vn 0.0000 0.3565 0.9343
vn 0.5460 -0.0000 0.8378
vn 0.0000 0.5129 0.8584
vn 0.0000 -0.5129 0.8584
vn -0.7143 -0.0000 0.6999
vn -0.6275 -0.3674 0.6865
vn -0.6275 0.3674 0.6865
vn 0.6275 -0.3674 0.6865
vn 0.6275 0.3674 0.6865
vn 0.6139 0.3594 0.7028
vn 0.6139 -0.3594 0.7028
vn -0.6139 -0.3594 0.7028
vn -0.6139 0.3594 0.7028
vn 0.3039 0.1779 0.9359
vn 0.3039 -0.1779 0.9359
vn -0.3039 -0.1779 0.9359
vn -0.3039 0.1779 0.9359
vn -0.4386 -0.2568 0.8612
vn -0.4386 0.2568 0.8612
vn 0.4386 0.2568 0.8612
vn 0.4386 -0.2568 0.8612
vn 0.0000 -0.9905 -0.1375
vn 0.0000 0.7158 -0.6983
vn -0.0000 -0.7158 -0.6983
vn -0.5460 0.0000 -0.8378
vn -0.9964 -0.0000 0.0850
vn 0.9964 -0.0000 0.0850
vn 0.7143 0.0000 -0.6999
vn -0.0000 -0.9896 0.1442
vn -0.8683 0.0000 -0.4960
vn 0.8683 0.0000 -0.4960
vn -0.0000 0.0000 -1.0000
vn 0.0000 0.3565 -0.9343
vn 0.0000 -0.3565 -0.9343
vn 0.5460 0.0000 -0.8378
vn 0.0000 -0.5129 -0.8584
vn 0.0000 0.5129 -0.8584
vn -0.7143 0.0000 -0.6999
vn -0.6275 0.3674 -0.6865
vn -0.6275 -0.3674 -0.6865
vn 0.6275 0.3674 -0.6865
vn 0.6275 -0.3674 -0.6865
vn 0.6139 -0.3594 -0.7028
vn 0.6139 0.3594 -0.7028
vn -0.6139 0.3594 -0.7028
vn -0.6139 -0.3594 -0.7028
vn 0.3039 -0.1779 -0.9359
vn 0.3039 0.1779 -0.9359
vn -0.3039 0.1779 -0.9359
vn -0.3039 -0.1779 -0.9359
vn -0.4386 0.2568 -0.8612
vn -0.4386 -0.2568 -0.8612
vn 0.4386 -0.2568 -0.8612
vn 0.4386 0.2568 -0.8612
vn 0.0000 0.9896 0.1442
g Cube_Cube.001_palette
usemtl palette
s off
f 5/1/1 12/2/1 24/3/1 17/4/1
f 14/5/2 9/6/2 20/7/2 21/8/2
f 19/9/3 18/10/3 26/11/3 27/12/3
f 1/13/4 7/14/4 6/15/4 8/16/4 10/17/4 2/18/4
f 4/19/5 16/20/5 15/21/5 11/22/5 13/23/5 3/24/5
f 27/12/6 26/11/6 33/25/6 36/26/6
f 2/27/7 10/28/7 9/6/7 14/5/7 16/29/7 4/30/7
f 8/16/8 6/15/8 18/31/8 19/32/8
f 11/22/9 15/21/9 22/33/9 23/34/9
f 37/35/10 38/36/10 35/37/10 36/26/10 33/25/10 34/38/10 39/39/10 40/40/10
f 17/41/11 24/42/11 32/43/11 25/44/11
f 21/45/12 20/46/12 28/47/12 29/48/12
f 23/49/13 22/50/13 30/51/13 31/52/13
f 25/44/14 32/43/14 39/39/14 34/38/14
f 29/48/15 28/47/15 35/37/15 38/36/15
f 31/52/16 30/51/16 37/35/16 40/40/16
f 5/53/17 6/54/17 7/55/17
f 8/56/18 9/57/18 10/58/18
f 11/59/19 12/60/19 13/61/19
f 14/62/20 15/63/20 16/64/20
f 14/62/21 21/45/21 22/50/21 15/63/21
f 24/42/22 12/60/22 11/59/22 23/49/22
f 5/53/23 17/41/23 18/10/23 6/54/23
f 20/46/24 9/57/24 8/56/24 19/9/24
f 21/45/25 29/48/25 30/51/25 22/50/25
f 32/43/26 24/42/26 23/49/26 31/52/26
f 17/41/27 25/44/27 26/11/27 18/10/27
f 28/47/28 20/46/28 19/9/28 27/12/28
f 29/48/29 38/36/29 37/35/29 30/51/29
f 39/39/30 32/43/30 31/52/30 40/40/30
f 25/44/31 34/38/31 33/25/31 26/11/31
f 35/37/32 28/47/32 27/12/32 36/26/32
f 3/65/33 13/66/33 12/2/33 5/1/33 7/67/33 1/68/33
f 41/69/34 48/70/34 60/71/34 53/72/34
f 50/73/35 45/74/35 56/75/35 57/76/35
f 55/77/36 54/78/36 62/79/36 63/80/36
f 2/18/37 43/81/37 42/82/37 44/83/37 46/84/37 1/13/37
f 3/24/38 52/85/38 51/86/38 47/87/38 49/88/38 4/19/38
f 63/80/39 62/79/39 69/89/39 72/90/39
f 1/68/40 46/91/40 45/74/40 50/73/40 52/92/40 3/65/40
f 44/83/41 42/82/41 54/93/41 55/94/41
f 47/87/42 51/86/42 58/95/42 59/96/42
f 73/97/43 74/98/43 71/99/43 72/90/43 69/89/43 70/100/43 75/101/43 76/102/43
f 53/103/44 60/104/44 68/105/44 61/106/44
f 57/107/45 56/108/45 64/109/45 65/110/45
f 59/111/46 58/112/46 66/113/46 67/114/46
f 61/106/47 68/105/47 75/101/47 70/100/47
f 65/110/48 64/109/48 71/99/48 74/98/48
f 67/114/49 66/113/49 73/97/49 76/102/49
f 41/115/50 42/116/50 43/117/50
f 44/118/51 45/119/51 46/120/51
f 47/121/52 48/122/52 49/123/52
f 50/124/53 51/125/53 52/126/53
f 50/124/54 57/107/54 58/112/54 51/125/54
f 60/104/55 48/122/55 47/121/55 59/111/55
f 41/115/56 53/103/56 54/78/56 42/116/56
f 56/108/57 45/119/57 44/118/57 55/77/57
f 57/107/58 65/110/58 66/113/58 58/112/58
f 68/105/59 60/104/59 59/111/59 67/114/59
f 53/103/60 61/106/60 62/79/60 54/78/60
f 64/109/61 56/108/61 55/77/61 63/80/61
f 65/110/62 74/98/62 73/97/62 66/113/62
f 75/101/63 68/105/63 67/114/63 76/102/63
f 61/106/64 70/100/64 69/89/64 62/79/64
f 71/99/65 64/109/65 63/80/65 72/90/65
f 4/30/66 49/127/66 48/70/66 41/69/66 43/128/66 2/27/66
