# Blender v2.82 (sub 7) OBJ File: 'chickWalking.blend'
# www.blender.org
mtllib StillChick.mtl
o Icosphere_Icosphere.003
v 2.909458 3.417794 -0.102584
v -3.019245 6.191667 -1.861721
v 2.319861 5.589293 -3.328238
v 4.645898 5.219767 -0.108468
v 2.298183 5.133640 3.087801
v -3.150293 5.992292 1.641709
v -0.508461 8.561648 -2.942092
v 5.435272 7.812961 -1.838741
v 5.114481 7.701124 1.713648
v -0.491385 8.408806 2.722932
v -2.478903 12.532095 -1.549936
v 0.108028 10.302893 -0.084433
v 2.672576 4.075367 -1.998034
v -0.081326 3.061122 -1.385897
v 0.060271 4.053713 -3.271624
v -3.713110 5.784552 -0.109808
v -0.068805 3.354741 1.219074
v 3.489879 4.101509 -0.110792
v 4.003444 5.297470 -1.993926
v 2.765602 4.074364 1.834650
v 3.881767 4.918978 1.770556
v 0.201624 4.364767 3.106260
v -4.214196 7.656510 -1.135971
v -4.279295 7.543683 0.920565
v 0.217164 6.601528 -3.888204
v -2.711918 7.831666 -2.801941
v 5.037588 6.592658 -1.259314
v 3.352872 6.890414 -3.155794
v 3.242680 6.437698 2.931405
v 4.733324 6.406267 1.078619
v -2.829859 7.600429 2.584395
v 0.332197 6.424937 3.648844
v -3.374668 12.204693 -1.477462
v 3.298925 8.361048 -2.803786
v 6.062424 7.845309 -0.139794
v 3.084729 8.117767 2.584382
v -3.438768 13.225634 -0.027522
v -0.340947 9.826266 -1.749945
v -3.919276 12.597467 0.516051
v 4.426673 8.951009 -1.026483
v 4.174733 8.950960 1.103610
v -0.304406 9.732190 1.565201
v -3.982928 11.103089 0.664472
v -4.397457 12.367113 -0.489870
v -3.008390 10.646238 -1.901672
v -1.832334 11.058805 -1.993356
v -4.348282 11.180203 -0.622211
v -1.146603 11.652390 -1.191744
v -0.637125 11.696962 -0.057057
v -1.124421 11.635723 1.078764
v -1.722848 10.948971 1.860324
v -3.991392 11.106326 -0.778543
v -2.909345 10.528710 1.763781
v -3.057667 13.122078 -0.918250
v -2.995315 13.077685 0.856225
v -1.883369 12.982198 -0.926966
v -2.489119 13.419088 -0.027522
v -1.512411 13.037638 -0.034496
v -1.884302 12.981833 0.854427
v -2.363862 12.450978 1.468115
v -3.918111 12.597525 -0.584931
v -3.274931 12.134323 1.393945
v -4.331945 11.188351 0.516522
v -4.385163 12.373489 0.402563
v -0.274783 10.702297 -0.074827
v -0.808930 10.453163 -1.496506
v -3.244941 8.272970 2.265796
v -4.388153 8.494718 0.802525
v -4.364612 8.568552 -1.008960
v -1.296525 9.453747 -2.557976
v -3.189039 8.483650 -2.475704
v -1.231069 9.266749 2.376980
v -0.789032 10.363628 1.345721
v 6.411724 8.509954 -0.183439
v 6.133217 8.410299 0.762203
v 5.623552 9.065013 -0.580796
v 6.106984 8.455253 -1.027280
v 5.517123 9.093266 0.511771
v -5.549289 11.767532 -0.049235
v 2.518833 1.937873 -2.143634
v 2.432683 1.620693 -0.901592
v 0.893717 1.458261 -1.385163
v 0.774639 2.000938 -2.610260
v 2.007758 1.473737 -1.952390
v 1.938382 1.509098 -1.442618
v 1.314527 1.477775 -1.670369
v 1.335213 1.527256 -2.206711
v 1.138281 0.216464 -1.995071
v 1.093059 0.244648 -1.564932
v 0.548141 0.242142 -1.742538
v 0.554621 0.296341 -2.190654
v 1.104110 -0.073932 -2.004611
v 1.056626 -0.053939 -1.575494
v 0.547680 -0.068636 -1.755964
v 0.554566 -0.013439 -2.203960
v 1.333060 0.147545 -1.895821
v 1.302519 0.169601 -1.617515
v 1.312806 -0.039716 -1.902010
v 1.283051 -0.025105 -1.624729
v -1.206999 0.249961 -2.501131
v -1.232240 -0.082838 -2.520850
v -1.220989 0.163060 -1.644451
v -1.246231 -0.169738 -1.664171
v -1.236375 0.057802 1.445382
v -1.184743 0.387704 1.428677
v -1.235768 0.138647 2.302767
v -1.184136 0.468549 2.286062
v 1.311433 0.036394 1.461642
v 1.339343 0.022945 1.739048
v 1.326958 0.235180 1.454584
v 1.354868 0.221731 1.731990
v 0.557947 0.069648 2.027564
v 0.557297 0.017614 1.579137
v 1.084604 0.003129 1.409947
v 1.127828 -0.017698 1.839564
v 0.581991 0.377507 2.016634
v 0.581341 0.325473 1.568207
v 1.108647 0.310988 1.399017
v 1.151871 0.290160 1.828635
v 1.210670 1.621757 2.039016
v 1.195663 1.569095 1.502716
v 1.811689 1.648080 1.274894
v 1.888700 1.622553 1.784701
v 0.627998 2.210024 2.442253
v 0.701522 1.651930 1.217253
v 2.284268 1.694245 0.737635
v 2.370473 2.049896 1.975647
vt 0.111002 0.855096
vt 0.188309 0.855096
vt 0.188309 0.932403
vt 0.111002 0.932403
vt 0.111002 0.855096
vt 0.188309 0.855096
vt 0.188309 0.932403
vt 0.111002 0.855096
vt 0.188309 0.855096
vt 0.188309 0.932403
vt 0.188309 0.855096
vt 0.188309 0.932403
vt 0.188309 0.855096
vt 0.188309 0.932403
vt 0.111002 0.855096
vt 0.188309 0.855096
vt 0.188309 0.932403
vt 0.111002 0.855096
vt 0.188309 0.855096
vt 0.188309 0.932403
vt 0.111002 0.855096
vt 0.188309 0.855096
vt 0.188309 0.932403
vt 0.111002 0.855096
vt 0.188309 0.855096
vt 0.188309 0.932403
vt 0.188309 0.855096
vt 0.188309 0.932403
vt 0.188309 0.855096
vt 0.188309 0.932403
vt 0.188309 0.855096
vt 0.188309 0.932403
vt 0.188309 0.855096
vt 0.188309 0.932403
vt 0.188309 0.855096
vt 0.188309 0.932403
vt 0.111002 0.855096
vt 0.188309 0.855096
vt 0.188309 0.932403
vt 0.111002 0.855096
vt 0.188309 0.855096
vt 0.188309 0.932403
vt 0.111002 0.855096
vt 0.188309 0.855096
vt 0.188309 0.932403
vt 0.111002 0.932403
vt 0.111002 0.855096
vt 0.188309 0.855096
vt 0.188309 0.932403
vt 0.111002 0.855096
vt 0.188309 0.855096
vt 0.188309 0.932403
vt 0.111002 0.855096
vt 0.188309 0.855096
vt 0.188309 0.855096
vt 0.111002 0.855096
vt 0.188309 0.932403
vt 0.111002 0.855096
vt 0.188309 0.855096
vt 0.188309 0.932403
vt 0.188309 0.932403
vt 0.111002 0.855096
vt 0.188309 0.855096
vt 0.111002 0.855096
vt 0.188309 0.855096
vt 0.111002 0.855096
vt 0.188309 0.932403
vt 0.111002 0.932403
vt 0.188309 0.932403
vt 0.111002 0.932403
vt 0.188309 0.855096
vt 0.188309 0.932403
vt 0.111002 0.855096
vt 0.188309 0.855096
vt 0.111002 0.855096
vt 0.188309 0.855096
vt 0.188309 0.932403
vt 0.111002 0.855096
vt 0.188309 0.855096
vt 0.188309 0.932403
vt 0.111002 0.932403
vt 0.111002 0.855096
vt 0.188309 0.855096
vt 0.188309 0.932403
vt 0.111002 0.932403
vt 0.111002 0.855096
vt 0.188309 0.855096
vt 0.188309 0.932403
vt 0.111002 0.932403
vt 0.111002 0.855096
vt 0.188309 0.855096
vt 0.188309 0.932403
vt 0.111002 0.932403
vt 0.111002 0.855096
vt 0.188309 0.855096
vt 0.188309 0.932403
vt 0.111002 0.932403
vt 0.111002 0.855096
vt 0.188309 0.932403
vt 0.188309 0.932403
vt 0.111002 0.855096
vt 0.111002 0.855096
vt 0.188309 0.932403
vt 0.188309 0.932403
vt 0.111002 0.855096
vt 0.188309 0.855096
vt 0.111002 0.855096
vt 0.188309 0.932403
vt 0.188309 0.932403
vt 0.111002 0.855096
vt 0.111002 0.855096
vt 0.188309 0.855096
vt 0.188309 0.932403
vt 0.111002 0.932403
vt 0.111002 0.855096
vt 0.188309 0.855096
vt 0.188309 0.932403
vt 0.111002 0.932403
vt 0.111002 0.855096
vt 0.188309 0.855096
vt 0.188309 0.932403
vt 0.111002 0.932403
vt 0.111002 0.855096
vt 0.188309 0.855096
vt 0.111002 0.855096
vt 0.188309 0.855096
vt 0.188309 0.855096
vt 0.111002 0.855096
vt 0.188309 0.855096
vt 0.188309 0.855096
vt 0.111002 0.855096
vt 0.188309 0.855096
vt 0.188309 0.855096
vt 0.188309 0.932403
vt 0.111002 0.855096
vt 0.188309 0.855096
vt 0.111002 0.855096
vt 0.188309 0.855096
vt 0.188309 0.932403
vt 0.111002 0.932403
vt 0.111002 0.855096
vt 0.111002 0.855096
vt 0.188309 0.855096
vt 0.111002 0.855096
vt 0.188309 0.932403
vt 0.111002 0.855096
vt 0.188309 0.932403
vt 0.188309 0.932403
vt 0.111002 0.855096
vt 0.188309 0.932403
vt 0.188309 0.932403
vt 0.188309 0.855096
vt 0.188309 0.932403
vt 0.111002 0.855096
vt 0.188309 0.932403
vt 0.188309 0.932403
vt 0.111002 0.855096
vt 0.188309 0.855096
vt 0.188309 0.932403
vt 0.111002 0.932403
vt 0.111002 0.855096
vt 0.188309 0.855096
vt 0.188309 0.932403
vt 0.111002 0.932403
vt 0.111002 0.855096
vt 0.188309 0.855096
vt 0.188309 0.932403
vt 0.111002 0.932403
vt 0.111002 0.855096
vt 0.188309 0.855096
vt 0.111002 0.855096
vt 0.188309 0.855096
vt 0.111002 0.932403
vt 0.111002 0.855096
vt 0.188309 0.855096
vt 0.111002 0.932403
vt 0.188309 0.855096
vt 0.188309 0.932403
vt 0.111002 0.932403
vt 0.111002 0.855096
vt 0.188309 0.932403
vt 0.111002 0.932403
vt 0.111002 0.855096
vt 0.188309 0.855096
vt 0.111002 0.932403
vt 0.111002 0.855096
vt 0.188309 0.855096
vt 0.188309 0.932403
vt 0.111002 0.932403
vt 0.111002 0.855096
vt 0.188309 0.855096
vt 0.111002 0.855096
vt 0.188309 0.855096
vt 0.111002 0.855096
vt 0.188309 0.932403
vt 0.188309 0.932403
vt 0.188309 0.855096
vt 0.188309 0.932403
vt 0.111002 0.855096
vt 0.111002 0.855096
vt 0.188309 0.855096
vt 0.188309 0.855096
vt 0.188309 0.932403
vt 0.111002 0.932403
vt 0.111002 0.855096
vt 0.188309 0.932403
vt 0.111002 0.932403
vt 0.111002 0.855096
vt 0.188309 0.932403
vt 0.111002 0.932403
vt 0.188309 0.855096
vt 0.188309 0.932403
vt 0.111002 0.932403
vt 0.188309 0.855096
vt 0.188309 0.932403
vt 0.111002 0.932403
vt 0.111002 0.855096
vt 0.188309 0.932403
vt 0.111002 0.932403
vt 0.188309 0.855096
vt 0.188309 0.932403
vt 0.111002 0.932403
vt 0.111002 0.855096
vt 0.188309 0.932403
vt 0.111002 0.932403
vt 0.111002 0.855096
vt 0.188309 0.932403
vt 0.111002 0.932403
vt 0.111002 0.855096
vt 0.188309 0.855096
vt 0.111002 0.855096
vt 0.188309 0.932403
vt 0.111002 0.855096
vt 0.188309 0.855096
vt 0.111002 0.932403
vt 0.111002 0.855096
vt 0.188309 0.932403
vt 0.111002 0.932403
vt 0.188309 0.855096
vt 0.188309 0.932403
vt 0.111002 0.932403
vt 0.371435 0.855096
vt 0.448742 0.855096
vt 0.448742 0.932403
vt 0.371435 0.855096
vt 0.448742 0.855096
vt 0.371435 0.855096
vt 0.448742 0.855096
vt 0.371435 0.855096
vt 0.448742 0.855096
vt 0.111002 0.855096
vt 0.188309 0.855096
vt 0.188309 0.932403
vt 0.111002 0.932403
vt 0.111002 0.855096
vt 0.188309 0.855096
vt 0.188309 0.932403
vt 0.111002 0.932403
vt 0.188309 0.932403
vt 0.111002 0.932403
vt 0.188309 0.932403
vt 0.111002 0.932403
vt 0.188309 0.932403
vt 0.111002 0.932403
vt 0.371435 0.855096
vt 0.448742 0.855096
vt 0.448742 0.932403
vt 0.371435 0.932403
vt 0.371435 0.855096
vt 0.448742 0.855096
vt 0.448742 0.932403
vt 0.371435 0.932403
vt 0.111002 0.855096
vt 0.188309 0.855096
vt 0.188309 0.932403
vt 0.111002 0.932403
vt 0.111002 0.855096
vt 0.188309 0.855096
vt 0.188309 0.932403
vt 0.111002 0.932403
vt 0.371435 0.855096
vt 0.448742 0.855096
vt 0.448742 0.932403
vt 0.371435 0.932403
vt 0.371435 0.855096
vt 0.448742 0.855096
vt 0.448742 0.932403
vt 0.371435 0.932403
vt 0.371435 0.855096
vt 0.448742 0.855096
vt 0.448742 0.932403
vt 0.371435 0.932403
vt 0.371435 0.855096
vt 0.448742 0.855096
vt 0.448742 0.932403
vt 0.371435 0.932403
vt 0.371435 0.855096
vt 0.448742 0.855096
vt 0.371435 0.855096
vt 0.448742 0.932403
vt 0.448742 0.932403
vt 0.371435 0.932403
vt 0.371435 0.855096
vt 0.448742 0.855096
vt 0.448742 0.932403
vt 0.371435 0.932403
vt 0.371435 0.855096
vt 0.448742 0.855096
vt 0.448742 0.932403
vt 0.448742 0.855096
vt 0.448742 0.932403
vt 0.371435 0.932403
vt 0.448742 0.855096
vt 0.371435 0.932403
vt 0.371435 0.855096
vt 0.448742 0.855096
vt 0.448742 0.932403
vt 0.371435 0.932403
vt 0.371435 0.855096
vt 0.448742 0.855096
vt 0.448742 0.932403
vt 0.371435 0.932403
vt 0.371435 0.855096
vt 0.448742 0.932403
vt 0.448742 0.855096
vt 0.371435 0.932403
vt 0.371435 0.855096
vt 0.448742 0.932403
vt 0.371435 0.932403
vt 0.371435 0.855096
vt 0.448742 0.855096
vt 0.448742 0.932403
vt 0.371435 0.932403
vt 0.371435 0.855096
vt 0.448742 0.855096
vt 0.448742 0.932403
vt 0.371435 0.932403
vt 0.371435 0.855096
vt 0.448742 0.855096
vt 0.448742 0.932403
vt 0.371435 0.932403
vt 0.371435 0.855096
vt 0.371435 0.932403
vt 0.371435 0.855096
vt 0.448742 0.855096
vt 0.448742 0.932403
vt 0.371435 0.932403
vt 0.371435 0.855096
vt 0.448742 0.855096
vt 0.448742 0.932403
vt 0.371435 0.932403
vt 0.371435 0.855096
vt 0.448742 0.855096
vt 0.448742 0.932403
vt 0.371435 0.932403
vt 0.371435 0.855096
vt 0.448742 0.855096
vt 0.371435 0.932403
vt 0.448742 0.855096
vt 0.448742 0.932403
vt 0.371435 0.855096
vt 0.448742 0.932403
vt 0.371435 0.932403
vt 0.448742 0.855096
vt 0.448742 0.855096
vt 0.371435 0.855096
vt 0.448742 0.855096
vt 0.448742 0.932403
vt 0.371435 0.932403
vt 0.371435 0.855096
vt 0.448742 0.855096
vt 0.448742 0.932403
vt 0.371435 0.932403
vt 0.371435 0.855096
vt 0.448742 0.855096
vt 0.448742 0.932403
vt 0.371435 0.932403
vt 0.448742 0.932403
vt 0.111002 0.855096
vt 0.188309 0.855096
vt 0.188309 0.932403
vt 0.111002 0.932403
vt 0.111002 0.855096
vt 0.188309 0.855096
vt 0.188309 0.932403
vt 0.111002 0.932403
vt 0.371435 0.855096
vt 0.448742 0.855096
vt 0.448742 0.932403
vt 0.371435 0.932403
vt 0.371435 0.855096
vt 0.448742 0.855096
vt 0.448742 0.932403
vt 0.371435 0.932403
vt 0.188309 0.855096
vt 0.188309 0.932403
vt 0.111002 0.932403
vt 0.188309 0.855096
vt 0.188309 0.932403
vt 0.111002 0.932403
vt 0.111002 0.855096
vt 0.188309 0.855096
vt 0.188309 0.932403
vt 0.111002 0.932403
vt 0.111002 0.855096
vt 0.188309 0.855096
vt 0.188309 0.932403
vt 0.111002 0.932403
vt 0.188309 0.855096
vt 0.188309 0.932403
vt 0.111002 0.932403
vt 0.188309 0.855096
vt 0.188309 0.932403
vt 0.111002 0.932403
vn 0.9866 -0.1365 -0.0898
vn -0.6343 -0.6573 -0.4070
vn -0.6400 -0.6603 -0.3930
vn -0.6354 -0.6578 -0.4045
vn 0.7242 -0.6184 -0.3051
vn 0.7365 -0.6221 0.2655
vn -0.7944 -0.4414 -0.4172
vn 0.1397 -0.2410 -0.9604
vn 0.8212 -0.4856 -0.2998
vn 0.5773 -0.3285 0.7476
vn -0.5137 -0.3554 0.7809
vn -0.7064 -0.2477 -0.6630
vn 0.2319 -0.0554 -0.9711
vn 0.9764 -0.1844 0.1124
vn 0.2392 -0.0570 0.9693
vn -0.7295 -0.2318 0.6434
vn 0.3549 0.9124 -0.2042
vn 0.4241 0.7442 -0.5161
vn 0.7750 -0.5612 0.2907
vn 0.0822 0.6496 0.7558
vn 0.0640 0.7294 0.6810
vn 0.0795 0.9137 0.3985
vn 0.3572 0.9109 0.2066
vn -0.1930 0.9474 0.2554
vn 0.1963 0.9105 0.3641
vn 0.1974 0.7851 0.5871
vn 0.4117 0.6306 0.6579
vn 0.3057 0.9514 0.0362
vn -0.1015 0.9946 -0.0200
vn 0.2920 0.5752 0.7641
vn 0.2180 0.9212 -0.3224
vn 0.2259 0.8726 -0.4330
vn 0.0624 0.6802 -0.7303
vn 0.0866 0.7664 -0.6365
vn 0.5810 0.4006 -0.7085
vn -0.7103 0.1971 0.6757
vn 0.8678 0.3098 0.3885
vn 0.8596 0.3314 -0.3890
vn -0.1684 0.2406 0.9559
vn 0.0709 0.4459 0.8923
vn 0.2327 0.2177 0.9479
vn 0.4225 0.2213 0.8790
vn 0.8172 -0.4292 0.3846
vn 0.7528 -0.6567 0.0456
vn 0.8525 -0.4234 -0.3066
vn 0.4483 0.2236 -0.8655
vn 0.2005 0.2350 -0.9511
vn 0.0561 0.4508 -0.8909
vn -0.9887 0.1496 -0.0010
vn -0.7321 0.1978 -0.6518
vn -0.1752 0.2697 -0.9469
vn -0.1771 0.3549 0.9180
vn -0.3818 -0.2127 0.8994
vn 0.1036 -0.2594 0.9602
vn 0.6822 -0.4739 0.5569
vn 0.7689 -0.1513 0.6212
vn 0.8813 -0.3651 0.3000
vn 0.6105 -0.4932 -0.6197
vn 0.7180 -0.1942 -0.6684
vn 0.5491 -0.3344 -0.7659
vn -0.1812 0.3723 -0.9103
vn -0.4107 -0.1905 -0.8917
vn -0.5709 -0.3252 -0.7539
vn 0.6128 0.3584 0.7043
vn -0.9584 -0.2817 -0.0458
vn -0.8305 -0.4553 0.3209
vn -0.5420 -0.7062 0.4556
vn 0.4747 -0.5769 0.6647
vn 0.5975 -0.7735 0.2116
vn 0.6855 -0.7090 0.1653
vn 0.6721 -0.6942 -0.2576
vn 0.6513 -0.7083 -0.2722
vn 0.4756 -0.5155 -0.7128
vn -0.6013 -0.7477 0.2819
vn -0.5758 -0.8121 0.0943
vn 0.0704 -0.9913 0.1114
vn 0.3654 -0.5649 -0.7398
vn 0.2583 -0.6881 0.6780
vn -0.6391 -0.6598 -0.3953
vn -0.6849 0.0438 -0.7273
vn -0.6554 0.0325 0.7546
vn -0.2199 -0.9755 0.0040
vn -0.0419 -0.9369 0.3471
vn 0.7840 0.5043 0.3619
vn 0.5092 0.4138 0.7546
vn -0.1460 0.1907 0.9707
vn -0.1560 0.2233 -0.9622
vn 0.7796 0.5098 -0.3638
vn 0.4893 0.4328 -0.7572
vn -0.4515 0.6086 0.6525
vn 0.1069 0.9207 -0.3752
vn -0.1958 0.9610 -0.1955
vn -0.5338 0.7486 0.3932
vn -0.5223 0.5339 0.6650
vn -0.2515 0.5345 0.8069
vn -0.2703 0.5675 -0.7777
vn -0.5734 0.5617 -0.5964
vn -0.5817 0.7412 -0.3350
vn -0.7946 0.6071 -0.0008
vn -0.0350 -0.8994 -0.4357
vn 0.3575 0.5736 0.7370
vn -0.1722 0.2918 -0.9409
vn -0.7535 -0.1147 -0.6474
vn -0.9900 -0.1376 -0.0293
vn -0.1707 0.2813 0.9443
vn 0.6685 0.6478 -0.3652
vn 0.6641 0.6382 0.3895
vn -0.7695 -0.0779 0.6339
vn 0.3663 0.6010 -0.7103
vn 0.6640 0.6976 0.2691
vn 0.5641 0.8250 0.0336
vn 0.6429 0.7136 -0.2784
vn 0.2001 0.6793 -0.7061
vn 0.8294 -0.4790 -0.2876
vn -0.4445 0.6881 -0.5735
vn -0.4332 0.9013 -0.0004
vn -0.4344 -0.9006 0.0127
vn -0.3946 0.0857 -0.9149
vn -0.4617 0.8870 0.0000
vn -0.3926 0.0705 0.9170
vn -0.3760 -0.8845 -0.2763
vn 0.5185 -0.8503 -0.0908
vn -0.8685 -0.4420 -0.2244
vn -0.3247 -0.2610 0.9091
vn 0.3696 -0.0646 -0.9269
vn -0.8471 0.5305 0.0325
vn -0.3281 0.1388 0.9344
vn 0.2224 -0.5138 -0.8286
vn 0.0541 -0.9929 0.1058
vn 0.3309 0.0170 -0.9435
vn -0.0417 0.9934 0.1068
vn 0.3120 -0.1969 -0.9295
vn 0.8149 -0.5631 0.1374
vn 0.0119 -0.9988 0.0478
vn -0.0644 -0.9903 -0.1230
vn 0.4458 -0.0213 -0.8949
vn -0.3214 -0.0178 0.9468
vn 0.9877 -0.1067 0.1142
vn 0.1355 -0.9888 0.0633
vn 0.2210 -0.0601 0.9734
vn 0.3385 0.9405 -0.0305
vn -0.9971 0.0761 -0.0086
vn 0.0558 -0.0536 0.9970
vn 0.1725 0.0438 -0.9840
vn 0.0540 -0.9928 -0.1073
vn -0.0263 -0.9945 0.1012
vn 0.1523 0.0247 0.9880
vn 0.0750 -0.0520 -0.9958
vn -0.9880 0.1539 -0.0138
vn 0.3250 0.9456 0.0131
vn 0.2292 -0.0524 -0.9720
vn 0.1590 -0.9852 -0.0638
vn 0.9913 -0.0811 -0.1037
vn -0.3057 -0.0099 -0.9521
vn 0.4295 -0.0015 0.9031
vn -0.1134 -0.9869 0.1147
vn -0.0416 -0.9982 -0.0442
vn 0.8685 -0.4770 -0.1347
vn 0.3197 -0.1616 0.9336
vn 0.0394 0.9941 -0.1012
vn 0.3145 0.0091 0.9492
vn 0.0046 -0.9879 -0.1550
vn 0.2221 -0.4758 0.8510
vn -0.3314 0.1002 -0.9381
vn -0.8943 0.4462 -0.0332
vn -0.3522 -0.2365 -0.9056
vn -0.9200 -0.3236 0.2212
vn 0.4759 -0.8713 0.1201
vn -0.4875 -0.8298 0.2716
vn 0.9666 -0.2386 0.0936
vn 0.3617 -0.1131 0.9254
g Icosphere_Icosphere.003_chickMaterial
usemtl chickMaterial
s 1
f 13/1/1 1/2/1 81/3/1 80/4/1
f 2/5/2 14/6/3 16/7/4
f 1/8/5 13/9/5 18/10/5
f 1/8/6 18/11/6 20/12/6
f 2/5/7 16/13/7 23/14/7
f 3/15/8 15/16/8 25/17/8
f 4/18/9 19/19/9 27/20/9
f 5/21/10 21/22/10 29/23/10
f 6/24/11 22/25/11 31/26/11
f 2/5/12 23/27/12 26/28/12
f 3/15/13 25/29/13 28/30/13
f 4/18/14 27/31/14 30/32/14
f 5/21/15 29/33/15 32/34/15
f 6/24/16 31/35/16 24/36/16
f 56/37/17 57/38/17 58/39/17
f 8/40/18 34/41/18 40/42/18
f 9/43/19 35/44/19 74/45/19 75/46/19
f 10/47/20 36/48/20 42/49/20
f 55/50/21 60/51/21 59/52/21
f 57/53/22 55/54/22 59/52/22
f 57/53/23 59/55/23 58/39/23
f 37/56/24 55/54/24 57/57/24
f 42/58/25 41/59/25 12/60/25
f 42/58/26 36/48/26 41/61/26
f 36/62/27 9/63/27 41/61/27
f 41/64/28 40/65/28 12/60/28
f 40/66/29 41/59/29 78/67/29 76/68/29
f 41/64/30 9/63/30 75/69/30 78/70/30
f 40/66/31 38/71/31 12/60/31
f 40/66/32 34/41/32 38/72/32
f 34/73/33 7/74/33 38/72/33
f 11/75/34 54/76/34 56/77/34
f 66/78/35 70/79/35 46/80/35 48/81/35
f 68/82/36 67/83/36 53/84/36 43/85/36
f 73/86/37 65/87/37 49/88/37 50/89/37
f 65/90/38 66/91/38 48/92/38 49/93/38
f 67/94/39 72/95/39 51/96/39 53/97/39
f 32/98/40 36/48/40 10/99/40
f 32/98/41 29/33/41 36/100/41
f 29/101/42 9/63/42 36/100/42
f 30/102/43 35/44/43 9/103/43
f 30/102/44 27/31/44 35/104/44
f 27/105/45 8/106/45 35/104/45
f 28/107/46 34/41/46 8/108/46
f 28/107/47 25/29/47 34/109/47
f 25/110/48 7/74/48 34/109/48
f 69/111/49 68/112/49 43/113/49 52/114/49
f 71/115/50 69/116/50 52/117/50 45/118/50
f 70/119/51 71/120/51 45/121/51 46/122/51
f 31/123/52 32/124/52 10/99/52
f 31/123/53 22/25/53 32/34/53
f 22/125/54 5/126/54 32/34/54
f 29/101/55 30/127/55 9/103/55
f 29/101/56 21/22/56 30/32/56
f 21/128/57 4/129/57 30/32/57
f 27/105/58 28/130/58 8/108/58
f 27/105/59 19/19/59 28/30/59
f 19/131/60 3/132/60 28/30/60
f 25/110/61 26/133/61 7/134/61
f 25/110/62 15/16/62 26/28/62
f 15/135/63 2/136/63 26/28/63
f 72/137/64 73/138/64 50/139/64 51/140/64
f 23/141/65 16/13/65 24/36/65
f 16/142/66 6/143/66 24/36/66
f 17/144/67 22/25/67 6/145/67
f 20/146/68 21/22/68 5/147/68
f 20/146/69 18/11/69 21/148/69
f 18/149/70 4/129/70 21/148/70
f 18/149/71 19/19/71 4/150/71
f 18/149/72 13/9/72 19/151/72
f 13/1/73 3/132/73 19/151/73
f 16/142/74 17/152/74 6/145/74
f 16/142/75 14/6/75 17/153/75
f 14/154/76 1/2/76 17/153/76
f 13/1/77 15/16/77 3/155/77
f 5/21/78 22/25/78 20/12/78
f 14/154/3 2/136/2 15/156/79
f 33/157/80 45/158/80 47/159/80 44/160/80
f 53/161/81 62/162/81 64/163/81 63/164/81
f 52/165/82 43/166/82 63/167/82 47/168/82
f 45/169/83 52/170/83 47/159/83
f 50/171/84 49/172/84 58/39/84 59/173/84
f 51/174/85 50/175/85 59/52/85 60/176/85
f 53/161/86 51/177/86 60/178/86 62/179/86
f 46/180/87 45/158/87 33/181/87 11/182/87
f 49/183/88 48/184/88 56/77/88 58/185/88
f 48/186/89 46/187/89 11/188/89 56/189/89
f 62/190/90 39/191/90 64/163/90
f 56/37/91 54/76/91 57/57/91
f 54/192/92 37/193/92 57/57/92
f 39/194/93 55/54/93 37/195/93
f 39/194/94 62/162/94 55/196/94
f 62/190/95 60/51/95 55/196/95
f 33/157/96 54/76/96 11/188/96
f 33/157/97 61/197/97 54/198/97
f 61/199/98 37/193/98 54/198/98
f 61/199/99 39/191/99 37/195/99
f 43/200/100 53/201/100 63/167/100
f 10/47/101 42/202/101 73/203/101 72/204/101
f 7/205/102 26/133/102 71/206/102 70/207/102
f 26/208/103 23/27/103 69/209/103 71/210/103
f 23/141/104 24/211/104 68/212/104 69/213/104
f 31/123/105 10/214/105 72/215/105 67/216/105
f 12/217/106 38/71/106 66/218/106 65/219/106
f 42/58/107 12/220/107 65/221/107 73/222/107
f 24/223/108 31/35/108 67/224/108 68/225/108
f 38/226/109 7/74/109 70/227/109 66/228/109
f 75/229/110 74/230/110 78/67/110
f 78/231/111 74/230/111 76/232/111
f 74/233/112 77/234/112 76/232/112
f 8/40/113 40/65/113 76/232/113 77/235/113
f 35/236/114 8/106/114 77/237/114 74/238/114
f 61/199/115 33/239/115 44/240/115
f 39/194/116 61/197/116 44/240/116 64/241/116
f 47/242/117 63/243/117 79/244/117
f 44/245/118 47/246/118 79/244/118
f 64/247/119 44/248/119 79/244/119
f 63/249/120 64/250/120 79/244/120
f 82/251/121 83/252/121 87/253/121 86/254/121
f 80/255/122 81/256/122 85/257/122 84/258/122
f 14/154/123 15/16/123 83/259/123 82/260/123
f 1/8/124 14/6/124 82/261/124 81/262/124
f 15/135/125 13/9/125 80/263/125 83/264/125
f 86/265/126 87/266/126 91/267/126 90/268/126
f 85/269/127 86/270/127 90/271/127 89/272/127
f 83/273/128 80/274/128 84/275/128 87/276/128
f 81/277/129 82/278/129 86/279/129 85/280/129
f 91/281/130 88/282/130 92/283/130 95/284/130
f 90/285/131 91/286/131 100/287/131 102/288/131
f 87/289/132 84/290/132 88/291/132 91/292/132
f 84/293/133 85/294/133 89/295/133 88/296/133
f 93/297/134 94/298/134 92/283/134
f 92/299/135 94/298/135 95/300/135
f 92/299/136 88/282/136 96/301/136 98/302/136
f 89/303/137 90/304/137 94/305/137 93/306/137
f 96/307/138 97/308/138 99/309/138 98/302/138
f 93/297/139 92/310/139 98/311/139 99/312/139
f 89/303/140 93/313/140 99/309/140 97/314/140
f 88/315/141 89/316/141 97/317/141 96/318/141
f 102/319/142 100/320/142 101/321/142 103/322/142
f 94/323/143 90/304/143 102/324/143 103/322/143
f 91/281/144 95/325/144 101/321/144 100/326/144
f 95/327/145 94/298/145 103/328/145 101/329/145
f 112/330/146 106/331/146 104/332/146 113/333/146
f 116/334/147 107/335/147 106/336/147 112/337/147
f 113/338/148 104/339/148 105/340/148 117/341/148
f 105/342/149 104/339/149 106/336/149 107/343/149
f 119/344/150 111/345/150 110/346/150 118/347/150
f 118/348/151 110/349/151 108/350/151 114/351/151
f 114/352/152 108/353/152 109/354/152 115/355/152
f 111/356/153 109/357/153 108/350/153 110/358/153
f 118/348/154 114/359/154 113/360/154 117/341/154
f 115/361/155 109/357/155 111/362/155 119/363/155
f 115/361/156 112/364/156 113/360/156
f 114/352/157 115/365/157 113/360/157
f 123/366/158 119/367/158 118/368/158 122/369/158
f 120/370/159 116/371/159 119/372/159 123/373/159
f 117/374/160 105/375/160 107/376/160 116/377/160
f 116/334/161 112/364/161 115/378/161 119/363/161
f 126/379/162 122/380/162 121/381/162 125/382/162
f 124/383/163 120/384/163 123/385/163 127/386/163
f 122/387/164 118/388/164 117/389/164 121/390/164
f 121/391/165 117/392/165 116/393/165 120/394/165
f 1/8/166 126/395/166 125/396/166 17/397/166
f 17/144/167 125/398/167 124/399/167 22/400/167
f 127/401/168 123/402/168 122/403/168 126/404/168
f 125/405/169 121/406/169 120/407/169 124/408/169
f 20/146/170 127/409/170 126/410/170 1/411/170
f 22/125/171 124/412/171 127/413/171 20/414/171
