# Blender v2.82 (sub 7) OBJ File: ''
# www.blender.org
mtllib Stonehenge_P3.mtl
o Cube.006_Cube.007
v 16.094637 52.150784 -36.870705
v 14.761875 57.048908 -34.241886
v 22.171249 56.799408 -29.104242
v 25.552155 52.818859 -29.549185
v -11.107895 55.478436 36.279488
v 0.453587 55.834267 37.433918
v -0.250135 60.406517 35.525921
v -9.666008 60.614082 33.345776
v 5.088492 47.366673 -36.086811
v 2.902272 51.324036 -37.731880
v 13.505587 46.998638 -33.109066
v -19.054598 50.494297 28.740873
v -9.151562 50.562599 34.343163
v -20.483305 55.026897 29.013586
v -1.871368 47.729698 -19.638552
v -13.397041 49.331642 12.308184
v -17.189346 53.680302 10.219723
v -6.520203 51.943932 -21.270121
v 7.072324 50.030178 20.441214
v 18.454439 48.626553 -11.209926
v 21.618847 53.631897 -10.657769
v 9.182735 55.253506 20.964769
v -0.505064 51.114185 35.823471
v 23.512939 47.978355 -28.181631
v 7.401772 60.092533 19.891001
v 17.127392 58.092793 -12.337057
v 7.436142 59.084312 -16.632090
v -4.673834 60.279190 14.756817
v 8.039628 46.812229 -15.384186
v -3.457934 48.588627 16.382303
v 5.418996 56.618687 -37.097206
v -19.953827 59.097599 27.278482
v -15.014202 58.663410 10.602037
v -2.336783 57.471066 -20.595896
vt 0.970844 0.608577
vt 0.975015 0.608875
vt 0.975368 0.608306
vt 0.974931 0.607551
vt 0.982655 0.609102
vt 0.979133 0.607822
vt 0.978398 0.608306
vt 0.978289 0.608783
vt 0.973653 0.610669
vt 0.974298 0.609992
vt 0.971227 0.611643
vt 0.978938 0.611151
vt 0.982629 0.611883
vt 0.978554 0.610080
vt 0.974594 0.611130
vt 0.977428 0.611409
vt 0.977067 0.610313
vt 0.975190 0.610203
vt 0.978797 0.606615
vt 0.976079 0.606272
vt 0.976383 0.607423
vt 0.978213 0.607610
vt 0.979724 0.607019
vt 0.974420 0.606426
vt 0.970844 0.605569
vt 0.982225 0.606207
vt 0.977802 0.608252
vt 0.976310 0.608247
vt 0.975977 0.608882
vt 0.977393 0.608885
vt 0.973689 0.613054
vt 0.979496 0.613021
vt 0.974969 0.609425
vt 0.977867 0.609412
vt 0.977064 0.609509
vt 0.975665 0.609464
vt 0.979811 0.604704
vt 0.973990 0.604550
vn 0.5032 0.5089 -0.6984
vn -0.1433 0.4504 0.8813
vn 0.1610 -0.5090 -0.8456
vn -0.5101 -0.3649 0.7789
vn -0.6562 -0.7299 -0.1912
vn -0.6642 -0.6800 -0.3103
vn 0.8237 -0.4597 0.3320
vn 0.8264 -0.3498 0.4413
vn -0.8329 -0.5253 -0.1742
vn 0.8672 -0.4388 0.2353
vn 0.4729 -0.5658 -0.6755
vn -0.1054 -0.3531 0.9296
vn 0.0659 0.9974 -0.0275
vn 0.0220 0.9997 -0.0108
vn -0.0916 -0.9956 0.0197
vn -0.0673 -0.9954 0.0686
vn 0.1044 0.9928 -0.0586
vn -0.0630 -0.9979 -0.0177
vn 0.1403 0.2871 -0.9476
vn -0.5268 0.4715 0.7073
vn -0.7959 0.5137 -0.3204
vn -0.7506 0.5148 -0.4142
vn -0.1237 0.9885 -0.0867
vn -0.1226 0.9909 -0.0561
vn 0.7723 0.5903 0.2346
vn 0.8373 0.3533 0.4174
vn 0.1175 -0.9888 0.0920
vn 0.0688 -0.9906 0.1182
vn -0.9412 0.2467 -0.2309
vn -0.0657 0.9914 -0.1130
vn 0.7140 0.6862 0.1392
vn 0.1144 -0.9923 0.0479
g Cube.006_Cube.007_Cube.006_Cube.007_Material.004
usemtl Material.004
s 1
f 1/1/1 2/2/1 3/3/1 4/4/1
f 5/5/2 6/6/2 7/7/2 8/8/2
f 9/9/3 10/10/3 1/1/3 11/11/3
f 12/12/4 13/13/4 5/5/4 14/14/4
f 15/15/5 16/16/5 17/17/5 18/18/5
f 9/9/6 15/15/6 18/18/6 10/10/6
f 19/19/7 20/20/7 21/21/7 22/22/7
f 23/23/8 19/19/8 22/22/8 6/6/8
f 16/16/9 12/12/9 14/14/9 17/17/9
f 20/20/10 24/24/10 4/4/10 21/21/10
f 11/25/11 1/1/11 4/4/11 24/24/11
f 13/26/12 23/23/12 6/6/12 5/5/12
f 25/27/13 26/28/13 27/29/13 28/30/13
f 7/7/14 25/27/14 28/30/14 8/8/14
f 16/16/15 15/15/15 29/31/15 30/32/15
f 12/12/16 16/16/16 30/32/16 13/13/16
f 26/28/17 3/3/17 2/2/17 27/29/17
f 15/15/18 9/9/18 11/11/18 29/31/18
f 10/10/19 31/33/19 2/2/19 1/1/19
f 14/14/20 5/5/20 8/8/20 32/34/20
f 18/18/21 17/17/21 33/35/21 34/36/21
f 10/10/22 18/18/22 34/36/22 31/33/22
f 28/30/23 27/29/23 34/36/23 33/35/23
f 8/8/24 28/30/24 33/35/24 32/34/24
f 22/22/25 21/21/25 26/28/25 25/27/25
f 6/6/26 22/22/26 25/27/26 7/7/26
f 30/37/27 29/38/27 20/20/27 19/19/27
f 13/26/28 30/37/28 19/19/28 23/23/28
f 17/17/29 14/14/29 32/34/29 33/35/29
f 27/29/30 2/2/30 31/33/30 34/36/30
f 21/21/31 4/4/31 3/3/31 26/28/31
f 29/38/32 11/25/32 24/24/32 20/20/32
o Cube.001_Cube.019
v -4.860244 54.359600 20.348713
v -4.588812 51.110931 27.268614
v 1.110812 49.822197 25.837385
v 2.687862 51.978470 19.869205
v -4.721182 -5.012220 13.762832
v 2.695351 -2.437661 13.796148
v 2.294499 -2.294339 20.973709
v -3.975726 -3.639142 21.898645
v -11.945817 51.546112 13.351994
v -13.262480 51.195484 19.604849
v -6.126427 52.075714 12.079497
v -11.826288 -1.119095 7.783428
v -4.453748 -2.052475 6.683725
v -12.184159 -2.690776 14.554707
v -12.472878 38.025909 11.317206
v -12.178804 12.170867 8.653969
v -14.545043 11.565129 15.608910
v -15.276808 36.877365 18.016979
v 2.336764 12.506117 7.793204
v 2.041310 38.072166 10.707226
v 4.622958 37.577164 18.017466
v 4.285055 11.670550 15.462096
v 1.261442 -0.613718 7.032043
v 1.250180 51.447392 12.453537
v 3.436715 10.859735 22.927040
v 1.930183 36.456444 25.090025
v -4.908555 36.325668 27.549837
v -5.141824 10.767898 24.386826
v -5.500511 38.234676 8.969179
v -5.212200 12.475759 6.596395
v -11.031612 50.389221 27.351042
v -11.837447 -2.193301 20.920536
v -12.613240 10.897214 22.940508
v -11.987090 36.491673 26.060268
vt 0.970844 0.608577
vt 0.975015 0.608875
vt 0.975368 0.608306
vt 0.974931 0.607551
vt 0.982655 0.609102
vt 0.979133 0.607822
vt 0.978398 0.608306
vt 0.978289 0.608783
vt 0.973653 0.610669
vt 0.974298 0.609992
vt 0.971227 0.611643
vt 0.978938 0.611151
vt 0.982629 0.611883
vt 0.978554 0.610080
vt 0.974594 0.611130
vt 0.977428 0.611409
vt 0.977067 0.610313
vt 0.975190 0.610203
vt 0.978797 0.606615
vt 0.976079 0.606272
vt 0.976383 0.607423
vt 0.978213 0.607610
vt 0.979724 0.607019
vt 0.974420 0.606426
vt 0.970844 0.605569
vt 0.982225 0.606207
vt 0.977802 0.608252
vt 0.976310 0.608247
vt 0.975977 0.608882
vt 0.977393 0.608885
vt 0.973689 0.613054
vt 0.979496 0.613021
vt 0.974969 0.609425
vt 0.977867 0.609412
vt 0.977064 0.609509
vt 0.975665 0.609464
vt 0.979811 0.604704
vt 0.973990 0.604550
vn 0.2977 0.8692 0.3947
vn 0.2795 -0.9561 0.0884
vn -0.2538 0.9587 -0.1285
vn -0.2414 -0.9191 -0.3116
vn -0.9358 0.0162 -0.3522
vn -0.9496 0.1241 -0.2877
vn 0.9575 0.0297 -0.2869
vn 0.9679 -0.0733 -0.2403
vn -0.9750 -0.0816 -0.2065
vn 0.9567 0.1278 -0.2614
vn 0.1921 0.9597 -0.2053
vn 0.2843 -0.8985 -0.3344
vn 0.2466 -0.0943 0.9645
vn 0.1714 -0.1566 0.9727
vn -0.3032 0.0892 -0.9488
vn -0.2142 0.0189 -0.9766
vn 0.2955 -0.0106 0.9553
vn -0.2775 0.1766 -0.9444
vn -0.2541 0.9202 0.2978
vn -0.2379 -0.9609 0.1419
vn -0.9470 -0.0366 0.3191
vn -0.9404 0.0649 0.3337
vn -0.1987 -0.1162 0.9731
vn -0.1710 -0.1712 0.9703
vn 0.9716 0.0004 0.2367
vn 0.9908 -0.1098 0.0795
vn 0.1908 0.1027 -0.9762
vn 0.1132 0.0229 -0.9933
vn -0.9783 -0.1303 0.1611
vn -0.1022 -0.0305 0.9943
vn 0.9437 0.0632 0.3249
vn 0.1473 0.1812 -0.9724
g Cube.001_Cube.019_Cube.001_Cube.019_Material.004
usemtl Material.004
s 1
f 35/39/33 36/40/33 37/41/33 38/42/33
f 39/43/34 40/44/34 41/45/34 42/46/34
f 43/47/35 44/48/35 35/39/35 45/49/35
f 46/50/36 47/51/36 39/43/36 48/52/36
f 49/53/37 50/54/37 51/55/37 52/56/37
f 43/47/38 49/53/38 52/56/38 44/48/38
f 53/57/39 54/58/39 55/59/39 56/60/39
f 57/61/40 53/57/40 56/60/40 40/44/40
f 50/54/41 46/50/41 48/52/41 51/55/41
f 54/58/42 58/62/42 38/42/42 55/59/42
f 45/63/43 35/39/43 38/42/43 58/62/43
f 47/64/44 57/61/44 40/44/44 39/43/44
f 59/65/45 60/66/45 61/67/45 62/68/45
f 41/45/46 59/65/46 62/68/46 42/46/46
f 50/54/47 49/53/47 63/69/47 64/70/47
f 46/50/48 50/54/48 64/70/48 47/51/48
f 60/66/49 37/41/49 36/40/49 61/67/49
f 49/53/50 43/47/50 45/49/50 63/69/50
f 44/48/51 65/71/51 36/40/51 35/39/51
f 48/52/52 39/43/52 42/46/52 66/72/52
f 52/56/53 51/55/53 67/73/53 68/74/53
f 44/48/54 52/56/54 68/74/54 65/71/54
f 62/68/55 61/67/55 68/74/55 67/73/55
f 42/46/56 62/68/56 67/73/56 66/72/56
f 56/60/57 55/59/57 60/66/57 59/65/57
f 40/44/58 56/60/58 59/65/58 41/45/58
f 64/75/59 63/76/59 54/58/59 53/57/59
f 47/64/60 64/75/60 53/57/60 57/61/60
f 51/55/61 48/52/61 66/72/61 67/73/61
f 61/67/62 36/40/62 65/71/62 68/74/62
f 55/59/63 38/42/63 37/41/63 60/66/63
f 63/76/64 45/63/64 58/62/64 54/58/64
o Cube.002_Cube.020
v 3.451317 -9.201581 -14.690717
v 1.492265 -6.019264 -8.997730
v -2.888426 -4.780621 -11.670042
v -2.704178 -6.899287 -17.050741
v 6.271912 51.225746 -20.888819
v -0.008832 48.486839 -22.731691
v -1.541140 48.229797 -16.613884
v 3.503961 49.684570 -14.248272
v 11.269287 -6.110858 -18.769363
v 10.755440 -5.835702 -13.197212
v 6.709382 -6.724219 -21.319607
v 13.703424 47.486191 -24.037306
v 7.826453 48.330688 -26.856287
v 12.276072 48.977551 -18.289522
v 12.519163 7.667747 -20.486040
v 13.498440 33.975204 -23.073397
v 13.687478 34.515358 -16.647074
v 13.152740 8.770818 -14.167347
v 1.543580 33.408745 -27.507130
v 0.506246 7.390794 -24.712442
v -3.548267 7.730788 -19.253967
v -2.066033 34.099319 -21.589710
v 2.913901 46.768692 -28.012003
v 0.439673 -6.213971 -22.901562
v -3.278109 34.814346 -15.126919
v -3.105360 8.797623 -12.651094
v 1.992472 9.003104 -8.840777
v 3.537696 35.025482 -11.708627
v 7.278615 7.378974 -24.236063
v 8.185251 33.584091 -26.577547
v 6.888183 -5.180840 -7.287054
v 10.320575 48.361679 -13.039357
v 10.175893 35.041424 -11.006210
v 8.311712 8.975987 -8.274783
vt 0.970844 0.608577
vt 0.975015 0.608875
vt 0.975368 0.608306
vt 0.974931 0.607551
vt 0.982655 0.609102
vt 0.979133 0.607822
vt 0.978398 0.608306
vt 0.978289 0.608783
vt 0.973653 0.610669
vt 0.974298 0.609992
vt 0.971227 0.611643
vt 0.978938 0.611151
vt 0.982629 0.611883
vt 0.978554 0.610080
vt 0.974594 0.611130
vt 0.977428 0.611409
vt 0.977067 0.610313
vt 0.975190 0.610203
vt 0.978797 0.606615
vt 0.976079 0.606272
vt 0.976383 0.607423
vt 0.978213 0.607610
vt 0.979724 0.607019
vt 0.974420 0.606426
vt 0.970844 0.605569
vt 0.982225 0.606207
vt 0.977802 0.608252
vt 0.976310 0.608247
vt 0.975977 0.608882
vt 0.977393 0.608885
vt 0.973689 0.613054
vt 0.979496 0.613021
vt 0.974969 0.609425
vt 0.977867 0.609412
vt 0.977064 0.609509
vt 0.975665 0.609464
vt 0.979811 0.604704
vt 0.973990 0.604550
vn -0.4352 -0.8420 0.3188
vn -0.3516 0.9361 0.0134
vn 0.3372 -0.9392 -0.0653
vn 0.3489 0.9034 -0.2494
vn 0.9976 -0.0348 -0.0599
vn 0.9919 -0.1270 0.0047
vn -0.8299 -0.0147 -0.5578
vn -0.8542 0.0750 -0.5145
vn 0.9944 0.0515 0.0925
vn -0.8381 -0.0993 -0.5365
vn -0.1188 -0.9463 -0.3007
vn -0.2158 0.8703 -0.4428
vn -0.5187 0.1009 0.8490
vn -0.4504 0.1535 0.8795
vn 0.5680 -0.0971 -0.8173
vn 0.4905 -0.0356 -0.8707
vn -0.5621 0.0294 0.8265
vn 0.5439 -0.1720 -0.8214
vn 0.1971 -0.8970 0.3956
vn 0.1908 0.9497 0.2481
vn 0.8104 0.0214 0.5855
vn 0.8006 -0.0658 0.5955
vn -0.0967 0.1126 0.9889
vn -0.1235 0.1605 0.9793
vn -0.9979 0.0193 -0.0614
vn -0.9700 0.1120 -0.2157
vn 0.1049 -0.1012 -0.9893
vn 0.1825 -0.0340 -0.9826
vn 0.8889 0.0997 0.4471
vn -0.1933 0.0407 0.9803
vn -0.9989 -0.0341 0.0306
vn 0.1470 -0.1696 -0.9745
g Cube.002_Cube.020_Cube.002_Cube.020_Material.004
usemtl Material.004
s 1
f 69/77/65 70/78/65 71/79/65 72/80/65
f 73/81/66 74/82/66 75/83/66 76/84/66
f 77/85/67 78/86/67 69/77/67 79/87/67
f 80/88/68 81/89/68 73/81/68 82/90/68
f 83/91/69 84/92/69 85/93/69 86/94/69
f 77/85/70 83/91/70 86/94/70 78/86/70
f 87/95/71 88/96/71 89/97/71 90/98/71
f 91/99/72 87/95/72 90/98/72 74/82/72
f 84/92/73 80/88/73 82/90/73 85/93/73
f 88/96/74 92/100/74 72/80/74 89/97/74
f 79/101/75 69/77/75 72/80/75 92/100/75
f 81/102/76 91/99/76 74/82/76 73/81/76
f 93/103/77 94/104/77 95/105/77 96/106/77
f 75/83/78 93/103/78 96/106/78 76/84/78
f 84/92/79 83/91/79 97/107/79 98/108/79
f 80/88/80 84/92/80 98/108/80 81/89/80
f 94/104/81 71/79/81 70/78/81 95/105/81
f 83/91/82 77/85/82 79/87/82 97/107/82
f 78/86/83 99/109/83 70/78/83 69/77/83
f 82/90/84 73/81/84 76/84/84 100/110/84
f 86/94/85 85/93/85 101/111/85 102/112/85
f 78/86/86 86/94/86 102/112/86 99/109/86
f 96/106/87 95/105/87 102/112/87 101/111/87
f 76/84/88 96/106/88 101/111/88 100/110/88
f 90/98/89 89/97/89 94/104/89 93/103/89
f 74/82/90 90/98/90 93/103/90 75/83/90
f 98/113/91 97/114/91 88/96/91 87/95/91
f 81/102/92 98/113/92 87/95/92 91/99/92
f 85/93/93 82/90/93 100/110/93 101/111/93
f 95/105/94 70/78/94 99/109/94 102/112/94
f 89/97/95 72/80/95 71/79/95 94/104/95
f 97/114/96 79/101/96 92/100/96 88/96/96
