# Blender v2.82 (sub 7) OBJ File: ''
# www.blender.org
mtllib arrowEffect.mtl
o Cylinder.001
v -0.199103 22.584398 -0.271917
v 26.129704 22.584400 -0.271917
v 26.129704 22.325788 -0.084026
v -0.199103 22.325788 -0.084026
v 26.129704 22.424570 0.219989
v -0.199103 22.424568 0.219989
v 26.129704 22.744230 0.219989
v -0.199103 22.744228 0.219989
v 26.129704 22.843010 -0.084026
v -0.199103 22.843008 -0.084026
vt 0.144468 0.121357
vt 0.144468 0.147475
vt 0.134021 0.147475
vt 0.134021 0.121357
vt 0.123574 0.147475
vt 0.123574 0.121357
vt 0.113127 0.147475
vt 0.113127 0.121357
vt 0.117214 0.112172
vt 0.105291 0.120835
vt 0.093368 0.112172
vt 0.097923 0.098156
vt 0.112660 0.098156
vt 0.102680 0.147475
vt 0.102680 0.121357
vt 0.092232 0.147475
vt 0.092232 0.121357
vt 0.131409 0.120835
vt 0.143332 0.112172
vt 0.138778 0.098156
vt 0.124040 0.098156
vt 0.119486 0.112172
vn 0.0000 -0.5878 -0.8090
vn 0.0000 -0.9511 0.3090
vn 0.0000 -0.0000 1.0000
vn 1.0000 -0.0000 0.0000
vn -0.0000 0.9511 0.3090
vn -0.0000 0.5878 -0.8090
vn -1.0000 0.0000 0.0000
g Cylinder.001_Cylinder.001_Material.001
usemtl Material.001
s 1
f 1/1/1 2/2/1 3/3/1 4/4/1
f 4/4/2 3/3/2 5/5/2 6/6/2
f 6/6/3 5/5/3 7/7/3 8/8/3
f 3/9/4 2/10/4 9/11/4 7/12/4 5/13/4
f 8/8/5 7/7/5 9/14/5 10/15/5
f 10/15/6 9/14/6 2/16/6 1/17/6
f 1/18/7 4/19/7 6/20/7 8/21/7 10/22/7
o Cube_Cube.002
v -3.253173 22.584400 0.000002
v 1.379885 22.779932 -1.882226
v 1.379885 22.388868 -1.882226
v 0.729245 22.388868 0.000002
v 0.729245 22.779932 0.000002
v 1.379885 22.779932 1.882230
v 1.379885 22.388868 1.882230
vt 0.412163 0.363966
vt 0.412163 0.368043
vt 0.408086 0.368043
vt 0.408086 0.370082
vt 0.412163 0.370082
vt 0.412163 0.372120
vt 0.408086 0.372120
vt 0.408086 0.376197
vt 0.404009 0.370082
vt 0.416240 0.372120
vt 0.416240 0.370082
vt 0.404009 0.368043
vn -0.3764 0.0000 -0.9265
vn 0.9451 0.0000 -0.3267
vn -0.3764 0.0000 0.9265
vn -0.0490 -0.9987 0.0169
vn -0.0490 0.9987 0.0170
vn -0.0490 0.9987 -0.0170
vn -0.0490 -0.9987 -0.0169
vn 0.9451 0.0000 0.3267
g Cube_Cube.002_Cube_Cube.002_Material.001
usemtl Material.001
s 1
f 11/23/8 12/24/8 13/25/8
f 14/26/9 15/27/9 16/28/9 17/29/9
f 17/29/10 16/28/10 11/30/10
f 11/31/11 14/26/11 17/29/11
f 15/27/12 11/32/12 16/28/12
f 12/24/13 11/33/13 15/27/13
f 11/34/14 13/25/14 14/26/14
f 13/25/15 12/24/15 15/27/15 14/26/15
o Cube.001_Cube.001
v 1.225520 22.509811 -0.276066
v 2.766679 22.664783 -2.618580
v 2.766679 22.482960 -2.618580
v 2.116039 22.482960 0.000002
v 2.116039 22.664783 0.000002
v 2.766679 22.664783 2.618584
v 2.766679 22.482960 2.618584
vt 0.412163 0.363966
vt 0.412163 0.368043
vt 0.408086 0.368043
vt 0.408086 0.370082
vt 0.412163 0.370082
vt 0.412163 0.372120
vt 0.408086 0.372120
vt 0.408086 0.376197
vt 0.404009 0.370082
vt 0.416240 0.372120
vt 0.416240 0.370082
vt 0.404009 0.368043
vn -0.8354 0.0000 -0.5496
vn 0.9705 0.0000 -0.2411
vn -0.8827 0.0000 0.4699
vn -0.0327 -0.9994 0.0081
vn -0.1851 0.9816 0.0460
vn -0.1594 0.9864 -0.0396
vn -0.0280 -0.9996 -0.0070
vn 0.9705 0.0000 0.2411
g Cube.001_Cube.001_Cube.001_Cube.001_Material.001
usemtl Material.001
s 1
f 18/35/16 19/36/16 20/37/16
f 21/38/17 22/39/17 23/40/17 24/41/17
f 24/41/18 23/40/18 18/42/18
f 18/43/19 21/38/19 24/41/19
f 22/39/20 18/44/20 23/40/20
f 19/36/21 18/45/21 22/39/21
f 18/46/22 20/37/22 21/38/22
f 20/37/23 19/36/23 22/39/23 21/38/23
o Cube.002_Cube.001
v 18.910599 22.364668 0.017976
v 18.910599 22.804132 0.017976
v 18.910599 22.804132 -0.017972
v 18.910599 22.364668 -0.017972
v 21.918037 21.272402 -0.017972
v 21.918037 23.896399 -0.017972
v 24.925476 23.896399 -0.017972
v 24.925476 21.272402 -0.017972
v 24.925476 23.896399 0.017976
v 24.925476 21.272402 0.017976
v 21.918037 21.272402 0.017976
v 21.918037 23.896399 0.017976
vt 0.307290 0.402817
vt 0.309763 0.402817
vt 0.309763 0.405290
vt 0.307290 0.405290
vt 0.307290 0.406526
vt 0.309763 0.406526
vt 0.309763 0.407763
vt 0.307290 0.407763
vt 0.309763 0.410236
vt 0.307290 0.410236
vt 0.307290 0.411472
vt 0.309763 0.411472
vt 0.309763 0.412708
vt 0.307290 0.412708
vt 0.306054 0.407763
vt 0.306054 0.410236
vt 0.310999 0.407763
vt 0.312236 0.407763
vt 0.312236 0.410236
vt 0.310999 0.410236
vt 0.304817 0.407763
vt 0.304817 0.410236
vn -1.0000 -0.0000 0.0000
vn 0.0000 0.0000 -1.0000
vn 1.0000 0.0000 0.0000
vn 0.0000 -0.0000 1.0000
vn 0.0000 -1.0000 0.0000
vn -0.3414 0.9399 0.0000
vn 0.0000 1.0000 0.0000
vn -0.3414 -0.9399 0.0000
g Cube.002_Cube.001_Cube.002_Cube.001_Material.001
usemtl Material.001
s 1
f 25/47/24 26/48/24 27/49/24 28/50/24
f 29/51/25 30/52/25 31/53/25 32/54/25
f 32/54/26 31/53/26 33/55/26 34/56/26
f 35/57/27 36/58/27 26/59/27 25/60/27
f 29/61/28 32/54/28 34/56/28 35/62/28
f 30/63/29 27/64/29 26/65/29 36/66/29
f 31/53/30 30/63/30 36/66/30 33/55/30
f 28/67/31 29/61/31 35/62/31 25/68/31
f 34/56/27 33/55/27 36/58/27 35/57/27
f 28/50/25 27/49/25 30/52/25 29/51/25
o Cube.003_Cube.001
v 18.910599 22.566425 -0.219731
v 18.910599 22.566425 0.219735
v 18.910599 22.602375 0.219735
v 18.910599 22.602375 -0.219731
v 21.918037 22.602375 -1.311996
v 21.918037 22.602375 1.312000
v 24.925476 22.602375 1.312000
v 24.925476 22.602375 -1.311996
v 24.925476 22.566425 1.312000
v 24.925476 22.566425 -1.311996
v 21.918037 22.566425 -1.311996
v 21.918037 22.566425 1.312000
vt 0.308844 0.398708
vt 0.312061 0.398708
vt 0.312061 0.401925
vt 0.308844 0.401925
vt 0.308844 0.403533
vt 0.312061 0.403533
vt 0.312061 0.405142
vt 0.308844 0.405142
vt 0.312061 0.408359
vt 0.308844 0.408359
vt 0.308844 0.409967
vt 0.312061 0.409967
vt 0.312061 0.411576
vt 0.308844 0.411576
vt 0.307235 0.405142
vt 0.307235 0.408359
vt 0.313669 0.405142
vt 0.315278 0.405142
vt 0.315278 0.408359
vt 0.313669 0.408359
vt 0.305627 0.405142
vt 0.305627 0.408359
vn -1.0000 0.0000 0.0000
vn 0.0000 1.0000 0.0000
vn 1.0000 0.0000 0.0000
vn 0.0000 -1.0000 0.0000
vn 0.0000 0.0000 -1.0000
vn -0.3414 0.0000 0.9399
vn 0.0000 0.0000 1.0000
vn -0.3414 0.0000 -0.9399
g Cube.003_Cube.001_Cube.003_Cube.001_Material.001
usemtl Material.001
s 1
f 37/69/32 38/70/32 39/71/32 40/72/32
f 41/73/33 42/74/33 43/75/33 44/76/33
f 44/76/34 43/75/34 45/77/34 46/78/34
f 47/79/35 48/80/35 38/81/35 37/82/35
f 41/83/36 44/76/36 46/78/36 47/84/36
f 42/85/37 39/86/37 38/87/37 48/88/37
f 43/75/38 42/85/38 48/88/38 45/77/38
f 40/89/39 41/83/39 47/84/39 37/90/39
f 46/78/35 45/77/35 48/80/35 47/79/35
f 40/72/33 39/71/33 42/74/33 41/73/33
