# Blender v2.82 (sub 7) OBJ File: ''
# www.blender.org
mtllib signal.mtl
o Mushroom_Red_01.001
v 15.439335 0.000000 8.450288
v 15.169141 2.202176 8.180101
v 14.072005 2.202176 8.180101
v 13.801819 0.000000 8.450288
v 15.439335 0.000000 6.812772
v 15.169141 2.202176 7.082966
v 13.801819 0.000000 6.812772
v 14.072005 2.202176 7.082966
v 16.120607 2.202176 6.668623
v 14.604675 2.202177 5.793400
v 13.088743 2.202176 8.419071
v 13.088743 2.202176 6.668623
v 14.604675 3.952624 7.543848
v 14.604675 2.202176 9.294295
v 16.120607 2.202176 8.419071
vt 0.696579 0.600411
vt 0.685076 0.694873
vt 0.638364 0.694873
vt 0.626861 0.600411
vt 0.632435 0.583847
vt 0.702153 0.583847
vt 0.690650 0.678309
vt 0.643939 0.678309
vt 0.586052 0.681207
vt 0.586052 0.616203
vt 0.651055 0.616203
vt 0.651055 0.681207
vt 0.635132 0.674221
vt 0.591580 0.674221
vt 0.580855 0.586146
vt 0.645858 0.586146
vt 0.592509 0.528212
vt 0.592509 0.526753
vt 0.593968 0.526753
vt 0.593968 0.528212
vt 0.877745 0.137562
vt 0.876480 0.138113
vt 0.877745 0.136104
vt 0.878496 0.139277
vt 0.879204 0.137562
vt 0.880512 0.135786
vt 0.880512 0.138113
vt 0.879348 0.136836
vt 0.878184 0.139914
vt 0.877020 0.136836
vt 0.882257 0.137495
vt 0.881093 0.140574
vt 0.879930 0.137495
vt 0.884584 0.136176
vt 0.883421 0.139255
vt 0.882257 0.136176
vt 0.882839 0.137275
vt 0.881675 0.134196
vt 0.884003 0.134196
vt 0.876480 0.135786
vt 0.878496 0.134622
vt 0.879204 0.136104
vt 0.881093 0.133537
vt 0.879930 0.136616
vt 0.878766 0.133537
vt 0.878766 0.134856
vt 0.877602 0.137935
vt 0.876438 0.134856
vt 0.651055 0.570703
vt 0.640330 0.658777
vt 0.596777 0.658777
vt 0.586052 0.570703
vn 0.0000 0.1218 0.9926
vn 0.9926 0.1218 0.0000
vn 0.0000 -1.0000 -0.0000
vn -0.9926 0.1218 0.0000
vn -0.7559 0.6547 0.0000
vn -0.3780 0.6547 0.6547
vn 0.3780 0.6547 0.6547
vn 0.7559 0.6547 0.0000
vn 0.3780 0.6547 -0.6547
vn -0.3780 0.6547 -0.6547
vn 0.0000 0.1218 -0.9926
g Mushroom_Red_01.001_Mushroom_Red_01.001_Material.001
usemtl Material.001
s 1
f 1/1/1 2/2/1 3/3/1 4/4/1
f 1/5/2 5/6/2 6/7/2 2/8/2
f 5/9/3 1/10/3 4/11/3 7/12/3
f 3/13/4 8/14/4 7/15/4 4/16/4
f 6/17/3 2/18/3 3/19/3 8/20/3
f 6/21/3 9/22/3 2/23/3
f 6/21/3 10/24/3 9/22/3
f 8/25/3 10/24/3 6/21/3
f 11/26/3 10/24/3 8/25/3
f 10/24/3 11/26/3 12/27/3
f 11/28/5 13/29/5 12/30/5
f 14/31/6 13/32/6 11/33/6
f 15/34/7 13/35/7 14/36/7
f 13/37/8 15/38/8 9/39/8
f 15/40/3 2/23/3 9/22/3
f 14/41/3 2/23/3 15/40/3
f 14/41/3 3/42/3 2/23/3
f 11/26/3 3/42/3 14/41/3
f 3/42/3 11/26/3 8/25/3
f 10/43/9 13/44/9 9/45/9
f 12/46/10 13/47/10 10/48/10
f 7/49/11 8/50/11 6/51/11 5/52/11
o Mushroom_Red_01.004
v 15.109780 0.033577 -34.882259
v 14.839586 2.235753 -35.152447
v 13.742451 2.235753 -35.152447
v 13.472264 0.033577 -34.882259
v 15.109780 0.033577 -36.519775
v 14.839586 2.235753 -36.249584
v 13.472264 0.033577 -36.519775
v 13.742451 2.235753 -36.249584
v 15.791054 2.235753 -36.663925
v 14.275121 2.235754 -37.539150
v 12.759189 2.235753 -34.913479
v 12.759189 2.235753 -36.663925
v 14.275121 3.986201 -35.788700
v 14.275121 2.235753 -34.038254
v 15.791054 2.235753 -34.913479
vt 0.696579 0.600411
vt 0.685076 0.694873
vt 0.638364 0.694873
vt 0.626861 0.600411
vt 0.632435 0.583847
vt 0.702153 0.583847
vt 0.690650 0.678309
vt 0.643939 0.678309
vt 0.586052 0.681207
vt 0.586052 0.616203
vt 0.651055 0.616203
vt 0.651055 0.681207
vt 0.635132 0.674221
vt 0.591580 0.674221
vt 0.580855 0.586146
vt 0.645858 0.586146
vt 0.592509 0.528212
vt 0.592509 0.526753
vt 0.593968 0.526753
vt 0.593968 0.528212
vt 0.877745 0.137562
vt 0.876480 0.138113
vt 0.877745 0.136104
vt 0.878496 0.139277
vt 0.879204 0.137562
vt 0.880512 0.135786
vt 0.880512 0.138113
vt 0.879348 0.136836
vt 0.878184 0.139914
vt 0.877020 0.136836
vt 0.882257 0.137495
vt 0.881093 0.140574
vt 0.879930 0.137495
vt 0.884584 0.136176
vt 0.883421 0.139255
vt 0.882257 0.136176
vt 0.882839 0.137275
vt 0.881675 0.134196
vt 0.884003 0.134196
vt 0.876480 0.135786
vt 0.878496 0.134622
vt 0.879204 0.136104
vt 0.881093 0.133537
vt 0.879930 0.136616
vt 0.878766 0.133537
vt 0.878766 0.134856
vt 0.877602 0.137935
vt 0.876438 0.134856
vt 0.651055 0.570703
vt 0.640330 0.658777
vt 0.596777 0.658777
vt 0.586052 0.570703
vn 0.0000 0.1218 0.9926
vn 0.9926 0.1218 0.0000
vn 0.0000 -1.0000 -0.0000
vn -0.9926 0.1218 0.0000
vn -0.7559 0.6547 0.0000
vn -0.3780 0.6547 0.6547
vn 0.3780 0.6547 0.6547
vn 0.7559 0.6547 0.0000
vn 0.3780 0.6547 -0.6547
vn -0.3780 0.6547 -0.6547
vn 0.0000 0.1218 -0.9926
g Mushroom_Red_01.004_Mushroom_Red_01.004_Material.001
usemtl Material.001
s 1
f 16/53/12 17/54/12 18/55/12 19/56/12
f 16/57/13 20/58/13 21/59/13 17/60/13
f 20/61/14 16/62/14 19/63/14 22/64/14
f 18/65/15 23/66/15 22/67/15 19/68/15
f 21/69/14 17/70/14 18/71/14 23/72/14
f 21/73/14 24/74/14 17/75/14
f 21/73/14 25/76/14 24/74/14
f 23/77/14 25/76/14 21/73/14
f 26/78/14 25/76/14 23/77/14
f 25/76/14 26/78/14 27/79/14
f 26/80/16 28/81/16 27/82/16
f 29/83/17 28/84/17 26/85/17
f 30/86/18 28/87/18 29/88/18
f 28/89/19 30/90/19 24/91/19
f 30/92/14 17/75/14 24/74/14
f 29/93/14 17/75/14 30/92/14
f 29/93/14 18/94/14 17/75/14
f 26/78/14 18/94/14 29/93/14
f 18/94/14 26/78/14 23/77/14
f 25/95/20 28/96/20 24/97/20
f 27/98/21 28/99/21 25/100/21
f 22/101/22 23/102/22 21/103/22 20/104/22
o Mushroom_Red_01.007
v -13.194303 0.033577 -34.882259
v -13.464497 2.235753 -35.152447
v -14.561632 2.235753 -35.152447
v -14.831819 0.033577 -34.882259
v -13.194303 0.033577 -36.519775
v -13.464497 2.235753 -36.249584
v -14.831819 0.033577 -36.519775
v -14.561632 2.235753 -36.249584
v -12.513029 2.235753 -36.663925
v -14.028962 2.235754 -37.539150
v -15.544894 2.235753 -34.913479
v -15.544894 2.235753 -36.663925
v -14.028962 3.986201 -35.788700
v -14.028962 2.235753 -34.038254
v -12.513029 2.235753 -34.913479
vt 0.696579 0.600411
vt 0.685076 0.694873
vt 0.638364 0.694873
vt 0.626861 0.600411
vt 0.632435 0.583847
vt 0.702153 0.583847
vt 0.690650 0.678309
vt 0.643939 0.678309
vt 0.586052 0.681207
vt 0.586052 0.616203
vt 0.651055 0.616203
vt 0.651055 0.681207
vt 0.635132 0.674221
vt 0.591580 0.674221
vt 0.580855 0.586146
vt 0.645858 0.586146
vt 0.592509 0.528212
vt 0.592509 0.526753
vt 0.593968 0.526753
vt 0.593968 0.528212
vt 0.877745 0.137562
vt 0.876480 0.138113
vt 0.877745 0.136104
vt 0.878496 0.139277
vt 0.879204 0.137562
vt 0.880512 0.135786
vt 0.880512 0.138113
vt 0.879348 0.136836
vt 0.878184 0.139914
vt 0.877020 0.136836
vt 0.882257 0.137495
vt 0.881093 0.140574
vt 0.879930 0.137495
vt 0.884584 0.136176
vt 0.883421 0.139255
vt 0.882257 0.136176
vt 0.882839 0.137275
vt 0.881675 0.134196
vt 0.884003 0.134196
vt 0.876480 0.135786
vt 0.878496 0.134622
vt 0.879204 0.136104
vt 0.881093 0.133537
vt 0.879930 0.136616
vt 0.878766 0.133537
vt 0.878766 0.134856
vt 0.877602 0.137935
vt 0.876438 0.134856
vt 0.651055 0.570703
vt 0.640330 0.658777
vt 0.596777 0.658777
vt 0.586052 0.570703
vn 0.0000 0.1218 0.9926
vn 0.9926 0.1218 0.0000
vn 0.0000 -1.0000 -0.0000
vn -0.9926 0.1218 0.0000
vn -0.7559 0.6547 0.0000
vn -0.3780 0.6547 0.6547
vn 0.3780 0.6547 0.6547
vn 0.7559 0.6547 0.0000
vn 0.3780 0.6547 -0.6547
vn -0.3780 0.6547 -0.6547
vn 0.0000 0.1218 -0.9926
g Mushroom_Red_01.007_Mushroom_Red_01.007_Material.001
usemtl Material.001
s 1
f 31/105/23 32/106/23 33/107/23 34/108/23
f 31/109/24 35/110/24 36/111/24 32/112/24
f 35/113/25 31/114/25 34/115/25 37/116/25
f 33/117/26 38/118/26 37/119/26 34/120/26
f 36/121/25 32/122/25 33/123/25 38/124/25
f 36/125/25 39/126/25 32/127/25
f 36/125/25 40/128/25 39/126/25
f 38/129/25 40/128/25 36/125/25
f 41/130/25 40/128/25 38/129/25
f 40/128/25 41/130/25 42/131/25
f 41/132/27 43/133/27 42/134/27
f 44/135/28 43/136/28 41/137/28
f 45/138/29 43/139/29 44/140/29
f 43/141/30 45/142/30 39/143/30
f 45/144/25 32/127/25 39/126/25
f 44/145/25 32/127/25 45/144/25
f 44/145/25 33/146/25 32/127/25
f 41/130/25 33/146/25 44/145/25
f 33/146/25 41/130/25 38/129/25
f 40/147/31 43/148/31 39/149/31
f 42/150/32 43/151/32 40/152/32
f 37/153/33 38/154/33 36/155/33 35/156/33
o Cube_Cube.001
v -0.930119 -0.450034 0.164020
v -0.930119 13.442319 0.164022
v -0.930119 13.442319 -0.823849
v -0.930119 -0.450034 -0.823851
v 0.179162 13.442319 -0.823849
v 0.179162 -0.450034 -0.823851
v 0.179162 13.442319 0.164022
v 0.179162 -0.450034 0.164020
vt 0.103275 0.815442
vt 0.135007 0.815442
vt 0.135007 0.847174
vt 0.103275 0.847174
vt 0.135007 0.878906
vt 0.103275 0.878906
vt 0.135007 0.910638
vt 0.103275 0.910638
vt 0.135007 0.942370
vt 0.103275 0.942370
vt 0.071543 0.878906
vt 0.071543 0.910638
vt 0.166739 0.878906
vt 0.166739 0.910638
vn -1.0000 0.0000 0.0000
vn 0.0000 0.0000 -1.0000
vn 1.0000 0.0000 0.0000
vn 0.0000 -0.0000 1.0000
vn 0.0000 -1.0000 -0.0000
vn 0.0000 1.0000 0.0000
g Cube_Cube.001_Cube_Cube.001_None
usemtl None
s 1
f 46/157/34 47/158/34 48/159/34 49/160/34
f 49/160/35 48/159/35 50/161/35 51/162/35
f 51/162/36 50/161/36 52/163/36 53/164/36
f 53/164/37 52/163/37 47/165/37 46/166/37
f 49/167/38 51/162/38 53/164/38 46/168/38
f 50/161/39 48/169/39 47/170/39 52/163/39
o Cube.001_Cube.002
v 6.888733 10.304183 1.121132
v 3.646306 12.443638 1.121134
v 3.646306 8.370056 1.121132
v -6.182074 8.370056 1.121132
v -6.182074 12.443638 1.121134
v -6.182074 12.443638 0.136538
v -6.182074 8.370056 0.136536
v 3.646306 8.370056 0.136536
v 3.646306 12.443638 0.136538
v 6.888733 10.304183 0.136536
v 6.888733 10.304183 0.136536
v 6.888733 10.304183 1.121132
vt 0.000000 0.000000
vt 0.000000 0.000000
vt 0.000000 0.000000
vt 0.299513 0.546975
vt 0.419237 0.546975
vt 0.419237 0.666700
vt 0.299513 0.666700
vt 0.768761 0.481070
vt 0.768761 0.057993
vt 0.960399 0.057993
vt 0.960399 0.481070
vt 0.375000 0.500000
vt 0.625000 0.500000
vt 0.625000 0.750000
vt 0.375000 0.750000
vt 0.774307 0.061678
vt 0.774307 0.477384
vt 0.022549 0.477384
vt 0.022549 0.061678
vt 0.409979 0.616503
vt 0.434278 0.616503
vt 0.434278 0.736228
vt 0.409979 0.736228
vt 0.359552 0.565722
vt 0.454978 0.565722
vt 0.454978 0.685447
vt 0.359552 0.685447
vt 0.335253 0.565722
vt 0.335253 0.685447
vt 0.314553 0.616503
vt 0.314553 0.736228
vt 0.965732 0.061678
vt 0.965732 0.477384
vt 0.016164 0.481070
vt 0.016164 0.057993
vn 0.0000 -0.0000 1.0000
vn -1.0000 -0.0000 0.0000
vn -0.0000 0.0000 -1.0000
vn 0.0000 0.0000 0.0000
vn 0.5123 -0.8588 0.0000
vn 0.0000 1.0000 0.0000
vn 0.5507 0.8347 0.0000
vn 0.0000 -1.0000 0.0000
g Cube.001_Cube.002_Cube.001_Cube.002_None
usemtl None
s off
f 54/171/40 55/172/40 56/173/40
s 1
f 57/174/41 58/175/41 59/176/41 60/177/41
f 61/178/42 62/179/42 63/180/42 64/181/42
f 64/182/43 63/183/43 54/184/43 65/185/43
f 56/186/40 55/187/40 58/188/40 57/189/40
f 61/190/44 64/191/44 65/192/44 56/193/44
f 62/194/45 59/195/45 58/196/45 55/197/45
f 63/198/46 62/194/46 55/197/46 54/199/46
f 60/200/47 61/190/47 56/193/47 57/201/47
f 65/202/43 54/203/43 55/187/40 56/186/40
f 60/204/42 59/205/42 62/179/42 61/178/42
o Mushroom_Red_01.002_Mushroom_Red_01.011
v 26.550459 -0.446358 -15.833194
v 26.280266 1.755818 -16.103380
v 25.183130 1.755818 -16.103380
v 24.912943 -0.446358 -15.833194
v 26.550459 -0.446358 -17.470709
v 26.280266 1.755818 -17.200516
v 24.912943 -0.446358 -17.470709
v 25.183130 1.755818 -17.200516
v 27.231731 1.755818 -17.614859
v 25.715799 1.755818 -18.490082
v 24.199867 1.755818 -15.864410
v 24.199867 1.755818 -17.614859
v 25.715799 3.506266 -16.739634
v 25.715799 1.755818 -14.989186
v 27.231731 1.755818 -15.864410
vt 0.696579 0.600411
vt 0.685076 0.694873
vt 0.638364 0.694873
vt 0.626861 0.600411
vt 0.632435 0.583847
vt 0.702153 0.583847
vt 0.690650 0.678309
vt 0.643939 0.678309
vt 0.586052 0.681207
vt 0.586052 0.616203
vt 0.651055 0.616203
vt 0.651055 0.681207
vt 0.635132 0.674221
vt 0.591580 0.674221
vt 0.580855 0.586146
vt 0.645858 0.586146
vt 0.592509 0.528212
vt 0.592509 0.526753
vt 0.593968 0.526753
vt 0.593968 0.528212
vt 0.400285 0.131362
vt 0.399020 0.131912
vt 0.400285 0.129903
vt 0.401036 0.133076
vt 0.401744 0.131362
vt 0.403051 0.129585
vt 0.403051 0.131912
vt 0.401887 0.130635
vt 0.400724 0.133714
vt 0.399560 0.130635
vt 0.404797 0.131295
vt 0.403633 0.134373
vt 0.402469 0.131295
vt 0.407124 0.129975
vt 0.405960 0.133054
vt 0.404797 0.129975
vt 0.405378 0.131075
vt 0.404215 0.127996
vt 0.406542 0.127996
vt 0.399020 0.129585
vt 0.401036 0.128422
vt 0.401744 0.129903
vt 0.403633 0.127336
vt 0.402469 0.130415
vt 0.401306 0.127336
vt 0.401306 0.128656
vt 0.400142 0.131734
vt 0.398978 0.128656
vt 0.651055 0.570703
vt 0.640330 0.658777
vt 0.596777 0.658777
vt 0.586052 0.570703
vn 0.0000 0.1218 0.9926
vn 0.9926 0.1218 0.0000
vn 0.0000 -1.0000 -0.0000
vn -0.9926 0.1218 0.0000
vn -0.7559 0.6547 0.0000
vn -0.3780 0.6547 0.6547
vn 0.3780 0.6547 0.6547
vn 0.7559 0.6547 0.0000
vn 0.3780 0.6547 -0.6547
vn -0.3780 0.6547 -0.6547
vn 0.0000 0.1218 -0.9926
g Mushroom_Red_01.002_Mushroom_Red_01.011_Material.001
usemtl Material.001
s 1
f 66/206/48 67/207/48 68/208/48 69/209/48
f 66/210/49 70/211/49 71/212/49 67/213/49
f 70/214/50 66/215/50 69/216/50 72/217/50
f 68/218/51 73/219/51 72/220/51 69/221/51
f 71/222/50 67/223/50 68/224/50 73/225/50
f 71/226/50 74/227/50 67/228/50
f 71/226/50 75/229/50 74/227/50
f 73/230/50 75/229/50 71/226/50
f 76/231/50 75/229/50 73/230/50
f 75/229/50 76/231/50 77/232/50
f 76/233/52 78/234/52 77/235/52
f 79/236/53 78/237/53 76/238/53
f 80/239/54 78/240/54 79/241/54
f 78/242/55 80/243/55 74/244/55
f 80/245/50 67/228/50 74/227/50
f 79/246/50 67/228/50 80/245/50
f 79/246/50 68/247/50 67/228/50
f 76/231/50 68/247/50 79/246/50
f 68/247/50 76/231/50 73/230/50
f 75/248/56 78/249/56 74/250/56
f 77/251/57 78/252/57 75/253/57
f 72/254/58 73/255/58 71/256/58 70/257/58
o Mushroom_Red_01.003_Mushroom_Red_01.012
v -27.220266 -0.446358 5.215369
v -27.490459 1.755818 4.945183
v -28.587595 1.755818 4.945183
v -28.857782 -0.446358 5.215369
v -27.220266 -0.446358 3.577854
v -27.490459 1.755818 3.848047
v -28.857782 -0.446358 3.577854
v -28.587595 1.755818 3.848047
v -26.538994 1.755818 3.433705
v -28.054926 1.755818 2.558481
v -29.570858 1.755818 5.184153
v -29.570858 1.755818 3.433705
v -28.054926 3.506266 4.308929
v -28.054926 1.755818 6.059377
v -26.538994 1.755818 5.184153
vt 0.696579 0.600411
vt 0.685076 0.694873
vt 0.638364 0.694873
vt 0.626861 0.600411
vt 0.632435 0.583847
vt 0.702153 0.583847
vt 0.690650 0.678309
vt 0.643939 0.678309
vt 0.586052 0.681207
vt 0.586052 0.616203
vt 0.651055 0.616203
vt 0.651055 0.681207
vt 0.635132 0.674221
vt 0.591580 0.674221
vt 0.580855 0.586146
vt 0.645858 0.586146
vt 0.592509 0.528212
vt 0.592509 0.526753
vt 0.593968 0.526753
vt 0.593968 0.528212
vt 0.400285 0.131362
vt 0.399020 0.131912
vt 0.400285 0.129903
vt 0.401036 0.133076
vt 0.401744 0.131362
vt 0.403051 0.129585
vt 0.403051 0.131912
vt 0.401887 0.130635
vt 0.400724 0.133714
vt 0.399560 0.130635
vt 0.404797 0.131295
vt 0.403633 0.134373
vt 0.402469 0.131295
vt 0.407124 0.129975
vt 0.405960 0.133054
vt 0.404797 0.129975
vt 0.405378 0.131075
vt 0.404215 0.127996
vt 0.406542 0.127996
vt 0.399020 0.129585
vt 0.401036 0.128422
vt 0.401744 0.129903
vt 0.403633 0.127336
vt 0.402469 0.130415
vt 0.401306 0.127336
vt 0.401306 0.128656
vt 0.400142 0.131734
vt 0.398978 0.128656
vt 0.651055 0.570703
vt 0.640330 0.658777
vt 0.596777 0.658777
vt 0.586052 0.570703
vn 0.0000 0.1218 0.9926
vn 0.9926 0.1218 0.0000
vn 0.0000 -1.0000 -0.0000
vn -0.9926 0.1218 0.0000
vn -0.7559 0.6547 0.0000
vn -0.3780 0.6547 0.6547
vn 0.3780 0.6547 0.6547
vn 0.7559 0.6547 0.0000
vn 0.3780 0.6547 -0.6547
vn -0.3780 0.6547 -0.6547
vn 0.0000 0.1218 -0.9926
g Mushroom_Red_01.003_Mushroom_Red_01.012_Material.001
usemtl Material.001
s 1
f 81/258/59 82/259/59 83/260/59 84/261/59
f 81/262/60 85/263/60 86/264/60 82/265/60
f 85/266/61 81/267/61 84/268/61 87/269/61
f 83/270/62 88/271/62 87/272/62 84/273/62
f 86/274/61 82/275/61 83/276/61 88/277/61
f 86/278/61 89/279/61 82/280/61
f 86/278/61 90/281/61 89/279/61
f 88/282/61 90/281/61 86/278/61
f 91/283/61 90/281/61 88/282/61
f 90/281/61 91/283/61 92/284/61
f 91/285/63 93/286/63 92/287/63
f 94/288/64 93/289/64 91/290/64
f 95/291/65 93/292/65 94/293/65
f 93/294/66 95/295/66 89/296/66
f 95/297/61 82/280/61 89/279/61
f 94/298/61 82/280/61 95/297/61
f 94/298/61 83/299/61 82/280/61
f 91/283/61 83/299/61 94/298/61
f 83/299/61 91/283/61 88/282/61
f 90/300/67 93/301/67 89/302/67
f 92/303/68 93/304/68 90/305/68
f 87/306/69 88/307/69 86/308/69 85/309/69
