# Blender v2.82 (sub 7) OBJ File: ''
# www.blender.org
mtllib bale.mtl
o straw.002
v 6.952542 17.606491 -4.439186
v -8.633204 17.606491 -5.239633
v -8.847878 17.606491 -7.773440
v 7.109906 17.606491 -6.929620
v -8.616701 26.396309 -5.245546
v -8.657187 26.428801 -7.765484
v 7.423178 26.396309 -4.478345
v 7.570200 26.428801 -6.970751
v 7.439124 17.606491 5.849026
v -9.234192 17.606491 5.048587
v -9.083991 17.606491 2.536596
v 7.326519 17.606491 3.358600
v -9.217689 26.396309 5.042673
v -9.067488 26.396309 2.530682
v 7.303922 26.428801 5.829453
v 7.387442 26.396309 3.297891
v -0.482892 25.847250 -0.915861
v -0.680090 25.886940 -11.395005
v -0.680091 17.542925 -11.395006
v 3.422497 26.366781 -11.317728
v 3.107285 26.366781 -4.220662
v 2.982237 26.366781 2.779335
v 3.370069 26.366781 9.633262
v 7.271191 25.886940 9.702946
v 6.516569 25.695290 -0.785983
v 7.060757 25.886940 -11.252737
v 6.516569 18.214417 -0.785983
v 7.271189 17.542925 9.702945
v -0.997588 25.886940 9.653893
v -0.983747 17.542925 9.553395
v 7.060756 17.542925 -11.252739
v -8.582939 17.764132 -7.112677
v -8.582939 25.870039 -7.112676
v -8.591557 25.886940 -11.575277
v -8.398640 17.542925 -11.448874
v -4.954919 26.366781 -11.448872
v -4.925841 26.366781 -4.338023
v -5.169042 26.366781 2.658862
v -4.896975 26.366781 9.518356
v -9.248819 17.542925 9.365002
v -9.248819 25.886940 9.365002
v -8.270919 25.695290 -1.088165
v -8.270920 18.214417 -1.088166
vt 0.366123 0.660778
vt 0.349462 0.622514
vt 0.334710 0.583652
vt 0.350308 0.578823
vt 0.360846 0.603416
vt 0.371438 0.629561
vt 0.379691 0.653508
vt 0.122110 0.144740
vt 0.115975 0.145058
vt 0.117337 0.166524
vt 0.123522 0.166119
vt 0.122583 0.105601
vt 0.116498 0.105460
vt 0.117444 0.083947
vt 0.123522 0.084166
vt 0.123671 0.105370
vt 0.129804 0.105463
vt 0.130112 0.084040
vt 0.123979 0.083947
vt 0.123549 0.145687
vt 0.129723 0.145615
vt 0.130112 0.167038
vt 0.124037 0.167188
vt 0.320683 0.591169
vt 0.331354 0.615170
vt 0.342102 0.641273
vt 0.349821 0.665378
vt 0.337254 0.667010
vt 0.321221 0.633993
vt 0.310915 0.598319
vt 0.274508 0.651908
vt 0.328124 0.705742
vt 0.382097 0.700368
vt 0.277621 0.575649
vt 0.318668 0.543630
vt 0.399331 0.554259
vt 0.369132 0.587565
vt 0.361735 0.575669
vt 0.370257 0.539142
vt 0.424704 0.666426
vt 0.390961 0.644987
vt 0.380011 0.610308
vt 0.424704 0.592183
vn 0.1142 0.9935 0.0007
vn -0.9987 0.0117 0.0505
vn -0.9968 0.0524 -0.0605
vn 0.0006 -0.9999 -0.0130
vn -0.9982 0.0018 -0.0597
vn -1.0000 -0.0042 0.0058
vn 0.0007 -1.0000 0.0065
vn 0.1546 0.9880 -0.0007
vn 0.9974 -0.0000 -0.0718
vn -0.0121 -0.0030 0.9999
vn -0.0128 -0.0026 0.9999
vn -0.0185 -0.0060 0.9998
vn -0.1296 0.9916 -0.0012
vn 0.0184 0.0001 -0.9998
vn 0.0183 0.0001 -0.9998
vn 0.0179 0.0000 -0.9998
vn 0.0185 0.0001 -0.9998
vn -0.0179 -0.0000 0.9998
vn 0.9987 -0.0000 0.0519
vn -0.9997 -0.0119 -0.0197
vn -0.0294 -0.0056 0.9996
vn -0.0298 -0.0052 0.9995
vn -0.0352 0.0000 0.9994
vn -0.1526 0.9883 -0.0027
vn 0.0158 -0.0049 -0.9999
vn 0.0191 -0.0064 -0.9998
vn 0.0089 -0.0018 -1.0000
vn 0.0366 -0.0143 -0.9992
vn -0.9957 0.0000 -0.0931
vn -0.9987 -0.0000 0.0517
g straw.002_straw.002_Material
usemtl Material
s off
f 29/1/1 17/2/1 18/3/1 36/4/1 37/5/1 38/6/1 39/7/1
s 1
f 5/8/2 6/9/2 3/10/2 2/11/2
f 7/12/3 8/13/3 4/14/3 1/15/3
f 5/8/4 6/9/4 8/13/4 7/12/4
f 13/16/5 14/17/5 11/18/5 10/19/5
f 15/20/6 16/21/6 12/22/6 9/23/6
f 13/16/7 14/17/7 16/21/7 15/20/7
f 20/24/8 21/25/8 22/26/8 23/27/8 24/28/8 25/29/8 26/30/8
f 27/31/9 25/29/9 24/28/9 28/32/9
f 28/32/10 23/27/11 29/1/12 30/33/12
f 18/3/13 17/2/13 29/1/13 23/27/13 22/26/13 21/25/13 20/24/13
f 31/34/14 20/24/15 26/30/16
f 19/35/17 18/3/17 20/24/15 31/34/14
f 28/32/10 24/28/18 23/27/11
f 31/34/19 26/30/19 25/29/19 27/31/19
f 32/36/20 33/37/20 34/38/20 35/39/20
f 40/40/21 39/7/22 41/41/23
f 34/38/24 33/37/24 42/42/24 41/41/24 39/7/24 38/6/24 37/5/24 36/4/24
f 35/39/25 36/4/26 18/3/27 19/35/27
f 35/39/25 34/38/28 36/4/26
f 30/33/12 29/1/12 39/7/22 40/40/21
f 40/40/29 41/41/29 42/42/29 43/43/29
f 43/43/30 42/42/30 33/37/30 32/36/30
o straw.001
v -3.567815 -0.165180 -1.178448
v -4.368261 -0.165180 14.407299
v -6.902069 -0.165180 14.621973
v -6.058249 -0.165180 -1.335812
v -4.374174 8.624638 14.390796
v -6.894113 8.657129 14.431282
v -3.606974 8.624638 -1.649083
v -6.099380 8.657129 -1.796105
v 6.720397 -0.165180 -1.665030
v 5.919959 -0.165180 15.008286
v 3.407967 -0.165180 14.858086
v 4.229971 -0.165180 -1.552425
v 5.914045 8.624638 14.991783
v 3.402054 8.624638 14.841582
v 6.700824 8.657129 -1.529828
v 4.169262 8.624638 -1.613348
v -0.044489 8.075579 6.256986
v -10.523635 8.115269 6.454185
v -10.523635 -0.228746 6.454185
v -10.446358 8.595110 2.351598
v -3.349291 8.595110 2.666810
v 3.650706 8.595110 2.791857
v 10.504633 8.595110 2.404025
v 10.574317 8.115269 -1.497097
v 0.085388 7.923618 -0.742476
v -10.381367 8.115269 -1.286662
v 0.085388 0.442745 -0.742475
v 10.574316 -0.228746 -1.497095
v 10.525265 8.115269 6.771681
v 10.424767 -0.228746 6.757841
v -10.381368 -0.228746 -1.286661
v -6.241305 -0.007540 14.357035
v -6.241304 8.098368 14.357035
v -10.703906 8.115269 14.365652
v -10.577502 -0.228746 14.172735
v -10.577501 8.595110 10.729014
v -3.466651 8.595110 10.699936
v 3.530234 8.595110 10.943136
v 10.389729 8.595110 10.671068
v 10.236373 -0.228746 15.022914
v 10.236373 8.115269 15.022913
v -0.216794 7.923618 14.045013
v -0.216795 0.442745 14.045014
vt 0.366123 0.660778
vt 0.349462 0.622514
vt 0.334710 0.583652
vt 0.350308 0.578823
vt 0.360846 0.603416
vt 0.371438 0.629561
vt 0.379691 0.653508
vt 0.122110 0.144740
vt 0.115975 0.145058
vt 0.117337 0.166524
vt 0.123522 0.166119
vt 0.122583 0.105601
vt 0.116498 0.105460
vt 0.117444 0.083947
vt 0.123522 0.084166
vt 0.123671 0.105370
vt 0.129804 0.105463
vt 0.130112 0.084040
vt 0.123979 0.083947
vt 0.123549 0.145687
vt 0.129723 0.145615
vt 0.130112 0.167038
vt 0.124037 0.167188
vt 0.320683 0.591169
vt 0.331354 0.615170
vt 0.342102 0.641273
vt 0.349821 0.665378
vt 0.337254 0.667010
vt 0.321221 0.633993
vt 0.310915 0.598319
vt 0.274508 0.651908
vt 0.328124 0.705742
vt 0.382097 0.700368
vt 0.277621 0.575649
vt 0.318668 0.543630
vt 0.399331 0.554259
vt 0.369132 0.587565
vt 0.361735 0.575669
vt 0.370257 0.539142
vt 0.424704 0.666426
vt 0.390961 0.644987
vt 0.380011 0.610308
vt 0.424704 0.592183
vn 0.0007 0.9935 -0.1142
vn 0.0505 0.0117 0.9987
vn -0.0605 0.0524 0.9968
vn -0.0130 -0.9999 -0.0006
vn -0.0597 0.0018 0.9982
vn 0.0058 -0.0042 1.0000
vn 0.0065 -1.0000 -0.0007
vn -0.0007 0.9880 -0.1546
vn -0.0718 -0.0000 -0.9974
vn 0.9999 -0.0030 0.0121
vn 0.9999 -0.0026 0.0128
vn 0.9998 -0.0060 0.0185
vn -0.0012 0.9916 0.1296
vn -0.9998 0.0001 -0.0184
vn -0.9998 0.0001 -0.0183
vn -0.9998 0.0000 -0.0179
vn -0.9998 0.0001 -0.0185
vn 0.9998 0.0000 0.0179
vn 0.0519 -0.0000 -0.9987
vn -0.0197 -0.0119 0.9997
vn 0.9996 -0.0056 0.0294
vn 0.9995 -0.0052 0.0298
vn 0.9994 0.0000 0.0352
vn -0.0027 0.9883 0.1526
vn -0.9999 -0.0049 -0.0158
vn -0.9998 -0.0064 -0.0191
vn -1.0000 -0.0018 -0.0089
vn -0.9992 -0.0143 -0.0366
vn -0.0931 0.0000 0.9957
vn 0.0517 0.0000 0.9987
g straw.001_straw.001_Material
usemtl Material
s off
f 72/44/31 60/45/31 61/46/31 79/47/31 80/48/31 81/49/31 82/50/31
s 1
f 48/51/32 49/52/32 46/53/32 45/54/32
f 50/55/33 51/56/33 47/57/33 44/58/33
f 48/51/34 49/52/34 51/56/34 50/55/34
f 56/59/35 57/60/35 54/61/35 53/62/35
f 58/63/36 59/64/36 55/65/36 52/66/36
f 56/59/37 57/60/37 59/64/37 58/63/37
f 63/67/38 64/68/38 65/69/38 66/70/38 67/71/38 68/72/38 69/73/38
f 70/74/39 68/72/39 67/71/39 71/75/39
f 71/75/40 66/70/41 72/44/42 73/76/42
f 61/46/43 60/45/43 72/44/43 66/70/43 65/69/43 64/68/43 63/67/43
f 74/77/44 63/67/45 69/73/46
f 62/78/47 61/46/47 63/67/45 74/77/44
f 71/75/40 67/71/48 66/70/41
f 74/77/49 69/73/49 68/72/49 70/74/49
f 75/79/50 76/80/50 77/81/50 78/82/50
f 83/83/51 82/50/52 84/84/53
f 77/81/54 76/80/54 85/85/54 84/84/54 82/50/54 81/49/54 80/48/54 79/47/54
f 78/82/55 79/47/56 61/46/57 62/78/57
f 78/82/55 77/81/58 79/47/56
f 73/76/42 72/44/42 82/50/52 83/83/51
f 83/83/59 84/84/59 85/85/59 86/86/59
f 86/86/60 85/85/60 76/80/60 75/79/60
o straw.003
v -3.567815 -0.165180 -16.754147
v -4.368261 -0.165180 -1.168400
v -6.902069 -0.165180 -0.953725
v -6.058249 -0.165180 -16.911510
v -4.374174 8.624638 -1.184903
v -6.894113 8.657129 -1.144417
v -3.606974 8.624638 -17.224781
v -6.099380 8.657129 -17.371803
v 6.720397 -0.165180 -17.240730
v 5.919959 -0.165180 -0.567412
v 3.407967 -0.165180 -0.717613
v 4.229971 -0.165180 -17.128124
v 5.914045 8.624638 -0.583916
v 3.402054 8.624638 -0.734117
v 6.700824 8.657129 -17.105526
v 4.169262 8.624638 -17.189047
v -0.044489 8.075579 -9.318713
v -10.523635 8.115269 -9.121513
v -10.523635 -0.228746 -9.121513
v -10.446358 8.595110 -13.224101
v -3.349291 8.595110 -12.908890
v 3.650706 8.595110 -12.783842
v 10.504633 8.595110 -13.171675
v 10.574317 8.115269 -17.072796
v 0.085388 7.923618 -16.318174
v -10.381367 8.115269 -16.862362
v 0.085388 0.442745 -16.318172
v 10.574316 -0.228746 -17.072794
v 10.525265 8.115269 -8.804018
v 10.424767 -0.228746 -8.817858
v -10.381368 -0.228746 -16.862360
v -6.241305 -0.007540 -1.218665
v -6.241304 8.098368 -1.218665
v -10.703906 8.115269 -1.210047
v -10.577502 -0.228746 -1.402963
v -10.577501 8.595110 -4.846684
v -3.466651 8.595110 -4.875763
v 3.530234 8.595110 -4.632563
v 10.389729 8.595110 -4.904630
v 10.236373 -0.228746 -0.552785
v 10.236373 8.115269 -0.552786
v -0.216794 7.923618 -1.530685
v -0.216795 0.442745 -1.530684
vt 0.366123 0.660778
vt 0.349462 0.622514
vt 0.334710 0.583652
vt 0.350308 0.578823
vt 0.360846 0.603416
vt 0.371438 0.629561
vt 0.379691 0.653508
vt 0.122110 0.144740
vt 0.115975 0.145058
vt 0.117337 0.166524
vt 0.123522 0.166119
vt 0.122583 0.105601
vt 0.116498 0.105460
vt 0.117444 0.083947
vt 0.123522 0.084166
vt 0.123671 0.105370
vt 0.129804 0.105463
vt 0.130112 0.084040
vt 0.123979 0.083947
vt 0.123549 0.145687
vt 0.129723 0.145615
vt 0.130112 0.167038
vt 0.124037 0.167188
vt 0.320683 0.591169
vt 0.331354 0.615170
vt 0.342102 0.641273
vt 0.349821 0.665378
vt 0.337254 0.667010
vt 0.321221 0.633993
vt 0.310915 0.598319
vt 0.274508 0.651908
vt 0.328124 0.705742
vt 0.382097 0.700368
vt 0.277621 0.575649
vt 0.318668 0.543630
vt 0.399331 0.554259
vt 0.369132 0.587565
vt 0.361735 0.575669
vt 0.370257 0.539142
vt 0.424704 0.666426
vt 0.390961 0.644987
vt 0.380011 0.610308
vt 0.424704 0.592183
vn 0.0007 0.9935 -0.1142
vn 0.0505 0.0117 0.9987
vn -0.0605 0.0524 0.9968
vn -0.0130 -0.9999 -0.0006
vn -0.0597 0.0018 0.9982
vn 0.0058 -0.0042 1.0000
vn 0.0065 -1.0000 -0.0007
vn -0.0007 0.9880 -0.1546
vn -0.0718 -0.0000 -0.9974
vn 0.9999 -0.0030 0.0121
vn 0.9999 -0.0026 0.0128
vn 0.9998 -0.0060 0.0185
vn -0.0012 0.9916 0.1296
vn -0.9998 0.0001 -0.0184
vn -0.9998 0.0001 -0.0183
vn -0.9998 0.0000 -0.0179
vn -0.9998 0.0001 -0.0185
vn 0.9998 -0.0000 0.0179
vn 0.0519 -0.0000 -0.9987
vn -0.0197 -0.0119 0.9997
vn 0.9996 -0.0056 0.0294
vn 0.9995 -0.0052 0.0298
vn 0.9994 -0.0000 0.0352
vn -0.0027 0.9883 0.1526
vn -0.9999 -0.0049 -0.0158
vn -0.9998 -0.0064 -0.0191
vn -1.0000 -0.0018 -0.0089
vn -0.9992 -0.0143 -0.0366
vn -0.0931 0.0000 0.9957
vn 0.0517 0.0000 0.9987
g straw.003_straw.003_Material
usemtl Material
s off
f 115/87/61 103/88/61 104/89/61 122/90/61 123/91/61 124/92/61 125/93/61
s 1
f 91/94/62 92/95/62 89/96/62 88/97/62
f 93/98/63 94/99/63 90/100/63 87/101/63
f 91/94/64 92/95/64 94/99/64 93/98/64
f 99/102/65 100/103/65 97/104/65 96/105/65
f 101/106/66 102/107/66 98/108/66 95/109/66
f 99/102/67 100/103/67 102/107/67 101/106/67
f 106/110/68 107/111/68 108/112/68 109/113/68 110/114/68 111/115/68 112/116/68
f 113/117/69 111/115/69 110/114/69 114/118/69
f 114/118/70 109/113/71 115/87/72 116/119/72
f 104/89/73 103/88/73 115/87/73 109/113/73 108/112/73 107/111/73 106/110/73
f 117/120/74 106/110/75 112/116/76
f 105/121/77 104/89/77 106/110/75 117/120/74
f 114/118/70 110/114/78 109/113/71
f 117/120/79 112/116/79 111/115/79 113/117/79
f 118/122/80 119/123/80 120/124/80 121/125/80
f 126/126/81 125/93/82 127/127/83
f 120/124/84 119/123/84 128/128/84 127/127/84 125/93/84 124/92/84 123/91/84 122/90/84
f 121/125/85 122/90/86 104/89/87 105/121/87
f 121/125/85 120/124/88 122/90/86
f 116/119/72 115/87/72 125/93/82 126/126/81
f 126/126/89 127/127/89 128/128/89 129/129/89
f 129/129/90 128/128/90 119/123/90 118/122/90
o straw.004
v 2.689232 8.150480 -0.102091
v 1.682735 8.150480 -15.675888
v 4.174744 8.150480 -16.182011
v 5.181163 8.150480 -0.233654
v 1.690516 16.940298 -15.660179
v 4.188884 16.972790 -15.991676
v 2.782530 16.940298 0.360864
v 5.275224 16.972790 0.218800
v -7.473771 8.150480 1.570459
v -8.605989 8.150480 -15.083618
v -6.093475 8.150480 -15.224789
v -5.013055 8.150480 1.170737
v -8.598208 16.940298 -15.067909
v -6.085694 16.940298 -15.209080
v -7.469956 16.972790 1.433899
v -4.945711 16.940298 1.224233
v -1.669948 16.391239 -7.080418
v 8.716160 16.430929 -8.487594
v 8.716160 8.086914 -8.487595
v 9.113625 16.910770 -4.403574
v 2.027695 16.910770 -3.896314
v -4.939835 16.910770 -3.211383
v -11.702989 16.910770 -2.033896
v -11.321269 16.430929 1.849131
v -0.989878 16.239279 -0.112862
v 9.469621 16.430929 -0.782190
v -0.989877 8.758406 -0.112863
v -11.321268 8.086914 1.849130
v -12.228345 16.430929 -6.369891
v -12.126921 8.086914 -6.367760
v 9.469622 8.086914 -0.782191
v 3.549034 8.308121 -15.842468
v 3.549034 16.414028 -15.842468
v 7.980725 16.430929 -16.366867
v 7.877468 8.086914 -16.160633
v 8.275532 16.910770 -12.739994
v 1.215708 16.910770 -11.889158
v -5.762388 16.910770 -11.321949
v -12.544454 16.910770 -10.258806
v -12.895161 8.086914 -14.599209
v -12.895163 16.430929 -14.599207
v -2.399027 16.239279 -14.836158
v -2.399026 8.758406 -14.836159
vt 0.366123 0.660778
vt 0.349462 0.622514
vt 0.334710 0.583652
vt 0.350308 0.578823
vt 0.360846 0.603416
vt 0.371438 0.629561
vt 0.379691 0.653508
vt 0.122110 0.144740
vt 0.115975 0.145058
vt 0.117337 0.166524
vt 0.123522 0.166119
vt 0.122583 0.105601
vt 0.116498 0.105460
vt 0.117444 0.083947
vt 0.123522 0.084166
vt 0.123671 0.105370
vt 0.129804 0.105463
vt 0.130112 0.084040
vt 0.123979 0.083947
vt 0.123549 0.145687
vt 0.129723 0.145615
vt 0.130112 0.167038
vt 0.124037 0.167188
vt 0.320683 0.591169
vt 0.331354 0.615170
vt 0.342102 0.641273
vt 0.349821 0.665378
vt 0.337254 0.667010
vt 0.321221 0.633993
vt 0.310915 0.598319
vt 0.274508 0.651908
vt 0.328124 0.705742
vt 0.382097 0.700368
vt 0.277621 0.575649
vt 0.318668 0.543630
vt 0.399331 0.554259
vt 0.369132 0.587565
vt 0.361735 0.575669
vt 0.370257 0.539142
vt 0.424704 0.666426
vt 0.390961 0.644987
vt 0.380011 0.610308
vt 0.424704 0.592183
vn 0.0125 0.9935 0.1136
vn -0.1656 0.0117 -0.9861
vn -0.0551 0.0524 -0.9971
vn 0.0129 -0.9999 -0.0009
vn -0.0561 0.0018 -0.9984
vn -0.1214 -0.0042 -0.9926
vn -0.0064 -1.0000 0.0014
vn 0.0186 0.9880 0.1535
vn 0.1866 -0.0000 0.9824
vn -0.9946 -0.0030 0.1035
vn -0.9947 -0.0026 0.1028
vn -0.9953 -0.0060 0.0972
vn -0.9952 -0.0060 0.0972
vn -0.0138 0.9916 -0.1289
vn 0.9953 0.0001 -0.0973
vn 0.9952 0.0001 -0.0974
vn 0.9952 0.0000 -0.0978
vn 0.9953 0.0001 -0.0972
vn -0.9952 0.0000 0.0978
vn 0.0639 -0.0000 0.9980
vn -0.0960 -0.0119 -0.9953
vn -0.9962 -0.0056 0.0864
vn -0.9963 -0.0052 0.0859
vn -0.9968 -0.0000 0.0805
vn -0.0150 0.9883 -0.1519
vn 0.9950 -0.0049 -0.0999
vn 0.9953 -0.0064 -0.0966
vn 0.9943 -0.0018 -0.1067
vn 0.9968 -0.0143 -0.0791
vn -0.0226 0.0000 -0.9997
vn -0.1668 0.0000 -0.9860
g straw.004_straw.004_Material
usemtl Material
s off
f 158/130/91 146/131/91 147/132/91 165/133/91 166/134/91 167/135/91 168/136/91
s 1
f 134/137/92 135/138/92 132/139/92 131/140/92
f 136/141/93 137/142/93 133/143/93 130/144/93
f 134/137/94 135/138/94 137/142/94 136/141/94
f 142/145/95 143/146/95 140/147/95 139/148/95
f 144/149/96 145/150/96 141/151/96 138/152/96
f 142/145/97 143/146/97 145/150/97 144/149/97
f 149/153/98 150/154/98 151/155/98 152/156/98 153/157/98 154/158/98 155/159/98
f 156/160/99 154/158/99 153/157/99 157/161/99
f 157/161/100 152/156/101 158/130/102 159/162/103
f 147/132/104 146/131/104 158/130/104 152/156/104 151/155/104 150/154/104 149/153/104
f 160/163/105 149/153/106 155/159/107
f 148/164/108 147/132/108 149/153/106 160/163/105
f 157/161/100 153/157/109 152/156/101
f 160/163/110 155/159/110 154/158/110 156/160/110
f 161/165/111 162/166/111 163/167/111 164/168/111
f 169/169/112 168/136/113 170/170/114
f 163/167/115 162/166/115 171/171/115 170/170/115 168/136/115 167/135/115 166/134/115 165/133/115
f 164/168/116 165/133/117 147/132/118 148/164/118
f 164/168/116 163/167/119 165/133/117
f 159/162/103 158/130/102 168/136/113 169/169/112
f 169/169/120 170/170/120 171/171/120 172/172/120
f 172/172/121 171/171/121 162/166/121 161/165/121
o straw.005
v 4.489639 8.150480 15.369204
v 3.483142 8.150480 -0.204595
v 5.975151 8.150480 -0.710716
v 6.981570 8.150480 15.237640
v 3.490923 16.940298 -0.188885
v 5.989290 16.972790 -0.520383
v 4.582937 16.940298 15.832157
v 7.075631 16.972790 15.690094
v -5.673364 8.150480 17.041754
v -6.805583 8.150480 0.387676
v -4.293068 8.150480 0.246505
v -3.212648 8.150480 16.642031
v -6.797801 16.940298 0.403385
v -4.285287 16.940298 0.262214
v -5.669549 16.972790 16.905193
v -3.145304 16.940298 16.695526
v 0.130459 16.391239 8.390877
v 10.516567 16.430929 6.983700
v 10.516567 8.086914 6.983700
v 10.914032 16.910770 11.067720
v 3.828102 16.910770 11.574980
v -3.139428 16.910770 12.259911
v -9.902582 16.910770 13.437398
v -9.520863 16.430929 17.320425
v 0.810529 16.239279 15.358433
v 11.270027 16.430929 14.689104
v 0.810530 8.758406 15.358431
v -9.520861 8.086914 17.320423
v -10.427938 16.430929 9.101403
v -10.326513 8.086914 9.103535
v 11.270029 8.086914 14.689102
v 5.349441 8.308121 -0.371175
v 5.349441 16.414028 -0.371174
v 9.781132 16.430929 -0.895572
v 9.677876 8.086914 -0.689338
v 10.075939 16.910770 2.731299
v 3.016115 16.910770 3.582136
v -3.961981 16.910770 4.149344
v -10.744047 16.910770 5.212487
v -11.094753 8.086914 0.872086
v -11.094755 16.430929 0.872087
v -0.598620 16.239279 0.635136
v -0.598619 8.758406 0.635135
vt 0.366123 0.660778
vt 0.349462 0.622514
vt 0.334710 0.583652
vt 0.350308 0.578823
vt 0.360846 0.603416
vt 0.371438 0.629561
vt 0.379691 0.653508
vt 0.122110 0.144740
vt 0.115975 0.145058
vt 0.117337 0.166524
vt 0.123522 0.166119
vt 0.122583 0.105601
vt 0.116498 0.105460
vt 0.117444 0.083947
vt 0.123522 0.084166
vt 0.123671 0.105370
vt 0.129804 0.105463
vt 0.130112 0.084040
vt 0.123979 0.083947
vt 0.123549 0.145687
vt 0.129723 0.145615
vt 0.130112 0.167038
vt 0.124037 0.167188
vt 0.320683 0.591169
vt 0.331354 0.615170
vt 0.342102 0.641273
vt 0.349821 0.665378
vt 0.337254 0.667010
vt 0.321221 0.633993
vt 0.310915 0.598319
vt 0.274508 0.651908
vt 0.328124 0.705742
vt 0.382097 0.700368
vt 0.277621 0.575649
vt 0.318668 0.543630
vt 0.399331 0.554259
vt 0.369132 0.587565
vt 0.361735 0.575669
vt 0.370257 0.539142
vt 0.424704 0.666426
vt 0.390961 0.644987
vt 0.380011 0.610308
vt 0.424704 0.592183
vn 0.0125 0.9935 0.1136
vn -0.1656 0.0117 -0.9861
vn -0.0551 0.0524 -0.9971
vn 0.0129 -0.9999 -0.0009
vn -0.0561 0.0018 -0.9984
vn -0.1214 -0.0042 -0.9926
vn -0.0064 -1.0000 0.0014
vn 0.0186 0.9880 0.1535
vn 0.1866 -0.0000 0.9824
vn -0.9946 -0.0030 0.1035
vn -0.9947 -0.0026 0.1028
vn -0.9953 -0.0060 0.0972
vn -0.9952 -0.0060 0.0972
vn -0.0138 0.9916 -0.1289
vn 0.9953 0.0001 -0.0973
vn 0.9952 0.0001 -0.0974
vn 0.9952 0.0000 -0.0978
vn 0.9953 0.0001 -0.0972
vn -0.9952 -0.0000 0.0978
vn 0.0639 -0.0000 0.9980
vn -0.0960 -0.0119 -0.9953
vn -0.9962 -0.0056 0.0864
vn -0.9963 -0.0052 0.0859
vn -0.9968 -0.0000 0.0805
vn -0.0150 0.9883 -0.1519
vn 0.9950 -0.0049 -0.0999
vn 0.9953 -0.0064 -0.0966
vn 0.9943 -0.0018 -0.1067
vn 0.9968 -0.0143 -0.0791
vn -0.0226 0.0000 -0.9997
vn -0.1668 0.0000 -0.9860
g straw.005_straw.005_Material
usemtl Material
s off
f 201/173/122 189/174/122 190/175/122 208/176/122 209/177/122 210/178/122 211/179/122
s 1
f 177/180/123 178/181/123 175/182/123 174/183/123
f 179/184/124 180/185/124 176/186/124 173/187/124
f 177/180/125 178/181/125 180/185/125 179/184/125
f 185/188/126 186/189/126 183/190/126 182/191/126
f 187/192/127 188/193/127 184/194/127 181/195/127
f 185/188/128 186/189/128 188/193/128 187/192/128
f 192/196/129 193/197/129 194/198/129 195/199/129 196/200/129 197/201/129 198/202/129
f 199/203/130 197/201/130 196/200/130 200/204/130
f 200/204/131 195/199/132 201/173/133 202/205/134
f 190/175/135 189/174/135 201/173/135 195/199/135 194/198/135 193/197/135 192/196/135
f 203/206/136 192/196/137 198/202/138
f 191/207/139 190/175/139 192/196/137 203/206/136
f 200/204/131 196/200/140 195/199/132
f 203/206/141 198/202/141 197/201/141 199/203/141
f 204/208/142 205/209/142 206/210/142 207/211/142
f 212/212/143 211/179/144 213/213/145
f 206/210/146 205/209/146 214/214/146 213/213/146 211/179/146 210/178/146 209/177/146 208/176/146
f 207/211/147 208/176/148 190/175/149 191/207/149
f 207/211/147 206/210/150 208/176/148
f 202/205/134 201/173/133 211/179/144 212/212/143
f 212/212/151 213/213/151 214/214/151 215/215/151
f 215/215/152 214/214/152 205/209/152 204/208/152
