# Blender v2.82 (sub 7) OBJ File: ''
# www.blender.org
mtllib Tree2_2.mtl
o Cone
v -0.102807 32.911991 -4.773068
v -0.102807 39.886223 -0.084082
v -0.099949 39.886223 -0.082004
v 4.359551 32.909164 -1.530982
v -0.101038 39.886223 -0.078636
v 2.655085 32.909164 3.714841
v -0.104575 39.886223 -0.078636
v -2.860698 32.911991 3.714831
v -0.105664 39.886223 -0.082004
v -4.565164 32.913731 -1.530982
v 0.097451 25.583492 -7.574077
v -0.102807 39.004158 -0.085711
v -0.098390 39.004147 -0.082503
v 6.843745 25.485373 -2.387756
v -0.100079 39.004147 -0.077308
v 4.178798 25.436623 5.957419
v -0.105534 39.004158 -0.077308
v -4.280835 25.405197 6.425100
v -0.107223 39.004158 -0.082503
v -6.918603 25.478468 -2.218394
v 0.509017 14.512325 -11.090892
v -0.102807 36.873798 -0.087649
v -0.096552 36.873787 -0.083103
v 9.842710 14.240070 -3.480410
v -0.098940 36.873787 -0.075749
v 6.076787 14.184376 8.792048
v -0.106673 36.873798 -0.075749
v -5.873592 13.982240 10.180571
v -0.109061 36.873787 -0.083103
v -9.599527 14.194838 -2.906026
v 0.180084 4.537037 -12.759782
v -0.102807 33.454205 -0.088982
v -0.095293 33.454205 -0.083517
v 11.673454 4.401917 -3.931428
v -0.098160 33.454205 -0.074684
v 7.316221 4.593338 9.938992
v -0.107453 33.454205 -0.074684
v -7.212046 4.321837 10.797206
v -0.110320 33.454212 -0.083517
v -11.790838 4.366596 -3.836785
v -0.011581 0.007674 -3.393655
v -0.011581 6.776719 -3.393655
v 2.634542 6.776719 -2.119349
v 2.634542 0.007674 -2.119350
v 3.288081 6.776719 0.743986
v 3.288081 0.007674 0.743986
v 1.456907 6.776719 3.040212
v 1.456907 0.007674 3.040212
v -1.480079 6.776719 3.040212
v -1.480079 0.007674 3.040212
v -3.311252 6.776719 0.743996
v -3.311252 0.007674 0.743996
v -2.657713 6.776719 -2.119349
v -2.657713 0.007674 -2.119350
vt 0.239886 0.949632
vt 0.290354 0.539952
vt 0.943981 0.178634
vt 0.502835 0.948588
vt 0.239886 0.949632
vt 0.290354 0.539952
vt 0.943981 0.178634
vt 0.502835 0.948588
vt 0.239886 0.949632
vt 0.290354 0.539952
vt 0.943981 0.178634
vt 0.502835 0.948588
vt 0.639755 0.853718
vt 0.729362 0.882907
vt 0.736016 0.934088
vt 0.658406 0.981686
vt 0.614175 0.921645
vt 0.239886 0.949632
vt 0.290354 0.539952
vt 0.943981 0.178634
vt 0.502835 0.948588
vt 0.239886 0.949632
vt 0.290354 0.539952
vt 0.943981 0.178634
vt 0.502835 0.948588
vt 0.647127 0.853718
vt 0.728625 0.881433
vt 0.736016 0.934088
vt 0.658406 0.981686
vt 0.614175 0.921645
vt 0.239886 0.949632
vt 0.290354 0.539952
vt 0.943981 0.178634
vt 0.502835 0.948588
vt 0.239886 0.949632
vt 0.290354 0.539952
vt 0.943981 0.178634
vt 0.502835 0.948588
vt 0.239886 0.949632
vt 0.290354 0.539952
vt 0.943981 0.178634
vt 0.502835 0.948588
vt 0.644178 0.853718
vt 0.728625 0.881433
vt 0.736016 0.934088
vt 0.658406 0.981686
vt 0.614175 0.921645
vt 0.239886 0.949632
vt 0.290354 0.539952
vt 0.943981 0.178634
vt 0.502835 0.948588
vt 0.239886 0.949632
vt 0.290354 0.539952
vt 0.943981 0.178634
vt 0.502835 0.948588
vt 0.644178 0.853718
vt 0.728625 0.881433
vt 0.736016 0.934088
vt 0.658406 0.981686
vt 0.614175 0.921645
vt 0.239886 0.949632
vt 0.290354 0.539952
vt 0.943981 0.178634
vt 0.502835 0.948588
vt 0.239886 0.949632
vt 0.290354 0.539952
vt 0.943981 0.178634
vt 0.502835 0.948588
vt 0.239886 0.949632
vt 0.290354 0.539952
vt 0.943981 0.178634
vt 0.502835 0.948588
vt 0.644178 0.853718
vt 0.728625 0.881433
vt 0.736016 0.934088
vt 0.658406 0.981686
vt 0.614175 0.921645
vt 0.239886 0.949632
vt 0.290354 0.539952
vt 0.943981 0.178634
vt 0.502835 0.948588
vt 0.239886 0.949632
vt 0.290354 0.539952
vt 0.943981 0.178634
vt 0.502835 0.948588
vt 0.644178 0.853718
vt 0.728625 0.881433
vt 0.736016 0.934088
vt 0.658406 0.981686
vt 0.614175 0.921645
vt 0.239886 0.949632
vt 0.290354 0.539952
vt 0.943981 0.178634
vt 0.502835 0.948588
vt 0.239886 0.949632
vt 0.290354 0.539952
vt 0.943981 0.178634
vt 0.502835 0.948588
vt 0.239886 0.949632
vt 0.290354 0.539952
vt 0.943981 0.178634
vt 0.502835 0.948588
vt 0.644178 0.853718
vt 0.728625 0.881433
vt 0.736016 0.934088
vt 0.658406 0.981686
vt 0.614175 0.921645
vt 0.239886 0.949632
vt 0.290354 0.539952
vt 0.943981 0.178634
vt 0.502835 0.948588
vt 0.239886 0.949632
vt 0.290354 0.539952
vt 0.943981 0.178634
vt 0.238750 0.942134
vt 0.644178 0.853718
vt 0.728625 0.881433
vt 0.736016 0.934088
vt 0.658406 0.981686
vt 0.614175 0.921645
vt 0.325148 0.342629
vt 0.411467 0.342629
vt 0.411467 0.428947
vt 0.325148 0.428947
vt 0.325148 0.342629
vt 0.411467 0.342629
vt 0.411467 0.428947
vt 0.325148 0.428947
vt 0.325148 0.342629
vt 0.411467 0.342629
vt 0.411467 0.428947
vt 0.325148 0.428947
vt 0.325148 0.342629
vt 0.411467 0.342629
vt 0.411467 0.428947
vt 0.325148 0.428947
vt 0.325148 0.342629
vt 0.411467 0.342629
vt 0.411467 0.428947
vt 0.325148 0.428947
vt 0.365234 0.420112
vt 0.398978 0.403863
vt 0.407312 0.367349
vt 0.383961 0.338068
vt 0.346508 0.338068
vt 0.323157 0.367349
vt 0.331491 0.403863
vt 0.325148 0.342629
vt 0.411467 0.342629
vt 0.411467 0.428947
vt 0.325148 0.428947
vt 0.325148 0.342629
vt 0.411467 0.342629
vt 0.411467 0.428947
vt 0.325148 0.428947
vt 0.368307 0.428947
vt 0.402051 0.412698
vt 0.410385 0.376184
vt 0.387034 0.346903
vt 0.349581 0.346903
vt 0.326230 0.376184
vt 0.334564 0.412698
vn 0.5166 0.4777 -0.7106
vn 0.8355 0.4777 0.2715
vn 0.0002 0.4777 0.8785
vn 0.0005 1.0000 0.0002
vn -0.5162 0.4779 -0.7108
vn -0.8354 0.4779 0.2716
vn -0.0005 -1.0000 -0.0002
vn 0.5596 0.4102 -0.7202
vn 0.8724 0.4001 0.2809
vn 0.0485 0.4187 0.9068
vn 0.0013 1.0000 -0.0001
vn -0.5606 0.3971 -0.7267
vn -0.8763 0.3985 0.2708
vn 0.0012 -0.9999 -0.0105
vn 0.5939 0.3682 -0.7153
vn 0.8946 0.3514 0.2761
vn 0.1000 0.3857 0.9172
vn 0.0004 1.0000 0.0003
vn -0.5981 0.3406 -0.7255
vn -0.9014 0.3446 0.2623
vn 0.0056 -0.9998 -0.0180
vn 0.5769 0.3325 -0.7460
vn 0.9023 0.3286 0.2789
vn 0.0491 0.3387 0.9396
vn 0.0007 1.0000 0.0003
vn -0.5680 0.3256 -0.7558
vn -0.9021 0.3257 0.2832
vn 0.0063 -1.0000 -0.0011
vn 0.4339 0.0000 -0.9010
vn 0.9749 0.0000 -0.2225
vn 0.7818 -0.0000 0.6235
vn 0.0000 -0.0000 1.0000
vn -0.7818 -0.0000 0.6235
vn 0.0000 1.0000 0.0000
vn -0.4339 0.0000 -0.9010
vn -0.9749 0.0000 -0.2225
vn -0.0000 -1.0000 -0.0000
g Cone_Cone_Material.001
usemtl Material.001
s 1
f 1/1/1 2/2/1 3/3/1 4/4/1
f 4/5/2 3/6/2 5/7/2 6/8/2
f 6/9/3 5/10/3 7/11/3 8/12/3
f 3/13/4 2/14/4 9/15/4 7/16/4 5/17/4
f 10/18/5 9/19/5 2/20/5 1/21/5
f 8/22/6 7/23/6 9/24/6 10/25/6
f 1/26/7 4/27/7 6/28/7 8/29/7 10/30/7
f 11/31/8 12/32/8 13/33/8 14/34/8
f 14/35/9 13/36/9 15/37/9 16/38/9
f 16/39/10 15/40/10 17/41/10 18/42/10
f 13/43/11 12/44/11 19/45/11 17/46/11 15/47/11
f 20/48/12 19/49/12 12/50/12 11/51/12
f 18/52/13 17/53/13 19/54/13 20/55/13
f 11/56/14 14/57/14 16/58/14 18/59/14 20/60/14
f 21/61/15 22/62/15 23/63/15 24/64/15
f 24/65/16 23/66/16 25/67/16 26/68/16
f 26/69/17 25/70/17 27/71/17 28/72/17
f 23/73/18 22/74/18 29/75/18 27/76/18 25/77/18
f 30/78/19 29/79/19 22/80/19 21/81/19
f 28/82/20 27/83/20 29/84/20 30/85/20
f 21/86/21 24/87/21 26/88/21 28/89/21 30/90/21
f 31/91/22 32/92/22 33/93/22 34/94/22
f 34/95/23 33/96/23 35/97/23 36/98/23
f 36/99/24 35/100/24 37/101/24 38/102/24
f 33/103/25 32/104/25 39/105/25 37/106/25 35/107/25
f 40/108/26 39/109/26 32/110/26 31/111/26
f 38/112/27 37/113/27 39/114/27 40/115/27
f 31/116/28 34/117/28 36/118/28 38/119/28 40/120/28
f 41/121/29 42/122/29 43/123/29 44/124/29
f 44/125/30 43/126/30 45/127/30 46/128/30
f 46/129/31 45/130/31 47/131/31 48/132/31
f 48/133/32 47/134/32 49/135/32 50/136/32
f 50/137/33 49/138/33 51/139/33 52/140/33
f 43/141/34 42/142/34 53/143/34 51/144/34 49/145/34 47/146/34 45/147/34
f 54/148/35 53/149/35 42/150/35 41/151/35
f 52/152/36 51/153/36 53/154/36 54/155/36
f 41/156/37 44/157/37 46/158/37 48/159/37 50/160/37 52/161/37 54/162/37
o Icosphere
v 12.832096 10.726662 0.353470
v 13.324549 13.381327 1.555564
v 11.292399 12.333183 2.298516
v 10.036431 11.685379 0.353470
v 11.292399 12.333183 -1.591576
v 13.324549 13.381327 -0.848625
v 11.137363 16.058872 3.240658
v 8.120882 14.503029 2.137835
v 8.120882 14.503029 -1.430895
v 11.137363 16.058872 -2.533718
v 13.001698 17.020460 0.353470
v 9.713889 16.772270 0.353470
v 14.192783 17.822805 0.842167
v 13.111202 17.264946 2.517149
v 12.285383 17.678820 0.842167
v 13.105217 17.344233 -1.849065
v 14.186798 17.902092 -0.174082
v 12.279398 17.758106 -0.174082
v 13.442780 13.423350 0.782099
v 13.139784 14.010802 1.262336
v 13.255518 13.786415 2.039376
v 13.630042 13.060285 2.039376
v 13.745777 12.835897 1.262336
v 13.442780 13.423350 -1.393425
v 13.139784 14.010802 -0.913188
v 13.255518 13.786415 -0.136148
v 13.630042 13.060285 -0.136149
v 13.745777 12.835897 -0.913188
v 4.471801 15.086184 0.353470
vt 0.203148 0.066005
vt 0.234163 0.082196
vt 0.234966 0.051010
vt 0.202346 0.097191
vt 0.233361 0.113381
vt 0.199938 0.190748
vt 0.230953 0.206939
vt 0.231755 0.175753
vt 0.200740 0.159562
vt 0.232558 0.144567
vt 0.201543 0.128377
vt 0.265178 0.098386
vt 0.265981 0.067200
vt 0.262770 0.191943
vt 0.263573 0.160758
vt 0.264376 0.129572
vt 0.266784 0.036014
vt 0.296193 0.114577
vt 0.296193 0.114577
vt 0.265178 0.098386
vt 0.297799 0.052205
vt 0.295391 0.145762
vt 0.295391 0.145762
vt 0.318632 0.168327
vt 0.349648 0.184517
vt 0.349648 0.184517
vt 0.318632 0.168327
vt 0.107861 0.347786
vt 0.107058 0.378972
vt 0.138876 0.363976
vt 0.352056 0.090960
vt 0.320238 0.105955
vt 0.320238 0.105955
vt 0.352056 0.090960
vt 0.107861 0.347786
vt 0.107058 0.378972
vt 0.107058 0.378972
vt 0.106256 0.410157
vt 0.138073 0.395162
vt 0.265178 0.098386
vt 0.296193 0.114577
vt 0.106256 0.410157
vt 0.892913 0.341043
vt 0.892913 0.341043
vt 0.892913 0.341043
vt 0.892913 0.341043
vt 0.892913 0.341043
vt 0.892913 0.341043
vt 0.892913 0.341043
vt 0.892913 0.341043
vt 0.892913 0.341043
vt 0.892913 0.341043
vt 0.266784 0.036014
vt 0.263573 0.160758
vn 0.4979 -0.4327 0.7516
vn 0.9832 -0.1824 0.0000
vn -0.2873 -0.8377 0.4645
vn -0.2873 -0.8377 -0.4645
vn 0.4979 -0.4327 -0.7516
vn 0.9961 0.0884 0.0000
vn 0.4276 -0.2049 0.8805
vn -0.4923 -0.6793 0.5442
vn -0.4923 -0.6793 -0.5442
vn 0.4276 -0.2049 -0.8805
vn 0.7690 0.2610 0.5835
vn -0.2174 -0.2478 0.9441
vn -0.8270 -0.5622 0.0000
vn -0.2174 -0.2478 -0.9441
vn 0.7690 0.2610 -0.5835
vn -0.0427 0.5651 -0.8239
vn -0.5335 0.7215 0.4413
vn -0.2234 0.6946 -0.6839
vn -0.5335 0.7215 -0.4413
vn -0.3993 0.8247 -0.4006
vn -0.0724 0.9594 0.2728
vn -0.3712 0.8422 0.3911
vn 0.5382 -0.8401 0.0677
vn -0.0724 0.9594 -0.2728
vn -0.0418 0.5538 0.8316
vn 0.5671 -0.8183 -0.0936
vn 0.8887 0.4584 0.0000
vn -0.2234 0.6946 0.6839
vn -0.1578 -0.9875 0.0000
g Icosphere_Icosphere_Pies.001
usemtl Pies.001
s off
f 55/163/38 56/164/38 57/165/38
f 56/164/39 55/166/39 60/167/39
f 55/168/40 57/169/40 58/170/40
f 55/171/41 58/170/41 59/172/41
f 55/173/42 59/172/42 60/167/42
f 56/164/43 60/167/43 65/174/43
f 57/165/44 56/164/44 61/175/44
f 58/170/45 57/169/45 62/176/45
f 59/172/46 58/170/46 63/177/46
f 60/167/47 59/172/47 64/178/47
f 56/164/48 65/174/48 61/175/48
f 57/165/49 61/175/49 62/179/49
f 58/170/50 62/176/50 63/177/50
f 59/172/51 63/177/51 64/178/51
f 60/167/52 64/178/52 65/174/52
f 65/174/53 66/180/53 69/181/53 67/182/53
f 62/179/54 61/175/54 66/183/54
f 66/184/55 63/177/55 83/185/55
f 64/178/56 63/177/56 66/184/56
f 64/186/57 66/187/57 72/188/57 70/189/57
f 68/190/58 67/191/58 69/192/58
f 66/193/59 61/194/59 68/195/59 69/196/59
f 61/197/60 65/198/60 67/191/60 68/190/60
f 71/199/61 70/200/61 72/201/61
f 66/180/62 65/174/62 71/202/62 72/203/62
f 65/198/63 64/204/63 70/200/63 71/199/63
f 74/205/64 75/206/64 76/207/64 77/208/64 73/209/64
f 79/210/64 80/211/64 81/212/64 82/213/64 78/214/64
f 62/179/65 66/183/65 83/215/65
f 63/177/66 62/176/66 83/216/66
o Icosphere.001
v 0.440090 23.049513 -10.304600
v 1.647367 25.704178 -10.784207
v 2.368607 24.656034 -8.744251
v 0.410279 24.008230 -7.509095
v -1.521264 24.656034 -8.785732
v -0.756685 25.704178 -10.809843
v 3.309042 28.381723 -8.579178
v 2.174117 26.825880 -5.574626
v -1.394411 26.825880 -5.612680
v -2.465005 28.381723 -8.640751
v 0.441898 29.343311 -10.474194
v 0.406840 29.095121 -7.186571
v 0.943268 30.145657 -11.659998
v 2.606622 29.587799 -10.560619
v 0.922929 30.001671 -9.752707
v -1.759407 29.667084 -10.601192
v -0.072987 30.224943 -11.664850
v -0.093326 30.080956 -9.757559
v 0.875207 25.746201 -10.910679
v 1.352185 26.333654 -10.602579
v 2.130415 26.109266 -10.710021
v 2.134409 25.383137 -11.084524
v 1.358647 25.158749 -11.208538
v -1.300194 25.746201 -10.933878
v -0.823215 26.333654 -10.625777
v -0.044985 26.109266 -10.733219
v -0.040992 25.383137 -11.107722
v -0.816753 25.158749 -11.231735
v 0.350942 27.409035 -1.944780
vt 0.203148 0.066005
vt 0.234163 0.082196
vt 0.234966 0.051010
vt 0.202346 0.097191
vt 0.233361 0.113381
vt 0.199938 0.190748
vt 0.230953 0.206939
vt 0.231755 0.175753
vt 0.200740 0.159562
vt 0.232558 0.144567
vt 0.201543 0.128377
vt 0.265178 0.098386
vt 0.265981 0.067200
vt 0.262770 0.191943
vt 0.263573 0.160758
vt 0.264376 0.129572
vt 0.266784 0.036014
vt 0.296193 0.114577
vt 0.296193 0.114577
vt 0.265178 0.098386
vt 0.297799 0.052205
vt 0.295391 0.145762
vt 0.295391 0.145762
vt 0.318632 0.168327
vt 0.349648 0.184517
vt 0.349648 0.184517
vt 0.318632 0.168327
vt 0.107861 0.347786
vt 0.107058 0.378972
vt 0.138876 0.363976
vt 0.352056 0.090960
vt 0.320238 0.105955
vt 0.320238 0.105955
vt 0.352056 0.090960
vt 0.107861 0.347786
vt 0.107058 0.378972
vt 0.107058 0.378972
vt 0.106256 0.410157
vt 0.138073 0.395162
vt 0.265178 0.098386
vt 0.296193 0.114577
vt 0.106256 0.410157
vt 0.892913 0.341043
vt 0.892913 0.341043
vt 0.892913 0.341043
vt 0.892913 0.341043
vt 0.892913 0.341043
vt 0.892913 0.341043
vt 0.892913 0.341043
vt 0.892913 0.341043
vt 0.892913 0.341043
vt 0.892913 0.341043
vt 0.266784 0.036014
vt 0.263573 0.160758
vn 0.7568 -0.4327 -0.4899
vn 0.0105 -0.1824 -0.9832
vn 0.4614 -0.8377 0.2922
vn -0.4675 -0.8377 0.2823
vn -0.7462 -0.4327 -0.5059
vn 0.0106 0.0884 -0.9960
vn 0.8850 -0.2049 -0.4181
vn 0.5389 -0.6793 0.4981
vn -0.5494 -0.6793 0.4865
vn -0.8759 -0.2049 -0.4369
vn 0.5917 0.2610 -0.7628
vn 0.9417 -0.2478 0.2274
vn -0.0088 -0.5622 0.8269
vn -0.9464 -0.2478 0.2073
vn -0.5753 0.2610 -0.7752
vn -0.8243 0.5651 0.0339
vn 0.4356 0.7215 0.5382
vn -0.6862 0.6946 0.2161
vn -0.4470 0.7215 0.5288
vn -0.4049 0.8247 0.3950
vn 0.2720 0.9594 0.0753
vn 0.3871 0.8422 0.3754
vn 0.0734 -0.8401 -0.5374
vn -0.2735 0.9594 0.0695
vn 0.8311 0.5538 0.0507
vn -0.0876 -0.8183 -0.5681
vn 0.0095 0.4584 -0.8887
vn 0.6814 0.6946 0.2307
vn -0.0017 -0.9875 0.1578
g Icosphere.001_Icosphere.001_Pies.001
usemtl Pies.001
s off
f 84/217/67 85/218/67 86/219/67
f 85/218/68 84/220/68 89/221/68
f 84/222/69 86/223/69 87/224/69
f 84/225/70 87/224/70 88/226/70
f 84/227/71 88/226/71 89/221/71
f 85/218/72 89/221/72 94/228/72
f 86/219/73 85/218/73 90/229/73
f 87/224/74 86/223/74 91/230/74
f 88/226/75 87/224/75 92/231/75
f 89/221/76 88/226/76 93/232/76
f 85/218/77 94/228/77 90/229/77
f 86/219/78 90/229/78 91/233/78
f 87/224/79 91/230/79 92/231/79
f 88/226/80 92/231/80 93/232/80
f 89/221/81 93/232/81 94/228/81
f 94/228/82 95/234/82 98/235/82 96/236/82
f 91/233/83 90/229/83 95/237/83
f 95/238/84 92/231/84 112/239/84
f 93/232/85 92/231/85 95/238/85
f 93/240/86 95/241/86 101/242/86 99/243/86
f 97/244/87 96/245/87 98/246/87
f 95/247/88 90/248/88 97/249/88 98/250/88
f 90/251/89 94/252/89 96/245/89 97/244/89
f 100/253/90 99/254/90 101/255/90
f 95/234/91 94/228/91 100/256/91 101/257/91
f 94/252/92 93/258/92 99/254/92 100/253/92
f 103/259/93 104/260/93 105/261/93 106/262/93 102/263/93
f 108/264/93 109/265/93 110/266/93 111/267/93 107/268/93
f 91/233/94 95/237/94 112/269/94
f 92/231/95 91/230/95 112/270/95
o Icosphere.002
v -5.067518 12.637569 13.624474
v -6.327565 15.292234 13.940420
v -6.773047 14.244091 11.823074
v -4.668736 13.596287 10.857397
v -2.922734 14.244091 12.377969
v -3.947961 15.292234 14.283361
v -7.683440 17.969780 11.535233
v -6.161615 16.413937 8.706907
v -2.629377 16.413937 9.215961
v -1.968112 17.969780 12.358909
v -5.091711 18.931368 13.792341
v -4.622727 18.683178 10.538153
v -5.745310 19.733713 14.901537
v -7.248884 19.175854 13.592092
v -5.473233 19.589727 13.013641
v -2.926465 19.255140 14.208978
v -4.738599 19.813000 15.040574
v -4.466522 19.669014 13.152678
v -5.578874 15.334258 14.167772
v -6.010980 15.921710 13.799372
v -6.796582 15.697323 13.803082
v -6.850006 14.971192 14.173778
v -6.097420 14.746805 14.399168
v -3.425596 15.334258 14.478095
v -3.857702 15.921710 14.109694
v -4.643304 15.697323 14.113406
v -4.696728 14.971192 14.484100
v -3.944142 14.746805 14.709491
v -3.874980 16.997091 5.349669
vt 0.203148 0.066005
vt 0.234163 0.082196
vt 0.234966 0.051010
vt 0.202346 0.097191
vt 0.233361 0.113381
vt 0.199938 0.190748
vt 0.230953 0.206939
vt 0.231755 0.175753
vt 0.200740 0.159562
vt 0.232558 0.144567
vt 0.201543 0.128377
vt 0.265178 0.098386
vt 0.265981 0.067200
vt 0.262770 0.191943
vt 0.263573 0.160758
vt 0.264376 0.129572
vt 0.266784 0.036014
vt 0.296193 0.114577
vt 0.296193 0.114577
vt 0.265178 0.098386
vt 0.297799 0.052205
vt 0.295391 0.145762
vt 0.295391 0.145762
vt 0.318632 0.168327
vt 0.349648 0.184517
vt 0.349648 0.184517
vt 0.318632 0.168327
vt 0.107861 0.347786
vt 0.107058 0.378972
vt 0.138876 0.363976
vt 0.352056 0.090960
vt 0.320238 0.105955
vt 0.320238 0.105955
vt 0.352056 0.090960
vt 0.107861 0.347786
vt 0.107058 0.378972
vt 0.107058 0.378972
vt 0.106256 0.410157
vt 0.138073 0.395162
vt 0.265178 0.098386
vt 0.296193 0.114577
vt 0.106256 0.410157
vt 0.892913 0.341043
vt 0.892913 0.341043
vt 0.892913 0.341043
vt 0.892913 0.341043
vt 0.892913 0.341043
vt 0.892913 0.341043
vt 0.892913 0.341043
vt 0.892913 0.341043
vt 0.892913 0.341043
vt 0.892913 0.341043
vt 0.266784 0.036014
vt 0.263573 0.160758
vn -0.8149 -0.4327 0.3856
vn -0.1403 -0.1824 0.9732
vn -0.4188 -0.8377 -0.3506
vn 0.5007 -0.8377 -0.2181
vn 0.6728 -0.4327 0.6001
vn -0.1421 0.0884 0.9859
vn -0.9325 -0.2049 0.2976
vn -0.4684 -0.6793 -0.5649
vn 0.6088 -0.6793 -0.4097
vn 0.8105 -0.2049 0.5488
vn -0.6872 0.2610 0.6779
vn -0.9035 -0.2478 -0.3498
vn 0.1180 -0.5622 -0.8185
vn 0.9655 -0.2478 -0.0805
vn 0.4678 0.2610 0.8444
vn 0.8215 0.5651 0.0753
vn -0.3607 0.7215 -0.5910
vn 0.7087 0.6946 -0.1236
vn 0.5129 0.7215 -0.4651
vn 0.4535 0.8247 -0.3380
vn -0.2596 0.9594 -0.1106
vn -0.3342 0.8422 -0.4232
vn -0.1438 -0.8401 0.5230
vn 0.2803 0.9594 -0.0328
vn -0.8171 0.5538 -0.1600
vn 0.0118 -0.8183 0.5746
vn -0.1268 0.4584 0.8797
vn -0.6450 0.6946 -0.3187
vn 0.0225 -0.9875 -0.1562
g Icosphere.002_Icosphere.002_Pies.001
usemtl Pies.001
s off
f 113/271/96 114/272/96 115/273/96
f 114/272/97 113/274/97 118/275/97
f 113/276/98 115/277/98 116/278/98
f 113/279/99 116/278/99 117/280/99
f 113/281/100 117/280/100 118/275/100
f 114/272/101 118/275/101 123/282/101
f 115/273/102 114/272/102 119/283/102
f 116/278/103 115/277/103 120/284/103
f 117/280/104 116/278/104 121/285/104
f 118/275/105 117/280/105 122/286/105
f 114/272/106 123/282/106 119/283/106
f 115/273/107 119/283/107 120/287/107
f 116/278/108 120/284/108 121/285/108
f 117/280/109 121/285/109 122/286/109
f 118/275/110 122/286/110 123/282/110
f 123/282/111 124/288/111 127/289/111 125/290/111
f 120/287/112 119/283/112 124/291/112
f 124/292/113 121/285/113 141/293/113
f 122/286/114 121/285/114 124/292/114
f 122/294/115 124/295/115 130/296/115 128/297/115
f 126/298/116 125/299/116 127/300/116
f 124/301/117 119/302/117 126/303/117 127/304/117
f 119/305/118 123/306/118 125/299/118 126/298/118
f 129/307/119 128/308/119 130/309/119
f 124/288/120 123/282/120 129/310/120 130/311/120
f 123/306/121 122/312/121 128/308/121 129/307/121
f 132/313/122 133/314/122 134/315/122 135/316/122 131/317/122
f 137/318/122 138/319/122 139/320/122 140/321/122 136/322/122
f 120/287/123 124/291/123 141/323/123
f 121/285/124 120/284/124 141/324/124
