# Blender v2.82 (sub 7) OBJ File: 'village.blend'
# www.blender.org
mtllib crate.mtl
o Caja_Cerrada_object7.007
v -0.139275 0.100000 -0.402309
v -0.126775 0.050000 -0.402309
v -0.126775 0.050000 0.397691
v -0.139275 0.100000 0.397691
v 0.148225 0.050000 -0.402309
v 0.135725 0.100000 -0.402309
v 0.123225 0.050000 -0.402309
v -0.001775 0.000000 -0.402309
v -0.151775 0.050000 -0.402309
v -0.401775 0.050000 -0.402309
v -0.401775 0.000000 -0.402309
v 0.398225 0.000000 -0.402309
v 0.398225 0.050000 -0.402309
v -0.001775 0.000000 -0.502309
v -0.501775 0.000000 -0.502309
v -0.501775 0.000000 -0.002309
v -0.401775 -0.000000 0.397691
v -0.001775 -0.000000 0.497691
v -0.501775 -0.000000 0.497691
v 0.498225 -0.000000 0.497691
v 0.398225 -0.000000 0.397691
v 0.498225 0.000000 -0.002309
v -0.001775 -0.000000 0.397691
v 0.498225 0.000000 -0.502309
v 0.498225 0.900000 0.397691
v 0.498225 0.900000 -0.002309
v 0.498225 1.000000 -0.002309
v 0.498225 1.000000 -0.502309
v 0.498225 0.900000 -0.402309
v 0.498225 0.100000 -0.402309
v 0.498225 0.100000 0.397691
v 0.498225 1.000000 0.497691
v 0.498225 0.100000 -0.002309
v 0.448225 0.900000 -0.402309
v 0.448225 0.100000 -0.402309
v 0.448225 0.900000 -0.152309
v 0.448225 0.100000 -0.152309
v 0.398225 0.900000 -0.139809
v 0.398225 0.100000 -0.139809
v 0.448225 0.900000 -0.127309
v 0.448225 0.100000 -0.127309
v 0.448225 0.100000 0.122691
v 0.448225 0.900000 0.122691
v 0.398225 0.900000 0.135191
v 0.398225 0.100000 0.135191
v 0.448225 0.900000 0.147691
v 0.448225 0.100000 0.147691
v 0.448225 0.100000 0.397691
v 0.448225 0.900000 0.397691
v 0.398225 1.000000 0.397691
v -0.001775 1.000000 0.397691
v -0.001775 1.000000 0.497691
v -0.501775 1.000000 0.497691
v -0.401775 1.000000 0.397691
v -0.401775 1.000000 -0.402309
v -0.501775 1.000000 -0.002309
v -0.501775 1.000000 -0.502309
v -0.001775 1.000000 -0.502309
v 0.398225 1.000000 -0.402309
v -0.001775 1.000000 -0.402309
v -0.401775 0.950000 -0.402309
v -0.401775 0.950000 0.397691
v -0.151775 0.950000 0.397691
v -0.151775 0.950000 -0.402309
v -0.139275 0.900000 0.397691
v -0.139275 0.900000 -0.402309
v -0.126775 0.950000 0.397691
v -0.126775 0.950000 -0.402309
v 0.123225 0.950000 0.397691
v 0.123225 0.950000 -0.402309
v 0.135725 0.900000 0.397691
v 0.135725 0.900000 -0.402309
v 0.148225 0.950000 0.397691
v 0.148225 0.950000 -0.402309
v 0.398225 0.950000 0.397691
v 0.398225 0.950000 -0.402309
v 0.398225 0.900000 -0.502309
v -0.001775 0.900000 -0.502309
v -0.401775 0.900000 -0.502309
v -0.401775 0.100000 -0.502309
v 0.398225 0.100000 -0.502309
v -0.001775 0.100000 -0.502309
v -0.401775 0.900000 -0.452309
v -0.401775 0.100000 -0.452309
v -0.151775 0.900000 -0.452309
v -0.151775 0.100000 -0.452309
v -0.126775 0.900000 -0.452309
v -0.126775 0.100000 -0.452309
v 0.123225 0.900000 -0.452309
v 0.123225 0.100000 -0.452309
v 0.148225 0.900000 -0.452309
v 0.148225 0.100000 -0.452309
v 0.398225 0.100000 -0.452309
v 0.398225 0.900000 -0.452309
v -0.501775 0.100000 -0.002309
v -0.501775 0.100000 -0.402309
v -0.501775 0.900000 -0.402309
v -0.501775 0.900000 0.397691
v -0.501775 0.100000 0.397691
v -0.501775 0.900000 -0.002309
v -0.451775 0.100000 -0.402309
v -0.451775 0.900000 -0.402309
v -0.451775 0.100000 -0.152309
v -0.451775 0.900000 -0.152309
v -0.401775 0.100000 -0.139809
v -0.401775 0.900000 -0.139809
v -0.451775 0.100000 -0.127309
v -0.451775 0.900000 -0.127309
v -0.451775 0.100000 0.122691
v -0.451775 0.900000 0.122691
v -0.401775 0.100000 0.135191
v -0.401775 0.900000 0.135191
v -0.451775 0.100000 0.147691
v -0.451775 0.900000 0.147691
v -0.451775 0.900000 0.397691
v -0.451775 0.100000 0.397691
v -0.001775 0.100000 0.497691
v -0.401775 0.100000 0.497691
v -0.401775 0.900000 0.497691
v 0.398225 0.900000 0.497691
v 0.398225 0.100000 0.497691
v -0.001775 0.900000 0.497691
v -0.401775 0.100000 0.447691
v -0.401775 0.900000 0.447691
v -0.151775 0.100000 0.447691
v -0.151775 0.900000 0.447691
v -0.126775 0.100000 0.447691
v -0.126775 0.900000 0.447691
v 0.123225 0.900000 0.447691
v 0.123225 0.100000 0.447691
v 0.135725 0.100000 0.397691
v 0.148225 0.100000 0.447691
v 0.148225 0.900000 0.447691
v 0.398225 0.900000 0.447691
v 0.398225 0.100000 0.447691
v -0.401775 0.050000 0.397691
v -0.151775 0.050000 0.397691
v 0.123225 0.050000 0.397691
v 0.148225 0.050000 0.397691
v 0.398225 0.050000 0.397691
vt 0.000000 1.000000
vt 0.000000 0.000000
vt 1.000000 0.000000
vt 1.000000 1.000000
vt 0.500000 0.687500
vt 0.000000 0.671875
vt 0.500000 0.656250
vt 1.000000 0.500000
vt 0.500000 0.343750
vt 0.000000 0.328125
vt 0.500000 0.312500
vt 0.500000 0.000000
vt 1.000000 0.000000
vt 1.000000 1.000000
vt 0.500000 1.000000
vt 0.900000 0.100000
vt 0.900000 0.500000
vt 1.000000 0.500000
vt 1.000000 1.000000
vt 0.900000 0.900000
vt 0.500000 1.000000
vt 0.100000 0.900000
vt 0.000000 0.500000
vt 0.000000 1.000000
vt 0.000000 0.000000
vt 0.100000 0.100000
vt 0.500000 0.000000
vt 0.100000 0.500000
vt 1.000000 0.000000
vt 0.100000 0.100000
vt 0.100000 0.500000
vt 0.000000 0.500000
vt 0.000000 1.000000
vt 0.100000 0.900000
vt 0.900000 0.900000
vt 1.000000 1.000000
vt 1.000000 0.500000
vt 1.000000 0.000000
vt 0.900000 0.100000
vt 0.000000 0.000000
vt 0.900000 0.500000
vt 0.000000 1.000000
vt 0.000000 0.000000
vt 1.000000 1.000000
vt 1.000000 0.000000
vt 0.000000 1.000000
vt 0.000000 0.000000
vt 1.000000 1.000000
vt 1.000000 0.000000
vt 0.000000 1.000000
vt 0.000000 0.000000
vt 1.000000 1.000000
vt 1.000000 0.000000
vt 0.000000 1.000000
vt 0.000000 0.000000
vt 1.000000 1.000000
vt 1.000000 0.000000
vt 0.000000 1.000000
vt 0.000000 0.000000
vt 1.000000 1.000000
vt 1.000000 0.000000
vt 0.500000 0.687500
vt 0.000000 0.671875
vt 0.500000 0.656250
vt 1.000000 0.500000
vt 0.500000 0.343750
vt 0.000000 0.328125
vt 0.500000 0.312500
vt 0.500000 0.000000
vt 1.000000 0.000000
vt 1.000000 1.000000
vt 0.500000 1.000000
vt 0.000000 1.000000
vt 0.000000 0.000000
vt 1.000000 1.000000
vt 1.000000 0.000000
vt 0.500000 0.687500
vt 0.000000 0.671875
vt 0.500000 0.656250
vt 1.000000 0.500000
vt 0.500000 0.343750
vt 0.000000 0.328125
vt 0.500000 0.312500
vt 0.500000 0.000000
vt 1.000000 0.000000
vt 1.000000 1.000000
vt 0.500000 1.000000
vt 0.100000 0.100000
vt 0.100000 0.500000
vt 0.000000 0.500000
vt 0.000000 1.000000
vt 0.100000 0.900000
vt 0.900000 0.900000
vt 0.500000 1.000000
vt 1.000000 1.000000
vt 1.000000 0.500000
vt 1.000000 0.000000
vt 0.900000 0.100000
vt 0.500000 0.000000
vt 0.900000 0.500000
vt 0.000000 0.000000
vt 0.000000 1.000000
vt 1.000000 0.000000
vt 1.000000 1.000000
vt 0.000000 1.000000
vt 0.000000 0.000000
vt 1.000000 0.000000
vt 1.000000 1.000000
vt 0.000000 1.000000
vt 0.000000 0.000000
vt 1.000000 0.000000
vt 1.000000 1.000000
vt 0.000000 1.000000
vt 0.000000 0.000000
vt 1.000000 0.000000
vt 1.000000 1.000000
vt 0.000000 1.000000
vt 0.000000 0.000000
vt 1.000000 0.000000
vt 1.000000 1.000000
vt 0.500000 0.343750
vt 1.000000 0.328125
vt 0.500000 0.312500
vt 0.000000 0.000000
vt 0.000000 0.500000
vt 0.500000 0.687500
vt 0.500000 0.656250
vt 0.000000 1.000000
vt 0.500000 1.000000
vt 1.000000 0.671875
vt 0.500000 0.000000
vt 0.000000 0.000000
vt 0.000000 1.000000
vt 1.000000 0.000000
vt 1.000000 1.000000
vt 0.500000 0.343750
vt 1.000000 0.328125
vt 0.500000 0.312500
vt 0.000000 0.000000
vt 0.000000 0.500000
vt 0.500000 0.687500
vt 0.500000 0.656250
vt 0.000000 1.000000
vt 0.500000 1.000000
vt 1.000000 0.671875
vt 0.500000 0.000000
vt 0.100000 0.100000
vt 0.100000 0.500000
vt 0.000000 0.500000
vt 0.000000 1.000000
vt 0.100000 0.900000
vt 0.900000 0.900000
vt 0.900000 0.100000
vt 0.000000 0.000000
vt 0.900000 0.500000
vt 0.000000 1.000000
vt 0.000000 0.000000
vt 1.000000 1.000000
vt 1.000000 0.000000
vt 0.000000 1.000000
vt 0.000000 0.000000
vt 1.000000 0.000000
vt 1.000000 1.000000
vt 0.000000 1.000000
vt 0.000000 0.000000
vt 1.000000 1.000000
vt 1.000000 0.000000
vt 0.000000 1.000000
vt 0.000000 0.000000
vt 1.000000 0.000000
vt 1.000000 1.000000
vt 0.000000 1.000000
vt 0.000000 0.000000
vt 1.000000 1.000000
vt 1.000000 0.000000
vt 0.500000 0.687500
vt 0.000000 0.671875
vt 0.500000 0.656250
vt 1.000000 0.500000
vt 0.500000 0.343750
vt 0.000000 0.328125
vt 0.500000 0.312500
vt 0.500000 0.000000
vt 1.000000 0.000000
vt 1.000000 1.000000
vt 0.500000 1.000000
vt 0.000000 1.000000
vt 0.000000 0.000000
vt 1.000000 1.000000
vt 1.000000 0.000000
vt 0.500000 0.687500
vt 0.000000 0.671875
vt 0.500000 0.656250
vt 1.000000 0.500000
vt 0.500000 0.343750
vt 0.000000 0.328125
vt 0.500000 0.312500
vt 0.500000 0.000000
vt 1.000000 0.000000
vt 1.000000 1.000000
vt 0.500000 1.000000
vt 1.000000 0.500000
vt 0.900000 0.500000
vt 0.900000 0.100000
vt 1.000000 0.000000
vt 0.100000 0.100000
vt 0.000000 0.500000
vt 0.000000 0.000000
vt 0.100000 0.900000
vt 0.900000 0.900000
vt 1.000000 1.000000
vt 0.100000 0.500000
vt 0.000000 1.000000
vt 0.000000 0.000000
vt 1.000000 1.000000
vt 1.000000 0.000000
vt 0.000000 1.000000
vt 0.000000 0.000000
vt 1.000000 1.000000
vt 1.000000 0.000000
vt 0.000000 1.000000
vt 0.000000 0.000000
vt 1.000000 1.000000
vt 1.000000 0.000000
vt 0.000000 1.000000
vt 0.000000 0.000000
vt 1.000000 1.000000
vt 1.000000 0.000000
vt 0.000000 1.000000
vt 0.000000 0.000000
vt 1.000000 1.000000
vt 1.000000 0.000000
vt 0.500000 0.687500
vt 0.000000 0.671875
vt 0.500000 0.656250
vt 1.000000 0.500000
vt 0.500000 0.343750
vt 0.000000 0.328125
vt 0.500000 0.312500
vt 0.500000 0.000000
vt 1.000000 0.000000
vt 1.000000 1.000000
vt 0.500000 1.000000
vt 0.000000 1.000000
vt 0.000000 0.000000
vt 1.000000 1.000000
vt 1.000000 0.000000
vt 0.500000 0.687500
vt 0.000000 0.671875
vt 0.500000 0.656250
vt 1.000000 0.500000
vt 0.500000 0.343750
vt 0.000000 0.328125
vt 0.500000 0.312500
vt 0.500000 0.000000
vt 1.000000 0.000000
vt 1.000000 1.000000
vt 0.500000 1.000000
vt 1.000000 0.500000
vt 0.900000 0.500000
vt 0.900000 0.100000
vt 1.000000 0.000000
vt 0.100000 0.100000
vt 0.000000 0.000000
vt 0.000000 1.000000
vt 0.100000 0.900000
vt 0.900000 0.900000
vt 1.000000 1.000000
vt 0.100000 0.500000
vt 0.000000 1.000000
vt 0.000000 0.000000
vt 1.000000 1.000000
vt 1.000000 0.000000
vt 0.000000 1.000000
vt 0.000000 0.000000
vt 1.000000 0.000000
vt 1.000000 1.000000
vt 0.000000 1.000000
vt 0.000000 0.000000
vt 1.000000 1.000000
vt 1.000000 0.000000
vt 0.000000 1.000000
vt 0.000000 0.000000
vt 1.000000 0.000000
vt 1.000000 1.000000
vt 0.000000 1.000000
vt 0.000000 0.000000
vt 1.000000 1.000000
vt 1.000000 0.000000
vt 0.500000 0.687500
vt 0.000000 0.671875
vt 0.500000 0.656250
vt 1.000000 0.500000
vt 0.500000 0.343750
vt 0.000000 0.328125
vt 0.500000 0.312500
vt 0.500000 0.000000
vt 1.000000 0.000000
vt 1.000000 1.000000
vt 0.500000 1.000000
vt 0.000000 1.000000
vt 0.000000 0.000000
vt 1.000000 1.000000
vt 1.000000 0.000000
vt 0.500000 0.687500
vt 0.000000 0.671875
vt 0.500000 0.656250
vt 1.000000 0.500000
vt 0.500000 0.343750
vt 0.000000 0.328125
vt 0.500000 0.312500
vt 0.500000 0.000000
vt 1.000000 0.000000
vt 1.000000 1.000000
vt 0.500000 1.000000
vt 0.000000 1.000000
vt 0.000000 0.000000
vt 1.000000 1.000000
vt 1.000000 0.000000
vt 0.000000 1.000000
vt 0.000000 0.000000
vt 1.000000 0.000000
vt 1.000000 1.000000
vt 0.000000 1.000000
vt 0.000000 0.000000
vt 1.000000 0.000000
vt 1.000000 1.000000
vt 0.000000 1.000000
vt 0.000000 0.000000
vt 1.000000 1.000000
vt 1.000000 0.000000
vt 0.000000 1.000000
vt 0.000000 0.000000
vt 1.000000 0.000000
vt 1.000000 1.000000
vt 0.500000 0.687500
vt 0.000000 0.671875
vt 0.500000 0.656250
vt 1.000000 0.500000
vt 0.500000 0.343750
vt 0.000000 0.328125
vt 0.500000 0.312500
vt 0.500000 0.000000
vt 1.000000 0.000000
vt 1.000000 1.000000
vt 0.500000 1.000000
vt 0.000000 0.000000
vt 1.000000 0.000000
vt 1.000000 1.000000
vt 1.000000 1.000000
vt 0.000000 1.000000
vt 1.000000 0.000000
vt 0.000000 0.000000
vt 1.000000 1.000000
vt 0.000000 1.000000
vt 1.000000 0.000000
vt 0.000000 0.000000
vt 1.000000 0.000000
vt 0.000000 1.000000
vt 1.000000 1.000000
vt 0.000000 0.000000
vt 1.000000 0.000000
vt 0.000000 1.000000
vt 1.000000 1.000000
vt 1.000000 1.000000
vt 0.000000 1.000000
vt 0.000000 0.000000
vt 1.000000 0.000000
vt 0.000000 0.000000
vt 1.000000 0.000000
vt 1.000000 1.000000
vt 0.000000 0.000000
vt 1.000000 0.000000
vt 0.000000 1.000000
vt 1.000000 1.000000
vt 1.000000 1.000000
vt 0.000000 1.000000
vt 1.000000 0.000000
vt 0.000000 0.000000
vt 1.000000 0.000000
vt 1.000000 1.000000
vt 0.000000 0.000000
vt 1.000000 0.000000
vt 0.000000 1.000000
vt 1.000000 1.000000
vt 1.000000 1.000000
vt 0.000000 1.000000
vt 1.000000 0.000000
vt 0.000000 0.000000
vt 1.000000 0.000000
vt 1.000000 1.000000
vt 1.000000 1.000000
vt 0.000000 1.000000
vt 1.000000 0.000000
vt 0.000000 0.000000
vt 1.000000 1.000000
vt 0.000000 1.000000
vt 1.000000 0.000000
vt 0.000000 0.000000
vt 1.000000 0.000000
vt 1.000000 1.000000
vt 1.000000 1.000000
vt 0.000000 1.000000
vt 1.000000 0.000000
vt 0.000000 0.000000
vt 1.000000 0.000000
vt 0.000000 1.000000
vt 1.000000 1.000000
vn -0.9701 -0.2425 -0.0000
vn 0.0000 0.0000 1.0000
vn -0.0000 -1.0000 -0.0000
vn 1.0000 0.0000 0.0000
vn 0.2425 -0.0000 0.9701
vn 0.2425 0.0000 -0.9701
vn 0.0000 0.0000 -1.0000
vn 0.0000 1.0000 0.0000
vn 0.9701 0.2425 0.0000
vn -0.9701 0.2425 0.0000
vn -1.0000 0.0000 0.0000
vn 0.9701 0.0000 -0.2425
vn -0.9701 0.0000 -0.2425
vn -0.2425 -0.0000 0.9701
vn -0.2425 0.0000 -0.9701
vn 0.9701 -0.0000 0.2425
vn -0.9701 -0.0000 0.2425
vn 0.9701 -0.2425 -0.0000
usemtl Wood_Dark.042
s 1
f 1/1/1 2/2/1 3/3/1
f 1/1/1 3/3/1 4/4/1
f 5/5/2 6/6/2 7/7/2
f 8/8/2 7/7/2 2/9/2
f 2/9/2 1/10/2 9/11/2
f 9/11/2 10/12/2 11/13/2
f 8/8/2 2/9/2 9/11/2
f 9/11/2 11/13/2 8/8/2
f 8/8/2 5/5/2 7/7/2
f 8/8/2 12/14/2 5/5/2
f 12/14/2 13/15/2 5/5/2
f 12/16/3 8/17/3 14/18/3
f 15/19/3 14/18/3 11/20/3
f 16/21/3 11/20/3 17/22/3
f 17/22/3 18/23/3 19/24/3
f 20/25/3 18/23/3 21/26/3
f 22/27/3 20/25/3 21/26/3
f 18/23/3 23/28/3 21/26/3
f 17/22/3 23/28/3 18/23/3
f 17/22/3 19/24/3 16/21/3
f 16/21/3 15/19/3 11/20/3
f 14/18/3 8/17/3 11/20/3
f 22/27/3 21/26/3 12/16/3
f 12/16/3 24/29/3 22/27/3
f 12/16/3 14/18/3 24/29/3
f 25/30/4 26/31/4 27/32/4
f 28/33/4 27/32/4 29/34/4
f 30/35/4 24/36/4 28/33/4
f 30/35/4 22/37/4 24/36/4
f 20/38/4 22/37/4 31/39/4
f 31/39/4 32/40/4 20/38/4
f 22/37/4 33/41/4 31/39/4
f 30/35/4 33/41/4 22/37/4
f 28/33/4 29/34/4 30/35/4
f 27/32/4 26/31/4 29/34/4
f 31/39/4 25/30/4 32/40/4
f 25/30/4 27/32/4 32/40/4
f 34/42/2 35/43/2 29/44/2
f 35/43/2 30/45/2 29/44/2
f 36/46/5 38/47/5 37/48/5
f 38/47/5 39/49/5 37/48/5
f 38/50/6 40/51/6 39/52/6
f 40/51/6 41/53/6 39/52/6
f 43/54/5 44/55/5 42/56/5
f 44/55/5 45/57/5 42/56/5
f 44/58/6 46/59/6 45/60/6
f 46/59/6 47/61/6 45/60/6
f 46/62/3 44/63/3 43/64/3
f 26/65/3 43/64/3 40/66/3
f 40/66/3 38/67/3 36/68/3
f 36/68/3 34/69/3 29/70/3
f 26/65/3 40/66/3 36/68/3
f 36/68/3 29/70/3 26/65/3
f 26/65/3 46/62/3 43/64/3
f 26/65/3 25/71/3 46/62/3
f 25/71/3 49/72/3 46/62/3
f 48/73/7 49/74/7 31/75/7
f 49/74/7 25/76/7 31/75/7
f 37/77/8 39/78/8 41/79/8
f 33/80/8 41/79/8 42/81/8
f 42/81/8 45/82/8 47/83/8
f 47/83/8 48/84/8 31/85/8
f 42/81/8 47/83/8 33/80/8
f 47/83/8 31/85/8 33/80/8
f 33/80/8 37/77/8 41/79/8
f 33/80/8 30/86/8 37/77/8
f 30/86/8 35/87/8 37/77/8
f 50/88/8 51/89/8 52/90/8
f 53/91/8 52/90/8 54/92/8
f 54/92/8 55/93/8 56/94/8
f 55/93/8 57/95/8 56/94/8
f 55/93/8 58/96/8 57/95/8
f 28/97/8 58/96/8 59/98/8
f 27/99/8 28/97/8 59/98/8
f 58/96/8 60/100/8 59/98/8
f 55/93/8 60/100/8 58/96/8
f 56/94/8 53/91/8 54/92/8
f 52/90/8 51/89/8 54/92/8
f 59/98/8 50/88/8 27/99/8
f 50/88/8 32/40/8 27/99/8
f 50/88/8 52/90/8 32/40/8
f 55/101/4 54/102/4 61/103/4
f 54/102/4 62/104/4 61/103/4
f 63/105/9 65/106/9 66/107/9
f 63/105/9 66/107/9 64/108/9
f 65/109/10 67/110/10 68/111/10
f 65/109/10 68/111/10 66/112/10
f 69/113/9 71/114/9 72/115/9
f 69/113/9 72/115/9 70/116/9
f 71/117/10 73/118/10 74/119/10
f 71/117/10 74/119/10 72/120/10
f 67/121/7 65/122/7 63/123/7
f 63/123/7 54/124/7 51/125/7
f 51/125/7 73/126/7 69/127/7
f 50/128/7 75/129/7 73/126/7
f 73/126/7 71/130/7 69/127/7
f 51/125/7 50/128/7 73/126/7
f 63/123/7 62/131/7 54/124/7
f 67/121/7 63/123/7 51/125/7
f 51/125/7 69/127/7 67/121/7
f 50/132/11 59/133/11 75/134/11
f 59/133/11 76/135/11 75/134/11
f 70/136/2 72/137/2 74/138/2
f 74/138/2 59/139/2 60/140/2
f 60/140/2 64/141/2 68/142/2
f 55/143/2 61/144/2 64/141/2
f 64/141/2 66/145/2 68/142/2
f 60/140/2 55/143/2 64/141/2
f 74/138/2 76/146/2 59/139/2
f 70/136/2 74/138/2 60/140/2
f 60/140/2 68/142/2 70/136/2
f 77/147/7 78/148/7 58/149/7
f 57/150/7 58/149/7 79/151/7
f 80/152/7 15/19/7 57/150/7
f 80/152/7 14/18/7 15/19/7
f 24/29/7 14/18/7 81/153/7
f 81/153/7 28/154/7 24/29/7
f 14/18/7 82/155/7 81/153/7
f 80/152/7 82/155/7 14/18/7
f 57/150/7 79/151/7 80/152/7
f 58/149/7 78/148/7 79/151/7
f 81/153/7 77/147/7 28/154/7
f 77/147/7 58/149/7 28/154/7
f 83/156/4 84/157/4 79/158/4
f 84/157/4 80/159/4 79/158/4
f 85/160/12 66/161/12 1/162/12
f 85/160/12 1/162/12 86/163/12
f 66/164/13 87/165/13 1/166/13
f 87/165/13 88/167/13 1/166/13
f 89/168/12 72/169/12 6/170/12
f 89/168/12 6/170/12 90/171/12
f 72/172/13 91/173/13 6/174/13
f 91/173/13 92/175/13 6/174/13
f 91/176/3 72/177/3 89/178/3
f 78/179/3 89/178/3 87/180/3
f 87/180/3 66/181/3 85/182/3
f 85/182/3 83/183/3 79/184/3
f 78/179/3 87/180/3 85/182/3
f 85/182/3 79/184/3 78/179/3
f 78/179/3 91/176/3 89/178/3
f 78/179/3 77/185/3 91/176/3
f 77/185/3 94/186/3 91/176/3
f 93/187/11 94/188/11 81/189/11
f 94/188/11 77/190/11 81/189/11
f 86/191/8 1/192/8 88/193/8
f 82/194/8 88/193/8 90/195/8
f 90/195/8 6/196/8 92/197/8
f 92/197/8 93/198/8 81/199/8
f 90/195/8 92/197/8 82/194/8
f 92/197/8 81/199/8 82/194/8
f 82/194/8 86/191/8 88/193/8
f 82/194/8 80/200/8 86/191/8
f 80/200/8 84/201/8 86/191/8
f 16/202/11 95/203/11 96/204/11
f 15/205/11 96/204/11 97/206/11
f 97/206/11 56/207/11 57/208/11
f 53/91/11 56/207/11 98/209/11
f 98/209/11 99/210/11 19/211/11
f 98/209/11 19/211/11 53/91/11
f 56/207/11 100/212/11 98/209/11
f 97/206/11 100/212/11 56/207/11
f 97/206/11 57/208/11 15/205/11
f 99/210/11 16/202/11 19/211/11
f 99/210/11 95/203/11 16/202/11
f 15/205/11 16/202/11 96/204/11
f 101/213/2 102/214/2 96/215/2
f 102/214/2 97/216/2 96/215/2
f 103/217/14 105/218/14 104/219/14
f 105/218/14 106/220/14 104/219/14
f 105/221/15 107/222/15 106/223/15
f 107/222/15 108/224/15 106/223/15
f 109/225/14 111/226/14 110/227/14
f 111/226/14 112/228/14 110/227/14
f 111/229/15 113/230/15 112/231/15
f 113/230/15 114/232/15 112/231/15
f 113/233/8 111/234/8 109/235/8
f 95/236/8 109/235/8 107/237/8
f 107/237/8 105/238/8 103/239/8
f 103/239/8 101/240/8 96/241/8
f 95/236/8 107/237/8 103/239/8
f 103/239/8 96/241/8 95/236/8
f 95/236/8 113/233/8 109/235/8
f 95/236/8 99/242/8 113/233/8
f 99/242/8 116/243/8 113/233/8
f 115/244/7 116/245/7 98/246/7
f 116/245/7 99/247/7 98/246/7
f 104/248/3 106/249/3 108/250/3
f 100/251/3 108/250/3 110/252/3
f 110/252/3 112/253/3 114/254/3
f 114/254/3 115/255/3 98/256/3
f 110/252/3 114/254/3 100/251/3
f 114/254/3 98/256/3 100/251/3
f 100/251/3 104/248/3 108/250/3
f 100/251/3 97/257/3 104/248/3
f 97/257/3 102/258/3 104/248/3
f 18/259/2 117/260/2 118/261/2
f 19/262/2 118/261/2 119/263/2
f 119/263/2 52/90/2 53/264/2
f 32/265/2 52/90/2 120/266/2
f 120/266/2 121/267/2 20/268/2
f 120/266/2 20/268/2 32/265/2
f 52/90/2 122/269/2 120/266/2
f 119/263/2 122/269/2 52/90/2
f 119/263/2 53/264/2 19/262/2
f 121/267/2 18/259/2 20/268/2
f 121/267/2 117/260/2 18/259/2
f 19/262/2 18/259/2 118/261/2
f 123/270/4 124/271/4 118/272/4
f 124/271/4 119/273/4 118/272/4
f 125/274/16 4/275/16 65/276/16
f 125/274/16 65/276/16 126/277/16
f 4/278/17 127/279/17 65/280/17
f 127/279/17 128/281/17 65/280/17
f 130/282/16 131/283/16 71/284/16
f 130/282/16 71/284/16 129/285/16
f 131/286/17 132/287/17 71/288/17
f 132/287/17 133/289/17 71/288/17
f 132/290/8 131/291/8 130/292/8
f 117/293/8 130/292/8 127/294/8
f 127/294/8 4/295/8 125/296/8
f 125/296/8 123/297/8 118/298/8
f 117/293/8 127/294/8 125/296/8
f 125/296/8 118/298/8 117/293/8
f 117/293/8 132/290/8 130/292/8
f 117/293/8 121/299/8 132/290/8
f 121/299/8 135/300/8 132/290/8
f 134/301/11 135/302/11 120/303/11
f 135/302/11 121/304/11 120/303/11
f 126/305/3 65/306/3 128/307/3
f 122/308/3 128/307/3 129/309/3
f 129/309/3 71/310/3 133/311/3
f 133/311/3 134/312/3 120/313/3
f 129/309/3 133/311/3 122/308/3
f 133/311/3 120/313/3 122/308/3
f 122/308/3 126/305/3 128/307/3
f 122/308/3 119/314/3 126/305/3
f 119/314/3 124/315/3 126/305/3
f 10/316/4 136/317/4 11/318/4
f 136/317/4 17/319/4 11/318/4
f 7/320/18 6/321/18 131/322/18
f 7/320/18 131/322/18 138/323/18
f 6/324/1 5/325/1 139/326/1
f 6/324/1 139/326/1 131/327/1
f 140/328/11 13/329/11 21/330/11
f 13/329/11 12/331/11 21/330/11
f 9/332/18 1/333/18 4/334/18
f 9/332/18 4/334/18 137/335/18
f 137/336/7 4/337/7 3/338/7
f 23/339/7 3/338/7 138/340/7
f 138/340/7 131/341/7 139/342/7
f 139/342/7 140/343/7 21/344/7
f 138/340/7 139/342/7 23/339/7
f 139/342/7 21/344/7 23/339/7
f 23/339/7 137/336/7 3/338/7
f 23/339/7 17/345/7 137/336/7
f 17/345/7 136/346/7 137/336/7
usemtl Wood_Medium.026
f 36/347/4 37/348/4 34/42/4
f 37/348/4 35/349/4 34/42/4
f 41/350/4 40/351/4 42/352/4
f 40/351/4 43/353/4 42/352/4
f 47/354/4 46/355/4 48/356/4
f 46/355/4 49/74/4 48/356/4
f 63/357/8 64/358/8 62/359/8
f 64/358/8 61/360/8 62/359/8
f 69/361/8 70/362/8 67/363/8
f 70/362/8 68/364/8 67/363/8
f 74/365/8 73/366/8 75/367/8
f 74/365/8 75/367/8 76/368/8
f 85/369/7 86/370/7 83/156/7
f 86/370/7 84/371/7 83/156/7
f 89/372/7 90/373/7 87/374/7
f 90/373/7 88/375/7 87/374/7
f 92/376/7 91/377/7 93/378/7
f 91/377/7 94/188/7 93/378/7
f 103/379/11 104/380/11 101/213/11
f 104/380/11 102/381/11 101/213/11
f 109/382/11 110/383/11 107/384/11
f 110/383/11 108/385/11 107/384/11
f 114/386/11 113/387/11 115/388/11
f 113/387/11 116/245/11 115/388/11
f 125/389/2 126/390/2 123/270/2
f 126/390/2 124/391/2 123/270/2
f 128/392/2 127/393/2 129/394/2
f 127/393/2 130/395/2 129/394/2
f 133/396/2 132/397/2 134/398/2
f 132/397/2 135/302/2 134/398/2
f 9/399/3 137/400/3 10/316/3
f 137/400/3 136/401/3 10/316/3
f 139/402/3 5/403/3 13/329/3
f 139/402/3 13/329/3 140/404/3
f 7/405/3 138/406/3 2/407/3
f 138/406/3 3/408/3 2/407/3
