# Blender v2.82 (sub 7) OBJ File: ''
# www.blender.org
mtllib DetectionSign_Improver.mtl
o Cube_Cube.001
v 1.294376 8.562487 5.001612
v 1.294376 11.619082 5.001612
v 1.294376 8.562487 -5.048644
v 1.294376 11.619082 -5.048644
v -1.294376 8.562487 5.001612
v -1.294376 11.619082 5.001612
v -1.294376 8.562487 -5.048644
v -1.294376 11.619082 -5.048644
v 1.294376 11.619082 5.001612
v -1.294376 11.619082 5.001612
v 1.294376 11.484140 -0.023516
v 1.294376 14.409426 -0.023516
v -1.294376 11.484140 -0.023516
v -1.294376 14.409426 -0.023516
vt 0.194037 0.746061
vt 0.194037 0.769034
vt 0.239983 0.769034
vt 0.239983 0.746061
vt 0.194037 0.814980
vt 0.239983 0.814980
vt 0.194037 0.837953
vt 0.194037 0.860926
vt 0.239983 0.860926
vt 0.239983 0.837953
vt 0.194037 0.906872
vt 0.239983 0.906872
vt 0.148091 0.837953
vt 0.148091 0.860926
vt 0.285929 0.860926
vt 0.285929 0.837953
vt 0.239983 0.860926
vt 0.239983 0.906872
vt 0.285929 0.814980
vt 0.148091 0.814980
vt 0.194037 0.723089
vt 0.239983 0.723089
vn 1.0000 0.0000 0.0000
vn 0.0000 0.0000 -1.0000
vn -1.0000 0.0000 0.0000
vn 0.0000 0.0000 1.0000
vn 0.0000 -0.8645 -0.5026
vn 0.0000 0.8743 0.4855
vn 0.0000 0.8743 -0.4855
vn 0.0000 -0.8645 0.5026
g Cube_Cube.001_improverSignMaterial
usemtl improverSignMaterial
s off
f 11/1/1 3/2/1 4/3/1 12/4/1
f 3/2/2 7/5/2 8/6/2 4/3/2
f 13/7/3 5/8/3 6/9/3 14/10/3
f 5/8/4 1/11/4 2/12/4 6/9/4
f 11/13/5 1/14/5 5/8/5 13/7/5
f 14/10/6 6/9/6 2/15/6 12/16/6
f 6/9/4 10/17/4 9/18/4 2/12/4
f 8/6/7 14/10/7 12/16/7 4/19/7
f 3/20/8 11/13/8 13/7/8 7/5/8
f 7/5/3 13/7/3 14/10/3 8/6/3
f 1/21/1 11/1/1 12/4/1 2/22/1
o Cube.001_Cube.002
v 1.294376 4.321486 5.001612
v 1.294376 7.378081 5.001612
v 1.294376 4.321486 -5.048644
v 1.294376 7.378081 -5.048644
v -1.294376 4.321486 5.001612
v -1.294376 7.378081 5.001612
v -1.294376 4.321486 -5.048644
v -1.294376 7.378081 -5.048644
v 1.294376 7.378081 5.001612
v -1.294376 7.378081 5.001612
v 1.294376 7.243138 -0.023516
v 1.294376 10.168424 -0.023516
v -1.294376 7.243138 -0.023516
v -1.294376 10.168424 -0.023516
vt 0.275034 0.178548
vt 0.275034 0.217490
vt 0.352919 0.217490
vt 0.352919 0.178548
vt 0.275034 0.295374
vt 0.352919 0.295374
vt 0.275034 0.334316
vt 0.275034 0.373258
vt 0.352919 0.373258
vt 0.352919 0.334316
vt 0.275034 0.451143
vt 0.352919 0.451143
vt 0.197150 0.334316
vt 0.197150 0.373258
vt 0.430803 0.373258
vt 0.430803 0.334316
vt 0.352919 0.373258
vt 0.352919 0.451143
vt 0.430803 0.295374
vt 0.197150 0.295374
vt 0.275034 0.139605
vt 0.352919 0.139605
vn 1.0000 0.0000 0.0000
vn 0.0000 0.0000 -1.0000
vn -1.0000 0.0000 0.0000
vn 0.0000 0.0000 1.0000
vn 0.0000 -0.8645 -0.5026
vn 0.0000 0.8743 0.4855
vn 0.0000 0.8743 -0.4855
vn 0.0000 -0.8645 0.5026
g Cube.001_Cube.002_improverSignMaterial
usemtl improverSignMaterial
s off
f 25/23/9 17/24/9 18/25/9 26/26/9
f 17/24/10 21/27/10 22/28/10 18/25/10
f 27/29/11 19/30/11 20/31/11 28/32/11
f 19/30/12 15/33/12 16/34/12 20/31/12
f 25/35/13 15/36/13 19/30/13 27/29/13
f 28/32/14 20/31/14 16/37/14 26/38/14
f 20/31/12 24/39/12 23/40/12 16/34/12
f 22/28/15 28/32/15 26/38/15 18/41/15
f 17/42/16 25/35/16 27/29/16 21/27/16
f 21/27/11 27/29/11 28/32/11 22/28/11
f 15/43/9 25/23/9 26/26/9 16/44/9
o Cube.002_Cube.003
v 1.294376 0.188124 5.001612
v 1.294376 3.244719 5.001612
v 1.294376 0.188124 -5.048644
v 1.294376 3.244719 -5.048644
v -1.294376 0.188124 5.001612
v -1.294376 3.244719 5.001612
v -1.294376 0.188124 -5.048644
v -1.294376 3.244719 -5.048644
v 1.294376 3.244719 5.001612
v -1.294376 3.244719 5.001612
v 1.294376 3.109777 -0.023516
v 1.294376 6.035062 -0.023516
v -1.294376 3.109777 -0.023516
v -1.294376 6.035062 -0.023516
vt 0.679405 0.656865
vt 0.679405 0.688288
vt 0.742249 0.688288
vt 0.742249 0.656865
vt 0.679405 0.751132
vt 0.742249 0.751132
vt 0.679405 0.782554
vt 0.679405 0.813976
vt 0.742249 0.813976
vt 0.742249 0.782554
vt 0.679405 0.876820
vt 0.742249 0.876820
vt 0.616560 0.782554
vt 0.616560 0.813976
vt 0.805093 0.813976
vt 0.805093 0.782554
vt 0.742249 0.813976
vt 0.742249 0.876820
vt 0.805093 0.751132
vt 0.616560 0.751132
vt 0.679405 0.625443
vt 0.742249 0.625443
vn 1.0000 0.0000 0.0000
vn 0.0000 0.0000 -1.0000
vn -1.0000 0.0000 0.0000
vn 0.0000 0.0000 1.0000
vn 0.0000 -0.8645 -0.5026
vn 0.0000 0.8743 0.4855
vn 0.0000 0.8743 -0.4855
vn 0.0000 -0.8645 0.5026
g Cube.002_Cube.003_improverSignMaterial
usemtl improverSignMaterial
s off
f 39/45/17 31/46/17 32/47/17 40/48/17
f 31/46/18 35/49/18 36/50/18 32/47/18
f 41/51/19 33/52/19 34/53/19 42/54/19
f 33/52/20 29/55/20 30/56/20 34/53/20
f 39/57/21 29/58/21 33/52/21 41/51/21
f 42/54/22 34/53/22 30/59/22 40/60/22
f 34/53/20 38/61/20 37/62/20 30/56/20
f 36/50/23 42/54/23 40/60/23 32/63/23
f 31/64/24 39/57/24 41/51/24 35/49/24
f 35/49/19 41/51/19 42/54/19 36/50/19
f 29/65/17 39/45/17 40/48/17 30/66/17
