# Blender v2.82 (sub 7) OBJ File: ''
# www.blender.org
mtllib hammer.mtl
o Cylinder.001
v 0.000000 27.480085 -15.183167
v 0.000000 29.053389 -14.218244
v 2.100742 28.419285 -13.184341
v 2.100742 26.845982 -14.149265
v 2.100742 27.151081 -11.116538
v 2.100742 25.577778 -12.081462
v 0.000000 26.516977 -10.082635
v 0.000000 24.943674 -11.047559
v -2.100742 27.151081 -11.116538
v -2.100742 25.577778 -12.081462
v -2.100742 28.419285 -13.184341
v -2.100742 26.845982 -14.149265
vt 0.904919 0.597528
vt 0.904919 0.645902
vt 0.888794 0.645902
vt 0.888794 0.597528
vt 0.872670 0.645902
vt 0.872670 0.597528
vt 0.856545 0.645902
vt 0.856545 0.597528
vt 0.840420 0.645902
vt 0.840420 0.597528
vt 0.852467 0.584951
vt 0.832358 0.596561
vt 0.812249 0.584951
vt 0.812249 0.561731
vt 0.832358 0.550121
vt 0.852467 0.561731
vt 0.824296 0.645902
vt 0.824296 0.597528
vt 0.808171 0.645902
vt 0.808171 0.597528
vt 0.880732 0.596561
vt 0.900841 0.584951
vt 0.900841 0.561731
vt 0.880732 0.550121
vt 0.860623 0.561731
vt 0.860623 0.584951
vn 0.5000 0.4528 -0.7382
vn 1.0000 0.0000 0.0000
vn 0.5000 -0.4528 0.7382
vn -0.5000 -0.4528 0.7382
vn 0.0000 0.8524 0.5228
vn -1.0000 0.0000 0.0000
vn -0.5000 0.4528 -0.7382
vn 0.0000 -0.8524 -0.5228
usemtl Material.001
s 1
f 1/1/1 2/2/1 3/3/1 4/4/1
f 4/4/2 3/3/2 5/5/2 6/6/2
f 6/6/3 5/5/3 7/7/3 8/8/3
f 8/8/4 7/7/4 9/9/4 10/10/4
f 3/11/5 2/12/5 11/13/5 9/14/5 7/15/5 5/16/5
f 10/10/6 9/9/6 11/17/6 12/18/6
f 12/18/7 11/17/7 2/19/7 1/20/7
f 1/21/8 4/22/8 6/23/8 8/24/8 10/25/8 12/26/8
o Cylinder.002
v 0.000000 23.534838 -16.723284
v 0.000000 24.621845 -16.056610
v 1.451429 24.183735 -15.342277
v 1.451429 23.096727 -16.008949
v 1.451429 23.307518 -13.913606
v 1.451429 22.220510 -14.580279
v 0.000000 22.869408 -13.199271
v 0.000000 21.782400 -13.865945
v -1.451429 23.307518 -13.913606
v -1.451429 22.220510 -14.580279
v -1.451429 24.183735 -15.342277
v -1.451429 23.096727 -16.008949
vt 0.402255 0.363930
vt 0.402255 0.390573
vt 0.393374 0.390573
vt 0.393374 0.363930
vt 0.384493 0.390573
vt 0.384493 0.363930
vt 0.375612 0.390573
vt 0.375612 0.363930
vt 0.366731 0.390573
vt 0.366731 0.363930
vt 0.373366 0.357003
vt 0.362291 0.363397
vt 0.351215 0.357003
vt 0.351215 0.344214
vt 0.362291 0.337820
vt 0.373366 0.344214
vt 0.357850 0.390573
vt 0.357850 0.363930
vt 0.348969 0.390573
vt 0.348969 0.363930
vt 0.388934 0.363397
vt 0.400009 0.357003
vt 0.400009 0.344214
vt 0.388934 0.337820
vt 0.377858 0.344214
vt 0.377858 0.357003
vn 0.5000 0.4528 -0.7382
vn 1.0000 -0.0000 0.0000
vn 0.5000 -0.4528 0.7382
vn -0.5000 -0.4528 0.7382
vn 0.0000 0.8524 0.5228
vn -1.0000 -0.0000 0.0000
vn -0.5000 0.4528 -0.7382
vn 0.0000 -0.8524 -0.5228
usemtl Material.001
s 1
f 13/27/9 14/28/9 15/29/9 16/30/9
f 16/30/10 15/29/10 17/31/10 18/32/10
f 18/32/11 17/31/11 19/33/11 20/34/11
f 20/34/12 19/33/12 21/35/12 22/36/12
f 15/37/13 14/38/13 23/39/13 21/40/13 19/41/13 17/42/13
f 22/36/14 21/35/14 23/43/14 24/44/14
f 24/44/15 23/43/15 14/45/15 13/46/15
f 13/47/16 16/48/16 18/49/16 20/50/16 22/51/16 24/52/16
o Cylinder.003
v 0.000000 20.614521 -18.514347
v 0.000000 21.701529 -17.847673
v 1.451429 21.263418 -17.133339
v 1.451429 20.176411 -17.800013
v 1.451429 20.387201 -15.704667
v 1.451429 19.300194 -16.371342
v 0.000000 19.949091 -14.990333
v 0.000000 18.862083 -15.657006
v -1.451429 20.387201 -15.704667
v -1.451429 19.300194 -16.371342
v -1.451429 21.263418 -17.133339
v -1.451429 20.176411 -17.800013
vt 0.402255 0.363930
vt 0.402255 0.390573
vt 0.393374 0.390573
vt 0.393374 0.363930
vt 0.384493 0.390573
vt 0.384493 0.363930
vt 0.375612 0.390573
vt 0.375612 0.363930
vt 0.366731 0.390573
vt 0.366731 0.363930
vt 0.373366 0.357003
vt 0.362291 0.363397
vt 0.351215 0.357003
vt 0.351215 0.344214
vt 0.362291 0.337820
vt 0.373366 0.344214
vt 0.357850 0.390573
vt 0.357850 0.363930
vt 0.348969 0.390573
vt 0.348969 0.363930
vt 0.388934 0.363397
vt 0.400009 0.357003
vt 0.400009 0.344214
vt 0.388934 0.337820
vt 0.377858 0.344214
vt 0.377858 0.357003
vn 0.5000 0.4528 -0.7382
vn 1.0000 0.0000 0.0000
vn 0.5000 -0.4528 0.7382
vn -0.5000 -0.4528 0.7382
vn -0.0000 0.8524 0.5228
vn -1.0000 -0.0000 0.0000
vn -0.5000 0.4528 -0.7382
vn 0.0000 -0.8524 -0.5228
usemtl Material.001
s 1
f 25/53/17 26/54/17 27/55/17 28/56/17
f 28/56/18 27/55/18 29/57/18 30/58/18
f 30/58/19 29/57/19 31/59/19 32/60/19
f 32/60/20 31/59/20 33/61/20 34/62/20
f 27/63/21 26/64/21 35/65/21 33/66/21 31/67/21 29/68/21
f 34/62/22 33/61/22 35/69/22 36/70/22
f 36/70/23 35/69/23 26/71/23 25/72/23
f 25/73/24 28/74/24 30/75/24 32/76/24 34/77/24 36/78/24
o Cylinder.004
v 0.000000 17.629309 -20.345207
v 0.000000 18.716318 -19.678535
v 1.451429 18.278208 -18.964199
v 1.451429 17.191200 -19.630873
v 1.451429 17.401989 -17.535530
v 1.451429 16.314981 -18.202202
v 0.000000 16.963881 -16.821194
v 0.000000 15.876874 -17.487867
v -1.451429 17.401989 -17.535530
v -1.451429 16.314981 -18.202202
v -1.451429 18.278208 -18.964199
v -1.451429 17.191200 -19.630873
vt 0.402255 0.363930
vt 0.402255 0.390573
vt 0.393374 0.390573
vt 0.393374 0.363930
vt 0.384493 0.390573
vt 0.384493 0.363930
vt 0.375612 0.390573
vt 0.375612 0.363930
vt 0.366731 0.390573
vt 0.366731 0.363930
vt 0.373366 0.357003
vt 0.362291 0.363397
vt 0.351215 0.357003
vt 0.351215 0.344214
vt 0.362291 0.337820
vt 0.373366 0.344214
vt 0.357850 0.390573
vt 0.357850 0.363930
vt 0.348969 0.390573
vt 0.348969 0.363930
vt 0.388934 0.363397
vt 0.400009 0.357003
vt 0.400009 0.344214
vt 0.388934 0.337820
vt 0.377858 0.344214
vt 0.377858 0.357003
vn 0.5000 0.4528 -0.7382
vn 1.0000 0.0000 0.0000
vn 0.5000 -0.4528 0.7382
vn -0.5000 -0.4528 0.7382
vn -0.0000 0.8524 0.5228
vn -1.0000 0.0000 0.0000
vn -0.5000 0.4528 -0.7382
vn -0.0000 -0.8524 -0.5228
usemtl Material.001
s 1
f 37/79/25 38/80/25 39/81/25 40/82/25
f 40/82/26 39/81/26 41/83/26 42/84/26
f 42/84/27 41/83/27 43/85/27 44/86/27
f 44/86/28 43/85/28 45/87/28 46/88/28
f 39/89/29 38/90/29 47/91/29 45/92/29 43/93/29 41/94/29
f 46/88/30 45/87/30 47/95/30 48/96/30
f 48/96/31 47/95/31 38/97/31 37/98/31
f 37/99/32 40/100/32 42/101/32 44/102/32 46/103/32 48/104/32
o Cube.002_Cube.004
v 5.805825 29.313713 -16.744047
v 5.805825 24.383633 -8.705573
v 5.805825 32.177139 -3.925730
v 5.805825 37.107224 -11.964210
v 7.004847 24.002853 -8.084714
v 7.004847 31.796362 -3.304873
v 7.004847 31.796362 -3.304873
v 7.004847 24.002853 -8.084714
v 7.004847 28.711781 -17.113220
v 7.004847 28.711781 -17.113220
v 7.004847 23.781700 -9.074744
v 7.004847 23.781700 -9.074744
v 8.203876 24.383633 -8.705573
v 8.203876 29.313713 -16.744047
v 8.203876 37.107224 -11.964210
v 8.203876 32.177139 -3.925730
v 7.004847 29.694492 -17.364906
v 7.004847 37.488003 -12.585066
v 7.004847 37.488003 -12.585066
v 7.004847 29.694492 -17.364906
v 7.004847 37.709160 -11.595034
v 7.004847 32.779076 -3.556560
v 7.004847 32.779076 -3.556560
v 7.004847 37.709160 -11.595034
v -5.805825 29.313713 -16.744047
v -5.805825 37.107224 -11.964210
v -5.805825 32.177139 -3.925730
v -5.805825 24.383633 -8.705573
v -7.004847 24.002853 -8.084714
v -7.004847 24.002853 -8.084714
v -7.004847 31.796362 -3.304873
v -7.004847 31.796362 -3.304873
v -7.004847 28.711781 -17.113220
v -7.004847 23.781700 -9.074744
v -7.004847 23.781700 -9.074744
v -7.004847 28.711781 -17.113220
v -8.203876 24.383633 -8.705573
v -8.203876 32.177139 -3.925730
v -8.203876 37.107224 -11.964210
v -8.203876 29.313713 -16.744047
v -7.004847 29.694492 -17.364906
v -7.004847 29.694492 -17.364906
v -7.004847 37.488003 -12.585066
v -7.004847 37.488003 -12.585066
v -7.004847 37.709160 -11.595034
v -7.004847 32.779076 -3.556560
v -7.004847 32.779076 -3.556560
v -7.004847 37.709160 -11.595034
vt 0.858014 0.626571
vt 0.857919 0.638205
vt 0.871585 0.640142
vt 0.873521 0.626666
vt 0.860077 0.640425
vt 0.871616 0.640425
vt 0.871616 0.640425
vt 0.860077 0.640425
vt 0.857731 0.626540
vt 0.857731 0.626540
vt 0.857731 0.638079
vt 0.857731 0.638079
vt 0.859582 0.638072
vt 0.859559 0.626510
vt 0.871608 0.626045
vt 0.872073 0.638049
vt 0.860077 0.624195
vt 0.871616 0.624195
vt 0.871616 0.624195
vt 0.860077 0.624195
vt 0.872507 0.624195
vt 0.871616 0.625086
vt 0.858623 0.638079
vt 0.857731 0.638970
vt 0.857731 0.625649
vt 0.858623 0.626540
vt 0.871616 0.639533
vt 0.872507 0.640425
vt 0.856840 0.626540
vt 0.857731 0.625649
vt 0.873961 0.638079
vt 0.874852 0.638079
vt 0.873961 0.638970
vt 0.873961 0.626540
vt 0.873961 0.625649
vt 0.874852 0.626540
vt 0.860077 0.641316
vt 0.859185 0.640425
vt 0.873961 0.626540
vt 0.873961 0.625649
vt 0.857731 0.638970
vt 0.860077 0.639533
vt 0.873961 0.638079
vt 0.873070 0.638079
vt 0.873070 0.626540
vt 0.859552 0.625611
vt 0.871578 0.625124
vt 0.873961 0.638970
vt 0.860077 0.623304
vt 0.871616 0.623304
vt 0.857888 0.639127
vt 0.871459 0.641159
vt 0.872664 0.640268
vt 0.874696 0.626697
vt 0.858014 0.626571
vt 0.873521 0.626666
vt 0.871585 0.640142
vt 0.857919 0.638205
vt 0.860077 0.640425
vt 0.860077 0.640425
vt 0.871616 0.640425
vt 0.871616 0.640425
vt 0.857731 0.626540
vt 0.857731 0.638079
vt 0.857731 0.638079
vt 0.857731 0.626540
vt 0.859582 0.638072
vt 0.872073 0.638049
vt 0.871608 0.626045
vt 0.859559 0.626510
vt 0.860077 0.624195
vt 0.860077 0.624195
vt 0.871616 0.624195
vt 0.871616 0.624195
vt 0.871616 0.625086
vt 0.872507 0.624195
vt 0.857731 0.638970
vt 0.858623 0.638079
vt 0.858623 0.626540
vt 0.857731 0.625649
vt 0.872507 0.640425
vt 0.871616 0.639533
vt 0.857731 0.625649
vt 0.856840 0.626540
vt 0.873961 0.638079
vt 0.873961 0.638970
vt 0.874852 0.638079
vt 0.873961 0.626540
vt 0.874852 0.626540
vt 0.873961 0.625649
vt 0.859185 0.640425
vt 0.860077 0.641316
vt 0.873961 0.625649
vt 0.873961 0.626540
vt 0.857731 0.638970
vt 0.860077 0.639533
vt 0.873070 0.626540
vt 0.873070 0.638079
vt 0.873961 0.638079
vt 0.871578 0.625124
vt 0.859552 0.625611
vt 0.873961 0.638970
vt 0.871616 0.623304
vt 0.860077 0.623304
vt 0.871459 0.641159
vt 0.857888 0.639127
vt 0.874696 0.626697
vt 0.872664 0.640268
vn -1.0000 0.0000 0.0000
vn 0.0000 0.0000 1.0000
vn 0.0000 0.0000 -1.0000
vn 0.2679 0.6467 -0.7141
vn -0.0038 -0.0092 -1.0000
vn 1.0000 -0.0000 0.0000
vn -0.1824 -0.0000 -0.9832
vn 0.3894 0.8989 -0.2008
vn 0.3894 -0.8989 0.2008
vn 0.3894 -0.2285 -0.8923
vn 0.3894 0.2285 0.8923
vn -0.3894 -0.2285 -0.8923
vn -0.3894 0.2285 0.8923
vn -0.3894 0.8989 -0.2008
vn -0.3894 -0.8989 0.2008
vn 0.0000 0.5781 -0.8160
vn 0.0000 0.8859 -0.4639
vn -0.0000 -0.6189 0.7855
vn 0.0000 -0.8383 0.5452
vn 0.5192 -0.4468 0.7286
vn 0.5075 0.7345 0.4505
vn 0.5075 -0.7345 -0.4505
vn 0.5192 0.4468 -0.7286
vn -0.0003 -0.9038 -0.4280
vn 0.0000 -0.6103 -0.7922
vn 0.0000 0.8808 0.4736
vn 0.0000 0.6821 0.7312
vn -0.5192 0.4468 -0.7286
vn -0.5075 -0.7345 -0.4505
vn -0.5192 -0.4468 0.7286
vn -0.5075 0.7345 0.4505
usemtl Material.001
s 1
f 49/105/33 50/106/33 51/107/33 52/108/33
f 53/109/34 54/110/34 55/111/34 56/112/34
f 57/113/35 58/114/36 59/115/35 60/116/37
f 61/117/38 62/118/38 63/119/38 64/120/38
f 65/121/39 66/122/35 67/123/39 68/124/35
f 67/123/40 69/125/40 63/126/40
f 59/115/41 61/127/41 53/128/41
f 58/114/42 68/129/42 62/130/42
f 54/110/43 64/131/43 70/132/43
f 57/113/44 49/133/44 65/134/44
f 71/135/45 51/136/45 55/137/45
f 72/138/46 66/139/46 52/140/46
f 56/112/47 50/141/47 60/142/47
f 72/138/35 69/143/48 67/144/35 66/139/49
f 60/116/34 59/115/50 53/128/34 56/145/51
f 54/110/52 53/109/52 61/146/52 64/131/52
f 69/143/53 70/147/53 64/148/53 63/149/53
f 62/118/54 61/117/54 59/115/54 58/114/54
f 63/119/55 62/118/55 68/150/55 67/151/55
f 58/114/35 57/113/56 65/134/35 68/129/57
f 70/147/34 71/135/58 55/137/34 54/152/59
f 66/122/60 65/121/60 49/153/60 52/154/60
f 57/113/61 60/116/61 50/106/61 49/105/61
f 51/107/62 50/106/62 56/155/62 55/156/62
f 52/108/63 51/107/63 71/157/63 72/158/63
f 69/143/35 72/138/36 71/135/35 70/147/37
f 73/159/38 74/160/38 75/161/38 76/162/38
f 77/163/34 78/164/34 79/165/34 80/166/34
f 81/167/36 82/168/35 83/169/37 84/170/35
f 85/171/33 86/172/33 87/173/33 88/174/33
f 89/175/35 90/176/39 91/177/35 92/178/39
f 91/177/46 87/179/46 93/180/46
f 83/169/47 77/181/47 85/182/47
f 84/170/44 88/183/44 90/184/44
f 80/166/45 94/185/45 86/186/45
f 81/167/42 89/187/42 73/188/42
f 95/189/43 79/190/43 75/191/43
f 96/192/40 74/193/40 92/194/40
f 78/164/41 82/195/41 76/196/41
f 96/192/48 92/194/35 91/197/49 93/198/35
f 82/168/50 78/199/34 77/181/51 83/169/34
f 80/166/62 86/186/62 85/200/62 77/163/62
f 93/198/63 87/201/63 86/202/63 94/203/63
f 88/174/61 84/170/61 83/169/61 85/171/61
f 87/173/60 91/204/60 90/205/60 88/174/60
f 84/170/56 90/184/35 89/187/57 81/167/35
f 94/203/58 80/206/34 79/190/59 95/189/34
f 92/178/55 74/207/55 73/208/55 89/175/55
f 81/167/54 73/159/54 76/162/54 82/168/54
f 75/161/52 79/209/52 78/210/52 76/162/52
f 74/160/53 96/211/53 95/212/53 75/161/53
f 93/198/36 94/203/35 95/189/37 96/192/35
o Cone
v 0.000000 34.804165 -9.790747
v 0.000000 36.764183 -6.643527
v 1.435966 34.370720 -9.084017
v 1.435966 33.503838 -7.670573
v 0.000000 33.070393 -6.963842
v -1.435966 33.503838 -7.670573
v -1.435966 34.370720 -9.084017
vt 0.321275 0.341913
vt 0.321275 0.329124
vt 0.332350 0.335519
vt 0.332350 0.322730
vt 0.321275 0.316336
vt 0.310199 0.322730
vt 0.310199 0.335519
vt 0.347918 0.341913
vt 0.358993 0.335519
vt 0.358993 0.322730
vt 0.347918 0.316336
vt 0.336842 0.322730
vt 0.336842 0.335519
vn 0.4588 0.7542 -0.4697
vn 0.9177 0.3387 0.2077
vn 0.4588 -0.0768 0.8852
vn -0.4588 -0.0768 0.8852
vn -0.9177 0.3387 0.2077
vn -0.4588 0.7542 -0.4697
vn 0.0000 -0.8524 -0.5228
usemtl Material.001
s 1
f 97/213/64 98/214/64 99/215/64
f 99/215/65 98/214/65 100/216/65
f 100/216/66 98/214/66 101/217/66
f 101/217/67 98/214/67 102/218/67
f 102/218/68 98/214/68 103/219/68
f 103/219/69 98/214/69 97/213/69
f 97/220/70 99/221/70 100/222/70 101/223/70 102/224/70 103/225/70
o Cylinder
v 0.000000 2.199693 -29.602600
v 0.000000 28.346481 -13.566502
v 1.299534 27.954222 -12.926927
v 1.299534 1.807435 -28.963024
v 1.299534 27.169699 -11.647763
v 1.299534 1.022911 -27.683861
v 0.000000 26.777439 -11.008187
v 0.000000 0.630653 -27.044285
v -1.299534 27.169699 -11.647763
v -1.299534 1.022911 -27.683861
v -1.299534 27.954222 -12.926927
v -1.299534 1.807435 -28.963024
vt 0.624104 0.145409
vt 0.624104 0.164534
vt 0.617729 0.164534
vt 0.617729 0.145409
vt 0.611355 0.164534
vt 0.611355 0.145409
vt 0.604980 0.164534
vt 0.604980 0.145409
vt 0.598605 0.164534
vt 0.598605 0.145409
vt 0.603367 0.140437
vt 0.595417 0.145027
vt 0.587468 0.140437
vt 0.587468 0.131257
vt 0.595417 0.126667
vt 0.603367 0.131257
vt 0.592230 0.164534
vt 0.592230 0.145409
vt 0.585855 0.164534
vt 0.585855 0.145409
vt 0.614542 0.145027
vt 0.622492 0.140437
vt 0.622492 0.131257
vt 0.614542 0.126667
vt 0.606592 0.131257
vt 0.606592 0.140437
vn 0.5000 0.4528 -0.7382
vn 1.0000 0.0000 0.0000
vn 0.5000 -0.4528 0.7382
vn -0.5000 -0.4528 0.7382
vn 0.0000 0.8524 0.5228
vn -1.0000 0.0000 0.0000
vn -0.5000 0.4528 -0.7382
vn -0.0000 -0.8524 -0.5228
usemtl Wood_Darker.004
s 1
f 104/226/71 105/227/71 106/228/71 107/229/71
f 107/229/72 106/228/72 108/230/72 109/231/72
f 109/231/73 108/230/73 110/232/73 111/233/73
f 111/233/74 110/232/74 112/234/74 113/235/74
f 106/236/75 105/237/75 114/238/75 112/239/75 110/240/75 108/241/75
f 113/235/76 112/234/76 114/242/76 115/243/76
f 115/243/77 114/242/77 105/244/77 104/245/77
f 104/246/78 107/247/78 109/248/78 111/249/78 113/250/78 115/251/78
o Cube.003_Cube.005
v 6.268487 26.568489 -8.397338
v 6.268487 30.939791 -5.716372
v -6.268487 30.939791 -5.716372
v -6.268487 26.568489 -8.397338
v 8.954980 29.977354 -13.955479
v 8.954980 34.348656 -11.274513
v 8.954980 31.541355 -6.697221
v 8.954980 27.170053 -9.378186
v 6.268487 35.285362 -10.700022
v -6.268487 35.285362 -10.700022
v -6.268487 32.478058 -6.122728
v 6.268487 32.478058 -6.122728
v -8.954980 27.170053 -9.378186
v -8.954980 31.541355 -6.697221
v -8.954980 34.348656 -11.274513
v -8.954980 29.977354 -13.955479
v -6.268487 30.578918 -14.936327
v -6.268487 34.950222 -12.255362
v 6.268487 34.950222 -12.255362
v 6.268487 30.578918 -14.936327
v -6.268487 26.233345 -9.952680
v -6.268487 29.040646 -14.529971
v 6.268487 26.233345 -9.952680
v 6.268487 29.040646 -14.529971
vt 0.878136 0.888483
vt 0.890761 0.888483
vt 0.890761 0.901109
vt 0.878136 0.901109
vt 0.878136 0.870447
vt 0.890761 0.870447
vt 0.890761 0.883072
vt 0.878136 0.883072
vt 0.896172 0.870447
vt 0.908798 0.870447
vt 0.908798 0.883072
vt 0.896172 0.883072
vt 0.878136 0.834374
vt 0.890761 0.834374
vt 0.890761 0.847000
vt 0.878136 0.847000
vt 0.878136 0.852411
vt 0.890761 0.852411
vt 0.890761 0.865036
vt 0.878136 0.865036
vt 0.860100 0.883072
vt 0.860100 0.885778
vt 0.857394 0.883072
vt 0.893467 0.901109
vt 0.890761 0.903814
vt 0.860100 0.870447
vt 0.857394 0.870447
vt 0.860100 0.867742
vt 0.908798 0.867742
vt 0.911503 0.870447
vt 0.872725 0.883072
vt 0.875430 0.883072
vt 0.872725 0.885778
vt 0.896172 0.885778
vt 0.893467 0.883072
vt 0.872725 0.870447
vt 0.872725 0.867742
vt 0.875430 0.870447
vt 0.893467 0.870447
vt 0.896172 0.867742
vt 0.878136 0.903814
vt 0.911503 0.883072
vt 0.908798 0.885778
vn 0.0000 -0.5228 0.8524
vn 1.0000 0.0000 0.0000
vn 0.0000 0.8524 0.5228
vn -1.0000 0.0000 0.0000
vn 0.0000 0.5228 -0.8524
vn -0.2837 -0.9374 0.2020
vn -0.2837 0.2449 0.9271
vn -0.2837 -0.2449 -0.9271
vn -0.2837 0.9374 -0.2020
vn 0.2837 -0.9374 0.2020
vn 0.2837 0.2449 0.9271
vn 0.2837 -0.2449 -0.9271
vn 0.2837 0.9374 -0.2020
vn -0.3786 -0.7890 -0.4839
vn -0.3937 -0.4806 0.7836
vn -0.3786 0.7890 0.4839
vn -0.3937 0.4806 -0.7836
vn 0.0000 -0.2554 -0.9668
vn 0.0000 0.9776 -0.2106
vn 0.3937 0.4806 -0.7836
vn 0.3786 -0.7890 -0.4839
vn 0.3786 0.7890 0.4839
vn 0.3937 -0.4806 0.7836
vn 0.0000 -0.9776 0.2106
vn 0.0000 0.2554 0.9668
vn 0.0000 -0.8524 -0.5228
usemtl Material.001
s 1
f 116/252/79 117/253/79 118/254/79 119/255/79
f 120/256/80 121/257/80 122/258/80 123/259/80
f 124/260/81 125/261/81 126/262/81 127/263/81
f 128/264/82 129/265/82 130/266/82 131/267/82
f 132/268/83 133/269/83 134/270/83 135/271/83
f 136/272/84 119/273/84 128/274/84
f 118/254/85 126/275/85 129/276/85
f 137/277/86 131/278/86 132/279/86
f 125/261/87 133/280/87 130/281/87
f 138/282/88 123/283/88 116/284/88
f 127/263/89 117/285/89 122/286/89
f 139/287/90 135/288/90 120/289/90
f 124/260/91 121/290/91 134/291/91
f 137/277/92 136/272/92 128/274/92 131/278/92
f 119/255/93 118/254/93 129/276/93 128/292/93
f 126/262/94 125/261/94 130/281/94 129/293/94
f 133/269/95 132/268/95 131/267/95 130/266/95
f 139/287/96 137/277/96 132/279/96 135/288/96
f 125/261/97 124/260/97 134/291/97 133/280/97
f 121/257/98 120/256/98 135/271/98 134/270/98
f 138/282/99 139/287/99 120/256/99 123/259/99
f 124/260/100 127/263/100 122/258/100 121/257/100
f 117/253/101 116/252/101 123/259/101 122/258/101
f 136/272/102 138/282/102 116/284/102 119/273/102
f 127/263/103 126/262/103 118/294/103 117/285/103
f 137/277/104 139/287/104 138/282/104 136/272/104
