# Blender v2.82 (sub 7) OBJ File: ''
# www.blender.org
mtllib stick.mtl
o Cube_Cube.001
v 16.269909 26.044661 -1.359659
v 14.751449 26.048464 -1.122777
v 14.742963 26.705753 -1.187726
v 16.261423 26.701952 -1.424608
v 14.769135 26.783192 -0.407453
v 16.233297 26.821884 -0.207187
v 14.777623 26.125902 -0.342504
v 16.241785 26.164595 -0.142238
v 5.266578 26.060049 0.233793
v 5.258091 26.717340 0.168844
v 4.191248 26.705986 0.193339
v 4.199734 26.048697 0.258288
v 4.079379 25.980742 -0.413700
v -6.653606 26.029493 1.482066
v -7.321774 25.939932 0.662985
v 5.004925 25.990826 -0.432573
v 4.228863 25.954508 -0.698713
v 4.424371 25.911161 -1.162932
v 4.996439 26.648117 -0.497522
v 4.070891 26.638031 -0.478648
v -8.756790 26.711906 1.945052
v -7.761238 26.635988 1.046660
v -11.185730 26.520582 1.820783
v -10.841582 26.578278 2.359715
v -7.330260 26.597221 0.598036
v -6.662092 26.686785 1.417117
v -10.836871 26.213455 2.395765
v -13.608153 26.633585 4.429608
v -13.606345 26.493542 4.443446
v -8.748303 26.054617 2.010001
v -7.752752 25.978697 1.111609
v -11.181020 26.155758 1.856832
v -13.648985 26.628038 4.378799
v -13.647177 26.487993 4.392637
v 9.729443 26.761019 0.026654
v 9.651746 26.702595 -0.554452
v 9.660232 26.045305 -0.489504
v 9.737929 26.103729 0.091602
v -9.922435 26.386362 -1.197202
v -10.587821 26.397898 -0.993513
v 4.220377 26.611799 -0.763662
v 4.415885 26.568451 -1.227881
v 2.694150 26.533108 -1.360607
v 2.674780 26.536285 -1.325908
v 2.702637 25.875816 -1.295658
v 2.683267 25.878996 -1.260959
v -12.649822 26.238966 -2.332506
v -12.641335 25.581675 -2.267557
v -16.803450 25.570335 -1.838486
v -16.811937 26.227627 -1.903435
v -10.579334 25.740606 -0.928565
v -9.913947 25.729071 -1.132252
v -16.575285 25.502754 -1.470880
v -16.479836 26.262928 -1.589563
v -12.608207 25.635822 -1.723903
v -12.616692 26.293114 -1.788852
vt 0.838599 0.069436
vt 0.817444 0.069821
vt 0.816711 0.061049
vt 0.837866 0.060664
vt 0.796264 0.210019
vt 0.777381 0.208104
vt 0.777963 0.196306
vt 0.796312 0.191687
vt 0.426828 0.050577
vt 0.447282 0.050194
vt 0.448019 0.058965
vt 0.427564 0.059349
vt 0.403097 0.099575
vt 0.425797 0.104854
vt 0.423369 0.115358
vt 0.398206 0.115841
vt 0.618268 0.064662
vt 0.635243 0.064353
vt 0.635976 0.073125
vt 0.619001 0.073434
vt 0.579167 0.056570
vt 0.578430 0.047798
vt 0.593178 0.047527
vt 0.593915 0.056299
vt 0.596733 0.124770
vt 0.597258 0.115551
vt 0.775400 0.118387
vt 0.783105 0.130548
vt 0.342017 0.918020
vt 0.356897 0.919408
vt 0.353465 0.922963
vt 0.348643 0.928837
vt 0.581853 0.123383
vt 0.580097 0.113989
vt 0.659386 0.198000
vt 0.655900 0.208336
vt 0.644349 0.209062
vt 0.646072 0.198795
vt 0.389385 0.397525
vt 0.406137 0.392833
vt 0.427056 0.358292
vt 0.421730 0.350293
vt 0.502333 0.205272
vt 0.510945 0.192188
vt 0.742317 0.044821
vt 0.743053 0.053593
vt 0.834942 0.051932
vt 0.835675 0.060704
vt 0.677128 0.063590
vt 0.676395 0.054818
vt 0.569075 0.099841
vt 0.564200 0.100153
vt 0.565823 0.063617
vt 0.567695 0.063497
vt 0.570974 0.128243
vt 0.562190 0.128805
vt 0.395560 0.343415
vt 0.386776 0.343973
vt 0.388810 0.296013
vt 0.393686 0.295703
vt 0.529655 0.100497
vt 0.548863 0.090222
vt 0.583724 0.088577
vt 0.587265 0.096410
vt 0.565822 0.063005
vt 0.567694 0.062885
vt 0.537640 0.204873
vt 0.539512 0.204754
vt 0.635536 0.065909
vt 0.636004 0.066662
vt 0.333299 0.435703
vt 0.332839 0.434853
vt 0.715174 0.195262
vt 0.714013 0.204112
vt 0.507150 0.115894
vt 0.508026 0.107969
vt 0.745848 0.062339
vt 0.746581 0.071111
vt 0.682002 0.072287
vt 0.681269 0.063515
vt 0.517393 0.057702
vt 0.516657 0.048931
vt 0.521122 0.105745
vt 0.513417 0.093584
vt 0.604563 0.143251
vt 0.612597 0.141668
vt 0.568828 0.200421
vt 0.562824 0.206536
vt 0.570916 0.156764
vt 0.562132 0.157326
vt 0.577326 0.146446
vt 0.584693 0.160270
vt 0.576659 0.161853
vt 0.319627 0.475034
vt 0.423511 0.931552
vt 0.425801 0.938340
vt 0.404257 0.942222
vt 0.404027 0.941720
vt 0.421738 0.927416
vt 0.433289 0.926690
vt 0.438927 0.938244
vt 0.438194 0.929472
vt 0.440384 0.929433
vt 0.441117 0.938204
vt 0.351867 0.929335
vt 0.352600 0.938107
vt 0.342596 0.938289
vt 0.341863 0.929517
vt 0.419736 0.047489
vt 0.419003 0.038717
vt 0.419286 0.038712
vt 0.420019 0.047484
vt 0.360321 0.929181
vt 0.359595 0.920409
vt 0.381510 0.920010
vt 0.382236 0.928782
vt 0.382243 0.928782
vt 0.381510 0.920010
vt 0.405331 0.919576
vt 0.406064 0.928348
vt 0.376147 0.933237
vt 0.375711 0.933668
vt 0.369169 0.367311
vt 0.377954 0.366753
vt 0.377857 0.424657
vt 0.369072 0.425215
vt 0.589990 0.061468
vt 0.598774 0.060909
vt 0.598772 0.101920
vt 0.589987 0.102480
vt 0.567444 0.132848
vt 0.556053 0.134399
vt 0.369290 0.294743
vt 0.378075 0.294185
vt 0.378016 0.329394
vt 0.369232 0.329953
vt 0.544394 0.204443
vt 0.535609 0.205002
vt 0.534189 0.201624
vt 0.544392 0.199556
vt 0.589962 0.131303
vt 0.598747 0.130744
vt 0.415784 0.291618
vt 0.422733 0.296080
vt 0.396235 0.340669
vt 0.393793 0.334498
vt 0.595557 0.154448
vt 0.597010 0.147103
vt 0.661391 0.150871
vt 0.663725 0.156074
vn -0.1536 -0.0991 -0.9831
vn -0.0128 0.9951 -0.0983
vn -0.1374 0.0956 0.9859
vn 0.0128 -0.9951 0.0983
vn 0.9997 0.0150 0.0216
vn 0.0262 0.0986 0.9948
vn 0.0218 0.0986 0.9949
vn -0.0716 0.9896 -0.1244
vn 0.1113 0.0991 0.9888
vn -0.0932 -0.0991 -0.9907
vn 0.5979 0.0865 0.7969
vn 0.1880 0.0990 0.9772
vn -0.2162 -0.0988 -0.9713
vn -0.0459 -0.9964 0.0718
vn -0.7812 0.0514 0.6222
vn -0.7198 -0.0775 -0.6899
vn -0.0146 -0.9931 0.1160
vn -0.0403 0.9959 -0.0805
vn -0.0110 -0.0985 -0.9951
vn 0.0307 0.0987 0.9946
vn 0.2443 0.0985 0.9647
vn -0.8863 -0.0569 -0.4596
vn 0.7845 -0.0509 -0.6180
vn -0.8739 -0.0590 -0.4825
vn -0.3443 0.0879 0.9347
vn 0.0785 -0.0970 -0.9922
vn 0.0850 0.0991 0.9914
vn -0.1228 -0.0992 -0.9875
vn -0.1018 -0.0991 -0.9899
vn -0.5877 0.0720 0.8059
vn 0.5718 -0.0734 -0.8171
vn -0.7630 0.1289 0.6334
vn 0.0546 0.1250 0.9907
vn 0.0161 -0.9997 -0.0194
vn -0.3675 0.0868 0.9260
vn 0.3868 -0.0857 -0.9182
usemtl Material.001
s 1
f 1/1/1 2/2/1 3/3/1 4/4/1
f 4/5/2 3/6/2 5/7/2 6/8/2
f 6/9/3 5/10/3 7/11/3 8/12/3
f 8/13/4 7/14/4 2/15/4 1/16/4
f 4/17/5 6/18/5 8/19/5 1/20/5
f 9/21/6 10/22/6 11/23/7 12/24/7
f 13/25/4 12/26/4 14/27/4 15/28/4
f 16/29/4 13/30/4 17/31/4 18/32/4
f 16/33/4 9/34/4 12/26/4 13/25/4
f 10/35/2 19/36/2 20/37/2 11/38/2
f 21/39/8 22/40/8 23/41/8 24/42/8
f 11/38/2 20/37/2 25/43/2 26/44/2
f 12/24/9 11/23/9 26/45/9 14/46/9
f 20/47/10 13/48/10 15/49/10 25/50/10
f 27/51/11 24/52/11 28/53/11 29/54/11
f 30/55/12 21/56/12 24/52/12 27/51/12
f 22/57/13 31/58/13 32/59/13 23/60/13
f 31/61/14 30/62/14 27/63/14 32/64/14
f 28/53/15 33/65/15 34/66/15 29/54/15
f 23/60/16 32/59/16 34/67/16 33/68/16
f 32/64/17 27/63/17 29/69/17 34/70/17
f 24/42/18 23/41/18 33/71/18 28/72/18
f 35/73/2 36/74/2 19/36/2 10/35/2
f 37/75/4 38/76/4 9/34/4 16/33/4
f 36/77/19 37/78/19 16/79/19 19/80/19
f 38/81/20 35/82/20 10/22/6 9/21/6
f 15/83/4 14/84/4 30/62/4 31/61/4
f 22/85/2 25/86/2 39/87/2 40/88/2
f 14/89/21 26/90/21 21/56/21 30/55/21
f 26/91/2 25/92/2 22/93/2 21/94/2
f 41/95/2 42/96/2 43/97/2 44/98/2
f 20/99/2 19/100/2 42/96/2 41/95/2
f 13/101/22 20/102/22 41/103/22 17/104/22
f 19/105/23 16/106/23 18/107/23 42/108/23
f 43/109/24 45/110/24 46/111/24 44/112/24
f 17/113/25 41/114/25 44/115/25 46/116/25
f 42/117/26 18/118/26 45/119/26 43/120/26
f 18/32/4 17/31/4 46/121/4 45/122/4
f 7/11/27 5/10/27 35/82/27 38/81/27
f 3/3/28 2/2/28 37/78/28 36/77/28
f 2/15/4 7/14/4 38/76/4 37/75/4
f 5/7/2 3/6/2 36/74/2 35/73/2
f 47/123/29 48/124/29 49/125/29 50/126/29
f 31/127/30 22/128/30 40/129/30 51/130/30
f 15/83/4 31/61/4 51/131/4 52/132/4
f 25/133/31 15/134/31 52/135/31 39/136/31
f 50/137/32 49/138/32 53/139/32 54/140/32
f 55/141/33 56/142/33 54/140/33 53/139/33
f 56/143/2 47/144/2 50/145/2 54/146/2
f 48/147/34 55/148/34 53/149/34 49/150/34
f 52/132/4 51/131/4 55/148/4 48/147/4
f 40/88/2 39/87/2 47/144/2 56/143/2
f 51/130/35 40/129/35 56/142/35 55/141/35
f 39/136/36 52/135/36 48/124/36 47/123/36
