# Blender v2.82 (sub 7) OBJ File: 'weaponHolder.blend'
# www.blender.org
mtllib weaponHolder.mtl
o object1.014_object1.010
v -21.319349 7.825373 7.644375
v -21.319349 0.793589 1.014403
v -19.782072 0.793589 1.014403
v -19.782072 7.825373 7.644375
v -21.319349 0.793589 -1.098446
v -21.319349 10.066263 7.644375
v -19.782072 10.066263 7.644375
v -19.782072 0.793589 -1.098446
vt 1.000000 1.000000
vt 0.000000 1.000000
vt 0.000000 0.000000
vt 1.000000 0.000000
vt 0.113731 1.000000
vt 0.872065 1.000000
vt 0.000000 0.000000
vt 1.000000 0.000000
vt 0.000000 1.000000
vt 1.000000 1.000000
vt 1.000000 0.000000
vt 0.000000 0.000000
vt 0.000000 0.000000
vt 1.000000 1.000000
vt 0.000000 1.000000
vt 0.872065 1.000000
vt 0.113731 1.000000
vt 1.000000 0.000000
vt 1.000000 1.000000
vt 0.000000 1.000000
vt 0.000000 0.000000
vn 0.0000 -0.6860 0.7276
vn -1.0000 0.0000 0.0000
vn 0.0000 0.6860 -0.7276
vn 0.0000 0.0000 1.0000
vn 1.0000 0.0000 0.0000
vn 0.0000 -1.0000 -0.0000
usemtl Wood_Dark.002
s 1
f 1/1/1 2/2/1 3/3/1
f 1/1/1 3/3/1 4/4/1
f 2/5/2 1/6/2 5/7/2
f 1/6/2 6/8/2 5/7/2
f 5/9/3 6/10/3 7/11/3
f 5/9/3 7/11/3 8/12/3
f 6/8/4 1/13/4 7/14/4
f 1/13/4 4/15/4 7/14/4
f 8/12/5 7/11/5 4/16/5
f 8/12/5 4/16/5 3/17/5
f 5/18/6 8/19/6 3/20/6
f 5/18/6 3/20/6 2/21/6
o object1.013_object1.009
v -18.956186 -1.537277 -7.325281
v -18.956186 -1.537278 8.047495
v -22.030741 -1.537277 -7.325281
v -22.030741 -1.537278 8.047495
v -18.956186 1.537278 -7.325281
v -18.956186 1.537277 8.047495
v -22.030741 1.537278 -7.325281
v -22.030741 1.537277 8.047495
vt 0.000000 1.000000
vt 1.000000 1.000000
vt 0.000000 0.000000
vt 1.000000 0.000000
vt 0.000000 1.000000
vt 1.000000 1.000000
vt 0.000000 0.000000
vt 1.000000 0.000000
vt 0.000000 0.000000
vt 1.000000 0.000000
vt 1.000000 0.000000
vt 1.000000 1.000000
vt 0.000000 1.000000
vt 1.000000 1.000000
vt 0.000000 1.000000
vt 0.000000 0.000000
vn 0.0000 -1.0000 -0.0000
vn 1.0000 0.0000 0.0000
vn 0.0000 1.0000 0.0000
vn 0.0000 0.0000 -1.0000
vn -1.0000 0.0000 0.0000
vn 0.0000 0.0000 1.0000
usemtl Wood_Darker.009
s 1
f 9/22/7 10/23/7 11/24/7
f 10/23/7 12/25/7 11/24/7
f 13/26/8 14/27/8 9/28/8
f 14/27/8 10/29/8 9/28/8
f 15/30/9 16/31/9 14/27/9
f 15/30/9 14/27/9 13/26/9
f 11/24/10 15/32/10 9/22/10
f 15/32/10 13/33/10 9/22/10
f 11/24/11 12/25/11 15/34/11
f 12/25/11 16/35/11 15/34/11
f 10/36/12 14/27/12 12/37/12
f 14/27/12 16/31/12 12/37/12
o object1.017_object1.013
v -22.078058 12.804523 8.037872
v -19.012281 12.804523 8.037872
v -19.523241 13.468104 7.526911
v -21.567097 13.468104 7.526911
v -22.078058 0.914895 8.037871
v -19.012281 0.914895 8.037871
v -19.523241 0.251314 7.526911
v -21.567097 0.251314 7.526911
v -19.012281 0.914895 4.972109
v -19.523241 0.251314 5.483069
v -21.567097 0.251314 5.483069
v -22.078058 0.914895 4.972109
v -22.078058 12.804523 4.972109
v -19.012281 12.804523 4.972109
v -21.567097 13.468104 5.483070
v -19.523241 13.468104 5.483070
vt 1.000000 0.000000
vt 0.000000 0.000000
vt 0.166667 1.000000
vt 0.833333 1.000000
vt 0.000000 1.000000
vt 0.000000 0.000000
vt 1.000000 0.000000
vt 1.000000 1.000000
vt 1.000000 0.000000
vt 0.000000 0.000000
vt 0.833333 1.000000
vt 0.166667 1.000000
vt 1.000000 0.000000
vt 0.833333 1.000000
vt 0.166667 1.000000
vt 0.833333 0.000000
vt 0.166667 0.000000
vt 1.000000 1.000000
vt 0.000000 1.000000
vt 1.000000 1.000000
vt 1.000000 0.000000
vt 0.000000 0.000000
vt 0.833333 0.000000
vt 0.166667 0.000000
vt 0.000000 1.000000
vt 1.000000 0.000000
vt 1.000000 1.000000
vt 0.000000 1.000000
vt 0.000000 0.000000
vt 0.833333 0.000000
vt 0.166667 0.000000
vt 1.000000 1.000000
vt 1.000000 1.000000
vt 0.000000 1.000000
vt 1.000000 0.000000
vt 0.000000 0.000000
vt 0.166667 1.000000
vt 0.833333 1.000000
vt 1.000000 0.000000
vt 1.000000 1.000000
vt 0.000000 0.000000
vt 0.000000 1.000000
vt 0.833333 0.000000
vt 0.166667 0.000000
vt 0.000000 1.000000
vn 0.0000 0.6101 0.7923
vn 0.0000 -0.0000 1.0000
vn 0.0000 -0.6101 0.7923
vn 0.7923 -0.6101 -0.0000
vn 0.0000 -0.6101 -0.7923
vn 0.0000 0.0000 -1.0000
vn 0.0000 0.6101 -0.7923
vn 0.0000 -1.0000 -0.0000
vn -0.7923 -0.6101 -0.0000
vn -1.0000 0.0000 0.0000
vn 1.0000 -0.0000 0.0000
vn -0.7923 0.6101 0.0000
vn 0.0000 1.0000 0.0000
vn 0.7923 0.6101 0.0000
usemtl Wood_Darker.011
s 1
f 17/38/13 18/39/13 19/40/13
f 17/38/13 19/40/13 20/41/13
f 21/42/14 22/43/14 18/44/14
f 21/42/14 18/44/14 17/45/14
f 22/46/15 21/47/15 23/48/15
f 21/47/15 24/49/15 23/48/15
f 25/50/16 22/43/16 26/51/16
f 22/43/16 23/52/16 26/51/16
f 26/53/17 27/54/17 25/55/17
f 27/54/17 28/56/17 25/55/17
f 29/57/18 30/58/18 28/56/18
f 30/58/18 25/59/18 28/56/18
f 31/60/19 32/61/19 30/62/19
f 31/60/19 30/62/19 29/57/19
f 27/63/20 26/64/20 23/65/20
f 27/63/20 23/65/20 24/66/20
f 27/67/21 24/68/21 28/69/21
f 24/68/21 21/42/21 28/69/21
f 28/56/22 21/47/22 29/57/22
f 21/47/22 17/38/22 29/57/22
f 30/70/23 18/44/23 22/43/23
f 30/70/23 22/43/23 25/71/23
f 29/72/24 17/73/24 20/74/24
f 29/72/24 20/74/24 31/75/24
f 32/76/25 31/77/25 19/78/25
f 31/77/25 20/79/25 19/78/25
f 32/80/26 19/81/26 18/82/26
f 32/80/26 18/82/26 30/70/26
o object3.009_object3.003
v -19.395493 11.325063 5.355322
v -19.395493 18.147686 5.355323
v -19.395493 11.325063 7.654659
v -19.395493 18.147686 7.654660
v -21.694830 11.325063 5.355322
v -21.694830 18.147686 5.355323
v -21.694830 11.325063 7.654659
v -21.694830 18.147686 7.654660
v -21.311602 18.645378 7.271431
v -21.311602 18.645378 5.738551
v -19.778721 18.645378 5.738551
v -19.778721 18.645378 7.271431
vt 0.000000 1.000000
vt 1.000000 1.000000
vt 0.000000 0.000000
vt 1.000000 0.000000
vt 0.000000 1.000000
vt 1.000000 1.000000
vt 1.000000 0.000000
vt 0.000000 0.000000
vt 0.000000 0.000000
vt 1.000000 0.000000
vt 1.000000 0.000000
vt 0.000000 0.000000
vt 0.166667 1.000000
vt 0.833333 1.000000
vt 1.000000 0.000000
vt 1.000000 1.000000
vt 0.000000 0.000000
vt 0.000000 1.000000
vt 0.000000 0.000000
vt 0.166667 1.000000
vt 0.833333 1.000000
vt 0.833333 0.000000
vt 0.166667 0.000000
vt 0.000000 1.000000
vt 0.000000 0.000000
vt 1.000000 0.000000
vt 1.000000 1.000000
vt 0.000000 1.000000
vt 1.000000 1.000000
vt 0.833333 0.000000
vt 0.166667 0.000000
vt 0.000000 1.000000
vn 1.0000 0.0000 0.0000
vn 0.0000 0.0000 -1.0000
vn -1.0000 0.0000 0.0000
vn -0.7923 0.6101 0.0000
vn 0.0000 1.0000 0.0000
vn 0.0000 0.6101 0.7923
vn 0.0000 0.6101 -0.7923
vn 0.0000 -1.0000 0.0000
vn 0.0000 -0.0000 1.0000
vn 0.7923 0.6101 0.0000
usemtl Wood_Darker.010
s 1
f 33/83/27 34/84/27 35/85/27
f 34/84/27 36/86/27 35/85/27
f 37/87/28 38/88/28 34/89/28
f 37/87/28 34/89/28 33/90/28
f 39/91/29 40/92/29 37/87/29
f 40/92/29 38/88/29 37/87/29
f 38/93/30 40/94/30 41/95/30
f 38/93/30 41/95/30 42/96/30
f 43/97/31 42/98/31 44/99/31
f 42/98/31 41/100/31 44/99/31
f 40/92/32 36/101/32 44/102/32
f 40/92/32 44/102/32 41/103/32
f 42/104/33 43/105/33 34/106/33
f 42/104/33 34/106/33 38/88/33
f 37/107/34 33/108/34 35/109/34
f 37/107/34 35/109/34 39/110/34
f 35/85/35 36/86/35 39/110/35
f 36/86/35 40/111/35 39/110/35
f 43/112/36 44/113/36 36/114/36
f 43/112/36 36/114/36 34/84/36
o flume_support_pillar.009_flume_support_pillar.003
v -19.744131 14.418434 5.888988
v -19.744131 14.418434 7.161362
v -19.744131 15.690792 5.888988
v -19.744131 15.690792 7.161362
v 19.758783 14.418434 7.161362
v 19.758783 14.418434 5.888988
v 19.758783 15.690792 5.888988
v 19.758783 15.690792 7.161362
vt 1.000000 1.000000
vt 0.000000 1.000000
vt 1.000000 0.000000
vt 0.000000 0.000000
vt 1.000000 0.000000
vt 0.000000 0.000000
vt 1.000000 1.000000
vt 0.000000 1.000000
vt 1.000000 0.000000
vt 0.000000 0.000000
vt 0.000000 1.000000
vt 0.000000 0.000000
vt 1.000000 1.000000
vt 0.000000 1.000000
vt 1.000000 0.000000
vt 1.000000 1.000000
vn -1.0000 0.0000 0.0000
vn 0.0000 -1.0000 0.0000
vn 1.0000 0.0000 0.0000
vn 0.0000 0.0000 -1.0000
vn 0.0000 1.0000 0.0000
vn 0.0000 0.0000 1.0000
usemtl Wood_Darker.012
s 1
f 45/115/37 46/116/37 47/117/37
f 46/116/37 48/118/37 47/117/37
f 49/119/38 46/120/38 50/121/38
f 46/120/38 45/122/38 50/121/38
f 51/123/39 52/124/39 49/125/39
f 51/123/39 49/125/39 50/121/39
f 50/121/40 45/122/40 51/123/40
f 45/122/40 47/126/40 51/123/40
f 51/127/41 47/128/41 52/129/41
f 47/128/41 48/118/41 52/129/41
f 52/129/42 48/118/42 49/130/42
f 48/118/42 46/116/42 49/130/42
o object1.022_object1.019
v 18.634018 12.804523 8.037872
v 21.699797 12.804523 8.037872
v 21.188835 13.468104 7.526911
v 19.144978 13.468104 7.526911
v 18.634018 0.914895 8.037871
v 21.699797 0.914895 8.037871
v 21.188835 0.251314 7.526911
v 19.144978 0.251314 7.526911
v 21.699797 0.914895 4.972109
v 21.188835 0.251314 5.483069
v 19.144978 0.251314 5.483069
v 18.634018 0.914895 4.972109
v 18.634018 12.804523 4.972109
v 21.699797 12.804523 4.972109
v 19.144978 13.468104 5.483070
v 21.188835 13.468104 5.483070
vt 1.000000 0.000000
vt 0.000000 0.000000
vt 0.166667 1.000000
vt 0.833333 1.000000
vt 0.000000 1.000000
vt 0.000000 0.000000
vt 1.000000 0.000000
vt 1.000000 1.000000
vt 1.000000 0.000000
vt 0.000000 0.000000
vt 0.833333 1.000000
vt 0.166667 1.000000
vt 1.000000 0.000000
vt 0.833333 1.000000
vt 0.166667 1.000000
vt 0.833333 0.000000
vt 0.166667 0.000000
vt 1.000000 1.000000
vt 0.000000 1.000000
vt 1.000000 1.000000
vt 1.000000 0.000000
vt 0.000000 0.000000
vt 0.833333 0.000000
vt 0.166667 0.000000
vt 0.000000 1.000000
vt 1.000000 0.000000
vt 1.000000 1.000000
vt 0.000000 1.000000
vt 0.000000 0.000000
vt 0.833333 0.000000
vt 0.166667 0.000000
vt 1.000000 1.000000
vt 1.000000 1.000000
vt 0.000000 1.000000
vt 1.000000 0.000000
vt 0.000000 0.000000
vt 0.166667 1.000000
vt 0.833333 1.000000
vt 1.000000 0.000000
vt 1.000000 1.000000
vt 0.000000 0.000000
vt 0.000000 1.000000
vt 0.833333 0.000000
vt 0.166667 0.000000
vt 0.000000 1.000000
vn 0.0000 0.6101 0.7923
vn 0.0000 -0.0000 1.0000
vn 0.0000 -0.6101 0.7923
vn 0.7923 -0.6101 -0.0000
vn 0.0000 -0.6101 -0.7923
vn 0.0000 0.0000 -1.0000
vn 0.0000 0.6101 -0.7923
vn 0.0000 -1.0000 -0.0000
vn -0.7923 -0.6101 -0.0000
vn -1.0000 0.0000 0.0000
vn 1.0000 -0.0000 0.0000
vn -0.7923 0.6101 0.0000
vn 0.0000 1.0000 0.0000
vn 0.7923 0.6101 0.0000
usemtl Wood_Darker.017
s 1
f 53/131/43 54/132/43 55/133/43
f 53/131/43 55/133/43 56/134/43
f 57/135/44 58/136/44 54/137/44
f 57/135/44 54/137/44 53/138/44
f 58/139/45 57/140/45 59/141/45
f 57/140/45 60/142/45 59/141/45
f 61/143/46 58/136/46 62/144/46
f 58/136/46 59/145/46 62/144/46
f 62/146/47 63/147/47 61/148/47
f 63/147/47 64/149/47 61/148/47
f 65/150/48 66/151/48 64/149/48
f 66/151/48 61/152/48 64/149/48
f 67/153/49 68/154/49 66/155/49
f 67/153/49 66/155/49 65/150/49
f 63/156/50 62/157/50 59/158/50
f 63/156/50 59/158/50 60/159/50
f 63/160/51 60/161/51 64/162/51
f 60/161/51 57/135/51 64/162/51
f 64/149/52 57/140/52 65/150/52
f 57/140/52 53/131/52 65/150/52
f 66/163/53 54/137/53 58/136/53
f 66/163/53 58/136/53 61/164/53
f 65/165/54 53/166/54 56/167/54
f 65/165/54 56/167/54 67/168/54
f 68/169/55 67/170/55 55/171/55
f 67/170/55 56/172/55 55/171/55
f 68/173/56 55/174/56 54/175/56
f 68/173/56 54/175/56 66/163/56
o object1.021_object1.018
v 19.392712 7.825373 7.644375
v 19.392712 0.793589 1.014403
v 20.930004 0.793589 1.014403
v 20.930004 7.825373 7.644375
v 19.392712 0.793589 -1.098446
v 19.392712 10.066263 7.644375
v 20.930004 10.066263 7.644375
v 20.930004 0.793589 -1.098446
vt 1.000000 1.000000
vt 0.000000 1.000000
vt 0.000000 0.000000
vt 1.000000 0.000000
vt 0.113731 1.000000
vt 0.872065 1.000000
vt 0.000000 0.000000
vt 1.000000 0.000000
vt 0.000000 1.000000
vt 1.000000 1.000000
vt 1.000000 0.000000
vt 0.000000 0.000000
vt 0.000000 0.000000
vt 1.000000 1.000000
vt 0.000000 1.000000
vt 0.872065 1.000000
vt 0.113731 1.000000
vt 1.000000 0.000000
vt 1.000000 1.000000
vt 0.000000 1.000000
vt 0.000000 0.000000
vn 0.0000 -0.6860 0.7276
vn -1.0000 0.0000 0.0000
vn 0.0000 0.6860 -0.7276
vn 0.0000 0.0000 1.0000
vn 1.0000 0.0000 0.0000
vn 0.0000 -1.0000 -0.0000
usemtl Wood_Dark.006
s 1
f 69/176/57 70/177/57 71/178/57
f 69/176/57 71/178/57 72/179/57
f 70/180/58 69/181/58 73/182/58
f 69/181/58 74/183/58 73/182/58
f 73/184/59 74/185/59 75/186/59
f 73/184/59 75/186/59 76/187/59
f 74/183/60 69/188/60 75/189/60
f 69/188/60 72/190/60 75/189/60
f 76/187/61 75/186/61 72/191/61
f 76/187/61 72/191/61 71/192/61
f 73/193/62 76/194/62 71/195/62
f 73/193/62 71/195/62 70/196/62
o object1.020_object1.017
v 21.707451 -1.537277 -7.325281
v 21.707451 -1.537278 8.047495
v 18.632895 -1.537277 -7.325281
v 18.632895 -1.537278 8.047495
v 21.707451 1.537278 -7.325281
v 21.707451 1.537278 -3.635815
v 21.707451 0.768639 -2.252265
v 21.707451 1.537278 -1.329899
v 21.707451 1.537277 8.047495
v 18.632895 1.537278 -7.325281
v 20.938812 1.537278 -2.252265
v 18.632895 1.537277 8.047495
vt 1.000000 1.000000
vt 0.000000 1.000000
vt 1.000000 0.000000
vt 0.000000 0.000000
vt 0.000000 0.000000
vt 1.000000 0.000000
vt 1.000000 0.240000
vt 0.750000 0.330000
vt 1.000000 0.390000
vt 1.000000 1.000000
vt 0.760000 1.000000
vt 1.000000 1.000000
vt 1.000000 0.000000
vt 0.670000 0.750000
vt 0.000000 0.000000
vt 0.000000 1.000000
vt 0.610000 1.000000
vt 0.000000 0.000000
vt 0.000000 1.000000
vt 0.000000 1.000000
vt 1.000000 1.000000
vt 1.000000 0.000000
vt 1.000000 0.000000
vt 1.000000 1.000000
vt 0.000000 0.200000
vt 1.000000 0.000000
vt 1.000000 1.000000
vt 0.000000 0.900000
vn 0.0000 -1.0000 -0.0000
vn 1.0000 -0.0000 0.0000
vn 0.0000 1.0000 0.0000
vn 0.0000 0.0000 -1.0000
vn -1.0000 0.0000 0.0000
vn 0.0000 0.0000 1.0000
vn 0.6092 0.6092 -0.5077
vn 0.6581 0.6581 0.3656
usemtl Wood_Darker.016
s 1
f 77/197/63 78/198/63 79/199/63
f 78/198/63 80/200/63 79/199/63
f 77/201/64 81/202/64 82/203/64
f 78/198/64 77/201/64 83/204/64
f 84/205/64 78/198/64 83/204/64
f 84/205/64 85/206/64 78/198/64
f 77/201/64 82/203/64 83/204/64
f 82/207/65 81/208/65 86/209/65
f 87/210/65 86/209/65 88/211/65
f 88/211/65 85/212/65 84/213/65
f 87/210/65 88/211/65 84/213/65
f 87/210/65 82/207/65 86/209/65
f 79/214/66 86/209/66 77/215/66
f 86/209/66 81/208/66 77/215/66
f 79/214/67 80/216/67 86/209/67
f 80/216/67 88/217/67 86/209/67
f 85/206/68 88/218/68 78/198/68
f 88/218/68 80/200/68 78/198/68
usemtl Wood_Medium.006
f 87/219/69 84/220/69 83/221/69
f 82/222/70 87/223/70 83/224/70
o object3.010_object3.004
v 21.316568 11.325063 5.355322
v 21.316568 18.147686 5.355323
v 21.316568 11.325063 7.654659
v 21.316568 18.147686 7.654660
v 19.017246 11.325063 5.355322
v 19.017246 18.147686 5.355323
v 19.017246 11.325063 7.654659
v 19.017246 18.147686 7.654660
v 19.400459 18.645378 7.271431
v 19.400459 18.645378 5.738551
v 20.933355 18.645378 5.738551
v 20.933355 18.645378 7.271431
vt 0.000000 1.000000
vt 1.000000 1.000000
vt 0.000000 0.000000
vt 1.000000 0.000000
vt 0.000000 1.000000
vt 1.000000 1.000000
vt 1.000000 0.000000
vt 0.000000 0.000000
vt 0.000000 0.000000
vt 1.000000 0.000000
vt 1.000000 0.000000
vt 0.000000 0.000000
vt 0.166667 1.000000
vt 0.833333 1.000000
vt 1.000000 0.000000
vt 1.000000 1.000000
vt 0.000000 0.000000
vt 0.000000 1.000000
vt 0.000000 0.000000
vt 0.166667 1.000000
vt 0.833333 1.000000
vt 0.833333 0.000000
vt 0.166667 0.000000
vt 0.000000 1.000000
vt 0.000000 0.000000
vt 1.000000 0.000000
vt 1.000000 1.000000
vt 0.000000 1.000000
vt 1.000000 1.000000
vt 0.833333 0.000000
vt 0.166667 0.000000
vt 0.000000 1.000000
vn 1.0000 0.0000 0.0000
vn 0.0000 0.0000 -1.0000
vn -1.0000 0.0000 0.0000
vn -0.7923 0.6101 0.0000
vn 0.0000 1.0000 0.0000
vn 0.0000 0.6101 0.7923
vn 0.0000 0.6101 -0.7923
vn 0.0000 -1.0000 0.0000
vn 0.0000 -0.0000 1.0000
vn 0.7923 0.6101 0.0000
usemtl Wood_Darker.015
s 1
f 89/225/71 90/226/71 91/227/71
f 90/226/71 92/228/71 91/227/71
f 93/229/72 94/230/72 90/231/72
f 93/229/72 90/231/72 89/232/72
f 95/233/73 96/234/73 93/229/73
f 96/234/73 94/230/73 93/229/73
f 94/235/74 96/236/74 97/237/74
f 94/235/74 97/237/74 98/238/74
f 99/239/75 98/240/75 100/241/75
f 98/240/75 97/242/75 100/241/75
f 96/234/76 92/243/76 100/244/76
f 96/234/76 100/244/76 97/245/76
f 98/246/77 99/247/77 90/248/77
f 98/246/77 90/248/77 94/230/77
f 93/249/78 89/250/78 91/251/78
f 93/249/78 91/251/78 95/252/78
f 91/227/79 92/228/79 95/252/79
f 92/228/79 96/253/79 95/252/79
f 99/254/80 100/255/80 92/256/80
f 99/254/80 92/256/80 90/226/80
