# Blender v2.82 (sub 7) OBJ File: 'chickWalking.blend'
# www.blender.org
mtllib chickWalking_000004.mtl
o Icosphere.001_Icosphere.002
v 2.936779 3.556731 -0.038594
v -2.982793 6.298033 -1.911364
v 2.350998 5.923182 -3.329897
v 4.637160 5.261005 -0.108468
v 2.303052 5.615211 3.086982
v -3.031328 5.897593 1.604492
v -0.389783 8.534915 -3.207999
v 5.436440 7.812843 -1.838741
v 5.053786 7.758825 1.713648
v -0.595426 8.473639 2.442561
v -2.752948 12.378798 -2.209788
v 0.159202 10.356202 -0.589486
v 2.488543 4.380515 -1.992993
v -0.337256 3.882843 -1.378056
v -0.138912 4.886277 -3.263397
v -3.634677 5.812988 -0.116118
v 1.013032 3.075933 1.226433
v 3.495249 4.228160 -0.100630
v 4.001181 5.341310 -1.993927
v 3.265140 4.868673 1.835569
v 3.848006 5.336356 1.770555
v 0.862515 4.006069 3.112095
v -4.132329 7.553844 -1.330688
v -4.160952 7.667382 0.727331
v 0.393531 7.126260 -3.919589
v -2.653805 7.740154 -3.016468
v 5.044568 6.593060 -1.259314
v 3.428212 6.952786 -3.165576
v 2.768820 6.958044 2.923806
v 4.677979 6.496237 1.078619
v -2.761021 7.721471 2.370641
v 0.077707 6.048979 3.617193
v -3.634444 12.019354 -2.087959
v 3.367244 8.365438 -2.839466
v 6.062424 7.845309 -0.139794
v 2.793249 8.240925 2.545820
v -3.707353 13.170705 -0.735618
v -0.276160 9.756230 -2.186889
v -4.157380 12.582977 -0.127405
v 4.427296 8.948996 -1.031200
v 4.153006 8.963425 1.087877
v -0.303592 9.879312 1.121462
v -4.107436 11.081991 0.149910
v -4.647649 12.253498 -1.098218
v -3.124000 10.449869 -2.391804
v -1.964608 10.921163 -2.548505
v -4.559582 11.050856 -1.122947
v -1.321706 11.632501 -1.815835
v -0.790185 11.812695 -0.703396
v -1.261712 11.824045 0.446639
v -1.776798 11.175424 1.294889
v -4.181670 10.972292 -1.283172
v -2.943675 10.672094 1.265967
v -3.342382 12.995972 -1.620816
v -3.246075 13.115305 0.148680
v -2.174300 12.913297 -1.642465
v -2.783853 13.394269 -0.771846
v -1.791666 13.069507 -0.767135
v -2.143360 13.072610 0.131525
v -2.575766 12.575624 0.799163
v -4.176550 12.484424 -1.223758
v -3.474343 12.212333 0.774266
v -4.481678 11.144886 0.004788
v -4.618635 12.339168 -0.210370
v -0.295484 10.806392 -0.626986
v -0.851376 10.407629 -2.021957
v -3.134623 8.496247 1.975784
v -4.305090 8.605482 0.514852
v -4.319542 8.433825 -1.289015
v -1.230438 9.338108 -2.953235
v -3.140878 8.333290 -2.760566
v -1.224308 9.451341 1.969939
v -0.767724 10.586973 0.811821
v 6.411724 8.509954 -0.183439
v 6.133217 8.410299 0.762203
v 5.623552 9.065013 -0.580796
v 6.106984 8.455253 -1.027280
v 5.517123 9.093266 0.511771
v -5.774477 11.667931 -0.580786
v 1.757774 2.239144 -2.133791
v 1.676132 1.999114 -0.879269
v 0.195859 2.390589 -1.392282
v 0.250313 2.906735 -2.614096
v 1.019548 2.049261 -1.954651
v 0.989415 2.123904 -1.446042
v 0.500155 2.499054 -1.689148
v 0.566019 2.517567 -2.223432
v -0.485995 1.715979 -2.046772
v -0.515640 1.775319 -1.617510
v -1.027485 1.986563 -1.796133
v -1.004173 2.056540 -2.240860
v -0.644824 1.539629 -2.068770
v -0.684673 1.567590 -1.639884
v -1.112467 1.683594 -1.824471
v -1.087024 1.756804 -2.269205
v -0.371834 1.579686 -1.946848
v -0.381779 1.627789 -1.669806
v -0.466469 1.462168 -1.961477
v -0.486653 1.484434 -1.684669
v -2.717850 2.480253 -2.548182
v -2.827912 2.166622 -2.584276
v -2.762486 2.358465 -1.696817
v -2.872549 2.044834 -1.732911
v 0.607765 -0.206542 1.438384
v 0.501244 0.110302 1.431764
v 0.582091 -0.158146 2.297828
v 0.475570 0.158698 2.291209
v 2.850445 0.824283 1.459568
v 2.879133 0.806625 1.736864
v 2.836636 1.005361 1.455232
v 2.873240 0.964225 1.732296
v 2.201842 0.615625 2.022876
v 2.219471 0.581511 1.573076
v 2.642565 0.759892 1.407191
v 2.689573 0.741933 1.836430
v 2.083107 0.908545 2.021154
v 2.098913 0.867293 1.571504
v 2.641509 1.024633 1.399535
v 2.690938 0.991455 1.828766
v 2.919298 2.288507 2.039015
v 2.889051 2.244335 1.502715
v 3.513369 2.290280 1.274893
v 3.578564 2.251529 1.784700
v 2.387522 2.468037 2.442252
v 2.661344 2.007281 1.217252
v 3.854578 2.502884 0.754607
v 4.027875 2.848975 1.975646
vt 0.111002 0.855096
vt 0.188309 0.855096
vt 0.188309 0.932403
vt 0.111002 0.932403
vt 0.111002 0.855096
vt 0.188309 0.855096
vt 0.188309 0.932403
vt 0.111002 0.855096
vt 0.188309 0.855096
vt 0.188309 0.932403
vt 0.188309 0.855096
vt 0.188309 0.932403
vt 0.188309 0.855096
vt 0.188309 0.932403
vt 0.111002 0.855096
vt 0.188309 0.855096
vt 0.188309 0.932403
vt 0.111002 0.855096
vt 0.188309 0.855096
vt 0.188309 0.932403
vt 0.111002 0.855096
vt 0.188309 0.855096
vt 0.188309 0.932403
vt 0.111002 0.855096
vt 0.188309 0.855096
vt 0.188309 0.932403
vt 0.188309 0.855096
vt 0.188309 0.932403
vt 0.188309 0.855096
vt 0.188309 0.932403
vt 0.188309 0.855096
vt 0.188309 0.932403
vt 0.188309 0.855096
vt 0.188309 0.932403
vt 0.188309 0.855096
vt 0.188309 0.932403
vt 0.111002 0.855096
vt 0.188309 0.855096
vt 0.188309 0.932403
vt 0.111002 0.855096
vt 0.188309 0.855096
vt 0.188309 0.932403
vt 0.111002 0.855096
vt 0.188309 0.855096
vt 0.188309 0.932403
vt 0.111002 0.932403
vt 0.111002 0.855096
vt 0.188309 0.855096
vt 0.188309 0.932403
vt 0.111002 0.855096
vt 0.188309 0.855096
vt 0.188309 0.932403
vt 0.111002 0.855096
vt 0.188309 0.855096
vt 0.188309 0.855096
vt 0.111002 0.855096
vt 0.188309 0.932403
vt 0.111002 0.855096
vt 0.188309 0.855096
vt 0.188309 0.932403
vt 0.188309 0.932403
vt 0.111002 0.855096
vt 0.188309 0.855096
vt 0.111002 0.855096
vt 0.188309 0.855096
vt 0.111002 0.855096
vt 0.188309 0.932403
vt 0.111002 0.932403
vt 0.188309 0.932403
vt 0.111002 0.932403
vt 0.188309 0.855096
vt 0.188309 0.932403
vt 0.111002 0.855096
vt 0.188309 0.855096
vt 0.111002 0.855096
vt 0.188309 0.855096
vt 0.188309 0.932403
vt 0.111002 0.855096
vt 0.188309 0.855096
vt 0.188309 0.932403
vt 0.111002 0.932403
vt 0.111002 0.855096
vt 0.188309 0.855096
vt 0.188309 0.932403
vt 0.111002 0.932403
vt 0.111002 0.855096
vt 0.188309 0.855096
vt 0.188309 0.932403
vt 0.111002 0.932403
vt 0.111002 0.855096
vt 0.188309 0.855096
vt 0.188309 0.932403
vt 0.111002 0.932403
vt 0.111002 0.855096
vt 0.188309 0.855096
vt 0.188309 0.932403
vt 0.111002 0.932403
vt 0.111002 0.855096
vt 0.188309 0.932403
vt 0.188309 0.932403
vt 0.111002 0.855096
vt 0.111002 0.855096
vt 0.188309 0.932403
vt 0.188309 0.932403
vt 0.111002 0.855096
vt 0.188309 0.855096
vt 0.111002 0.855096
vt 0.188309 0.932403
vt 0.188309 0.932403
vt 0.111002 0.855096
vt 0.111002 0.855096
vt 0.188309 0.855096
vt 0.188309 0.932403
vt 0.111002 0.932403
vt 0.111002 0.855096
vt 0.188309 0.855096
vt 0.188309 0.932403
vt 0.111002 0.932403
vt 0.111002 0.855096
vt 0.188309 0.855096
vt 0.188309 0.932403
vt 0.111002 0.932403
vt 0.111002 0.855096
vt 0.188309 0.855096
vt 0.111002 0.855096
vt 0.188309 0.855096
vt 0.188309 0.855096
vt 0.111002 0.855096
vt 0.188309 0.855096
vt 0.188309 0.855096
vt 0.111002 0.855096
vt 0.188309 0.855096
vt 0.188309 0.855096
vt 0.188309 0.932403
vt 0.111002 0.855096
vt 0.188309 0.855096
vt 0.111002 0.855096
vt 0.188309 0.855096
vt 0.188309 0.932403
vt 0.111002 0.932403
vt 0.111002 0.855096
vt 0.111002 0.855096
vt 0.188309 0.855096
vt 0.111002 0.855096
vt 0.188309 0.932403
vt 0.111002 0.855096
vt 0.188309 0.932403
vt 0.188309 0.932403
vt 0.111002 0.855096
vt 0.188309 0.932403
vt 0.188309 0.932403
vt 0.188309 0.855096
vt 0.188309 0.932403
vt 0.111002 0.855096
vt 0.188309 0.932403
vt 0.188309 0.932403
vt 0.111002 0.855096
vt 0.188309 0.855096
vt 0.188309 0.932403
vt 0.111002 0.932403
vt 0.111002 0.855096
vt 0.188309 0.855096
vt 0.188309 0.932403
vt 0.111002 0.932403
vt 0.111002 0.855096
vt 0.188309 0.855096
vt 0.188309 0.932403
vt 0.111002 0.932403
vt 0.111002 0.855096
vt 0.188309 0.855096
vt 0.111002 0.855096
vt 0.188309 0.855096
vt 0.111002 0.932403
vt 0.111002 0.855096
vt 0.188309 0.855096
vt 0.111002 0.932403
vt 0.188309 0.855096
vt 0.188309 0.932403
vt 0.111002 0.932403
vt 0.111002 0.855096
vt 0.188309 0.932403
vt 0.111002 0.932403
vt 0.111002 0.855096
vt 0.188309 0.855096
vt 0.111002 0.932403
vt 0.111002 0.855096
vt 0.188309 0.855096
vt 0.188309 0.932403
vt 0.111002 0.932403
vt 0.111002 0.855096
vt 0.188309 0.855096
vt 0.111002 0.855096
vt 0.188309 0.855096
vt 0.111002 0.855096
vt 0.188309 0.932403
vt 0.188309 0.932403
vt 0.188309 0.855096
vt 0.188309 0.932403
vt 0.111002 0.855096
vt 0.111002 0.855096
vt 0.188309 0.855096
vt 0.188309 0.855096
vt 0.188309 0.932403
vt 0.111002 0.932403
vt 0.111002 0.855096
vt 0.188309 0.932403
vt 0.111002 0.932403
vt 0.111002 0.855096
vt 0.188309 0.932403
vt 0.111002 0.932403
vt 0.188309 0.855096
vt 0.188309 0.932403
vt 0.111002 0.932403
vt 0.188309 0.855096
vt 0.188309 0.932403
vt 0.111002 0.932403
vt 0.111002 0.855096
vt 0.188309 0.932403
vt 0.111002 0.932403
vt 0.188309 0.855096
vt 0.188309 0.932403
vt 0.111002 0.932403
vt 0.111002 0.855096
vt 0.188309 0.932403
vt 0.111002 0.932403
vt 0.111002 0.855096
vt 0.188309 0.932403
vt 0.111002 0.932403
vt 0.111002 0.855096
vt 0.188309 0.855096
vt 0.111002 0.855096
vt 0.188309 0.932403
vt 0.111002 0.855096
vt 0.188309 0.855096
vt 0.111002 0.932403
vt 0.111002 0.855096
vt 0.188309 0.932403
vt 0.111002 0.932403
vt 0.188309 0.855096
vt 0.188309 0.932403
vt 0.111002 0.932403
vt 0.371435 0.855096
vt 0.448742 0.855096
vt 0.448742 0.932403
vt 0.371435 0.855096
vt 0.448742 0.855096
vt 0.371435 0.855096
vt 0.448742 0.855096
vt 0.371435 0.855096
vt 0.448742 0.855096
vt 0.111002 0.855096
vt 0.188309 0.855096
vt 0.188309 0.932403
vt 0.111002 0.932403
vt 0.111002 0.855096
vt 0.188309 0.855096
vt 0.188309 0.932403
vt 0.111002 0.932403
vt 0.188309 0.932403
vt 0.111002 0.932403
vt 0.188309 0.932403
vt 0.111002 0.932403
vt 0.188309 0.932403
vt 0.111002 0.932403
vt 0.371435 0.855096
vt 0.448742 0.855096
vt 0.448742 0.932403
vt 0.371435 0.932403
vt 0.371435 0.855096
vt 0.448742 0.855096
vt 0.448742 0.932403
vt 0.371435 0.932403
vt 0.111002 0.855096
vt 0.188309 0.855096
vt 0.188309 0.932403
vt 0.111002 0.932403
vt 0.111002 0.855096
vt 0.188309 0.855096
vt 0.188309 0.932403
vt 0.111002 0.932403
vt 0.371435 0.855096
vt 0.448742 0.855096
vt 0.448742 0.932403
vt 0.371435 0.932403
vt 0.371435 0.855096
vt 0.448742 0.855096
vt 0.448742 0.932403
vt 0.371435 0.932403
vt 0.371435 0.855096
vt 0.448742 0.855096
vt 0.448742 0.932403
vt 0.371435 0.932403
vt 0.371435 0.855096
vt 0.448742 0.855096
vt 0.448742 0.932403
vt 0.371435 0.932403
vt 0.371435 0.855096
vt 0.448742 0.855096
vt 0.371435 0.855096
vt 0.448742 0.932403
vt 0.448742 0.932403
vt 0.371435 0.932403
vt 0.371435 0.855096
vt 0.448742 0.855096
vt 0.448742 0.932403
vt 0.371435 0.932403
vt 0.371435 0.855096
vt 0.448742 0.855096
vt 0.448742 0.932403
vt 0.448742 0.855096
vt 0.448742 0.932403
vt 0.371435 0.932403
vt 0.448742 0.855096
vt 0.371435 0.932403
vt 0.371435 0.855096
vt 0.448742 0.855096
vt 0.448742 0.932403
vt 0.371435 0.932403
vt 0.371435 0.855096
vt 0.448742 0.855096
vt 0.448742 0.932403
vt 0.371435 0.932403
vt 0.371435 0.855096
vt 0.448742 0.932403
vt 0.448742 0.855096
vt 0.371435 0.932403
vt 0.371435 0.855096
vt 0.448742 0.932403
vt 0.371435 0.932403
vt 0.371435 0.855096
vt 0.448742 0.855096
vt 0.448742 0.932403
vt 0.371435 0.932403
vt 0.371435 0.855096
vt 0.448742 0.855096
vt 0.448742 0.932403
vt 0.371435 0.932403
vt 0.371435 0.855096
vt 0.448742 0.855096
vt 0.448742 0.932403
vt 0.371435 0.932403
vt 0.371435 0.855096
vt 0.371435 0.932403
vt 0.371435 0.855096
vt 0.448742 0.855096
vt 0.448742 0.932403
vt 0.371435 0.932403
vt 0.371435 0.855096
vt 0.448742 0.855096
vt 0.448742 0.932403
vt 0.371435 0.932403
vt 0.371435 0.855096
vt 0.448742 0.855096
vt 0.448742 0.932403
vt 0.371435 0.932403
vt 0.371435 0.855096
vt 0.448742 0.855096
vt 0.371435 0.932403
vt 0.448742 0.855096
vt 0.448742 0.932403
vt 0.371435 0.855096
vt 0.448742 0.932403
vt 0.371435 0.932403
vt 0.448742 0.855096
vt 0.448742 0.855096
vt 0.371435 0.855096
vt 0.448742 0.855096
vt 0.448742 0.932403
vt 0.371435 0.932403
vt 0.371435 0.855096
vt 0.448742 0.855096
vt 0.448742 0.932403
vt 0.371435 0.932403
vt 0.371435 0.855096
vt 0.448742 0.855096
vt 0.448742 0.932403
vt 0.371435 0.932403
vt 0.448742 0.932403
vt 0.111002 0.855096
vt 0.188309 0.855096
vt 0.188309 0.932403
vt 0.111002 0.932403
vt 0.111002 0.855096
vt 0.188309 0.855096
vt 0.188309 0.932403
vt 0.111002 0.932403
vt 0.371435 0.855096
vt 0.448742 0.855096
vt 0.448742 0.932403
vt 0.371435 0.932403
vt 0.371435 0.855096
vt 0.448742 0.855096
vt 0.448742 0.932403
vt 0.371435 0.932403
vt 0.188309 0.855096
vt 0.188309 0.932403
vt 0.111002 0.932403
vt 0.188309 0.855096
vt 0.188309 0.932403
vt 0.111002 0.932403
vt 0.111002 0.855096
vt 0.188309 0.855096
vt 0.188309 0.932403
vt 0.111002 0.932403
vt 0.111002 0.855096
vt 0.188309 0.855096
vt 0.188309 0.932403
vt 0.111002 0.932403
vt 0.188309 0.855096
vt 0.188309 0.932403
vt 0.111002 0.932403
vt 0.188309 0.855096
vt 0.188309 0.932403
vt 0.111002 0.932403
vn 0.8803 -0.4111 -0.2368
vn -0.5664 -0.7116 -0.4157
vn -0.5640 -0.7110 -0.4201
vn -0.5722 -0.7153 -0.4011
vn 0.6817 -0.6050 -0.4114
vn 0.7494 -0.5969 0.2865
vn -0.7590 -0.5043 -0.4119
vn 0.1003 -0.3016 -0.9482
vn 0.8120 -0.5035 -0.2953
vn 0.6302 -0.1255 0.7662
vn -0.4631 -0.2841 0.8396
vn -0.6898 -0.3346 -0.6420
vn 0.2352 -0.0916 -0.9676
vn 0.9742 -0.1722 0.1456
vn 0.2381 0.0353 0.9706
vn -0.7489 -0.1592 0.6432
vn 0.2987 0.9084 -0.2927
vn 0.4406 0.7461 -0.4991
vn 0.7516 -0.5839 0.3068
vn 0.0246 0.6819 0.7310
vn 0.0401 0.7889 0.6132
vn 0.0416 0.9502 0.3088
vn 0.3084 0.9440 0.1174
vn -0.2250 0.9581 0.1774
vn 0.1935 0.9303 0.3116
vn 0.1707 0.8102 0.5607
vn 0.3825 0.6348 0.6713
vn 0.3162 0.9481 0.0345
vn -0.0968 0.9950 -0.0247
vn 0.2879 0.5838 0.7592
vn 0.2495 0.8822 -0.3993
vn 0.2541 0.8669 -0.4288
vn 0.1038 0.6323 -0.7678
vn 0.0371 0.7082 -0.7050
vn 0.5349 0.3923 -0.7483
vn -0.7018 0.2155 0.6791
vn 0.8344 0.4345 0.3391
vn 0.8144 0.3779 -0.4404
vn -0.1575 0.3175 0.9351
vn 0.0026 0.4366 0.8997
vn 0.1510 0.2767 0.9490
vn 0.3814 0.2546 0.8887
vn 0.7955 -0.4441 0.4122
vn 0.7335 -0.6741 0.0871
vn 0.8541 -0.4201 -0.3067
vn 0.4714 0.2176 -0.8546
vn 0.2470 0.2281 -0.9418
vn 0.1069 0.4950 -0.8623
vn -0.9974 0.0683 0.0214
vn -0.7439 0.0781 -0.6637
vn -0.1897 0.1655 -0.9678
vn -0.1663 0.3922 0.9048
vn -0.5542 -0.3942 0.7332
vn 0.1986 -0.1627 0.9665
vn 0.5356 -0.5012 0.6796
vn 0.6864 -0.0587 0.7249
vn 0.8457 -0.3841 0.3706
vn 0.6168 -0.4906 -0.6156
vn 0.7235 -0.2188 -0.6547
vn 0.4921 -0.3907 -0.7780
vn -0.2005 0.3506 -0.9148
vn -0.3149 -0.1971 -0.9284
vn -0.5519 -0.4242 -0.7179
vn 0.5844 0.4449 0.6787
vn -0.9618 -0.2737 0.0017
vn -0.8624 -0.3910 0.3216
vn -0.5149 -0.7844 0.3458
vn 0.4965 -0.5224 0.6933
vn 0.6154 -0.7236 0.3125
vn 0.6415 -0.7070 0.2978
vn 0.6487 -0.7190 -0.2494
vn 0.5054 -0.7960 -0.3330
vn 0.3733 -0.5883 -0.7173
vn -0.5423 -0.8081 0.2299
vn -0.5065 -0.8622 -0.0046
vn 0.0327 -0.9498 -0.3112
vn 0.2398 -0.6235 -0.7441
vn 0.5398 -0.4724 0.6968
vn -0.5577 -0.7070 -0.4349
vn -0.6881 -0.0629 -0.7228
vn -0.6355 0.0441 0.7708
vn -0.1824 -0.9792 0.0887
vn -0.0124 -0.9090 0.4166
vn 0.7422 0.6023 0.2940
vn 0.4868 0.5230 0.6996
vn -0.1342 0.2604 0.9561
vn -0.1849 0.1275 -0.9745
vn 0.7222 0.5460 -0.4246
vn 0.4346 0.4104 -0.8017
vn -0.4532 0.6497 0.6104
vn 0.0546 0.8897 -0.4533
vn -0.2362 0.9302 -0.2810
vn -0.5488 0.7662 0.3343
vn -0.5247 0.5704 0.6319
vn -0.2610 0.5935 0.7614
vn -0.3105 0.4841 -0.8181
vn -0.6000 0.4841 -0.6369
vn -0.6089 0.6920 -0.3877
vn -0.8121 0.5823 -0.0381
vn -0.0409 -0.9510 -0.3066
vn 0.3874 0.5828 0.7143
vn -0.1712 0.1907 -0.9666
vn -0.7447 -0.2131 -0.6325
vn -0.9839 -0.1784 0.0096
vn -0.1656 0.3598 0.9182
vn 0.6360 0.6438 -0.4255
vn 0.6821 0.6447 0.3450
vn -0.7703 -0.0067 0.6377
vn 0.3548 0.5611 -0.7479
vn 0.6640 0.6976 0.2691
vn 0.5641 0.8250 0.0336
vn 0.6429 0.7136 -0.2784
vn 0.2013 0.6791 -0.7059
vn 0.8297 -0.4786 -0.2873
vn -0.4709 0.6190 -0.6285
vn -0.4552 0.8875 -0.0714
vn -0.4131 -0.9047 0.1040
vn -0.4123 -0.0115 -0.9110
vn -0.4846 0.8721 -0.0683
vn -0.3674 0.1239 0.9218
vn -0.3569 -0.8866 -0.2944
vn 0.0695 -0.9936 -0.0888
vn -0.9330 -0.2875 -0.2165
vn -0.3796 -0.1646 0.9104
vn 0.3511 -0.1433 -0.9253
vn -0.3014 0.9517 0.0586
vn -0.1833 0.3482 0.9193
vn -0.0984 -0.6606 -0.7443
vn -0.3233 -0.9398 -0.1107
vn 0.3417 -0.0744 -0.9369
vn 0.2133 0.9648 0.1539
vn 0.1287 -0.3715 -0.9195
vn 0.2057 -0.9668 0.1512
vn -0.2764 -0.9603 0.0369
vn -0.3706 -0.9128 -0.1715
vn 0.4253 -0.2587 -0.8673
vn -0.3369 0.0744 0.9386
vn 0.7820 -0.6116 0.1202
vn -0.3967 -0.9174 0.0315
vn 0.1373 -0.2098 0.9680
vn 0.7565 0.6515 -0.0567
vn -0.9435 0.3313 -0.0021
vn 0.0304 -0.1134 0.9931
vn 0.1874 0.0441 -0.9813
vn -0.2029 -0.9666 -0.1564
vn 0.4366 -0.8969 0.0710
vn 0.1367 0.0640 0.9885
vn 0.0777 0.0157 -0.9969
vn -0.9478 -0.3188 -0.0104
vn 0.1312 0.9875 0.0879
vn 0.2608 -0.0173 -0.9652
vn 0.2993 -0.9508 -0.0800
vn 0.9923 0.0548 -0.1111
vn -0.3033 -0.0829 -0.9493
vn 0.4636 0.0318 0.8855
vn 0.2796 -0.9565 0.0835
vn 0.3610 -0.9293 -0.0784
vn 0.8077 -0.5722 -0.1424
vn 0.3319 -0.2076 0.9202
vn -0.4267 0.9012 -0.0752
vn 0.3113 0.0837 0.9466
vn 0.3100 -0.9480 0.0724
vn 0.3234 -0.5529 0.7679
vn -0.3435 0.1482 -0.9274
vn -0.8611 0.5074 -0.0313
vn -0.2462 -0.5835 -0.7739
vn -0.5771 -0.7720 0.2665
vn 0.7203 -0.6932 0.0238
vn 0.1167 -0.9503 0.2886
vn 0.8651 0.3702 -0.3385
vn 0.3681 0.0991 0.9245
g Icosphere.001_Icosphere.002_chickMaterial
usemtl chickMaterial
s 1
f 13/1/1 1/2/1 81/3/1 80/4/1
f 2/5/2 14/6/3 16/7/4
f 1/8/5 13/9/5 18/10/5
f 1/8/6 18/11/6 20/12/6
f 2/5/7 16/13/7 23/14/7
f 3/15/8 15/16/8 25/17/8
f 4/18/9 19/19/9 27/20/9
f 5/21/10 21/22/10 29/23/10
f 6/24/11 22/25/11 31/26/11
f 2/5/12 23/27/12 26/28/12
f 3/15/13 25/29/13 28/30/13
f 4/18/14 27/31/14 30/32/14
f 5/21/15 29/33/15 32/34/15
f 6/24/16 31/35/16 24/36/16
f 56/37/17 57/38/17 58/39/17
f 8/40/18 34/41/18 40/42/18
f 9/43/19 35/44/19 74/45/19 75/46/19
f 10/47/20 36/48/20 42/49/20
f 55/50/21 60/51/21 59/52/21
f 57/53/22 55/54/22 59/52/22
f 57/53/23 59/55/23 58/39/23
f 37/56/24 55/54/24 57/57/24
f 42/58/25 41/59/25 12/60/25
f 42/58/26 36/48/26 41/61/26
f 36/62/27 9/63/27 41/61/27
f 41/64/28 40/65/28 12/60/28
f 40/66/29 41/59/29 78/67/29 76/68/29
f 41/64/30 9/63/30 75/69/30 78/70/30
f 40/66/31 38/71/31 12/60/31
f 40/66/32 34/41/32 38/72/32
f 34/73/33 7/74/33 38/72/33
f 11/75/34 54/76/34 56/77/34
f 66/78/35 70/79/35 46/80/35 48/81/35
f 68/82/36 67/83/36 53/84/36 43/85/36
f 73/86/37 65/87/37 49/88/37 50/89/37
f 65/90/38 66/91/38 48/92/38 49/93/38
f 67/94/39 72/95/39 51/96/39 53/97/39
f 32/98/40 36/48/40 10/99/40
f 32/98/41 29/33/41 36/100/41
f 29/101/42 9/63/42 36/100/42
f 30/102/43 35/44/43 9/103/43
f 30/102/44 27/31/44 35/104/44
f 27/105/45 8/106/45 35/104/45
f 28/107/46 34/41/46 8/108/46
f 28/107/47 25/29/47 34/109/47
f 25/110/48 7/74/48 34/109/48
f 69/111/49 68/112/49 43/113/49 52/114/49
f 71/115/50 69/116/50 52/117/50 45/118/50
f 70/119/51 71/120/51 45/121/51 46/122/51
f 31/123/52 32/124/52 10/99/52
f 31/123/53 22/25/53 32/34/53
f 22/125/54 5/126/54 32/34/54
f 29/101/55 30/127/55 9/103/55
f 29/101/56 21/22/56 30/32/56
f 21/128/57 4/129/57 30/32/57
f 27/105/58 28/130/58 8/108/58
f 27/105/59 19/19/59 28/30/59
f 19/131/60 3/132/60 28/30/60
f 25/110/61 26/133/61 7/134/61
f 25/110/62 15/16/62 26/28/62
f 15/135/63 2/136/63 26/28/63
f 72/137/64 73/138/64 50/139/64 51/140/64
f 23/141/65 16/13/65 24/36/65
f 16/142/66 6/143/66 24/36/66
f 17/144/67 22/25/67 6/145/67
f 20/146/68 21/22/68 5/147/68
f 20/146/69 18/11/69 21/148/69
f 18/149/70 4/129/70 21/148/70
f 18/149/71 19/19/71 4/150/71
f 18/149/72 13/9/72 19/151/72
f 13/1/73 3/132/73 19/151/73
f 16/142/74 17/152/74 6/145/74
f 16/142/75 14/6/75 17/153/75
f 14/154/76 1/2/76 17/153/76
f 13/1/77 15/16/77 3/155/77
f 5/21/78 22/25/78 20/12/78
f 14/154/3 2/136/2 15/156/79
f 33/157/80 45/158/80 47/159/80 44/160/80
f 53/161/81 62/162/81 64/163/81 63/164/81
f 52/165/82 43/166/82 63/167/82 47/168/82
f 45/169/83 52/170/83 47/159/83
f 50/171/84 49/172/84 58/39/84 59/173/84
f 51/174/85 50/175/85 59/52/85 60/176/85
f 53/161/86 51/177/86 60/178/86 62/179/86
f 46/180/87 45/158/87 33/181/87 11/182/87
f 49/183/88 48/184/88 56/77/88 58/185/88
f 48/186/89 46/187/89 11/188/89 56/189/89
f 62/190/90 39/191/90 64/163/90
f 56/37/91 54/76/91 57/57/91
f 54/192/92 37/193/92 57/57/92
f 39/194/93 55/54/93 37/195/93
f 39/194/94 62/162/94 55/196/94
f 62/190/95 60/51/95 55/196/95
f 33/157/96 54/76/96 11/188/96
f 33/157/97 61/197/97 54/198/97
f 61/199/98 37/193/98 54/198/98
f 61/199/99 39/191/99 37/195/99
f 43/200/100 53/201/100 63/167/100
f 10/47/101 42/202/101 73/203/101 72/204/101
f 7/205/102 26/133/102 71/206/102 70/207/102
f 26/208/103 23/27/103 69/209/103 71/210/103
f 23/141/104 24/211/104 68/212/104 69/213/104
f 31/123/105 10/214/105 72/215/105 67/216/105
f 12/217/106 38/71/106 66/218/106 65/219/106
f 42/58/107 12/220/107 65/221/107 73/222/107
f 24/223/108 31/35/108 67/224/108 68/225/108
f 38/226/109 7/74/109 70/227/109 66/228/109
f 75/229/110 74/230/110 78/67/110
f 78/231/111 74/230/111 76/232/111
f 74/233/112 77/234/112 76/232/112
f 8/40/113 40/65/113 76/232/113 77/235/113
f 35/236/114 8/106/114 77/237/114 74/238/114
f 61/199/115 33/239/115 44/240/115
f 39/194/116 61/197/116 44/240/116 64/241/116
f 47/242/117 63/243/117 79/244/117
f 44/245/118 47/246/118 79/244/118
f 64/247/119 44/248/119 79/244/119
f 63/249/120 64/250/120 79/244/120
f 82/251/121 83/252/121 87/253/121 86/254/121
f 80/255/122 81/256/122 85/257/122 84/258/122
f 14/154/123 15/16/123 83/259/123 82/260/123
f 1/8/124 14/6/124 82/261/124 81/262/124
f 15/135/125 13/9/125 80/263/125 83/264/125
f 86/265/126 87/266/126 91/267/126 90/268/126
f 85/269/127 86/270/127 90/271/127 89/272/127
f 83/273/128 80/274/128 84/275/128 87/276/128
f 81/277/129 82/278/129 86/279/129 85/280/129
f 91/281/130 88/282/130 92/283/130 95/284/130
f 90/285/131 91/286/131 100/287/131 102/288/131
f 87/289/132 84/290/132 88/291/132 91/292/132
f 84/293/133 85/294/133 89/295/133 88/296/133
f 93/297/134 94/298/134 92/283/134
f 92/299/135 94/298/135 95/300/135
f 92/299/136 88/282/136 96/301/136 98/302/136
f 89/303/137 90/304/137 94/305/137 93/306/137
f 96/307/138 97/308/138 99/309/138 98/302/138
f 93/297/139 92/310/139 98/311/139 99/312/139
f 89/303/140 93/313/140 99/309/140 97/314/140
f 88/315/141 89/316/141 97/317/141 96/318/141
f 102/319/142 100/320/142 101/321/142 103/322/142
f 94/323/143 90/304/143 102/324/143 103/322/143
f 91/281/144 95/325/144 101/321/144 100/326/144
f 95/327/145 94/298/145 103/328/145 101/329/145
f 112/330/146 106/331/146 104/332/146 113/333/146
f 116/334/147 107/335/147 106/336/147 112/337/147
f 113/338/148 104/339/148 105/340/148 117/341/148
f 105/342/149 104/339/149 106/336/149 107/343/149
f 119/344/150 111/345/150 110/346/150 118/347/150
f 118/348/151 110/349/151 108/350/151 114/351/151
f 114/352/152 108/353/152 109/354/152 115/355/152
f 111/356/153 109/357/153 108/350/153 110/358/153
f 118/348/154 114/359/154 113/360/154 117/341/154
f 115/361/155 109/357/155 111/362/155 119/363/155
f 115/361/156 112/364/156 113/360/156
f 114/352/157 115/365/157 113/360/157
f 123/366/158 119/367/158 118/368/158 122/369/158
f 120/370/159 116/371/159 119/372/159 123/373/159
f 117/374/160 105/375/160 107/376/160 116/377/160
f 116/334/161 112/364/161 115/378/161 119/363/161
f 126/379/162 122/380/162 121/381/162 125/382/162
f 124/383/163 120/384/163 123/385/163 127/386/163
f 122/387/164 118/388/164 117/389/164 121/390/164
f 121/391/165 117/392/165 116/393/165 120/394/165
f 1/8/166 126/395/166 125/396/166 17/397/166
f 17/144/167 125/398/167 124/399/167 22/400/167
f 127/401/168 123/402/168 122/403/168 126/404/168
f 125/405/169 121/406/169 120/407/169 124/408/169
f 20/146/170 127/409/170 126/410/170 1/411/170
f 22/125/171 124/412/171 127/413/171 20/414/171
