# Blender v2.82 (sub 7) OBJ File: ''
# www.blender.org
mtllib bale_small.mtl
o straw.002
v 8.750474 8.402101 -1.237831
v -5.693110 8.402101 -7.148763
v -5.057550 8.402101 -9.610944
v 9.722779 8.402101 -3.536014
v -5.675578 17.191917 -7.148885
v -4.880225 17.224411 -9.540358
v 9.207568 17.191917 -1.119106
v 10.170766 17.224411 -3.422571
v 5.806468 8.402101 8.632169
v -9.663465 8.402101 2.361491
v -8.690787 8.402101 0.040595
v 6.524000 8.402101 6.244692
v -9.645934 17.191917 2.361369
v -8.673257 17.191917 0.040473
v 5.685351 17.224411 8.568974
v 6.601575 17.191917 6.207553
v 0.568145 16.642860 -0.372386
v 3.848402 16.682549 -10.326847
v 3.848402 8.338534 -10.326847
v 7.694474 17.162392 -8.896841
v 5.049397 17.162392 -2.303566
v 2.615889 17.162392 4.261008
v 0.714705 17.162392 10.857388
v 4.373166 16.682549 12.213585
v 7.130616 16.490898 2.065505
v 11.106422 16.682549 -7.632024
v 7.130615 9.010026 2.065504
v 4.373165 8.338534 12.213583
v -3.413903 16.682549 9.432098
v -3.367597 8.338534 9.341836
v 11.106422 8.338534 -7.632025
v -5.026097 8.559741 -8.899739
v -5.026097 16.665649 -8.899738
v -3.558063 16.682549 -13.113972
v -3.417820 8.338534 -12.930869
v -0.167961 17.162392 -11.791734
v -2.492689 17.162392 -5.071565
v -5.036671 17.162392 1.450989
v -7.048944 17.162392 8.014330
v -11.105078 8.338534 6.430077
v -11.105078 16.682549 6.430079
v -6.724465 16.490898 -3.111161
v -6.724466 9.010026 -3.111162
vt 0.366123 0.660778
vt 0.349462 0.622514
vt 0.334710 0.583652
vt 0.350308 0.578823
vt 0.360846 0.603416
vt 0.371438 0.629561
vt 0.379691 0.653508
vt 0.122110 0.144740
vt 0.115975 0.145058
vt 0.117337 0.166524
vt 0.123522 0.166119
vt 0.122583 0.105601
vt 0.116498 0.105460
vt 0.117444 0.083947
vt 0.123522 0.084166
vt 0.123671 0.105370
vt 0.129804 0.105463
vt 0.130112 0.084040
vt 0.123979 0.083947
vt 0.123549 0.145687
vt 0.129723 0.145615
vt 0.130112 0.167038
vt 0.124037 0.167188
vt 0.320683 0.591169
vt 0.331354 0.615170
vt 0.342102 0.641273
vt 0.349821 0.665378
vt 0.337254 0.667010
vt 0.321221 0.633993
vt 0.310915 0.598319
vt 0.274508 0.651908
vt 0.328124 0.705742
vt 0.382097 0.700368
vt 0.277621 0.575649
vt 0.318668 0.543630
vt 0.399331 0.554259
vt 0.369132 0.587565
vt 0.361735 0.575669
vt 0.370257 0.539142
vt 0.424704 0.666426
vt 0.390961 0.644987
vt 0.380011 0.610308
vt 0.424704 0.592183
vn 0.1076 0.9935 0.0385
vn -0.9591 0.0117 -0.2827
vn -0.9206 0.0524 -0.3869
vn 0.0049 -0.9999 -0.0120
vn -0.9223 0.0018 -0.3865
vn -0.9456 -0.0042 -0.3253
vn -0.0015 -1.0000 0.0063
vn 0.1462 0.9880 0.0504
vn 0.9650 -0.0000 0.2622
vn -0.3422 -0.0030 0.9396
vn -0.3429 -0.0026 0.9394
vn -0.3482 -0.0060 0.9374
vn -0.1219 0.9916 -0.0440
vn 0.3481 0.0001 -0.9375
vn 0.3480 0.0001 -0.9375
vn 0.3476 0.0000 -0.9376
vn 0.3482 0.0001 -0.9374
vn -0.3476 -0.0000 0.9376
vn 0.9253 -0.0000 0.3793
vn -0.9369 -0.0119 -0.3493
vn -0.3583 -0.0056 0.9336
vn -0.3587 -0.0052 0.9334
vn -0.3638 -0.0000 0.9315
vn -0.1431 0.9883 -0.0530
vn 0.3456 -0.0049 -0.9384
vn 0.3488 -0.0064 -0.9372
vn 0.3392 -0.0018 -0.9407
vn 0.3651 -0.0143 -0.9309
vn -0.9088 0.0000 -0.4172
vn -0.9596 0.0000 -0.2815
g straw.002_straw.002_Material
usemtl Material
s off
f 29/1/1 17/2/1 18/3/1 36/4/1 37/5/1 38/6/1 39/7/1
s 1
f 5/8/2 6/9/2 3/10/2 2/11/2
f 7/12/3 8/13/3 4/14/3 1/15/3
f 5/8/4 6/9/4 8/13/4 7/12/4
f 13/16/5 14/17/5 11/18/5 10/19/5
f 15/20/6 16/21/6 12/22/6 9/23/6
f 13/16/7 14/17/7 16/21/7 15/20/7
f 20/24/8 21/25/8 22/26/8 23/27/8 24/28/8 25/29/8 26/30/8
f 27/31/9 25/29/9 24/28/9 28/32/9
f 28/32/10 23/27/11 29/1/12 30/33/12
f 18/3/13 17/2/13 29/1/13 23/27/13 22/26/13 21/25/13 20/24/13
f 31/34/14 20/24/15 26/30/16
f 19/35/17 18/3/17 20/24/15 31/34/14
f 28/32/10 24/28/18 23/27/11
f 31/34/19 26/30/19 25/29/19 27/31/19
f 32/36/20 33/37/20 34/38/20 35/39/20
f 40/40/21 39/7/22 41/41/23
f 34/38/24 33/37/24 42/42/24 41/41/24 39/7/24 38/6/24 37/5/24 36/4/24
f 35/39/25 36/4/26 18/3/27 19/35/27
f 35/39/25 34/38/28 36/4/26
f 30/33/12 29/1/12 39/7/22 40/40/21
f 40/40/29 41/41/29 42/42/29 43/43/29
f 43/43/30 42/42/30 33/37/30 32/36/30
o straw.001
v -3.567815 -0.165180 -1.178448
v -4.368261 -0.165180 14.407299
v -6.902069 -0.165180 14.621973
v -6.058249 -0.165180 -1.335812
v -4.374174 8.624638 14.390796
v -6.894113 8.657129 14.431282
v -3.606974 8.624638 -1.649083
v -6.099380 8.657129 -1.796105
v 6.720397 -0.165180 -1.665030
v 5.919959 -0.165180 15.008286
v 3.407967 -0.165180 14.858086
v 4.229971 -0.165180 -1.552425
v 5.914045 8.624638 14.991783
v 3.402054 8.624638 14.841582
v 6.700824 8.657129 -1.529828
v 4.169262 8.624638 -1.613348
v -0.044489 8.075579 6.256986
v -10.523635 8.115269 6.454185
v -10.523635 -0.228746 6.454185
v -10.446358 8.595110 2.351598
v -3.349291 8.595110 2.666810
v 3.650706 8.595110 2.791857
v 10.504633 8.595110 2.404025
v 10.574317 8.115269 -1.497097
v 0.085388 7.923618 -0.742476
v -10.381367 8.115269 -1.286662
v 0.085388 0.442745 -0.742475
v 10.574316 -0.228746 -1.497095
v 10.525265 8.115269 6.771681
v 10.424767 -0.228746 6.757841
v -10.381368 -0.228746 -1.286661
v -6.241305 -0.007540 14.357035
v -6.241304 8.098368 14.357035
v -10.703906 8.115269 14.365652
v -10.577502 -0.228746 14.172735
v -10.577501 8.595110 10.729014
v -3.466651 8.595110 10.699936
v 3.530234 8.595110 10.943136
v 10.389729 8.595110 10.671068
v 10.236373 -0.228746 15.022914
v 10.236373 8.115269 15.022913
v -0.216794 7.923618 14.045013
v -0.216795 0.442745 14.045014
vt 0.366123 0.660778
vt 0.349462 0.622514
vt 0.334710 0.583652
vt 0.350308 0.578823
vt 0.360846 0.603416
vt 0.371438 0.629561
vt 0.379691 0.653508
vt 0.122110 0.144740
vt 0.115975 0.145058
vt 0.117337 0.166524
vt 0.123522 0.166119
vt 0.122583 0.105601
vt 0.116498 0.105460
vt 0.117444 0.083947
vt 0.123522 0.084166
vt 0.123671 0.105370
vt 0.129804 0.105463
vt 0.130112 0.084040
vt 0.123979 0.083947
vt 0.123549 0.145687
vt 0.129723 0.145615
vt 0.130112 0.167038
vt 0.124037 0.167188
vt 0.320683 0.591169
vt 0.331354 0.615170
vt 0.342102 0.641273
vt 0.349821 0.665378
vt 0.337254 0.667010
vt 0.321221 0.633993
vt 0.310915 0.598319
vt 0.274508 0.651908
vt 0.328124 0.705742
vt 0.382097 0.700368
vt 0.277621 0.575649
vt 0.318668 0.543630
vt 0.399331 0.554259
vt 0.369132 0.587565
vt 0.361735 0.575669
vt 0.370257 0.539142
vt 0.424704 0.666426
vt 0.390961 0.644987
vt 0.380011 0.610308
vt 0.424704 0.592183
vn 0.0007 0.9935 -0.1142
vn 0.0505 0.0117 0.9987
vn -0.0605 0.0524 0.9968
vn -0.0130 -0.9999 -0.0006
vn -0.0597 0.0018 0.9982
vn 0.0058 -0.0042 1.0000
vn 0.0065 -1.0000 -0.0007
vn -0.0007 0.9880 -0.1546
vn -0.0718 -0.0000 -0.9974
vn 0.9999 -0.0030 0.0121
vn 0.9999 -0.0026 0.0128
vn 0.9998 -0.0060 0.0185
vn -0.0012 0.9916 0.1296
vn -0.9998 0.0001 -0.0184
vn -0.9998 0.0001 -0.0183
vn -0.9998 0.0000 -0.0179
vn -0.9998 0.0001 -0.0185
vn 0.9998 0.0000 0.0179
vn 0.0519 -0.0000 -0.9987
vn -0.0197 -0.0119 0.9997
vn 0.9996 -0.0056 0.0294
vn 0.9995 -0.0052 0.0298
vn 0.9994 0.0000 0.0352
vn -0.0027 0.9883 0.1526
vn -0.9999 -0.0049 -0.0158
vn -0.9998 -0.0064 -0.0191
vn -1.0000 -0.0018 -0.0089
vn -0.9992 -0.0143 -0.0366
vn -0.0931 0.0000 0.9957
vn 0.0517 0.0000 0.9987
g straw.001_straw.001_Material
usemtl Material
s off
f 72/44/31 60/45/31 61/46/31 79/47/31 80/48/31 81/49/31 82/50/31
s 1
f 48/51/32 49/52/32 46/53/32 45/54/32
f 50/55/33 51/56/33 47/57/33 44/58/33
f 48/51/34 49/52/34 51/56/34 50/55/34
f 56/59/35 57/60/35 54/61/35 53/62/35
f 58/63/36 59/64/36 55/65/36 52/66/36
f 56/59/37 57/60/37 59/64/37 58/63/37
f 63/67/38 64/68/38 65/69/38 66/70/38 67/71/38 68/72/38 69/73/38
f 70/74/39 68/72/39 67/71/39 71/75/39
f 71/75/40 66/70/41 72/44/42 73/76/42
f 61/46/43 60/45/43 72/44/43 66/70/43 65/69/43 64/68/43 63/67/43
f 74/77/44 63/67/45 69/73/46
f 62/78/47 61/46/47 63/67/45 74/77/44
f 71/75/40 67/71/48 66/70/41
f 74/77/49 69/73/49 68/72/49 70/74/49
f 75/79/50 76/80/50 77/81/50 78/82/50
f 83/83/51 82/50/52 84/84/53
f 77/81/54 76/80/54 85/85/54 84/84/54 82/50/54 81/49/54 80/48/54 79/47/54
f 78/82/55 79/47/56 61/46/57 62/78/57
f 78/82/55 77/81/58 79/47/56
f 73/76/42 72/44/42 82/50/52 83/83/51
f 83/83/59 84/84/59 85/85/59 86/86/59
f 86/86/60 85/85/60 76/80/60 75/79/60
o straw.003
v -3.567815 -0.165180 -16.754147
v -4.368261 -0.165180 -1.168400
v -6.902069 -0.165180 -0.953725
v -6.058249 -0.165180 -16.911510
v -4.374174 8.624638 -1.184903
v -6.894113 8.657129 -1.144417
v -3.606974 8.624638 -17.224781
v -6.099380 8.657129 -17.371803
v 6.720397 -0.165180 -17.240730
v 5.919959 -0.165180 -0.567412
v 3.407967 -0.165180 -0.717613
v 4.229971 -0.165180 -17.128124
v 5.914045 8.624638 -0.583916
v 3.402054 8.624638 -0.734117
v 6.700824 8.657129 -17.105526
v 4.169262 8.624638 -17.189047
v -0.044489 8.075579 -9.318713
v -10.523635 8.115269 -9.121513
v -10.523635 -0.228746 -9.121513
v -10.446358 8.595110 -13.224101
v -3.349291 8.595110 -12.908890
v 3.650706 8.595110 -12.783842
v 10.504633 8.595110 -13.171675
v 10.574317 8.115269 -17.072796
v 0.085388 7.923618 -16.318174
v -10.381367 8.115269 -16.862362
v 0.085388 0.442745 -16.318172
v 10.574316 -0.228746 -17.072794
v 10.525265 8.115269 -8.804018
v 10.424767 -0.228746 -8.817858
v -10.381368 -0.228746 -16.862360
v -6.241305 -0.007540 -1.218665
v -6.241304 8.098368 -1.218665
v -10.703906 8.115269 -1.210047
v -10.577502 -0.228746 -1.402963
v -10.577501 8.595110 -4.846684
v -3.466651 8.595110 -4.875763
v 3.530234 8.595110 -4.632563
v 10.389729 8.595110 -4.904630
v 10.236373 -0.228746 -0.552785
v 10.236373 8.115269 -0.552786
v -0.216794 7.923618 -1.530685
v -0.216795 0.442745 -1.530684
vt 0.366123 0.660778
vt 0.349462 0.622514
vt 0.334710 0.583652
vt 0.350308 0.578823
vt 0.360846 0.603416
vt 0.371438 0.629561
vt 0.379691 0.653508
vt 0.122110 0.144740
vt 0.115975 0.145058
vt 0.117337 0.166524
vt 0.123522 0.166119
vt 0.122583 0.105601
vt 0.116498 0.105460
vt 0.117444 0.083947
vt 0.123522 0.084166
vt 0.123671 0.105370
vt 0.129804 0.105463
vt 0.130112 0.084040
vt 0.123979 0.083947
vt 0.123549 0.145687
vt 0.129723 0.145615
vt 0.130112 0.167038
vt 0.124037 0.167188
vt 0.320683 0.591169
vt 0.331354 0.615170
vt 0.342102 0.641273
vt 0.349821 0.665378
vt 0.337254 0.667010
vt 0.321221 0.633993
vt 0.310915 0.598319
vt 0.274508 0.651908
vt 0.328124 0.705742
vt 0.382097 0.700368
vt 0.277621 0.575649
vt 0.318668 0.543630
vt 0.399331 0.554259
vt 0.369132 0.587565
vt 0.361735 0.575669
vt 0.370257 0.539142
vt 0.424704 0.666426
vt 0.390961 0.644987
vt 0.380011 0.610308
vt 0.424704 0.592183
vn 0.0007 0.9935 -0.1142
vn 0.0505 0.0117 0.9987
vn -0.0605 0.0524 0.9968
vn -0.0130 -0.9999 -0.0006
vn -0.0597 0.0018 0.9982
vn 0.0058 -0.0042 1.0000
vn 0.0065 -1.0000 -0.0007
vn -0.0007 0.9880 -0.1546
vn -0.0718 -0.0000 -0.9974
vn 0.9999 -0.0030 0.0121
vn 0.9999 -0.0026 0.0128
vn 0.9998 -0.0060 0.0185
vn -0.0012 0.9916 0.1296
vn -0.9998 0.0001 -0.0184
vn -0.9998 0.0001 -0.0183
vn -0.9998 0.0000 -0.0179
vn -0.9998 0.0001 -0.0185
vn 0.9998 -0.0000 0.0179
vn 0.0519 -0.0000 -0.9987
vn -0.0197 -0.0119 0.9997
vn 0.9996 -0.0056 0.0294
vn 0.9995 -0.0052 0.0298
vn 0.9994 -0.0000 0.0352
vn -0.0027 0.9883 0.1526
vn -0.9999 -0.0049 -0.0158
vn -0.9998 -0.0064 -0.0191
vn -1.0000 -0.0018 -0.0089
vn -0.9992 -0.0143 -0.0366
vn -0.0931 0.0000 0.9957
vn 0.0517 0.0000 0.9987
g straw.003_straw.003_Material
usemtl Material
s off
f 115/87/61 103/88/61 104/89/61 122/90/61 123/91/61 124/92/61 125/93/61
s 1
f 91/94/62 92/95/62 89/96/62 88/97/62
f 93/98/63 94/99/63 90/100/63 87/101/63
f 91/94/64 92/95/64 94/99/64 93/98/64
f 99/102/65 100/103/65 97/104/65 96/105/65
f 101/106/66 102/107/66 98/108/66 95/109/66
f 99/102/67 100/103/67 102/107/67 101/106/67
f 106/110/68 107/111/68 108/112/68 109/113/68 110/114/68 111/115/68 112/116/68
f 113/117/69 111/115/69 110/114/69 114/118/69
f 114/118/70 109/113/71 115/87/72 116/119/72
f 104/89/73 103/88/73 115/87/73 109/113/73 108/112/73 107/111/73 106/110/73
f 117/120/74 106/110/75 112/116/76
f 105/121/77 104/89/77 106/110/75 117/120/74
f 114/118/70 110/114/78 109/113/71
f 117/120/79 112/116/79 111/115/79 113/117/79
f 118/122/80 119/123/80 120/124/80 121/125/80
f 126/126/81 125/93/82 127/127/83
f 120/124/84 119/123/84 128/128/84 127/127/84 125/93/84 124/92/84 123/91/84 122/90/84
f 121/125/85 122/90/86 104/89/87 105/121/87
f 121/125/85 120/124/88 122/90/86
f 116/119/72 115/87/72 125/93/82 126/126/81
f 126/126/89 127/127/89 128/128/89 129/129/89
f 129/129/90 128/128/90 119/123/90 118/122/90
