# Blender v2.82 (sub 7) OBJ File: ''
# www.blender.org
mtllib bankDepositor.mtl
o Plane
v 9.909910 0.106092 -9.909916
v -9.909916 0.106092 -9.909910
v -9.909910 0.106092 9.909916
v 9.909916 0.106092 9.909910
vt 0.000000 0.000000
vt 1.000000 0.000000
vt 1.000000 1.000000
vt 0.000000 1.000000
vn 0.0000 1.0000 0.0000
g Plane_Plane_Depositor
usemtl Depositor
s 1
f 1/1/1 2/2/1 3/3/1 4/4/1
o Cube_Cube.001
v 10.000007 -0.056967 9.999993
v -9.999993 -0.056966 10.000007
v 9.999993 -0.056967 -10.000007
v -10.000007 -0.056966 -9.999993
v 9.125025 0.625612 9.125013
v -9.125013 0.625614 9.125025
v 9.125013 0.625612 -9.125025
v -9.125025 0.625614 -9.125013
vt 0.943340 0.034888
vt 0.964343 0.034888
vt 0.964343 0.055892
vt 0.943340 0.055892
vt 0.080679 0.010288
vt 0.927656 0.010288
vt 0.927656 0.068483
vt 0.080679 0.068483
vt 0.927656 0.895928
vt 0.080679 0.895928
vt 0.927656 0.957570
vt 0.080679 0.957570
vt 0.023775 0.068483
vt 0.023775 0.895928
vt 1.002972 0.068483
vt 1.002972 0.895928
vn -0.0000 -1.0000 0.0000
vn -0.0000 0.7885 -0.6151
vn 0.0000 1.0000 0.0000
vn 0.0000 0.7885 0.6151
vn 0.6151 0.7885 -0.0000
vn -0.6151 0.7885 0.0000
g Cube_Cube.001_Depositor
usemtl Depositor
s off
f 5/5/2 6/6/2 8/7/2 7/8/2
f 7/9/3 8/10/3 12/11/3 11/12/3
f 11/12/4 12/11/4 10/13/4 9/14/4
f 9/14/5 10/13/5 6/15/5 5/16/5
f 7/17/6 11/12/6 9/14/6 5/18/6
f 12/11/7 8/19/7 6/20/7 10/13/7
