# Blender v2.82 (sub 7) OBJ File: ''
# www.blender.org
mtllib Tree5_1.mtl
o Cylinder.002
v -2.046002 13.772716 0.651960
v -1.703552 14.788988 1.211005
v -1.501385 14.617639 1.575637
v -1.690280 13.635184 0.892244
v -1.641982 14.463807 1.975332
v -1.632167 13.457231 1.302295
v -2.042983 14.417607 2.175955
v -1.905698 13.343102 1.641916
v -2.469489 14.506105 2.059989
v -2.350649 13.359653 1.712161
v -2.671658 14.677458 1.695358
v -2.706371 13.497186 1.471876
v -2.531060 14.831289 1.295666
v -2.764484 13.675138 1.061825
v -2.127176 16.607874 4.149849
v -2.441761 16.591059 4.367826
v -2.490952 13.789268 0.722204
v -2.130059 14.877486 1.095039
v -2.273915 16.756220 3.473433
v -2.649282 16.800852 3.411231
v -2.597405 18.551210 3.490890
v -2.454802 18.429932 3.825132
v -3.033392 16.715620 3.999678
v -2.963867 16.784035 3.629211
v -2.057650 16.676289 3.779382
v -2.817129 16.635685 4.305623
v -3.283810 18.718725 3.534045
v -3.425522 18.666832 3.886162
v -3.143721 19.834963 4.277448
v -2.934640 19.826157 4.022690
v -2.940789 18.670832 3.370318
v -3.282918 18.545555 4.220401
v -2.596513 18.378038 4.177249
v -2.939529 18.425932 4.340977
v -2.541272 19.689722 4.776906
v -2.332189 19.680910 4.522152
v -2.252419 21.289976 4.627507
v -2.408803 21.312578 4.798274
v -2.865568 19.738493 4.810757
v -3.115108 19.798651 4.603872
v -2.360802 19.717220 4.195724
v -2.610347 19.777386 3.988840
v -2.215971 21.394573 4.422915
v -2.021346 23.066349 5.044213
v -2.046320 22.994690 5.184376
v -2.320801 21.565098 4.304342
v -2.661893 21.724258 4.512016
v -2.505509 21.701654 4.341253
v -2.593511 21.449135 4.835180
v -2.698341 21.619658 4.716608
v -2.280000 23.103733 5.326654
v -2.153455 23.010178 5.301370
v -2.093168 23.183176 4.962980
v -2.219709 23.276733 4.988268
v -2.326844 23.292213 5.105254
v -2.351818 23.220556 5.245422
v -1.493969 9.609467 -0.479465
v -1.175874 10.727448 -0.813464
v -0.935710 10.855008 -0.453967
v -1.112746 9.674293 -0.247834
v -1.035025 11.021776 -0.047133
v -1.011997 9.829507 0.163196
v -1.415646 11.130054 0.168723
v -1.250749 9.984193 0.512850
v -1.854603 11.116421 0.067152
v -1.689141 10.047738 0.596308
v -2.094767 10.988860 -0.292345
v -2.070364 9.982913 0.364677
v -1.995451 10.822090 -0.699179
v -2.171109 9.827698 -0.046353
v -0.905771 13.476998 -1.180594
v -1.167935 13.509771 -0.903184
v -1.932361 9.673013 -0.396010
v -1.614835 10.713812 -0.915030
v -1.188121 13.275827 -1.797752
v -1.567238 13.225268 -1.775976
v -1.956992 14.802982 -2.433032
v -1.738240 14.871835 -2.126163
v -1.821042 13.354944 -1.128024
v -1.829402 13.258041 -1.498566
v -0.914131 13.380095 -1.551136
v -1.547052 13.459212 -0.881408
v -2.648266 14.857001 -2.290551
v -2.715842 14.948235 -1.924664
v -2.688138 16.195087 -2.128699
v -2.525658 16.105913 -2.401355
v -2.333937 14.796840 -2.501120
v -2.497091 15.017087 -1.617799
v -1.805821 14.963063 -1.760280
v -2.120146 15.023230 -1.549707
v -1.999162 16.393190 -1.782911
v -1.836681 16.304016 -2.055567
v -2.159428 17.774202 -2.639471
v -2.288128 17.845942 -2.459426
v -2.315849 16.398222 -1.691393
v -2.601231 16.316168 -1.834627
v -1.923583 16.182941 -2.349640
v -2.208970 16.100882 -2.492872
v -2.183133 17.778891 -2.870866
v -2.333085 19.557032 -3.056485
v -2.316844 19.553823 -2.897962
v -2.345362 17.857264 -3.018059
v -2.679786 18.035147 -2.814785
v -2.551081 17.963411 -2.994832
v -2.493848 17.952089 -2.436196
v -2.656076 18.030464 -2.583393
v -2.545955 19.675692 -2.758698
v -2.405016 19.602972 -2.774613
v -2.444227 19.610725 -3.157330
v -2.585167 19.683445 -3.141418
v -2.673338 19.732594 -3.018067
v -2.657097 19.729382 -2.859543
v 0.000000 -0.633549 -1.307801
v 0.566955 1.988249 -1.178505
v 1.234198 1.993238 -0.432406
v 0.924755 -0.633552 -0.924755
v 1.178464 1.991672 0.566989
v 1.307801 -0.633552 -0.000000
v 0.432402 1.984473 1.234247
v 0.924755 -0.633553 0.924755
v -0.566955 1.975857 1.178505
v 0.000000 -0.633553 1.307805
v -1.234198 1.970870 0.432406
v -0.924755 -0.633549 0.924755
v -1.178464 1.972432 -0.566988
v -1.307801 -0.633549 -0.000000
v 1.021531 7.992989 0.249281
v 0.558365 7.797112 0.935413
v -0.924755 -0.633549 -0.924755
v -0.432402 1.979631 -1.234246
v 0.160064 8.039845 -1.064654
v -0.659935 7.863383 -0.922771
v -1.765779 11.593755 -0.808367
v -1.166312 11.517475 -0.209630
v -0.958117 7.566964 0.591809
v -1.123101 7.667510 -0.236644
v 0.856547 8.093532 -0.579174
v -0.261635 7.620649 1.077294
v -3.219831 11.489730 -0.220440
v -3.222653 11.370365 0.621823
v -3.238456 14.110276 1.228015
v -2.991426 14.171685 0.541608
v -2.616374 11.582263 -0.812844
v -2.623185 11.294081 1.220560
v -1.169133 11.398106 0.632632
v -1.772590 11.305573 1.225037
v -1.595665 14.336371 1.839462
v -1.348635 14.397780 1.153050
v -2.279529 17.856661 1.302317
v -2.489395 17.839523 1.774079
v -2.251502 14.226729 2.145736
v -2.931967 14.133076 1.892465
v -1.655120 14.374984 0.488599
v -2.335588 14.281330 0.235333
v -2.422727 18.051178 0.845640
v -2.817652 21.845608 1.993491
v -2.719547 21.712343 2.306354
v -2.835105 18.309134 0.671565
v -3.484953 18.462278 1.353825
v -3.275090 18.479416 0.882063
v -2.929380 18.009809 1.984578
v -3.341758 18.267765 1.810503
v -3.164757 21.817261 2.773767
v -2.863325 21.700605 2.629555
v -3.100168 22.022327 1.874233
v -3.401602 22.138987 2.018445
v -3.545375 22.127249 2.341646
v -3.447273 21.993988 2.654509
vt 0.759267 0.000341
vt 0.748299 0.051313
vt 0.726285 0.051229
vt 0.739430 0.000150
vt 0.710719 0.051115
vt 0.718655 0.000000
vt 0.919266 0.000838
vt 0.917755 0.047313
vt 0.895985 0.049482
vt 0.900191 0.000000
vt 0.879728 0.055699
vt 0.879268 0.004391
vt 0.625898 0.449781
vt 0.635252 0.399245
vt 0.657041 0.399464
vt 0.644173 0.450171
vt 0.674668 0.399062
vt 0.665774 0.450072
vt 0.932285 0.050462
vt 0.881371 0.154018
vt 0.863476 0.156890
vt 0.810291 0.441626
vt 0.830814 0.393925
vt 0.848056 0.398324
vt 0.831608 0.445037
vt 0.791966 0.441643
vt 0.809155 0.391977
vt 0.762451 0.744262
vt 0.747204 0.757997
vt 0.725641 0.757923
vt 0.710394 0.744084
vt 0.710394 0.724585
vt 0.725641 0.710850
vt 0.747204 0.710924
vt 0.762451 0.724763
vt 0.707386 0.164638
vt 0.718899 0.163971
vt 0.746764 0.235239
vt 0.728178 0.236426
vt 0.605016 0.283103
vt 0.620861 0.286012
vt 0.763867 0.051318
vt 0.689065 0.167290
vt 0.674668 0.170371
vt 0.848166 0.161187
vt 0.795765 0.393622
vt 0.772855 0.284263
vt 0.790536 0.287232
vt 0.622065 0.398534
vt 0.587247 0.280126
vt 0.806552 0.290128
vt 0.775779 0.203026
vt 0.763867 0.200904
vt 0.781166 0.149319
vt 0.794295 0.153267
vt 0.763867 0.282963
vt 0.793459 0.208261
vt 0.577962 0.278825
vt 0.634953 0.208194
vt 0.653574 0.209581
vt 0.891368 0.154253
vt 0.877807 0.232406
vt 0.860201 0.237908
vt 0.716393 0.239590
vt 0.806550 0.213540
vt 0.667210 0.212451
vt 0.848056 0.244799
vt 0.883520 0.290863
vt 0.897048 0.287475
vt 0.915129 0.355454
vt 0.905504 0.358551
vt 0.622255 0.209101
vt 0.626705 0.148927
vt 0.640436 0.151266
vt 0.735096 0.294166
vt 0.720880 0.298178
vt 0.809278 0.157106
vt 0.655322 0.155275
vt 0.868932 0.295513
vt 0.890560 0.231516
vt 0.761263 0.236725
vt 0.749862 0.292224
vt 0.744521 0.364342
vt 0.753742 0.365296
vt 0.755593 0.442853
vt 0.749275 0.442200
vt 0.763867 0.369751
vt 0.815948 0.070140
vt 0.825355 0.073557
vt 0.654536 0.079072
vt 0.664445 0.074797
vt 0.833221 0.080469
vt 0.674517 0.073759
vt 0.898000 0.365895
vt 0.730570 0.661100
vt 0.730570 0.654210
vt 0.735960 0.649381
vt 0.743582 0.649440
vt 0.748972 0.654354
vt 0.748972 0.661243
vt 0.743582 0.666073
vt 0.735960 0.666014
vt 0.842667 0.002340
vt 0.848056 0.007076
vt 0.667768 0.000711
vt 0.674668 0.000000
vt 0.925691 0.431271
vt 0.920550 0.436304
vt 0.932285 0.429150
vt 0.762529 0.445905
vt 0.836223 0.000000
vt 0.660979 0.003639
vt 0.881774 0.881086
vt 0.892697 0.835336
vt 0.914413 0.836813
vt 0.899796 0.885072
vt 0.932285 0.833757
vt 0.921466 0.884592
vt 0.635952 0.638717
vt 0.634785 0.689672
vt 0.613320 0.693261
vt 0.618379 0.645033
vt 0.595277 0.690897
vt 0.596806 0.646279
vt 0.995997 0.000000
vt 0.988587 0.051650
vt 0.967207 0.052768
vt 0.979005 0.002655
vt 0.948385 0.051107
vt 0.957096 0.002609
vt 0.730570 0.555717
vt 0.750860 0.558707
vt 0.750308 0.649381
vt 0.731947 0.649381
vt 0.954133 0.448872
vt 0.948738 0.494254
vt 0.932285 0.502460
vt 0.933071 0.453518
vt 0.973109 0.451909
vt 0.970504 0.492705
vt 0.476470 0.742272
vt 0.489655 0.727661
vt 0.508301 0.726341
vt 0.521486 0.739085
vt 0.521486 0.758429
vt 0.508301 0.773040
vt 0.489655 0.774359
vt 0.476470 0.761615
vt 0.894230 0.720879
vt 0.887056 0.719268
vt 0.878725 0.643920
vt 0.896852 0.646940
vt 0.975212 0.158980
vt 0.957463 0.160238
vt 0.879858 0.830191
vt 0.911493 0.722340
vt 0.928732 0.722796
vt 0.635952 0.795055
vt 0.618539 0.791510
vt 0.949002 0.161336
vt 1.000000 0.048409
vt 0.991853 0.158301
vt 0.973109 0.592666
vt 0.957567 0.601011
vt 0.937514 0.240623
vt 0.953790 0.239613
vt 0.966401 0.292934
vt 0.955652 0.292217
vt 0.932285 0.239398
vt 0.997638 0.158598
vt 0.971579 0.236958
vt 0.594707 0.536043
vt 0.577962 0.535183
vt 0.580015 0.459392
vt 0.594707 0.450171
vt 0.912353 0.646789
vt 0.637764 0.450171
vt 0.654026 0.454042
vt 0.657100 0.510189
vt 0.640677 0.511061
vt 0.714084 0.449491
vt 0.730570 0.445905
vt 0.690619 0.515065
vt 0.674668 0.515891
vt 0.730570 0.493714
vt 0.746371 0.491298
vt 0.757961 0.553168
vt 0.746994 0.555717
vt 0.691963 0.574130
vt 0.681031 0.571034
vt 0.906023 0.589481
vt 0.921978 0.588885
vt 0.674668 0.514620
vt 0.663273 0.566490
vt 0.647236 0.565459
vt 0.982474 0.293294
vt 0.708162 0.510406
vt 0.707872 0.572347
vt 0.740222 0.445905
vt 0.757961 0.447534
vt 0.635952 0.570217
vt 0.916171 0.519417
vt 0.906148 0.516307
vt 0.925419 0.440783
vt 0.932285 0.442913
vt 0.893227 0.588200
vt 0.898231 0.509769
vt 0.674668 0.572706
vt 0.657868 0.644442
vt 0.649394 0.639793
vt 0.994457 0.293087
vt 0.985714 0.367505
vt 0.978168 0.373614
vt 0.639862 0.635094
vt 0.967895 0.377147
vt 0.714652 0.632746
vt 0.705524 0.638157
vt 0.583089 0.552654
vt 0.577962 0.547672
vt 0.577962 0.540791
vt 0.583089 0.536043
vt 0.590340 0.536208
vt 0.595467 0.541190
vt 0.595467 0.548071
vt 0.590340 0.552820
vt 0.643184 0.711282
vt 0.636654 0.708063
vt 0.994830 0.446451
vt 0.987793 0.448872
vt 0.724723 0.707143
vt 0.718469 0.710850
vt 0.723187 0.628407
vt 0.730570 0.704170
vt 0.919995 0.436304
vt 0.648990 0.714467
vt 1.000000 0.442266
vt 0.855695 0.445037
vt 0.852656 0.557109
vt 0.805682 0.561186
vt 0.818593 0.446157
vt 0.763867 0.567705
vt 0.770226 0.451605
vt 0.247596 0.997430
vt 0.233829 0.882532
vt 0.278246 0.872717
vt 0.280017 0.988706
vt 0.321980 0.865280
vt 0.327608 0.978855
vt 0.476470 0.000656
vt 0.459396 0.113545
vt 0.414034 0.112942
vt 0.443480 0.000557
vt 0.369085 0.112326
vt 0.394648 0.000000
vt 0.815753 0.822404
vt 0.795384 0.819183
vt 0.138397 0.006841
vt 0.092894 0.111805
vt 0.047536 0.109474
vt 0.090214 0.000000
vt 0.169401 0.017340
vt 0.136983 0.120606
vt 0.476470 0.652635
vt 0.510337 0.621842
vt 0.558231 0.621578
vt 0.592098 0.651999
vt 0.592098 0.695284
vt 0.558231 0.726077
vt 0.510336 0.726341
vt 0.476470 0.695920
vt 0.025506 0.365893
vt 0.066617 0.362574
vt 0.093117 0.523862
vt 0.074631 0.524702
vt 0.422319 0.355080
vt 0.381476 0.358899
vt 0.000000 0.370738
vt 0.855695 0.821557
vt 0.203596 0.631094
vt 0.244460 0.630979
vt 0.357570 0.366830
vt 0.268056 0.630509
vt 0.344808 0.524616
vt 0.383501 0.520020
vt 0.409287 0.638956
vt 0.381854 0.641107
vt 0.327608 0.528115
vt 0.311649 0.456391
vt 0.327608 0.451931
vt 0.635952 0.638717
vt 0.596201 0.636782
vt 0.606132 0.472193
vt 0.635952 0.450171
vt 0.488872 0.004524
vt 0.524973 0.000000
vt 0.538375 0.156150
vt 0.501469 0.156637
vt 0.099250 0.362726
vt 0.132372 0.526101
vt 0.456174 0.357609
vt 0.169401 0.630786
vt 0.273667 0.462806
vt 0.710394 0.842576
vt 0.674668 0.842802
vt 0.685312 0.712970
vt 0.710394 0.710850
vt 0.278093 0.330473
vt 0.305268 0.330407
vt 0.577962 0.156291
vt 0.536179 0.283573
vt 0.500880 0.288517
vt 0.169401 0.530109
vt 0.151043 0.649539
vt 0.115603 0.648943
vt 0.421022 0.517021
vt 0.444879 0.640337
vt 0.235910 0.467419
vt 0.242559 0.333058
vt 0.476470 0.290794
vt 0.087207 0.653194
vt 0.535740 0.438624
vt 0.559747 0.444112
vt 0.541667 0.614416
vt 0.525221 0.610657
vt 0.561689 0.278858
vt 0.577962 0.454565
vt 0.408131 0.827344
vt 0.389961 0.827731
vt 0.263945 0.166828
vt 0.276603 0.153676
vt 0.138825 0.834643
vt 0.116688 0.823960
vt 0.431607 0.819213
vt 0.242710 0.178848
vt 0.550168 0.726341
vt 0.562048 0.737021
vt 0.562048 0.752313
vt 0.550167 0.763258
vt 0.533366 0.763446
vt 0.521486 0.752765
vt 0.521486 0.737474
vt 0.533367 0.726528
vt 0.135381 1.000000
vt 0.120214 0.992681
vt 0.466174 0.980991
vt 0.450092 0.986561
vt 0.231013 0.008234
vt 0.245560 0.000000
vt 0.225337 0.182695
vt 0.219111 0.010870
vt 0.554146 0.621578
vt 0.437643 0.986826
vt 0.446635 0.808100
vt 0.476470 0.973377
vn 0.7671 0.1790 -0.6160
vn 0.9911 -0.1236 0.0503
vn 0.6345 -0.3538 0.6872
vn -0.0938 -0.3767 0.9216
vn -0.7671 -0.1790 0.6161
vn -0.9911 0.1236 -0.0503
vn 0.8018 -0.3264 0.5007
vn 0.0938 0.3767 -0.9216
vn -0.6345 0.3538 -0.6872
vn -0.0949 -0.9180 -0.3850
vn 0.6274 0.1206 -0.7693
vn -0.9597 -0.2675 0.0859
vn 0.5071 0.7096 -0.4892
vn 0.9438 0.3241 -0.0646
vn 0.1280 -0.6925 0.7100
vn -0.7892 0.3910 -0.4736
vn -0.5267 -0.6560 0.5406
vn -0.1174 0.7509 -0.6499
vn -0.8077 0.3937 -0.4389
vn -0.7785 -0.1586 -0.6073
vn -0.6272 -0.1186 0.7698
vn 0.7725 0.1955 0.6041
vn 0.9728 0.2220 -0.0657
vn -0.1532 -0.0455 -0.9871
vn -0.9786 -0.1925 0.0723
vn 0.1548 0.0564 0.9863
vn 0.7537 -0.0751 0.6529
vn -0.5224 -0.2244 0.8227
vn 0.9681 0.0014 -0.2505
vn -0.1832 0.4841 -0.8556
vn -0.9584 0.0915 0.2702
vn 0.2121 -0.3777 0.9013
vn 0.8368 -0.2923 0.4629
vn 0.5307 0.3237 -0.7833
vn 0.9837 -0.1510 0.0981
vn 0.6859 0.0279 -0.7271
vn -0.7209 0.2683 -0.6390
vn -0.6391 0.0950 0.7632
vn 0.9977 -0.0679 -0.0033
vn -0.0696 0.1834 -0.9806
vn -0.9718 0.2310 0.0470
vn 0.1272 -0.0291 0.9914
vn 0.5875 0.6733 0.4489
vn 0.0849 0.3654 -0.9270
vn -0.9718 0.2289 -0.0561
vn -0.0167 -0.2818 0.9593
vn 0.6834 -0.3000 0.6655
vn 0.8196 0.1133 -0.5616
vn -0.6544 0.3859 -0.6503
vn -0.7763 -0.0398 0.6291
vn 0.7044 -0.3026 -0.6420
vn 0.9979 -0.0609 0.0222
vn 0.7068 0.2165 0.6735
vn 0.0017 0.3671 0.9302
vn -0.7044 0.3026 0.6420
vn -0.9979 0.0609 -0.0222
vn 0.8916 0.1503 0.4272
vn -0.0017 -0.3671 -0.9302
vn -0.7068 -0.2165 -0.6735
vn -0.0648 -0.9282 0.3664
vn 0.4489 -0.1410 -0.8824
vn -0.9445 0.2010 0.2597
vn 0.4580 -0.3184 -0.8300
vn 0.9501 -0.1311 -0.2831
vn 0.3031 0.3650 0.8803
vn -0.8910 -0.0856 -0.4458
vn -0.4557 0.3848 0.8027
vn -0.3054 -0.3036 -0.9025
vn -0.9395 0.0134 -0.3423
vn -0.7951 -0.5420 -0.2721
vn -0.4491 0.1430 0.8820
vn 0.7794 0.5719 0.2558
vn 0.8605 0.3238 -0.3933
vn -0.2864 -0.5131 -0.8092
vn -0.8727 -0.2958 0.3885
vn 0.2850 0.5226 0.8036
vn 0.8388 0.3539 0.4137
vn -0.3137 0.0915 0.9451
vn 0.8845 0.0459 -0.4644
vn -0.4313 0.0056 -0.9022
vn -0.8962 0.0460 0.4413
vn 0.4385 0.1130 0.8916
vn 0.9448 0.0910 0.3147
vn 0.3021 0.0147 -0.9531
vn 0.9923 0.0732 -0.1002
vn 0.5351 -0.1935 -0.8223
vn -0.8552 -0.1730 -0.4886
vn -0.5166 0.3252 0.7921
vn 0.9686 0.1023 -0.2265
vn -0.2646 -0.2960 -0.9178
vn -0.9793 0.0646 0.1918
vn 0.2815 0.4455 0.8499
vn 0.4558 0.8896 -0.0287
vn -0.1559 -0.0869 -0.9839
vn -0.9946 0.0160 0.1022
vn 0.2045 0.1860 0.9610
vn 0.8317 0.1512 0.5343
vn 0.6660 -0.0217 -0.7456
vn -0.8238 -0.0643 -0.5632
vn -0.6333 0.1238 0.7639
vn 0.5785 0.0000 -0.8157
vn 0.9858 0.0000 -0.1677
vn 0.8157 0.0000 0.5785
vn 0.1677 0.0000 0.9858
vn -0.5785 0.0000 0.8157
vn -0.9858 0.0000 0.1677
vn 0.9536 0.0407 0.2983
vn -0.1677 -0.0000 -0.9858
vn -0.8157 0.0000 -0.5785
vn -0.0000 -1.0000 -0.0000
vn 0.2846 0.2215 -0.9327
vn -0.8829 0.0302 0.4685
vn 0.3025 0.0383 -0.9524
vn 0.8844 0.0436 -0.4648
vn 0.4554 0.0359 0.8896
vn -0.9563 0.0262 -0.2913
vn -0.3050 0.0336 0.9518
vn -0.4615 0.0291 -0.8867
vn -0.9854 0.0770 -0.1520
vn -0.8317 -0.4549 -0.3185
vn -0.2848 -0.2195 0.9331
vn 0.8134 0.4876 0.3173
vn 0.7773 0.5004 -0.3813
vn -0.4266 -0.1983 -0.8824
vn -0.7901 -0.4735 0.3893
vn 0.4242 0.2091 0.8811
vn 0.8996 0.2313 0.3706
vn -0.1404 -0.2816 0.9492
vn 0.7878 0.2700 -0.5536
vn -0.5849 0.3078 -0.7504
vn -0.8033 -0.1770 0.5686
vn 0.5903 -0.1933 0.7837
vn 0.9859 0.0304 0.1647
vn 0.1278 0.3825 -0.9151
vn 0.9587 0.1690 -0.2287
vn 0.3800 0.1564 -0.9117
vn -0.9287 -0.0370 -0.3689
vn -0.3669 -0.0219 0.9300
vn 0.9130 0.2407 -0.3293
vn -0.4241 0.0444 -0.9045
vn -0.9294 -0.0737 0.3615
vn 0.4289 0.1203 0.8953
vn 0.4448 0.8658 0.2293
vn -0.3287 0.2697 -0.9051
vn -0.9606 -0.0870 0.2641
vn 0.3725 -0.1662 0.9130
vn 0.9137 -0.0016 0.4064
vn 0.5227 0.2962 -0.7994
vn -0.9109 0.0933 -0.4018
vn -0.4871 -0.2060 0.8487
g Cylinder.002_Cylinder.002_Material
usemtl Material
s 1
f 1/1/1 2/2/1 3/3/1 4/4/1
f 4/4/2 3/3/2 5/5/2 6/6/2
f 6/7/3 5/8/3 7/9/3 8/10/3
f 8/10/4 7/9/4 9/11/4 10/12/4
f 10/13/5 9/14/5 11/15/5 12/16/5
f 12/16/6 11/15/6 13/17/6 14/18/6
f 5/8/7 3/19/7 15/20/7 16/21/7
f 17/22/8 18/23/8 2/24/8 1/25/8
f 14/26/9 13/27/9 18/23/9 17/22/9
f 1/28/10 4/29/10 6/30/10 8/31/10 10/32/10 12/33/10 14/34/10 17/35/10
f 19/36/11 20/37/11 21/38/11 22/39/11
f 11/15/12 9/14/12 23/40/12 24/41/12
f 2/2/13 18/42/13 19/36/13 25/43/13
f 3/3/14 2/2/14 25/43/14 15/44/14
f 7/9/15 5/8/15 16/21/15 26/45/15
f 13/27/16 11/46/16 24/47/16 20/48/16
f 9/14/17 7/49/17 26/50/17 23/40/17
f 18/23/18 13/27/18 20/48/18 19/51/18
f 27/52/19 28/53/19 29/54/19 30/55/19
f 24/47/20 23/56/20 27/52/20 31/57/20
f 26/50/21 16/58/21 32/59/21 28/60/21
f 15/20/22 25/61/22 33/62/22 34/63/22
f 25/43/23 19/36/23 22/39/23 33/64/23
f 20/48/24 24/47/24 31/57/24 21/65/24
f 23/40/25 26/50/25 28/60/25 27/66/25
f 16/21/26 15/20/26 34/63/26 32/67/26
f 35/68/27 36/69/27 37/70/27 38/71/27
f 32/59/28 34/72/28 39/73/28 40/74/28
f 22/39/29 21/38/29 41/75/29 36/76/29
f 31/57/30 27/52/30 30/55/30 42/77/30
f 28/60/31 32/59/31 40/74/31 29/78/31
f 34/63/32 33/62/32 35/68/32 39/79/32
f 33/62/33 22/80/33 36/69/33 35/68/33
f 21/38/34 31/81/34 42/82/34 41/75/34
f 37/83/35 43/84/35 44/85/35 45/86/35
f 41/75/36 42/82/36 46/87/36 43/84/36
f 30/55/37 29/54/37 47/88/37 48/89/37
f 40/74/38 39/73/38 49/90/38 50/91/38
f 36/76/39 41/75/39 43/84/39 37/83/39
f 42/77/40 30/55/40 48/89/40 46/92/40
f 29/78/41 40/74/41 50/91/41 47/93/41
f 39/79/42 35/68/42 38/71/42 49/94/42
f 51/95/43 52/96/43 45/97/43 44/98/43 53/99/43 54/100/43 55/101/43 56/102/43
f 46/92/44 48/89/44 54/103/44 53/104/44
f 47/93/45 50/91/45 56/105/45 55/106/45
f 49/94/46 38/71/46 52/107/46 51/108/46
f 38/71/47 37/70/47 45/109/47 52/107/47
f 43/84/48 46/87/48 53/110/48 44/85/48
f 48/89/49 47/88/49 55/111/49 54/103/49
f 50/91/50 49/90/50 51/112/50 56/105/50
f 57/113/51 58/114/51 59/115/51 60/116/51
f 60/116/52 59/115/52 61/117/52 62/118/52
f 62/119/53 61/120/53 63/121/53 64/122/53
f 64/122/54 63/121/54 65/123/54 66/124/54
f 66/125/55 65/126/55 67/127/55 68/128/55
f 68/128/56 67/127/56 69/129/56 70/130/56
f 61/131/57 59/132/57 71/133/57 72/134/57
f 73/135/58 74/136/58 58/137/58 57/138/58
f 70/139/59 69/140/59 74/136/59 73/135/59
f 57/141/60 60/142/60 62/143/60 64/144/60 66/145/60 68/146/60 70/147/60 73/148/60
f 75/149/61 76/150/61 77/151/61 78/152/61
f 67/127/62 65/126/62 79/153/62 80/154/62
f 58/114/63 74/155/63 75/149/63 81/156/63
f 59/115/64 58/114/64 81/156/64 71/157/64
f 63/121/65 61/120/65 72/158/65 82/159/65
f 69/129/66 67/127/66 80/154/66 76/160/66
f 65/126/67 63/161/67 82/162/67 79/153/67
f 74/136/68 69/140/68 76/163/68 75/164/68
f 83/165/69 84/166/69 85/167/69 86/168/69
f 80/154/70 79/153/70 83/165/70 87/169/70
f 82/162/71 72/170/71 88/171/71 84/166/71
f 71/172/72 81/173/72 89/174/72 90/175/72
f 81/156/73 75/149/73 78/152/73 89/176/73
f 76/177/74 80/178/74 87/179/74 77/180/74
f 79/153/75 82/162/75 84/166/75 83/165/75
f 72/181/76 71/182/76 90/183/76 88/184/76
f 91/185/77 92/186/77 93/187/77 94/188/77
f 88/184/78 90/183/78 95/189/78 96/190/78
f 78/152/79 77/151/79 97/191/79 92/192/79
f 87/179/80 83/193/80 86/194/80 98/195/80
f 84/166/81 88/171/81 96/196/81 85/167/81
f 90/183/82 89/197/82 91/198/82 95/189/82
f 89/199/83 78/200/83 92/186/83 91/185/83
f 77/180/84 87/179/84 98/195/84 97/201/84
f 93/202/85 99/203/85 100/204/85 101/205/85
f 97/191/86 98/206/86 102/207/86 99/203/86
f 86/194/87 85/208/87 103/209/87 104/210/87
f 96/196/88 95/211/88 105/212/88 106/213/88
f 92/192/89 97/191/89 99/203/89 93/202/89
f 98/195/90 86/194/90 104/210/90 102/214/90
f 85/167/91 96/196/91 106/213/91 103/215/91
f 95/189/92 91/198/92 94/216/92 105/217/92
f 107/218/93 108/219/93 101/220/93 100/221/93 109/222/93 110/223/93 111/224/93 112/225/93
f 102/214/94 104/210/94 110/226/94 109/227/94
f 103/215/95 106/213/95 112/228/95 111/229/95
f 105/217/96 94/216/96 108/230/96 107/231/96
f 94/216/97 93/232/97 101/233/97 108/230/97
f 99/203/98 102/207/98 109/234/98 100/204/98
f 104/210/99 103/209/99 111/235/99 110/226/99
f 106/213/100 105/212/100 107/236/100 112/228/100
f 113/237/101 114/238/101 115/239/101 116/240/101
f 116/240/102 115/239/102 117/241/102 118/242/102
f 118/243/103 117/244/103 119/245/103 120/246/103
f 120/246/104 119/245/104 121/247/104 122/248/104
f 122/249/105 121/250/105 123/251/105 124/252/105
f 124/252/106 123/251/106 125/253/106 126/254/106
f 117/241/107 115/239/107 127/255/107 128/256/107
f 129/257/108 130/258/108 114/259/108 113/260/108
f 126/261/109 125/262/109 130/258/109 129/257/109
f 113/263/110 116/264/110 118/265/110 120/266/110 122/267/110 124/268/110 126/269/110 129/270/110
f 131/271/111 132/272/111 133/273/111 134/274/111
f 123/251/112 121/250/112 135/275/112 136/276/112
f 114/259/113 130/258/113 131/271/113 137/277/113
f 115/239/114 114/238/114 137/278/114 127/255/114
f 119/245/115 117/244/115 128/279/115 138/280/115
f 125/253/116 123/251/116 136/276/116 132/281/116
f 121/247/117 119/245/117 138/280/117 135/282/117
f 130/258/118 125/262/118 132/272/118 131/271/118
f 139/283/119 140/284/119 141/285/119 142/286/119
f 136/276/120 135/275/120 139/283/120 143/287/120
f 138/280/121 128/279/121 144/288/121 140/289/121
f 127/290/122 137/291/122 145/292/122 146/293/122
f 137/294/123 131/295/123 134/296/123 145/297/123
f 132/272/124 136/298/124 143/299/124 133/273/124
f 135/275/125 138/300/125 140/284/125 139/283/125
f 128/279/126 127/301/126 146/302/126 144/288/126
f 147/303/127 148/304/127 149/305/127 150/306/127
f 144/288/128 146/302/128 151/307/128 152/308/128
f 134/296/129 133/309/129 153/310/129 148/311/129
f 143/299/130 139/312/130 142/313/130 154/314/130
f 140/284/131 144/315/131 152/316/131 141/285/131
f 146/302/132 145/317/132 147/318/132 151/307/132
f 145/297/133 134/296/133 148/311/133 147/319/133
f 133/273/134 143/299/134 154/314/134 153/320/134
f 149/321/135 155/322/135 156/323/135 157/324/135
f 153/310/136 154/325/136 158/326/136 155/322/136
f 142/286/137 141/285/137 159/327/137 160/328/137
f 152/308/138 151/307/138 161/329/138 162/330/138
f 148/311/139 153/310/139 155/322/139 149/321/139
f 154/314/140 142/313/140 160/331/140 158/332/140
f 141/285/141 152/316/141 162/333/141 159/327/141
f 151/307/142 147/318/142 150/334/142 161/329/142
f 163/335/143 164/336/143 157/337/143 156/338/143 165/339/143 166/340/143 167/341/143 168/342/143
f 158/332/144 160/331/144 166/343/144 165/344/144
f 159/327/145 162/333/145 168/345/145 167/346/145
f 161/329/146 150/334/146 164/347/146 163/348/146
f 150/334/147 149/349/147 157/350/147 164/347/147
f 155/322/148 158/326/148 165/351/148 156/323/148
f 160/328/149 159/327/149 167/346/149 166/352/149
f 162/333/150 161/353/150 163/354/150 168/345/150
