# Blender v2.82 (sub 7) OBJ File: 'chickWalking.blend'
# www.blender.org
mtllib chickWalking_000008.mtl
o Icosphere.001_Icosphere.002
v 2.832759 3.449712 -0.153496
v -2.894416 6.510093 -1.796859
v 2.356431 5.475133 -3.326377
v 4.643633 5.211479 -0.108468
v 2.270268 5.643343 3.087524
v -3.018437 5.992858 1.663323
v -0.373370 8.942057 -2.703586
v 5.436889 7.810582 -1.838741
v 5.121667 7.712533 1.713648
v -0.436825 8.386683 2.926979
v -3.984504 12.140350 -0.551444
v -0.105342 10.464031 0.372992
v 2.315381 3.893381 -1.995021
v -0.613022 3.654964 -1.390588
v -0.218028 4.541945 -3.274894
v -3.562002 5.911946 -0.098147
v -0.285641 4.159266 1.214025
v 3.444249 4.103184 -0.120223
v 3.991220 5.158893 -1.993926
v 2.692358 4.507218 1.833732
v 3.863464 5.054984 1.770556
v 0.109700 5.116764 3.101427
v -4.013263 7.429443 -1.004316
v -4.017856 7.105093 1.025013
v 0.499807 6.961535 -3.857194
v -2.613588 8.153236 -2.593355
v 5.046628 6.568158 -1.259314
v 3.459430 6.788992 -3.148361
v 3.295975 6.732193 2.935319
v 4.737715 6.426563 1.078619
v -2.701072 7.389415 2.728428
v 0.417073 6.953272 3.666028
v -4.826283 11.711435 -0.538193
v 3.395540 8.334658 -2.777361
v 6.062424 7.845309 -0.139794
v 3.131635 8.190189 2.608754
v -4.883370 12.543224 1.045479
v -0.439253 10.126049 -1.347674
v -5.372855 11.879147 1.501190
v 4.426689 8.951698 -1.023263
v 4.178485 8.952006 1.113882
v -0.408222 9.727612 1.938082
v -4.995765 10.181900 1.347051
v -5.870610 11.848420 0.482281
v -3.845015 10.398124 -1.263383
v -2.758678 11.141716 -1.259900
v -5.810873 10.620302 0.173187
v -2.338001 11.763693 -0.329789
v -1.818813 11.777902 0.806644
v -2.264753 11.367563 1.906057
v -2.501406 10.452520 2.518919
v -5.325228 10.543055 -0.019260
v -3.539502 9.705929 2.320843
v -4.534417 12.541973 0.148423
v -4.460387 12.243280 1.897495
v -3.482073 12.552544 0.145262
v -4.093667 12.710531 1.087075
v -3.125038 12.530547 1.042234
v -3.452237 12.263067 1.901901
v -3.781710 11.591936 2.408163
v -5.377319 12.046724 0.412614
v -4.667722 11.210344 2.283121
v -5.489479 10.303637 1.237583
v -5.849975 11.711620 1.364283
v -0.846551 10.938830 0.533543
v -1.382372 10.791726 -0.893535
v -3.105103 7.815771 2.460463
v -4.395201 8.051846 1.042068
v -4.428915 8.133800 -0.760946
v -1.363968 9.785578 -2.179718
v -3.169337 8.650220 -2.203592
v -1.267723 9.115321 2.703982
v -1.237592 10.298244 1.889721
v 6.411724 8.509954 -0.183439
v 6.133217 8.410299 0.762203
v 5.623552 9.065013 -0.580796
v 6.106984 8.455253 -1.027280
v 5.517123 9.093266 0.511771
v -7.055092 11.263408 0.849888
v 1.547590 1.908975 -2.134450
v 1.494165 1.589328 -0.913550
v -0.168605 1.789965 -1.391710
v -0.144916 2.355942 -2.613905
v 0.989451 1.566545 -1.954062
v 0.908238 1.599684 -1.445404
v 0.292732 1.643638 -1.687419
v 0.330454 1.699860 -2.221931
v 0.005202 0.408056 -2.041733
v -0.046975 0.436714 -1.613263
v -0.589085 0.404640 -1.779923
v -0.606053 0.468143 -2.226047
v -0.036296 0.141978 -2.063608
v -0.080800 0.152546 -1.633938
v -0.553954 0.093926 -1.801017
v -0.571067 0.159643 -2.247316
v 0.188645 0.341814 -1.945545
v 0.158988 0.369017 -1.669748
v 0.167600 0.170632 -1.959939
v 0.140391 0.181264 -1.682870
v -2.361625 0.218220 -2.473734
v -2.348153 -0.114687 -2.501516
v -2.331921 0.110968 -1.619765
v -2.318448 -0.221940 -1.647548
v -2.502449 1.282000 1.449020
v -2.482087 1.615340 1.433202
v -2.508201 1.360187 2.306633
v -2.487839 1.693527 2.290815
v -0.062121 1.381580 1.463688
v -0.045722 1.356516 1.741208
v 0.004341 1.543691 1.456759
v 0.016709 1.487991 1.734475
v -0.716346 1.460896 2.029104
v -0.712752 1.410264 1.580531
v -0.271275 1.415165 1.411587
v -0.237891 1.385571 1.841261
v -0.714547 1.777685 2.018928
v -0.716802 1.720490 1.570441
v -0.153981 1.640657 1.400862
v -0.126803 1.588243 1.830711
v 0.718681 2.598131 2.038461
v 0.672723 2.571465 1.502196
v 1.233787 2.291060 1.276474
v 1.271556 2.227266 1.786701
v 0.374175 3.101889 2.441303
v 0.328971 2.558926 1.216616
v 1.865267 2.176775 0.725793
v 1.962956 2.474792 1.977253
vt 0.111002 0.855096
vt 0.188309 0.855096
vt 0.188309 0.932403
vt 0.111002 0.932403
vt 0.111002 0.855096
vt 0.188309 0.855096
vt 0.188309 0.932403
vt 0.111002 0.855096
vt 0.188309 0.855096
vt 0.188309 0.932403
vt 0.188309 0.855096
vt 0.188309 0.932403
vt 0.188309 0.855096
vt 0.188309 0.932403
vt 0.111002 0.855096
vt 0.188309 0.855096
vt 0.188309 0.932403
vt 0.111002 0.855096
vt 0.188309 0.855096
vt 0.188309 0.932403
vt 0.111002 0.855096
vt 0.188309 0.855096
vt 0.188309 0.932403
vt 0.111002 0.855096
vt 0.188309 0.855096
vt 0.188309 0.932403
vt 0.188309 0.855096
vt 0.188309 0.932403
vt 0.188309 0.855096
vt 0.188309 0.932403
vt 0.188309 0.855096
vt 0.188309 0.932403
vt 0.188309 0.855096
vt 0.188309 0.932403
vt 0.188309 0.855096
vt 0.188309 0.932403
vt 0.111002 0.855096
vt 0.188309 0.855096
vt 0.188309 0.932403
vt 0.111002 0.855096
vt 0.188309 0.855096
vt 0.188309 0.932403
vt 0.111002 0.855096
vt 0.188309 0.855096
vt 0.188309 0.932403
vt 0.111002 0.932403
vt 0.111002 0.855096
vt 0.188309 0.855096
vt 0.188309 0.932403
vt 0.111002 0.855096
vt 0.188309 0.855096
vt 0.188309 0.932403
vt 0.111002 0.855096
vt 0.188309 0.855096
vt 0.188309 0.855096
vt 0.111002 0.855096
vt 0.188309 0.932403
vt 0.111002 0.855096
vt 0.188309 0.855096
vt 0.188309 0.932403
vt 0.188309 0.932403
vt 0.111002 0.855096
vt 0.188309 0.855096
vt 0.111002 0.855096
vt 0.188309 0.855096
vt 0.111002 0.855096
vt 0.188309 0.932403
vt 0.111002 0.932403
vt 0.188309 0.932403
vt 0.111002 0.932403
vt 0.188309 0.855096
vt 0.188309 0.932403
vt 0.111002 0.855096
vt 0.188309 0.855096
vt 0.111002 0.855096
vt 0.188309 0.855096
vt 0.188309 0.932403
vt 0.111002 0.855096
vt 0.188309 0.855096
vt 0.188309 0.932403
vt 0.111002 0.932403
vt 0.111002 0.855096
vt 0.188309 0.855096
vt 0.188309 0.932403
vt 0.111002 0.932403
vt 0.111002 0.855096
vt 0.188309 0.855096
vt 0.188309 0.932403
vt 0.111002 0.932403
vt 0.111002 0.855096
vt 0.188309 0.855096
vt 0.188309 0.932403
vt 0.111002 0.932403
vt 0.111002 0.855096
vt 0.188309 0.855096
vt 0.188309 0.932403
vt 0.111002 0.932403
vt 0.111002 0.855096
vt 0.188309 0.932403
vt 0.188309 0.932403
vt 0.111002 0.855096
vt 0.111002 0.855096
vt 0.188309 0.932403
vt 0.188309 0.932403
vt 0.111002 0.855096
vt 0.188309 0.855096
vt 0.111002 0.855096
vt 0.188309 0.932403
vt 0.188309 0.932403
vt 0.111002 0.855096
vt 0.111002 0.855096
vt 0.188309 0.855096
vt 0.188309 0.932403
vt 0.111002 0.932403
vt 0.111002 0.855096
vt 0.188309 0.855096
vt 0.188309 0.932403
vt 0.111002 0.932403
vt 0.111002 0.855096
vt 0.188309 0.855096
vt 0.188309 0.932403
vt 0.111002 0.932403
vt 0.111002 0.855096
vt 0.188309 0.855096
vt 0.111002 0.855096
vt 0.188309 0.855096
vt 0.188309 0.855096
vt 0.111002 0.855096
vt 0.188309 0.855096
vt 0.188309 0.855096
vt 0.111002 0.855096
vt 0.188309 0.855096
vt 0.188309 0.855096
vt 0.188309 0.932403
vt 0.111002 0.855096
vt 0.188309 0.855096
vt 0.111002 0.855096
vt 0.188309 0.855096
vt 0.188309 0.932403
vt 0.111002 0.932403
vt 0.111002 0.855096
vt 0.111002 0.855096
vt 0.188309 0.855096
vt 0.111002 0.855096
vt 0.188309 0.932403
vt 0.111002 0.855096
vt 0.188309 0.932403
vt 0.188309 0.932403
vt 0.111002 0.855096
vt 0.188309 0.932403
vt 0.188309 0.932403
vt 0.188309 0.855096
vt 0.188309 0.932403
vt 0.111002 0.855096
vt 0.188309 0.932403
vt 0.188309 0.932403
vt 0.111002 0.855096
vt 0.188309 0.855096
vt 0.188309 0.932403
vt 0.111002 0.932403
vt 0.111002 0.855096
vt 0.188309 0.855096
vt 0.188309 0.932403
vt 0.111002 0.932403
vt 0.111002 0.855096
vt 0.188309 0.855096
vt 0.188309 0.932403
vt 0.111002 0.932403
vt 0.111002 0.855096
vt 0.188309 0.855096
vt 0.111002 0.855096
vt 0.188309 0.855096
vt 0.111002 0.932403
vt 0.111002 0.855096
vt 0.188309 0.855096
vt 0.111002 0.932403
vt 0.188309 0.855096
vt 0.188309 0.932403
vt 0.111002 0.932403
vt 0.111002 0.855096
vt 0.188309 0.932403
vt 0.111002 0.932403
vt 0.111002 0.855096
vt 0.188309 0.855096
vt 0.111002 0.932403
vt 0.111002 0.855096
vt 0.188309 0.855096
vt 0.188309 0.932403
vt 0.111002 0.932403
vt 0.111002 0.855096
vt 0.188309 0.855096
vt 0.111002 0.855096
vt 0.188309 0.855096
vt 0.111002 0.855096
vt 0.188309 0.932403
vt 0.188309 0.932403
vt 0.188309 0.855096
vt 0.188309 0.932403
vt 0.111002 0.855096
vt 0.111002 0.855096
vt 0.188309 0.855096
vt 0.188309 0.855096
vt 0.188309 0.932403
vt 0.111002 0.932403
vt 0.111002 0.855096
vt 0.188309 0.932403
vt 0.111002 0.932403
vt 0.111002 0.855096
vt 0.188309 0.932403
vt 0.111002 0.932403
vt 0.188309 0.855096
vt 0.188309 0.932403
vt 0.111002 0.932403
vt 0.188309 0.855096
vt 0.188309 0.932403
vt 0.111002 0.932403
vt 0.111002 0.855096
vt 0.188309 0.932403
vt 0.111002 0.932403
vt 0.188309 0.855096
vt 0.188309 0.932403
vt 0.111002 0.932403
vt 0.111002 0.855096
vt 0.188309 0.932403
vt 0.111002 0.932403
vt 0.111002 0.855096
vt 0.188309 0.932403
vt 0.111002 0.932403
vt 0.111002 0.855096
vt 0.188309 0.855096
vt 0.111002 0.855096
vt 0.188309 0.932403
vt 0.111002 0.855096
vt 0.188309 0.855096
vt 0.111002 0.932403
vt 0.111002 0.855096
vt 0.188309 0.932403
vt 0.111002 0.932403
vt 0.188309 0.855096
vt 0.188309 0.932403
vt 0.111002 0.932403
vt 0.371435 0.855096
vt 0.448742 0.855096
vt 0.448742 0.932403
vt 0.371435 0.855096
vt 0.448742 0.855096
vt 0.371435 0.855096
vt 0.448742 0.855096
vt 0.371435 0.855096
vt 0.448742 0.855096
vt 0.111002 0.855096
vt 0.188309 0.855096
vt 0.188309 0.932403
vt 0.111002 0.932403
vt 0.111002 0.855096
vt 0.188309 0.855096
vt 0.188309 0.932403
vt 0.111002 0.932403
vt 0.188309 0.932403
vt 0.111002 0.932403
vt 0.188309 0.932403
vt 0.111002 0.932403
vt 0.188309 0.932403
vt 0.111002 0.932403
vt 0.371435 0.855096
vt 0.448742 0.855096
vt 0.448742 0.932403
vt 0.371435 0.932403
vt 0.371435 0.855096
vt 0.448742 0.855096
vt 0.448742 0.932403
vt 0.371435 0.932403
vt 0.111002 0.855096
vt 0.188309 0.855096
vt 0.188309 0.932403
vt 0.111002 0.932403
vt 0.111002 0.855096
vt 0.188309 0.855096
vt 0.188309 0.932403
vt 0.111002 0.932403
vt 0.371435 0.855096
vt 0.448742 0.855096
vt 0.448742 0.932403
vt 0.371435 0.932403
vt 0.371435 0.855096
vt 0.448742 0.855096
vt 0.448742 0.932403
vt 0.371435 0.932403
vt 0.371435 0.855096
vt 0.448742 0.855096
vt 0.448742 0.932403
vt 0.371435 0.932403
vt 0.371435 0.855096
vt 0.448742 0.855096
vt 0.448742 0.932403
vt 0.371435 0.932403
vt 0.371435 0.855096
vt 0.448742 0.855096
vt 0.371435 0.855096
vt 0.448742 0.932403
vt 0.448742 0.932403
vt 0.371435 0.932403
vt 0.371435 0.855096
vt 0.448742 0.855096
vt 0.448742 0.932403
vt 0.371435 0.932403
vt 0.371435 0.855096
vt 0.448742 0.855096
vt 0.448742 0.932403
vt 0.448742 0.855096
vt 0.448742 0.932403
vt 0.371435 0.932403
vt 0.448742 0.855096
vt 0.371435 0.932403
vt 0.371435 0.855096
vt 0.448742 0.855096
vt 0.448742 0.932403
vt 0.371435 0.932403
vt 0.371435 0.855096
vt 0.448742 0.855096
vt 0.448742 0.932403
vt 0.371435 0.932403
vt 0.371435 0.855096
vt 0.448742 0.932403
vt 0.448742 0.855096
vt 0.371435 0.932403
vt 0.371435 0.855096
vt 0.448742 0.932403
vt 0.371435 0.932403
vt 0.371435 0.855096
vt 0.448742 0.855096
vt 0.448742 0.932403
vt 0.371435 0.932403
vt 0.371435 0.855096
vt 0.448742 0.855096
vt 0.448742 0.932403
vt 0.371435 0.932403
vt 0.371435 0.855096
vt 0.448742 0.855096
vt 0.448742 0.932403
vt 0.371435 0.932403
vt 0.371435 0.855096
vt 0.371435 0.932403
vt 0.371435 0.855096
vt 0.448742 0.855096
vt 0.448742 0.932403
vt 0.371435 0.932403
vt 0.371435 0.855096
vt 0.448742 0.855096
vt 0.448742 0.932403
vt 0.371435 0.932403
vt 0.371435 0.855096
vt 0.448742 0.855096
vt 0.448742 0.932403
vt 0.371435 0.932403
vt 0.371435 0.855096
vt 0.448742 0.855096
vt 0.371435 0.932403
vt 0.448742 0.855096
vt 0.448742 0.932403
vt 0.371435 0.855096
vt 0.448742 0.932403
vt 0.371435 0.932403
vt 0.448742 0.855096
vt 0.448742 0.855096
vt 0.371435 0.855096
vt 0.448742 0.855096
vt 0.448742 0.932403
vt 0.371435 0.932403
vt 0.371435 0.855096
vt 0.448742 0.855096
vt 0.448742 0.932403
vt 0.371435 0.932403
vt 0.371435 0.855096
vt 0.448742 0.855096
vt 0.448742 0.932403
vt 0.371435 0.932403
vt 0.448742 0.932403
vt 0.111002 0.855096
vt 0.188309 0.855096
vt 0.188309 0.932403
vt 0.111002 0.932403
vt 0.111002 0.855096
vt 0.188309 0.855096
vt 0.188309 0.932403
vt 0.111002 0.932403
vt 0.371435 0.855096
vt 0.448742 0.855096
vt 0.448742 0.932403
vt 0.371435 0.932403
vt 0.371435 0.855096
vt 0.448742 0.855096
vt 0.448742 0.932403
vt 0.371435 0.932403
vt 0.188309 0.855096
vt 0.188309 0.932403
vt 0.111002 0.932403
vt 0.188309 0.855096
vt 0.188309 0.932403
vt 0.111002 0.932403
vt 0.111002 0.855096
vt 0.188309 0.855096
vt 0.188309 0.932403
vt 0.111002 0.932403
vt 0.111002 0.855096
vt 0.188309 0.855096
vt 0.188309 0.932403
vt 0.111002 0.932403
vt 0.188309 0.855096
vt 0.188309 0.932403
vt 0.111002 0.932403
vt 0.188309 0.855096
vt 0.188309 0.932403
vt 0.111002 0.932403
vn 0.8742 -0.4233 -0.2379
vn -0.6611 -0.5932 -0.4594
vn -0.6733 -0.5998 -0.4323
vn -0.6574 -0.5917 -0.4667
vn 0.6936 -0.6313 -0.3470
vn 0.6632 -0.6403 0.3876
vn -0.7350 -0.4952 -0.4632
vn 0.0727 -0.2537 -0.9646
vn 0.8328 -0.4805 -0.2748
vn 0.5074 -0.3691 0.7787
vn -0.4740 -0.4633 0.7488
vn -0.6789 -0.2231 -0.6996
vn 0.2291 -0.0607 -0.9715
vn 0.9747 -0.1901 0.1173
vn 0.2386 -0.0896 0.9670
vn -0.7290 -0.3026 0.6140
vn 0.1803 0.9824 -0.0477
vn 0.4270 0.7446 -0.5130
vn 0.7747 -0.5614 0.2909
vn 0.1039 0.5889 0.8015
vn -0.0154 0.6069 0.7946
vn -0.0192 0.8699 0.4928
vn 0.1866 0.9157 0.3559
vn -0.2094 0.8851 0.4156
vn 0.2269 0.8636 0.4503
vn 0.2354 0.7893 0.5671
vn 0.4378 0.6391 0.6323
vn 0.3268 0.9443 0.0378
vn -0.1011 0.9947 -0.0199
vn 0.2968 0.5772 0.7608
vn 0.2428 0.9419 -0.2321
vn 0.2381 0.8639 -0.4439
vn 0.1084 0.7514 -0.6509
vn -0.0102 0.8638 -0.5037
vn 0.3432 0.7261 -0.5957
vn -0.6725 -0.2024 0.7119
vn 0.6423 0.6007 0.4760
vn 0.5859 0.7572 -0.2888
vn -0.1624 0.0153 0.9866
vn 0.1042 0.5041 0.8573
vn 0.2561 0.2387 0.9367
vn 0.4458 0.2432 0.8614
vn 0.8160 -0.4328 0.3832
vn 0.7548 -0.6531 0.0602
vn 0.8575 -0.4127 -0.3073
vn 0.4542 0.2256 -0.8618
vn 0.2393 0.2360 -0.9418
vn 0.0679 0.5243 -0.8488
vn -0.9435 -0.3255 0.0626
vn -0.7016 0.0229 -0.7122
vn -0.2372 0.3780 -0.8949
vn -0.2279 0.3355 0.9141
vn -0.3097 -0.2317 0.9222
vn 0.0805 -0.3052 0.9489
vn 0.6511 -0.4834 0.5852
vn 0.7639 -0.1733 0.6217
vn 0.8631 -0.3856 0.3262
vn 0.6431 -0.4802 -0.5965
vn 0.7351 -0.2154 -0.6428
vn 0.5476 -0.3572 -0.7566
vn -0.1943 0.4284 -0.8825
vn -0.4063 -0.0981 -0.9085
vn -0.6064 -0.2605 -0.7512
vn 0.4392 0.4664 0.7678
vn -0.9483 -0.3132 -0.0522
vn -0.7880 -0.5539 0.2686
vn -0.4337 -0.7636 0.4783
vn 0.3361 -0.6388 0.6920
vn 0.4140 -0.8466 0.3344
vn 0.6617 -0.7183 0.2149
vn 0.6646 -0.7170 -0.2100
vn 0.5814 -0.7696 -0.2639
vn 0.4418 -0.5844 -0.6807
vn -0.5231 -0.8286 0.1995
vn -0.5281 -0.8188 0.2249
vn -0.1311 -0.9701 0.2043
vn 0.2143 -0.6322 -0.7445
vn 0.1750 -0.6996 0.6928
vn -0.6768 -0.6012 -0.4249
vn -0.6270 0.0593 -0.7768
vn -0.5876 -0.3230 0.7419
vn -0.2117 -0.9546 -0.2095
vn -0.2070 -0.9692 -0.1334
vn 0.5199 0.7228 0.4553
vn 0.3396 0.4583 0.8214
vn -0.1296 -0.0625 0.9896
vn -0.2198 0.3539 -0.9091
vn 0.4786 0.8543 -0.2030
vn 0.2535 0.7448 -0.6173
vn -0.3952 0.4910 0.7764
vn -0.0104 0.9850 -0.1720
vn -0.2026 0.9760 -0.0802
vn -0.4992 0.7094 0.4976
vn -0.4932 0.3894 0.7779
vn -0.2896 0.3852 0.8762
vn -0.3501 0.6669 -0.6578
vn -0.5455 0.6395 -0.5417
vn -0.5437 0.8119 -0.2126
vn -0.7666 0.6342 0.1008
vn -0.1994 -0.9645 -0.1732
vn 0.3026 0.5494 0.7788
vn -0.2012 0.3825 -0.9018
vn -0.6953 -0.1981 -0.6909
vn -0.9031 -0.4277 -0.0385
vn -0.2077 0.1861 0.9603
vn 0.4743 0.8409 -0.2606
vn 0.5139 0.7224 0.4626
vn -0.7292 -0.3028 0.6136
vn 0.2734 0.7448 -0.6087
vn 0.6640 0.6976 0.2691
vn 0.5641 0.8250 0.0336
vn 0.6429 0.7136 -0.2784
vn 0.1989 0.6790 -0.7066
vn 0.8301 -0.4781 -0.2869
vn -0.3832 0.7787 -0.4967
vn -0.3578 0.9221 0.1470
vn -0.5009 -0.8592 -0.1044
vn -0.3822 0.2080 -0.9004
vn -0.4001 0.9042 0.1496
vn -0.3332 -0.1688 0.9276
vn -0.6067 -0.7424 -0.2841
vn 0.3134 -0.9405 -0.1314
vn -0.9665 -0.1566 -0.2035
vn -0.3244 -0.1140 0.9390
vn 0.3402 -0.1723 -0.9244
vn -0.8052 0.5904 0.0550
vn -0.3278 0.1496 0.9328
vn 0.1474 -0.5010 -0.8528
vn -0.1622 -0.9695 0.1837
vn 0.3092 0.0677 -0.9486
vn -0.1554 0.9787 0.1341
vn 0.3003 -0.2055 -0.9314
vn 0.7507 -0.6436 0.1493
vn 0.1104 -0.9932 0.0359
vn 0.0176 -0.9891 -0.1463
vn 0.4591 0.0080 -0.8883
vn -0.3061 -0.0673 0.9496
vn 0.9870 -0.1174 0.1096
vn 0.1282 -0.9908 0.0427
vn 0.2303 -0.0949 0.9685
vn 0.3284 0.9438 -0.0367
vn -0.9986 -0.0429 0.0294
vn 0.1005 -0.0678 0.9926
vn 0.1277 0.0852 -0.9881
vn 0.1666 -0.9766 -0.1359
vn 0.0675 -0.9929 0.0984
vn 0.1505 0.0344 0.9880
vn 0.0781 -0.0421 -0.9961
vn -0.9981 0.0604 -0.0122
vn 0.5534 0.8274 0.0955
vn 0.2285 -0.1521 -0.9616
vn -0.1614 -0.9848 -0.0647
vn 0.9087 -0.4039 -0.1058
vn -0.3172 0.0302 -0.9479
vn 0.4423 -0.1843 0.8777
vn -0.1121 -0.9875 0.1106
vn -0.0148 -0.9976 -0.0676
vn 0.4089 -0.9018 -0.1397
vn 0.1856 -0.3447 0.9202
vn -0.0570 0.9930 -0.1031
vn 0.3252 -0.0330 0.9451
vn -0.2864 -0.9570 0.0466
vn -0.0220 -0.6134 0.7895
vn -0.2282 0.3034 -0.9252
vn -0.5095 0.8591 -0.0482
vn -0.4060 -0.2222 -0.8864
vn -0.9255 -0.2728 0.2626
vn 0.1319 -0.9839 0.1207
vn -0.5237 -0.8022 0.2866
vn 0.8966 -0.4043 0.1810
vn 0.3385 -0.1573 0.9277
g Icosphere.001_Icosphere.002_chickMaterial
usemtl chickMaterial
s 1
f 13/1/1 1/2/1 81/3/1 80/4/1
f 2/5/2 14/6/3 16/7/4
f 1/8/5 13/9/5 18/10/5
f 1/8/6 18/11/6 20/12/6
f 2/5/7 16/13/7 23/14/7
f 3/15/8 15/16/8 25/17/8
f 4/18/9 19/19/9 27/20/9
f 5/21/10 21/22/10 29/23/10
f 6/24/11 22/25/11 31/26/11
f 2/5/12 23/27/12 26/28/12
f 3/15/13 25/29/13 28/30/13
f 4/18/14 27/31/14 30/32/14
f 5/21/15 29/33/15 32/34/15
f 6/24/16 31/35/16 24/36/16
f 56/37/17 57/38/17 58/39/17
f 8/40/18 34/41/18 40/42/18
f 9/43/19 35/44/19 74/45/19 75/46/19
f 10/47/20 36/48/20 42/49/20
f 55/50/21 60/51/21 59/52/21
f 57/53/22 55/54/22 59/52/22
f 57/53/23 59/55/23 58/39/23
f 37/56/24 55/54/24 57/57/24
f 42/58/25 41/59/25 12/60/25
f 42/58/26 36/48/26 41/61/26
f 36/62/27 9/63/27 41/61/27
f 41/64/28 40/65/28 12/60/28
f 40/66/29 41/59/29 78/67/29 76/68/29
f 41/64/30 9/63/30 75/69/30 78/70/30
f 40/66/31 38/71/31 12/60/31
f 40/66/32 34/41/32 38/72/32
f 34/73/33 7/74/33 38/72/33
f 11/75/34 54/76/34 56/77/34
f 66/78/35 70/79/35 46/80/35 48/81/35
f 68/82/36 67/83/36 53/84/36 43/85/36
f 73/86/37 65/87/37 49/88/37 50/89/37
f 65/90/38 66/91/38 48/92/38 49/93/38
f 67/94/39 72/95/39 51/96/39 53/97/39
f 32/98/40 36/48/40 10/99/40
f 32/98/41 29/33/41 36/100/41
f 29/101/42 9/63/42 36/100/42
f 30/102/43 35/44/43 9/103/43
f 30/102/44 27/31/44 35/104/44
f 27/105/45 8/106/45 35/104/45
f 28/107/46 34/41/46 8/108/46
f 28/107/47 25/29/47 34/109/47
f 25/110/48 7/74/48 34/109/48
f 69/111/49 68/112/49 43/113/49 52/114/49
f 71/115/50 69/116/50 52/117/50 45/118/50
f 70/119/51 71/120/51 45/121/51 46/122/51
f 31/123/52 32/124/52 10/99/52
f 31/123/53 22/25/53 32/34/53
f 22/125/54 5/126/54 32/34/54
f 29/101/55 30/127/55 9/103/55
f 29/101/56 21/22/56 30/32/56
f 21/128/57 4/129/57 30/32/57
f 27/105/58 28/130/58 8/108/58
f 27/105/59 19/19/59 28/30/59
f 19/131/60 3/132/60 28/30/60
f 25/110/61 26/133/61 7/134/61
f 25/110/62 15/16/62 26/28/62
f 15/135/63 2/136/63 26/28/63
f 72/137/64 73/138/64 50/139/64 51/140/64
f 23/141/65 16/13/65 24/36/65
f 16/142/66 6/143/66 24/36/66
f 17/144/67 22/25/67 6/145/67
f 20/146/68 21/22/68 5/147/68
f 20/146/69 18/11/69 21/148/69
f 18/149/70 4/129/70 21/148/70
f 18/149/71 19/19/71 4/150/71
f 18/149/72 13/9/72 19/151/72
f 13/1/73 3/132/73 19/151/73
f 16/142/74 17/152/74 6/145/74
f 16/142/75 14/6/75 17/153/75
f 14/154/76 1/2/76 17/153/76
f 13/1/77 15/16/77 3/155/77
f 5/21/78 22/25/78 20/12/78
f 14/154/3 2/136/2 15/156/79
f 33/157/80 45/158/80 47/159/80 44/160/80
f 53/161/81 62/162/81 64/163/81 63/164/81
f 52/165/82 43/166/82 63/167/82 47/168/82
f 45/169/83 52/170/83 47/159/83
f 50/171/84 49/172/84 58/39/84 59/173/84
f 51/174/85 50/175/85 59/52/85 60/176/85
f 53/161/86 51/177/86 60/178/86 62/179/86
f 46/180/87 45/158/87 33/181/87 11/182/87
f 49/183/88 48/184/88 56/77/88 58/185/88
f 48/186/89 46/187/89 11/188/89 56/189/89
f 62/190/90 39/191/90 64/163/90
f 56/37/91 54/76/91 57/57/91
f 54/192/92 37/193/92 57/57/92
f 39/194/93 55/54/93 37/195/93
f 39/194/94 62/162/94 55/196/94
f 62/190/95 60/51/95 55/196/95
f 33/157/96 54/76/96 11/188/96
f 33/157/97 61/197/97 54/198/97
f 61/199/98 37/193/98 54/198/98
f 61/199/99 39/191/99 37/195/99
f 43/200/100 53/201/100 63/167/100
f 10/47/101 42/202/101 73/203/101 72/204/101
f 7/205/102 26/133/102 71/206/102 70/207/102
f 26/208/103 23/27/103 69/209/103 71/210/103
f 23/141/104 24/211/104 68/212/104 69/213/104
f 31/123/105 10/214/105 72/215/105 67/216/105
f 12/217/106 38/71/106 66/218/106 65/219/106
f 42/58/107 12/220/107 65/221/107 73/222/107
f 24/223/108 31/35/108 67/224/108 68/225/108
f 38/226/109 7/74/109 70/227/109 66/228/109
f 75/229/110 74/230/110 78/67/110
f 78/231/111 74/230/111 76/232/111
f 74/233/112 77/234/112 76/232/112
f 8/40/113 40/65/113 76/232/113 77/235/113
f 35/236/114 8/106/114 77/237/114 74/238/114
f 61/199/115 33/239/115 44/240/115
f 39/194/116 61/197/116 44/240/116 64/241/116
f 47/242/117 63/243/117 79/244/117
f 44/245/118 47/246/118 79/244/118
f 64/247/119 44/248/119 79/244/119
f 63/249/120 64/250/120 79/244/120
f 82/251/121 83/252/121 87/253/121 86/254/121
f 80/255/122 81/256/122 85/257/122 84/258/122
f 14/154/123 15/16/123 83/259/123 82/260/123
f 1/8/124 14/6/124 82/261/124 81/262/124
f 15/135/125 13/9/125 80/263/125 83/264/125
f 86/265/126 87/266/126 91/267/126 90/268/126
f 85/269/127 86/270/127 90/271/127 89/272/127
f 83/273/128 80/274/128 84/275/128 87/276/128
f 81/277/129 82/278/129 86/279/129 85/280/129
f 91/281/130 88/282/130 92/283/130 95/284/130
f 90/285/131 91/286/131 100/287/131 102/288/131
f 87/289/132 84/290/132 88/291/132 91/292/132
f 84/293/133 85/294/133 89/295/133 88/296/133
f 93/297/134 94/298/134 92/283/134
f 92/299/135 94/298/135 95/300/135
f 92/299/136 88/282/136 96/301/136 98/302/136
f 89/303/137 90/304/137 94/305/137 93/306/137
f 96/307/138 97/308/138 99/309/138 98/302/138
f 93/297/139 92/310/139 98/311/139 99/312/139
f 89/303/140 93/313/140 99/309/140 97/314/140
f 88/315/141 89/316/141 97/317/141 96/318/141
f 102/319/142 100/320/142 101/321/142 103/322/142
f 94/323/143 90/304/143 102/324/143 103/322/143
f 91/281/144 95/325/144 101/321/144 100/326/144
f 95/327/145 94/298/145 103/328/145 101/329/145
f 112/330/146 106/331/146 104/332/146 113/333/146
f 116/334/147 107/335/147 106/336/147 112/337/147
f 113/338/148 104/339/148 105/340/148 117/341/148
f 105/342/149 104/339/149 106/336/149 107/343/149
f 119/344/150 111/345/150 110/346/150 118/347/150
f 118/348/151 110/349/151 108/350/151 114/351/151
f 114/352/152 108/353/152 109/354/152 115/355/152
f 111/356/153 109/357/153 108/350/153 110/358/153
f 118/348/154 114/359/154 113/360/154 117/341/154
f 115/361/155 109/357/155 111/362/155 119/363/155
f 115/361/156 112/364/156 113/360/156
f 114/352/157 115/365/157 113/360/157
f 123/366/158 119/367/158 118/368/158 122/369/158
f 120/370/159 116/371/159 119/372/159 123/373/159
f 117/374/160 105/375/160 107/376/160 116/377/160
f 116/334/161 112/364/161 115/378/161 119/363/161
f 126/379/162 122/380/162 121/381/162 125/382/162
f 124/383/163 120/384/163 123/385/163 127/386/163
f 122/387/164 118/388/164 117/389/164 121/390/164
f 121/391/165 117/392/165 116/393/165 120/394/165
f 1/8/166 126/395/166 125/396/166 17/397/166
f 17/144/167 125/398/167 124/399/167 22/400/167
f 127/401/168 123/402/168 122/403/168 126/404/168
f 125/405/169 121/406/169 120/407/169 124/408/169
f 20/146/170 127/409/170 126/410/170 1/411/170
f 22/125/171 124/412/171 127/413/171 20/414/171
