# Blender v2.82 (sub 7) OBJ File: ''
# www.blender.org
mtllib crystal100.mtl
o Cylinder
v 0.000000 15.160913 -3.760000
v 0.903834 1.801868 0.717729
v 3.760000 15.160913 0.000000
v -0.717729 1.801868 0.903834
v 2.658721 15.160913 2.658721
v -0.000000 15.160913 3.760000
v 2.658721 15.160913 -2.658721
v -0.903834 1.801868 -0.717729
v -2.658722 15.160913 2.658721
v 0.717729 1.801868 -0.903834
v -3.760000 15.160913 -0.000000
v -2.658722 15.160913 -2.658721
v 1.146618 1.801868 -0.131596
v 3.670120 17.483461 0.817202
v 3.173016 17.483461 -2.017318
v 2.017318 17.483461 3.173016
v -0.817202 17.483461 3.670120
v -3.173016 17.483461 2.017318
v -3.670120 17.483461 -0.817203
v -2.017318 17.483461 -3.173016
v 0.817201 17.483461 -3.670120
v -0.000000 19.892483 -0.000000
v 0.131596 1.801868 1.146619
v -1.146619 1.801868 0.131596
v -0.131596 1.801868 -1.146618
vt 1.000000 0.500000
vt 1.000000 1.000000
vt 0.875000 1.000000
vt 0.875000 0.500000
vt 0.750000 1.000000
vt 0.750000 0.500000
vt 0.625000 1.000000
vt 0.625000 0.500000
vt 0.500000 1.000000
vt 0.500000 0.500000
vt 0.375000 1.000000
vt 0.375000 0.500000
vt 0.250000 1.000000
vt 0.250000 0.500000
vt 0.125000 1.000000
vt 0.125000 0.500000
vt 0.000000 1.000000
vt 0.000000 0.500000
vt 0.500000 1.000000
vt 0.375000 1.000000
vt 0.250000 1.000000
vt 0.125000 1.000000
vt 0.875000 1.000000
vt 0.750000 1.000000
vt 0.625000 1.000000
vt 0.000000 1.000000
vt 1.000000 1.000000
vt 0.250000 1.000000
vt 0.500000 1.000000
vt 0.750000 1.000000
vt 0.125000 1.000000
vt 0.375000 1.000000
vt 0.625000 1.000000
vt 0.875000 1.000000
vt 0.000000 1.000000
vt 0.750000 0.490000
vt 0.919706 0.419706
vt 0.990000 0.250000
vt 0.919706 0.080294
vt 0.750000 0.010000
vt 0.580294 0.080294
vt 0.510000 0.250000
vt 0.580294 0.419706
vn 0.6137 -0.2133 -0.7602
vn 0.9715 -0.2133 -0.1035
vn 0.7602 -0.2133 0.6137
vn 0.1035 -0.2133 0.9715
vn -0.6137 -0.2133 0.7602
vn -0.9715 -0.2133 0.1035
vn -0.7602 -0.2133 -0.6137
vn -0.1035 -0.2133 -0.9715
vn -0.7802 0.0000 0.6256
vn -0.6256 0.0000 -0.7802
vn 0.9940 0.0000 0.1093
vn -0.1093 -0.0000 0.9940
vn -0.9940 -0.0000 -0.1093
vn 0.1093 0.0000 -0.9940
vn 0.7802 -0.0000 -0.6256
vn 0.6256 -0.0000 0.7802
vn -0.4665 0.8217 -0.3273
vn -0.3273 0.8217 0.4665
vn 0.4665 0.8217 0.3273
vn -0.0984 0.8217 -0.5613
vn -0.5613 0.8217 0.0984
vn 0.0984 0.8217 0.5613
vn 0.5613 0.8217 -0.0984
vn 0.3273 0.8217 -0.4665
vn 0.0000 -1.0000 0.0000
g Cylinder_Cylinder_Material.002
usemtl Material.002
s off
f 13/1/1 1/2/1 7/3/1 2/4/1
f 2/4/2 7/3/2 3/5/2 23/6/2
f 23/6/3 3/5/3 5/7/3 4/8/3
f 4/8/4 5/7/4 6/9/4 24/10/4
f 24/10/5 6/9/5 9/11/5 8/12/5
f 8/12/6 9/11/6 11/13/6 25/14/6
f 25/14/7 11/13/7 12/15/7 10/16/7
f 10/16/8 12/15/8 1/17/8 13/18/8
f 9/11/9 6/9/9 18/19/9 19/20/9
f 12/15/10 11/13/10 20/21/10 21/22/10
f 3/5/11 7/3/11 14/23/11 16/24/11
f 6/9/12 5/7/12 17/25/12 18/19/12
f 11/13/13 9/11/13 19/20/13 20/21/13
f 1/17/14 12/15/14 21/22/14 15/26/14
f 7/3/15 1/2/15 15/27/15 14/23/15
f 5/7/16 3/5/16 16/24/16 17/25/16
f 20/21/17 19/20/17 22/28/17
f 18/19/18 17/25/18 22/29/18
f 16/24/19 14/23/19 22/30/19
f 21/22/20 20/21/20 22/31/20
f 19/20/21 18/19/21 22/32/21
f 17/25/22 16/24/22 22/33/22
f 14/23/23 15/27/23 22/34/23
f 15/26/24 21/22/24 22/35/24
f 13/36/25 2/37/25 23/38/25 4/39/25 24/40/25 8/41/25 25/42/25 10/43/25
