# Blender v2.82 (sub 7) OBJ File: ''
# www.blender.org
mtllib sword.mtl
o Cube_Cube.002
v -0.020370 25.219337 -1.368946
v -0.027780 25.320200 -11.982307
v 3.632440 26.033693 -13.669205
v 2.194362 25.937935 -1.530106
v -0.000130 26.713079 -1.354765
v -0.007540 26.813940 -11.968124
v -3.670122 26.132586 -13.663166
v -2.215094 25.997646 -1.526459
v -2.700661 25.991148 -0.148821
v 0.000600 26.703156 -0.310383
v 0.010619 26.150192 -21.526791
v 0.010814 26.164539 -21.526653
v -0.024428 26.150667 -21.526760
v -0.059474 26.151142 -21.526730
v -0.059280 26.165487 -21.526592
v -0.024233 26.165012 -21.526623
v -1.927291 26.357746 1.607121
v 0.001039 26.697178 0.318501
v 2.681854 25.918257 -0.153273
v -0.019640 25.209414 -0.324564
v 1.910933 25.518341 1.596463
v 1.921600 26.305626 1.603938
v 1.401216 26.186836 3.645130
v 1.393432 25.612417 3.639677
v -0.019201 25.203438 0.304319
v -1.937959 25.570465 1.599647
v -0.014394 25.354801 3.638211
v 0.000886 26.482481 3.648917
v -1.414724 25.650446 3.641998
v -1.406941 26.224865 3.647451
vt 0.472151 0.690996
vt 0.472411 0.605048
vt 0.521330 0.605178
vt 0.521070 0.691126
vt 0.472151 0.690996
vt 0.472411 0.605048
vt 0.521330 0.605178
vt 0.521070 0.691126
vt 0.521070 0.691126
vt 0.472151 0.690996
vt 0.625000 0.500000
vt 0.625000 0.500000
vt 0.625000 0.750000
vt 0.750000 0.500000
vt 0.875000 0.500000
vt 0.875000 0.750000
vt 0.750000 0.750000
vt 0.625000 0.000000
vt 0.625000 0.000000
vt 0.625000 0.250000
vt 0.423492 0.604918
vt 0.423492 0.604918
vt 0.472411 0.605048
vt 0.423492 0.604918
vt 0.423492 0.604918
vt 0.472411 0.605048
vt 0.521070 0.691126
vt 0.472151 0.690996
vt 0.521070 0.691126
vt 0.472151 0.690996
vt 0.393745 0.617625
vt 0.385406 0.681128
vt 0.385406 0.681128
vt 0.393745 0.617625
vt 0.521070 0.691126
vt 0.472151 0.690996
vt 0.385406 0.681128
vt 0.402085 0.554120
vt 0.402085 0.554120
vt 0.410425 0.490617
vt 0.250000 0.500000
vt 0.375000 0.500000
vt 0.375000 0.750000
vt 0.250000 0.750000
vt 0.402085 0.554120
vt 0.410425 0.490617
vt 0.521070 0.691126
vt 0.472151 0.690996
vt 0.521070 0.691126
vt 0.472151 0.690996
vt 0.423232 0.690866
vt 0.423232 0.690866
vt 0.423232 0.690866
vt 0.423232 0.690866
vt 0.125000 0.500000
vt 0.125000 0.750000
vt 0.423232 0.690866
vt 0.423232 0.690866
vt 0.423232 0.690866
vt 0.521330 0.605178
vt 0.521330 0.605178
vt 0.423232 0.690866
vn 0.2388 -0.9710 0.0066
vn -0.2388 0.9707 0.0254
vn -0.2784 0.9592 -0.0492
vn 0.9081 -0.0083 -0.4187
vn -0.0007 0.0096 -1.0000
vn -0.0008 0.0096 -1.0000
vn -0.9087 0.0163 -0.4171
vn 0.1779 0.9818 -0.0664
vn -0.1780 -0.9804 -0.0848
vn -0.2412 0.9681 -0.0681
vn 0.2783 -0.9581 -0.0678
vn 0.9691 -0.0155 0.2462
vn 0.2411 -0.9666 -0.0868
vn 0.9164 -0.0162 0.4000
vn -0.9158 0.0086 0.4015
vn 0.0007 -0.0095 1.0000
vn -0.9688 0.0108 0.2478
vn -0.1464 0.9861 0.0780
vn 0.1465 -0.9874 0.0590
vn -0.1731 -0.9831 0.0593
vn 0.1732 0.9818 0.0777
vn -0.2673 -0.9597 -0.0864
vn -0.3043 -0.9502 -0.0674
vn 0.2672 0.9612 -0.0685
vn 0.1512 -0.9848 -0.0850
vn -0.1513 0.9863 -0.0661
vn 0.3042 0.9513 -0.0497
vn 0.2650 0.9639 0.0250
vn -0.2650 -0.9642 0.0070
g Cube_Cube.002_Cube_Cube.002_swordMaterial
usemtl swordMaterial
s 1
f 1/1/1 2/2/1 3/3/1 4/4/1
f 5/5/2 6/6/2 7/7/2 8/8/2
f 5/5/3 8/8/3 9/9/3 10/10/3
f 3/11/4 11/12/4 12/13/4
f 13/14/5 14/15/6 15/16/6 16/17/5
f 7/18/7 15/19/7 14/20/7
f 6/6/8 3/21/8 12/22/8 16/23/8
f 2/2/9 7/24/9 14/25/9 13/26/9
f 10/10/10 9/9/10 17/27/10 18/28/10
f 1/1/11 4/4/11 19/29/11 20/30/11
f 21/31/12 22/32/12 23/33/12 24/34/12
f 20/30/13 19/29/13 21/35/13 25/36/13
f 19/37/14 22/32/14 21/31/14
f 9/38/15 26/39/15 17/40/15
f 27/41/16 24/42/16 23/43/16 28/44/16
f 17/40/17 26/39/17 29/45/17 30/46/17
f 18/28/18 17/27/18 30/47/18 28/48/18
f 25/36/19 21/35/19 24/49/19 27/50/19
f 26/51/20 25/36/20 27/50/20 29/52/20
f 22/53/21 18/28/21 28/48/21 23/54/21
f 29/55/16 27/41/16 28/44/16 30/56/16
f 9/57/22 20/30/22 25/36/22 26/51/22
f 8/58/23 1/1/23 20/30/23 9/57/23
f 19/59/24 10/10/24 18/28/24 22/53/24
f 3/3/25 2/2/25 13/26/25 11/60/25
f 7/7/26 6/6/26 16/23/26 15/61/26
f 11/12/5 13/14/5 16/17/5 12/13/5
f 4/62/27 5/5/27 10/10/27 19/59/27
f 4/62/28 3/21/28 6/6/28 5/5/28
f 8/58/29 7/24/29 2/2/29 1/1/29
o Cylinder.002
v -0.014645 25.273958 11.398343
v -0.007597 25.329575 5.529968
v 0.442121 25.610260 5.532321
v 0.435073 25.554642 11.400696
v 0.449891 26.183710 5.537766
v 0.442843 26.128094 11.406140
v 0.007943 26.476469 5.540856
v 0.000895 26.420851 11.409231
v -0.441775 26.195786 5.538503
v -0.448823 26.140169 11.406878
v -0.449545 25.622334 5.533059
v -0.456593 25.566715 11.401434
v 0.009694 27.019335 12.247892
v 0.918995 26.416988 12.241533
v 0.000500 26.286610 13.129786
v 0.351595 26.054028 13.127330
v -0.022280 24.659645 12.225490
v -0.931572 25.261992 12.231849
v -0.915585 26.441832 12.243051
v 0.903008 25.237146 12.230332
v -0.011845 25.375486 13.121136
v 0.345422 25.598465 13.123005
v -0.356769 26.063622 13.127916
v -0.362941 25.608059 13.123591
v 0.007486 26.482693 4.885885
v 2.654489 26.221216 2.975262
v 3.249549 26.116718 1.668254
v 0.006510 26.493093 3.535700
v 2.645255 25.539770 2.968792
v -0.008055 25.335798 4.874997
v -2.658017 25.611588 2.973177
v -3.254901 25.740887 1.669223
v -0.009030 25.346189 3.524811
v 3.243264 25.652889 1.663850
v -2.648783 26.293034 2.979647
v -3.248616 26.204716 1.673627
vt 0.463242 0.154814
vt 0.463251 0.078928
vt 0.466133 0.078951
vt 0.466124 0.154837
vt 0.469014 0.078974
vt 0.469005 0.154860
vt 0.471896 0.078997
vt 0.471887 0.154883
vt 0.474778 0.079020
vt 0.474769 0.154906
vt 0.477659 0.079043
vt 0.477650 0.154930
vt 0.480541 0.079066
vt 0.480532 0.154953
vt 0.475514 0.302747
vt 0.472918 0.302747
vt 0.472918 0.302747
vt 0.475514 0.302747
vt 0.472918 0.302747
vt 0.475514 0.302747
vt 0.467728 0.302747
vt 0.465132 0.302747
vt 0.465132 0.302747
vt 0.467728 0.302747
vt 0.470323 0.302747
vt 0.470323 0.302747
vt 0.478109 0.302747
vt 0.478109 0.302747
vt 0.480705 0.302747
vt 0.480705 0.302747
vt 0.476811 0.302591
vt 0.480048 0.300723
vt 0.480048 0.296985
vt 0.476811 0.295116
vt 0.473575 0.296985
vt 0.473575 0.300723
vt 0.478109 0.302747
vt 0.480705 0.302747
vt 0.465132 0.302747
vt 0.467728 0.302747
vt 0.470323 0.302747
vt 0.484791 0.317210
vt 0.489488 0.311235
vt 0.489488 0.311235
vt 0.484791 0.317210
vt 0.494185 0.305259
vt 0.498882 0.299284
vt 0.475397 0.329161
vt 0.475397 0.329161
vt 0.470700 0.335137
vt 0.494185 0.305259
vt 0.480094 0.323186
vt 0.480094 0.323186
vt 0.480094 0.323186
vt 0.484791 0.317210
vt 0.489488 0.311235
vt 0.494185 0.305259
vt 0.475397 0.329161
vt 0.498882 0.299284
vt 0.470700 0.335137
vt 0.470700 0.335137
vn 0.5295 -0.8483 -0.0074
vn 0.9999 -0.0136 0.0011
vn 0.5523 0.8336 0.0086
vn -0.5295 0.8483 0.0074
vn -0.9999 0.0136 -0.0011
vn -0.5523 -0.8336 -0.0086
vn 0.4706 0.7159 -0.5158
vn 0.4559 0.6822 0.5716
vn -0.4713 -0.7060 -0.5286
vn -0.4519 0.7284 -0.5150
vn 0.8698 -0.0071 -0.4933
vn -0.8705 0.0165 -0.4919
vn 0.4512 -0.7184 -0.5294
vn 0.0007 -0.0095 1.0000
vn 0.4371 -0.7051 0.5584
vn -0.4551 -0.6930 0.5591
vn -0.4363 0.6943 0.5723
vn 0.8450 -0.0165 0.5345
vn -0.8443 0.0064 0.5359
vn 0.0994 0.9950 -0.0130
vn -0.0136 -0.9994 -0.0316
vn 0.9095 -0.0163 0.4154
vn -0.0724 0.9973 -0.0129
vn 0.4964 0.0015 -0.8681
vn -0.2771 0.9352 0.2204
vn 0.7581 -0.0165 0.6520
vn -0.7572 0.0041 0.6532
vn 0.2729 -0.9398 0.2055
vn 0.3027 0.9274 0.2199
vn -0.2979 -0.9321 0.2060
vn -0.4977 0.0150 -0.8672
vn -0.9089 0.0084 0.4169
g Cylinder.002_Cylinder.002_swordMaterial
usemtl swordMaterial
s 1
f 31/63/30 32/64/30 33/65/30 34/66/30
f 34/66/31 33/65/31 35/67/31 36/68/31
f 36/68/32 35/67/32 37/69/32 38/70/32
f 38/70/33 37/69/33 39/71/33 40/72/33
f 40/72/34 39/71/34 41/73/34 42/74/34
f 42/74/35 41/73/35 32/75/35 31/76/35
f 36/77/36 38/78/36 43/79/36 44/80/36
f 44/80/37 43/79/37 45/81/37 46/82/37
f 42/83/38 31/84/38 47/85/38 48/86/38
f 38/78/39 40/87/39 49/88/39 43/79/39
f 34/89/40 36/77/40 44/80/40 50/90/40
f 40/87/41 42/83/41 48/86/41 49/88/41
f 31/91/42 34/89/42 50/90/42 47/92/42
f 51/93/43 52/94/43 46/95/43 45/96/43 53/97/43 54/98/43
f 47/92/44 50/90/44 52/99/44 51/100/44
f 48/86/45 47/85/45 51/101/45 54/102/45
f 43/79/46 49/88/46 53/103/46 45/81/46
f 50/90/47 44/80/47 46/82/47 52/99/47
f 49/88/48 48/86/48 54/102/48 53/103/48
f 55/104/49 56/105/49 57/106/49 58/107/49
f 59/108/50 60/109/50 61/110/50 62/111/50 63/112/50 64/113/50
f 56/105/51 59/108/51 64/113/51 57/106/51
f 65/114/52 55/104/52 58/107/52 66/115/52
f 66/115/53 58/107/53 63/112/53 62/111/53
f 39/116/54 37/117/54 55/104/54 65/114/54
f 35/118/55 33/119/55 59/108/55 56/105/55
f 41/120/56 39/116/56 65/114/56 61/110/56
f 33/119/57 32/121/57 60/109/57 59/108/57
f 37/117/58 35/118/58 56/105/58 55/104/58
f 32/122/59 41/120/59 61/110/59 60/123/59
f 64/113/60 63/112/60 58/107/60 57/106/60
f 62/111/61 61/110/61 65/114/61 66/115/61
