# Blender v2.82 (sub 7) OBJ File: ''
# www.blender.org
mtllib Stonehenge.mtl
o Cube.014_Cube.001
v -18.551357 5.509260 -11.455832
v -16.701935 12.113107 -5.625578
v -15.363156 13.316269 -8.863997
v -16.392204 8.430934 -14.526762
v 32.864548 3.477366 -5.804862
v 30.735889 6.484307 -9.326204
v 29.657558 12.814949 -3.634748
v 30.622604 11.082827 -0.071883
v -15.292039 -3.657469 -13.413903
v -15.835477 1.478409 -7.967583
v -15.521106 -2.378455 -16.910107
v 30.279625 -5.213511 -8.188248
v 31.287102 -3.023473 -11.929366
v 30.715511 0.879009 -2.516824
v -3.517622 -4.842392 -12.308929
v 18.847744 -5.442492 -9.786638
v 18.418747 -0.098233 -3.315218
v -3.454662 0.120319 -5.754407
v 18.808464 -0.089601 -16.538933
v -3.344199 0.756271 -18.814116
v -3.869674 8.513763 -14.141981
v 18.519535 7.746871 -11.264538
v 30.068035 -0.378031 -14.294188
v -14.968886 1.130034 -19.568623
v 18.211208 14.210798 -4.991466
v -3.878869 13.859904 -7.350348
v -4.156160 13.199431 -2.585294
v 18.017704 11.902974 -0.284705
v -3.320349 -4.028963 -17.057190
v 18.924591 -4.374353 -14.325359
v -16.157043 9.502909 -2.756037
v 29.450237 6.767272 2.172078
v 18.031727 7.414363 1.674654
v -4.164056 8.835800 -0.829145
vt 0.976045 0.614378
vt 0.981142 0.614742
vt 0.981573 0.614047
vt 0.981040 0.613124
vt 0.990478 0.615019
vt 0.986174 0.613455
vt 0.985276 0.614046
vt 0.985143 0.614630
vt 0.979478 0.616934
vt 0.980265 0.616107
vt 0.976513 0.618124
vt 0.985936 0.617524
vt 0.990447 0.618418
vt 0.985467 0.616214
vt 0.980628 0.617498
vt 0.984091 0.617838
vt 0.983650 0.616500
vt 0.981356 0.616364
vt 0.985763 0.611980
vt 0.982442 0.611561
vt 0.982814 0.612967
vt 0.985049 0.613196
vt 0.986897 0.612474
vt 0.980415 0.611750
vt 0.976045 0.610702
vt 0.989953 0.611482
vt 0.984547 0.613980
vt 0.982724 0.613975
vt 0.982318 0.614751
vt 0.984048 0.614754
vt 0.979522 0.619849
vt 0.986617 0.619808
vt 0.981085 0.615413
vt 0.984627 0.615399
vt 0.983646 0.615517
vt 0.981936 0.615462
vt 0.987003 0.609645
vt 0.979889 0.609457
vn -0.8795 0.4281 -0.2077
vn 0.9204 0.3544 -0.1649
vn -0.9269 -0.3553 0.1207
vn 0.9250 -0.3278 0.1921
vn -0.0837 -0.7826 0.6169
vn -0.1664 -0.7577 0.6310
vn 0.1160 0.5384 -0.8346
vn 0.1811 0.5591 -0.8091
vn -0.0322 -0.7276 0.6853
vn 0.0461 0.5457 -0.8367
vn -0.9111 0.0174 -0.4117
vn 0.9153 0.1549 -0.3718
vn -0.0110 0.9543 0.2985
vn 0.0545 0.8992 0.4342
vn 0.0026 -0.9801 -0.1985
vn 0.1204 -0.9290 -0.3498
vn -0.1049 0.9730 0.2054
vn -0.1043 -0.9641 -0.2443
vn -0.9342 -0.1477 0.3249
vn 0.9008 -0.0934 0.4241
vn -0.1142 -0.5236 0.8443
vn -0.1849 -0.5174 0.8356
vn -0.0759 0.3859 0.9194
vn -0.0004 0.4309 0.9024
vn 0.0854 0.7401 -0.6670
vn 0.1755 0.6825 -0.7095
vn 0.0922 -0.3981 -0.9127
vn 0.1874 -0.5161 -0.8358
vn -0.0360 -0.5880 0.8080
vn -0.1764 0.5346 0.8265
vn 0.0302 0.7711 -0.6360
vn -0.0173 -0.4690 -0.8830
g Cube.014_Cube.001_Cube.014_Cube.001_Material.007
usemtl Material.007
s 1
f 1/1/1 2/2/1 3/3/1 4/4/1
f 5/5/2 6/6/2 7/7/2 8/8/2
f 9/9/3 10/10/3 1/1/3 11/11/3
f 12/12/4 13/13/4 5/5/4 14/14/4
f 15/15/5 16/16/5 17/17/5 18/18/5
f 9/9/6 15/15/6 18/18/6 10/10/6
f 19/19/7 20/20/7 21/21/7 22/22/7
f 23/23/8 19/19/8 22/22/8 6/6/8
f 16/16/9 12/12/9 14/14/9 17/17/9
f 20/20/10 24/24/10 4/4/10 21/21/10
f 11/25/11 1/1/11 4/4/11 24/24/11
f 13/26/12 23/23/12 6/6/12 5/5/12
f 25/27/13 26/28/13 27/29/13 28/30/13
f 7/7/14 25/27/14 28/30/14 8/8/14
f 16/16/15 15/15/15 29/31/15 30/32/15
f 12/12/16 16/16/16 30/32/16 13/13/16
f 26/28/17 3/3/17 2/2/17 27/29/17
f 15/15/18 9/9/18 11/11/18 29/31/18
f 10/10/19 31/33/19 2/2/19 1/1/19
f 14/14/20 5/5/20 8/8/20 32/34/20
f 18/18/21 17/17/21 33/35/21 34/36/21
f 10/10/22 18/18/22 34/36/22 31/33/22
f 28/30/23 27/29/23 34/36/23 33/35/23
f 8/8/24 28/30/24 33/35/24 32/34/24
f 22/22/25 21/21/25 26/28/25 25/27/25
f 6/6/26 22/22/26 25/27/26 7/7/26
f 30/37/27 29/38/27 20/20/27 19/19/27
f 13/26/28 30/37/28 19/19/28 23/23/28
f 17/17/29 14/14/29 32/34/29 33/35/29
f 27/29/30 2/2/30 31/33/30 34/36/30
f 21/21/31 4/4/31 3/3/31 26/28/31
f 29/38/32 11/25/32 24/24/32 20/20/32
o Cube.007_Cube.001
v 33.662312 2.610177 14.056941
v 29.970480 -3.982637 19.193823
v 29.388166 -5.168716 15.702965
v 32.119186 -0.286335 10.506699
v -27.228539 5.649932 5.217477
v -23.701313 2.584511 2.424171
v -23.986155 -3.790511 8.239332
v -26.161112 -2.028221 11.401067
v 30.301550 11.880199 11.225779
v 29.448973 6.715539 16.651073
v 31.600994 10.587389 7.922079
v -23.726233 14.328629 3.601379
v -23.762880 12.144224 -0.278377
v -25.753765 8.222048 8.975638
v 16.398438 13.299060 9.016180
v -10.101629 14.336324 5.234162
v -11.378629 8.965547 11.617336
v 14.523578 8.321176 15.341319
v -8.001755 8.951263 -1.246686
v 18.186495 7.671447 2.715603
v 17.586771 -0.127346 7.399700
v -9.046655 1.078291 3.952971
v -21.624674 9.460684 -2.210211
v 31.800426 7.070731 5.218401
v -10.384078 -5.415186 10.115817
v 15.733671 -5.491590 13.975151
v 14.662038 -4.828689 18.645958
v -11.566498 -3.095773 14.700465
v 17.560265 12.480969 4.384418
v -8.856904 13.260231 0.839007
v 28.463398 -1.347022 21.799931
v -25.541632 2.286838 13.873864
v -12.234365 1.415769 16.568480
v 14.080568 -0.443329 20.324543
vt 0.976045 0.614378
vt 0.981142 0.614742
vt 0.981573 0.614047
vt 0.981040 0.613124
vt 0.990478 0.615019
vt 0.986174 0.613455
vt 0.985276 0.614046
vt 0.985143 0.614630
vt 0.979478 0.616934
vt 0.980265 0.616107
vt 0.976513 0.618124
vt 0.985936 0.617524
vt 0.990447 0.618418
vt 0.985467 0.616214
vt 0.980628 0.617498
vt 0.984091 0.617838
vt 0.983650 0.616500
vt 0.981356 0.616364
vt 0.985763 0.611980
vt 0.982442 0.611561
vt 0.982814 0.612967
vt 0.985049 0.613196
vt 0.986897 0.612474
vt 0.980415 0.611750
vt 0.976045 0.610702
vt 0.989953 0.611482
vt 0.984547 0.613980
vt 0.982724 0.613975
vt 0.982318 0.614751
vt 0.984048 0.614754
vt 0.979522 0.619849
vt 0.986617 0.619808
vt 0.981085 0.615413
vt 0.984627 0.615399
vt 0.983646 0.615517
vt 0.981936 0.615462
vt 0.987003 0.609645
vt 0.979889 0.609457
vn 0.8775 -0.4794 0.0131
vn -0.8014 -0.4136 -0.4321
vn 0.8224 0.4165 0.3875
vn -0.9293 0.3667 -0.0445
vn -0.0638 0.7815 0.6206
vn -0.0003 0.7570 0.6534
vn 0.0922 -0.5381 -0.8378
vn 0.0331 -0.5593 -0.8283
vn -0.1226 0.7272 0.6754
vn 0.1496 -0.5454 -0.8247
vn 0.9782 -0.0027 -0.2074
vn -0.7349 -0.1889 -0.6513
vn -0.0761 -0.9543 0.2890
vn -0.1603 -0.9002 0.4049
vn 0.0599 0.9800 -0.1897
vn -0.0013 0.9303 -0.3668
vn 0.0219 -0.9748 0.2221
vn 0.1572 0.9654 -0.2080
vn 0.7705 0.1827 0.6107
vn -0.9701 0.0917 0.2247
vn -0.0962 0.5233 0.8467
vn -0.0369 0.5178 0.8547
vn -0.1596 -0.3848 0.9091
vn -0.2180 -0.4317 0.8753
vn 0.0747 -0.7392 -0.6694
vn 0.0125 -0.6821 -0.7311
vn 0.1449 0.3968 -0.9064
vn 0.0515 0.5140 -0.8562
vn -0.1505 0.5878 0.7949
vn -0.0586 -0.5327 0.8443
vn 0.1121 -0.7707 -0.6272
vn 0.2286 0.4703 -0.8524
g Cube.007_Cube.001_Cube.007_Cube.001_Material.007
usemtl Material.007
s 1
f 35/39/33 36/40/33 37/41/33 38/42/33
f 39/43/34 40/44/34 41/45/34 42/46/34
f 43/47/35 44/48/35 35/39/35 45/49/35
f 46/50/36 47/51/36 39/43/36 48/52/36
f 49/53/37 50/54/37 51/55/37 52/56/37
f 43/47/38 49/53/38 52/56/38 44/48/38
f 53/57/39 54/58/39 55/59/39 56/60/39
f 57/61/40 53/57/40 56/60/40 40/44/40
f 50/54/41 46/50/41 48/52/41 51/55/41
f 54/58/42 58/62/42 38/42/42 55/59/42
f 45/63/43 35/39/43 38/42/43 58/62/43
f 47/64/44 57/61/44 40/44/44 39/43/44
f 59/65/45 60/66/45 61/67/45 62/68/45
f 41/45/46 59/65/46 62/68/46 42/46/46
f 50/54/47 49/53/47 63/69/47 64/70/47
f 46/50/48 50/54/48 64/70/48 47/51/48
f 60/66/49 37/41/49 36/40/49 61/67/49
f 49/53/50 43/47/50 45/49/50 63/69/50
f 44/48/51 65/71/51 36/40/51 35/39/51
f 48/52/52 39/43/52 42/46/52 66/72/52
f 52/56/53 51/55/53 67/73/53 68/74/53
f 44/48/54 52/56/54 68/74/54 65/71/54
f 62/68/55 61/67/55 68/74/55 67/73/55
f 42/46/56 62/68/56 67/73/56 66/72/56
f 56/60/57 55/59/57 60/66/57 59/65/57
f 40/44/58 56/60/58 59/65/58 41/45/58
f 64/75/59 63/76/59 54/58/59 53/57/59
f 47/64/60 64/75/60 53/57/60 57/61/60
f 51/55/61 48/52/61 66/72/61 67/73/61
f 61/67/62 36/40/62 65/71/62 68/74/62
f 55/59/63 38/42/63 37/41/63 60/66/63
f 63/76/64 45/63/64 58/62/64 54/58/64
o Cube.015_Cube.001
v 2.090420 -6.097573 -28.556625
v 0.890974 -2.290219 -32.805016
v 5.296685 -1.087020 -32.400482
v 7.638031 -3.723500 -28.879242
v 0.456123 35.758560 -10.727322
v 6.058094 34.619637 -12.492924
v 4.482275 35.946259 -17.570604
v -0.383818 36.499241 -16.940765
v -2.030476 -6.178710 -21.833553
v -4.141670 -4.771951 -25.998880
v 2.524656 -6.254048 -21.964064
v -3.531993 31.004993 -6.212234
v 2.068176 32.181618 -6.386633
v -5.087496 33.500237 -10.627265
v -2.719676 3.188430 -17.304363
v -3.295491 21.480633 -9.722745
v -6.320796 23.113878 -14.165546
v -6.049406 5.121368 -21.376072
v 7.603473 22.483664 -11.476394
v 8.119113 4.452926 -19.172237
v 8.692456 6.563523 -24.673780
v 7.627687 24.853374 -17.057722
v 6.300435 31.766668 -7.856001
v 7.878649 -4.997079 -23.255795
v 5.622735 26.889105 -22.057770
v 5.379423 8.563479 -29.034569
v -0.122321 8.491935 -29.676693
v -0.983691 26.413811 -21.721958
v 2.864625 3.239234 -16.780205
v 2.237210 21.520439 -9.425741
v -3.921026 -2.380017 -31.686352
v -5.947895 34.476250 -15.323690
v -6.240069 25.290924 -19.541346
v -5.078772 7.372024 -27.535463
vt 0.976045 0.614378
vt 0.981142 0.614742
vt 0.981573 0.614047
vt 0.981040 0.613124
vt 0.990478 0.615019
vt 0.986174 0.613455
vt 0.985276 0.614046
vt 0.985143 0.614630
vt 0.979478 0.616934
vt 0.980265 0.616107
vt 0.976513 0.618124
vt 0.985936 0.617524
vt 0.990447 0.618418
vt 0.985467 0.616214
vt 0.980628 0.617498
vt 0.984091 0.617838
vt 0.983650 0.616500
vt 0.981356 0.616364
vt 0.985763 0.611980
vt 0.982442 0.611561
vt 0.982814 0.612967
vt 0.985049 0.613196
vt 0.986897 0.612474
vt 0.980415 0.611750
vt 0.976045 0.610702
vt 0.989953 0.611482
vt 0.984547 0.613980
vt 0.982724 0.613975
vt 0.982318 0.614751
vt 0.984048 0.614754
vt 0.979522 0.619849
vt 0.986617 0.619808
vt 0.981085 0.615413
vt 0.984627 0.615399
vt 0.983646 0.615517
vt 0.981936 0.615462
vt 0.987003 0.609645
vt 0.979889 0.609457
vn 0.2519 -0.6854 -0.6832
vn 0.1887 0.9723 0.1377
vn -0.1541 -0.9823 -0.1063
vn -0.2200 0.7625 0.6084
vn -0.8236 -0.2305 0.5182
vn -0.8453 -0.3180 0.4294
vn 0.9980 0.0177 0.0610
vn 0.9905 0.1299 0.0453
vn -0.9023 -0.1030 0.4186
vn 0.9976 -0.0691 0.0088
vn 0.2964 -0.9465 -0.1272
vn 0.2965 0.8044 0.5149
vn 0.0062 0.3810 -0.9246
vn -0.0727 0.4330 -0.8985
vn -0.0651 -0.3791 0.9231
vn 0.0232 -0.3081 0.9511
vn 0.0612 0.3049 -0.9504
vn -0.0356 -0.4581 0.8882
vn -0.2572 -0.8310 -0.4932
vn -0.3261 0.9247 0.1963
vn -0.9958 -0.0011 -0.0912
vn -0.9863 -0.0933 -0.1357
vn -0.4291 0.3469 -0.8340
vn -0.4051 0.4022 -0.8211
vn 0.8866 0.1883 -0.4225
vn 0.9351 0.2537 -0.2476
vn 0.4212 -0.3359 0.8424
vn 0.3449 -0.2743 0.8977
vn -0.9951 0.0418 0.0901
vn -0.3350 0.2832 -0.8987
vn 0.8428 0.1484 -0.5173
vn 0.3832 -0.4153 0.8250
g Cube.015_Cube.001_Cube.015_Cube.001_Material.007
usemtl Material.007
s 1
f 69/77/65 70/78/65 71/79/65 72/80/65
f 73/81/66 74/82/66 75/83/66 76/84/66
f 77/85/67 78/86/67 69/77/67 79/87/67
f 80/88/68 81/89/68 73/81/68 82/90/68
f 83/91/69 84/92/69 85/93/69 86/94/69
f 77/85/70 83/91/70 86/94/70 78/86/70
f 87/95/71 88/96/71 89/97/71 90/98/71
f 91/99/72 87/95/72 90/98/72 74/82/72
f 84/92/73 80/88/73 82/90/73 85/93/73
f 88/96/74 92/100/74 72/80/74 89/97/74
f 79/101/75 69/77/75 72/80/75 92/100/75
f 81/102/76 91/99/76 74/82/76 73/81/76
f 93/103/77 94/104/77 95/105/77 96/106/77
f 75/83/78 93/103/78 96/106/78 76/84/78
f 84/92/79 83/91/79 97/107/79 98/108/79
f 80/88/80 84/92/80 98/108/80 81/89/80
f 94/104/81 71/79/81 70/78/81 95/105/81
f 83/91/82 77/85/82 79/87/82 97/107/82
f 78/86/83 99/109/83 70/78/83 69/77/83
f 82/90/84 73/81/84 76/84/84 100/110/84
f 86/94/85 85/93/85 101/111/85 102/112/85
f 78/86/86 86/94/86 102/112/86 99/109/86
f 96/106/87 95/105/87 102/112/87 101/111/87
f 76/84/88 96/106/88 101/111/88 100/110/88
f 90/98/89 89/97/89 94/104/89 93/103/89
f 74/82/90 90/98/90 93/103/90 75/83/90
f 98/113/91 97/114/91 88/96/91 87/95/91
f 81/102/92 98/113/92 87/95/92 91/99/92
f 85/93/93 82/90/93 100/110/93 101/111/93
f 95/105/94 70/78/94 99/109/94 102/112/94
f 89/97/95 72/80/95 71/79/95 94/104/95
f 97/114/96 79/101/96 92/100/96 88/96/96
o Cube.018_Cube.001
v -0.361600 36.046371 12.118053
v -1.561046 36.358231 17.814325
v 2.844663 35.221390 18.379070
v 5.186009 34.595772 14.024902
v -1.995905 -6.157613 29.107590
v 3.606066 -4.103804 29.550718
v 2.030246 -1.451407 34.079247
v -2.835846 -2.287786 34.024902
v -4.482495 31.349812 7.306752
v -6.593690 33.300415 11.246812
v 0.072635 31.495369 7.345766
v -5.984020 -5.988982 22.553661
v -0.383852 -6.697661 23.508978
v -7.539523 -4.631485 27.439962
v -5.171699 21.523623 10.727699
v -5.747517 3.228064 18.301228
v -8.772821 5.214721 22.597641
v -8.501427 23.035961 14.973626
v 5.151446 3.758830 20.250494
v 5.667090 21.950274 12.942619
v 6.240432 24.348034 18.325218
v 5.175659 6.029787 25.872728
v 3.848407 -5.365249 24.254566
v 5.426628 31.519949 9.147966
v 3.170708 8.125880 30.847775
v 2.927399 26.017395 22.822943
v -2.574344 26.522032 23.226402
v -3.435717 8.224506 30.274237
v 0.412602 21.117064 10.392987
v -0.214816 2.989903 18.119362
v -6.373045 35.630714 16.959814
v -8.399921 -2.000758 31.450985
v -8.692094 7.476582 27.938309
v -7.530793 25.799856 20.920427
vt 0.976045 0.614378
vt 0.981142 0.614742
vt 0.981573 0.614047
vt 0.981040 0.613124
vt 0.990478 0.615019
vt 0.986174 0.613455
vt 0.985276 0.614046
vt 0.985143 0.614630
vt 0.979478 0.616934
vt 0.980265 0.616107
vt 0.976513 0.618124
vt 0.985936 0.617524
vt 0.990447 0.618418
vt 0.985467 0.616214
vt 0.980628 0.617498
vt 0.984091 0.617838
vt 0.983650 0.616500
vt 0.981356 0.616364
vt 0.985763 0.611980
vt 0.982442 0.611561
vt 0.982814 0.612967
vt 0.985049 0.613196
vt 0.986897 0.612474
vt 0.980415 0.611750
vt 0.976045 0.610702
vt 0.989953 0.611482
vt 0.984547 0.613980
vt 0.982724 0.613975
vt 0.982318 0.614751
vt 0.984048 0.614754
vt 0.979522 0.619849
vt 0.986617 0.619808
vt 0.981085 0.615413
vt 0.984627 0.615399
vt 0.983646 0.615517
vt 0.981936 0.615462
vt 0.987003 0.609645
vt 0.979889 0.609457
vn 0.2519 0.9677 -0.0015
vn 0.1887 -0.7849 0.5902
vn -0.1541 0.7698 -0.6195
vn -0.2200 -0.9694 0.1090
vn -0.8236 -0.2034 -0.5294
vn -0.8453 -0.0788 -0.5285
vn 0.9980 -0.0556 -0.0306
vn 0.9905 -0.1239 0.0599
vn -0.9023 -0.2232 -0.3688
vn 0.9976 0.0427 -0.0551
vn 0.2964 0.7592 -0.5794
vn 0.2965 -0.9328 0.2047
vn 0.0062 0.3844 0.9232
vn -0.0727 0.3292 0.9415
vn -0.0651 -0.3846 -0.9208
vn 0.0232 -0.4546 -0.8904
vn 0.0612 0.4565 0.8876
vn -0.0356 -0.3041 -0.9520
vn -0.2572 0.9364 -0.2389
vn -0.3261 -0.7927 0.5151
vn -0.9958 0.0653 0.0637
vn -0.9863 0.1619 0.0300
vn -0.4291 0.3444 0.8350
vn -0.4051 0.2962 0.8650
vn 0.8866 0.1656 0.4319
vn 0.9351 -0.0043 0.3545
vn 0.4212 -0.3582 -0.8332
vn 0.3449 -0.4408 -0.8287
vn -0.9951 -0.0933 -0.0341
vn -0.3350 0.4352 0.8357
vn 0.8428 0.2609 0.4707
vn 0.3832 -0.2897 -0.8771
g Cube.018_Cube.001_Cube.018_Cube.001_Material.007
usemtl Material.007
s 1
f 103/115/97 104/116/97 105/117/97 106/118/97
f 107/119/98 108/120/98 109/121/98 110/122/98
f 111/123/99 112/124/99 103/115/99 113/125/99
f 114/126/100 115/127/100 107/119/100 116/128/100
f 117/129/101 118/130/101 119/131/101 120/132/101
f 111/123/102 117/129/102 120/132/102 112/124/102
f 121/133/103 122/134/103 123/135/103 124/136/103
f 125/137/104 121/133/104 124/136/104 108/120/104
f 118/130/105 114/126/105 116/128/105 119/131/105
f 122/134/106 126/138/106 106/118/106 123/135/106
f 113/139/107 103/115/107 106/118/107 126/138/107
f 115/140/108 125/137/108 108/120/108 107/119/108
f 127/141/109 128/142/109 129/143/109 130/144/109
f 109/121/110 127/141/110 130/144/110 110/122/110
f 118/130/111 117/129/111 131/145/111 132/146/111
f 114/126/112 118/130/112 132/146/112 115/127/112
f 128/142/113 105/117/113 104/116/113 129/143/113
f 117/129/114 111/123/114 113/125/114 131/145/114
f 112/124/115 133/147/115 104/116/115 103/115/115
f 116/128/116 107/119/116 110/122/116 134/148/116
f 120/132/117 119/131/117 135/149/117 136/150/117
f 112/124/118 120/132/118 136/150/118 133/147/118
f 130/144/119 129/143/119 136/150/119 135/149/119
f 110/122/120 130/144/120 135/149/120 134/148/120
f 124/136/121 123/135/121 128/142/121 127/141/121
f 108/120/122 124/136/122 127/141/122 109/121/122
f 132/151/123 131/152/123 122/134/123 121/133/123
f 115/140/124 132/151/124 121/133/124 125/137/124
f 119/131/125 116/128/125 134/148/125 135/149/125
f 129/143/126 104/116/126 133/147/126 136/150/126
f 123/135/127 106/118/127 105/117/127 128/142/127
f 131/152/128 113/139/128 126/138/128 122/134/128
